<svg width="40" height="41" viewBox="0 0 40 41" fill="none" xmlns="http://www.w3.org/2000/svg">
<g id="fireworks-white-gradient">
<g id="Vector">
<mask id="path-1-inside-1_627_3550" fill="white">
<path d="M13.3548 0.954354C13.6084 1.14601 13.7138 1.39183 13.7128 1.7189C13.7034 4.07502 13.7076 6.43115 13.7076 8.78624C13.7076 8.86436 13.7076 8.94248 13.6971 9.01956C13.6512 9.37162 13.43 9.57578 13.1012 9.56015C12.762 9.54349 12.5501 9.34871 12.5491 9.01956C12.5387 6.50719 12.5366 3.99586 12.5585 1.48349C12.5595 1.30538 12.7714 1.12934 12.8862 0.952271H13.3548V0.954354Z"/>
</mask>
<path d="M13.3548 0.954354C13.6084 1.14601 13.7138 1.39183 13.7128 1.7189C13.7034 4.07502 13.7076 6.43115 13.7076 8.78624C13.7076 8.86436 13.7076 8.94248 13.6971 9.01956C13.6512 9.37162 13.43 9.57578 13.1012 9.56015C12.762 9.54349 12.5501 9.34871 12.5491 9.01956C12.5387 6.50719 12.5366 3.99586 12.5585 1.48349C12.5595 1.30538 12.7714 1.12934 12.8862 0.952271H13.3548V0.954354Z" fill="url(#paint0_linear_627_3550)" stroke="#F2F3F7" stroke-width="0.2" mask="url(#path-1-inside-1_627_3550)"/>
</g>
<g id="Vector_2">
<mask id="path-2-inside-2_627_3550" fill="white">
<path d="M25.6223 40.9523C25.1317 40.6075 25.0931 40.4763 25.3269 39.9117C26.0512 38.1597 26.7766 36.4088 27.503 34.6578C27.5478 34.5505 27.5886 34.438 27.6512 34.3412C27.8349 34.0579 28.1041 33.986 28.3964 34.1245C28.6719 34.2558 28.8003 34.5026 28.6949 34.8047C28.5623 35.1838 28.4005 35.5536 28.2471 35.9255C27.6376 37.4014 27.0312 38.8784 26.4081 40.3492C26.3163 40.5669 26.1462 40.7513 26.0126 40.9513H25.6223V40.9523Z"/>
</mask>
<path d="M25.6223 40.9523C25.1317 40.6075 25.0931 40.4763 25.3269 39.9117C26.0512 38.1597 26.7766 36.4088 27.503 34.6578C27.5478 34.5505 27.5886 34.438 27.6512 34.3412C27.8349 34.0579 28.1041 33.986 28.3964 34.1245C28.6719 34.2558 28.8003 34.5026 28.6949 34.8047C28.5623 35.1838 28.4005 35.5536 28.2471 35.9255C27.6376 37.4014 27.0312 38.8784 26.4081 40.3492C26.3163 40.5669 26.1462 40.7513 26.0126 40.9513H25.6223V40.9523Z" fill="url(#paint1_linear_627_3550)" stroke="#F2F3F7" stroke-width="0.2" mask="url(#path-2-inside-2_627_3550)"/>
</g>
<g id="Vector_3">
<mask id="path-3-inside-3_627_3550" fill="white">
<path d="M39.999 26.8905C39.8257 27.0384 39.6754 27.2405 39.475 27.3259C37.6705 28.0894 35.8566 28.8289 34.0479 29.5841C33.74 29.7122 33.4686 29.7414 33.2484 29.4476C32.9812 29.0935 33.1065 28.7112 33.5605 28.5217C35.1166 27.8706 36.6748 27.2259 38.233 26.578C38.4731 26.478 38.7111 26.3759 38.9511 26.278C39.4969 26.0541 39.618 26.0801 39.999 26.502V26.8926V26.8905Z"/>
</mask>
<path d="M39.999 26.8905C39.8257 27.0384 39.6754 27.2405 39.475 27.3259C37.6705 28.0894 35.8566 28.8289 34.0479 29.5841C33.74 29.7122 33.4686 29.7414 33.2484 29.4476C32.9812 29.0935 33.1065 28.7112 33.5605 28.5217C35.1166 27.8706 36.6748 27.2259 38.233 26.578C38.4731 26.478 38.7111 26.3759 38.9511 26.278C39.4969 26.0541 39.618 26.0801 39.999 26.502V26.8926V26.8905Z" fill="url(#paint2_linear_627_3550)" stroke="#F2F3F7" stroke-width="0.2" mask="url(#path-3-inside-3_627_3550)"/>
</g>
<g id="Vector_4">
<mask id="path-4-inside-4_627_3550" fill="white">
<path d="M39.9989 34.8588C39.6315 35.364 39.5209 35.3953 38.925 35.1484C37.1361 34.4068 35.3462 33.6662 33.5584 32.9204C33.0824 32.7215 32.9614 32.2683 33.2849 31.9329C33.5135 31.6955 33.7661 31.7444 34.0385 31.8569C35.8513 32.609 37.6694 33.3495 39.4771 34.113C39.6764 34.1974 39.8257 34.3995 39.9989 34.5474V34.8599V34.8588Z"/>
</mask>
<path d="M39.9989 34.8588C39.6315 35.364 39.5209 35.3953 38.925 35.1484C37.1361 34.4068 35.3462 33.6662 33.5584 32.9204C33.0824 32.7215 32.9614 32.2683 33.2849 31.9329C33.5135 31.6955 33.7661 31.7444 34.0385 31.8569C35.8513 32.609 37.6694 33.3495 39.4771 34.113C39.6764 34.1974 39.8257 34.3995 39.9989 34.5474V34.8599V34.8588Z" fill="url(#paint3_linear_627_3550)" stroke="#F2F3F7" stroke-width="0.2" mask="url(#path-4-inside-4_627_3550)"/>
</g>
<g id="Vector_5">
<mask id="path-5-inside-5_627_3550" fill="white">
<path d="M33.5918 40.9523C33.4467 40.7783 33.2484 40.6263 33.1639 40.4263C32.3999 38.6232 31.6558 36.8119 30.9074 35.0016C30.7363 34.588 30.7989 34.3276 31.0932 34.1568C31.447 33.9516 31.782 34.0756 31.9616 34.5026C32.5345 35.865 33.0992 37.2316 33.6669 38.5972C33.8517 39.0399 34.0354 39.4836 34.218 39.9273C34.4486 40.4908 34.409 40.6179 33.9049 40.9523H33.5928H33.5918Z"/>
</mask>
<path d="M33.5918 40.9523C33.4467 40.7783 33.2484 40.6263 33.1639 40.4263C32.3999 38.6232 31.6558 36.8119 30.9074 35.0016C30.7363 34.588 30.7989 34.3276 31.0932 34.1568C31.447 33.9516 31.782 34.0756 31.9616 34.5026C32.5345 35.865 33.0992 37.2316 33.6669 38.5972C33.8517 39.0399 34.0354 39.4836 34.218 39.9273C34.4486 40.4908 34.409 40.6179 33.9049 40.9523H33.5928H33.5918Z" fill="url(#paint4_linear_627_3550)" stroke="#F2F3F7" stroke-width="0.2" mask="url(#path-5-inside-5_627_3550)"/>
</g>
<g id="Vector_6">
<mask id="path-6-inside-6_627_3550" fill="white">
<path d="M15.1354 16.2463C15.1458 16.6723 14.7158 16.9837 14.3078 16.8056C13.9874 16.666 13.692 16.4671 13.3685 16.3358C13.2265 16.2785 13.024 16.2765 12.8821 16.3327C12.57 16.4577 12.2924 16.6723 11.9762 16.7785C11.7935 16.8389 11.5044 16.8316 11.3719 16.7223C11.2247 16.6004 11.0891 16.29 11.1444 16.1296C11.4491 15.2401 11.2258 14.5734 10.4722 14.0203C10.324 13.911 10.2374 13.5651 10.2917 13.3777C10.3397 13.21 10.6152 13.0985 10.8041 12.986C10.8876 12.936 11.0077 12.9235 11.1078 12.9308C11.8478 12.9871 12.2402 12.5944 12.4521 11.9329C12.5053 11.7652 12.6066 11.5965 12.7287 11.4705C12.9927 11.1986 13.454 11.2871 13.6513 11.6423C13.8152 11.9371 13.9331 12.259 14.1116 12.5433C14.193 12.6725 14.36 12.7871 14.5092 12.8246C14.8348 12.9068 15.1772 12.9225 15.508 12.9891C15.9964 13.087 16.1676 13.5954 15.8451 13.9745C15.7449 14.0932 15.6385 14.2141 15.5122 14.3016C14.9924 14.664 14.815 15.1224 15.0498 15.7307C15.1093 15.8848 15.1072 16.0619 15.1365 16.2473L15.1354 16.2463ZM13.0501 13.3693C12.9416 13.7474 12.6274 13.9724 12.1202 13.986C12.5293 14.313 12.6368 14.6974 12.5032 15.188C12.9249 14.8505 13.3225 14.912 13.8058 15.2463C13.5949 14.6859 13.7327 14.313 14.0427 14.088L13.0512 13.3704L13.0501 13.3693Z"/>
</mask>
<path d="M15.1354 16.2463C15.1458 16.6723 14.7158 16.9837 14.3078 16.8056C13.9874 16.666 13.692 16.4671 13.3685 16.3358C13.2265 16.2785 13.024 16.2765 12.8821 16.3327C12.57 16.4577 12.2924 16.6723 11.9762 16.7785C11.7935 16.8389 11.5044 16.8316 11.3719 16.7223C11.2247 16.6004 11.0891 16.29 11.1444 16.1296C11.4491 15.2401 11.2258 14.5734 10.4722 14.0203C10.324 13.911 10.2374 13.5651 10.2917 13.3777C10.3397 13.21 10.6152 13.0985 10.8041 12.986C10.8876 12.936 11.0077 12.9235 11.1078 12.9308C11.8478 12.9871 12.2402 12.5944 12.4521 11.9329C12.5053 11.7652 12.6066 11.5965 12.7287 11.4705C12.9927 11.1986 13.454 11.2871 13.6513 11.6423C13.8152 11.9371 13.9331 12.259 14.1116 12.5433C14.193 12.6725 14.36 12.7871 14.5092 12.8246C14.8348 12.9068 15.1772 12.9225 15.508 12.9891C15.9964 13.087 16.1676 13.5954 15.8451 13.9745C15.7449 14.0932 15.6385 14.2141 15.5122 14.3016C14.9924 14.664 14.815 15.1224 15.0498 15.7307C15.1093 15.8848 15.1072 16.0619 15.1365 16.2473L15.1354 16.2463ZM13.0501 13.3693C12.9416 13.7474 12.6274 13.9724 12.1202 13.986C12.5293 14.313 12.6368 14.6974 12.5032 15.188C12.9249 14.8505 13.3225 14.912 13.8058 15.2463C13.5949 14.6859 13.7327 14.313 14.0427 14.088L13.0512 13.3704L13.0501 13.3693Z" fill="url(#paint5_linear_627_3550)" stroke="#F2F3F7" stroke-width="0.2" mask="url(#path-6-inside-6_627_3550)"/>
</g>
<g id="Vector_7">
<mask id="path-7-inside-7_627_3550" fill="white">
<path d="M8.17819 29.2154C8.12601 29.2977 8.06339 29.4935 7.9298 29.5883C7.21279 30.0956 6.93517 30.7257 7.26184 31.583C7.36099 31.8434 7.29941 32.1038 7.05519 32.2798C6.7974 32.4663 6.5177 32.4319 6.29226 32.2517C5.60761 31.7049 4.95113 31.734 4.2717 32.26C4.04313 32.4371 3.76551 32.4725 3.51398 32.2684C3.26976 32.0715 3.22175 31.8069 3.3209 31.5278C3.59748 30.7518 3.43571 30.132 2.72809 29.6654C2.47344 29.4977 2.33045 29.2435 2.43273 28.9238C2.52979 28.6217 2.77923 28.4873 3.06938 28.505C3.9826 28.5623 4.44495 28.0728 4.72987 27.2718C4.79458 27.0895 5.08368 26.8822 5.27467 26.878C5.46358 26.8728 5.77564 27.0718 5.832 27.2457C6.11275 28.1248 6.67529 28.5259 7.59373 28.5269C7.97363 28.5269 8.18759 28.8081 8.17819 29.2164V29.2154ZM5.93011 30.7143C5.7005 30.2101 5.94159 29.8518 6.36636 29.4706C5.75268 29.5185 5.46358 29.2539 5.29033 28.6717C5.11917 29.2769 4.79876 29.5091 4.28422 29.5289C4.7163 29.8341 4.76118 30.2404 4.65473 30.7653C5.10664 30.4216 5.48237 30.4299 5.93011 30.7143V30.7143Z"/>
</mask>
<path d="M8.17819 29.2154C8.12601 29.2977 8.06339 29.4935 7.9298 29.5883C7.21279 30.0956 6.93517 30.7257 7.26184 31.583C7.36099 31.8434 7.29941 32.1038 7.05519 32.2798C6.7974 32.4663 6.5177 32.4319 6.29226 32.2517C5.60761 31.7049 4.95113 31.734 4.2717 32.26C4.04313 32.4371 3.76551 32.4725 3.51398 32.2684C3.26976 32.0715 3.22175 31.8069 3.3209 31.5278C3.59748 30.7518 3.43571 30.132 2.72809 29.6654C2.47344 29.4977 2.33045 29.2435 2.43273 28.9238C2.52979 28.6217 2.77923 28.4873 3.06938 28.505C3.9826 28.5623 4.44495 28.0728 4.72987 27.2718C4.79458 27.0895 5.08368 26.8822 5.27467 26.878C5.46358 26.8728 5.77564 27.0718 5.832 27.2457C6.11275 28.1248 6.67529 28.5259 7.59373 28.5269C7.97363 28.5269 8.18759 28.8081 8.17819 29.2164V29.2154ZM5.93011 30.7143C5.7005 30.2101 5.94159 29.8518 6.36636 29.4706C5.75268 29.5185 5.46358 29.2539 5.29033 28.6717C5.11917 29.2769 4.79876 29.5091 4.28422 29.5289C4.7163 29.8341 4.76118 30.2404 4.65473 30.7653C5.10664 30.4216 5.48237 30.4299 5.93011 30.7143V30.7143Z" fill="url(#paint6_linear_627_3550)" stroke="#F2F3F7" stroke-width="0.2" mask="url(#path-7-inside-7_627_3550)"/>
</g>
<g id="Vector_8">
<mask id="path-8-inside-8_627_3550" fill="white">
<path d="M29.7061 3.84589C29.943 4.00213 30.0985 4.08754 30.2321 4.19795C30.2979 4.25211 30.3428 4.3469 30.3668 4.43127C30.5265 5.01041 30.9095 5.2604 31.5013 5.25102C31.7956 5.24581 32.0857 5.37289 32.1076 5.68225C32.1243 5.90411 31.9646 6.14056 31.8812 6.36867C31.8728 6.39054 31.8478 6.40929 31.8269 6.42283C31.3677 6.72594 31.2414 7.13426 31.4167 7.65402C31.52 7.96025 31.4981 8.25295 31.2059 8.45398C30.9272 8.64668 30.6465 8.55502 30.4085 8.38002C29.9817 8.06546 29.583 8.0415 29.1478 8.36752C28.9035 8.55085 28.6082 8.65397 28.3159 8.44877C28.0248 8.24461 28.0112 7.94567 28.1156 7.64465C28.2972 7.11863 28.1333 6.73219 27.7002 6.41138C27.4633 6.23534 27.2942 5.9989 27.4038 5.67183C27.5123 5.35102 27.7722 5.24477 28.0769 5.24894C28.6405 5.25623 28.9651 4.99062 29.1624 4.46356C29.249 4.23337 29.5057 4.06671 29.7072 3.84589H29.7061ZM30.037 6.83115C30.0944 6.66553 30.1591 6.477 30.2248 6.28847L29.7656 5.95203L29.3054 6.29055C29.3721 6.48741 29.4327 6.66761 29.488 6.83115H30.037Z"/>
</mask>
<path d="M29.7061 3.84589C29.943 4.00213 30.0985 4.08754 30.2321 4.19795C30.2979 4.25211 30.3428 4.3469 30.3668 4.43127C30.5265 5.01041 30.9095 5.2604 31.5013 5.25102C31.7956 5.24581 32.0857 5.37289 32.1076 5.68225C32.1243 5.90411 31.9646 6.14056 31.8812 6.36867C31.8728 6.39054 31.8478 6.40929 31.8269 6.42283C31.3677 6.72594 31.2414 7.13426 31.4167 7.65402C31.52 7.96025 31.4981 8.25295 31.2059 8.45398C30.9272 8.64668 30.6465 8.55502 30.4085 8.38002C29.9817 8.06546 29.583 8.0415 29.1478 8.36752C28.9035 8.55085 28.6082 8.65397 28.3159 8.44877C28.0248 8.24461 28.0112 7.94567 28.1156 7.64465C28.2972 7.11863 28.1333 6.73219 27.7002 6.41138C27.4633 6.23534 27.2942 5.9989 27.4038 5.67183C27.5123 5.35102 27.7722 5.24477 28.0769 5.24894C28.6405 5.25623 28.9651 4.99062 29.1624 4.46356C29.249 4.23337 29.5057 4.06671 29.7072 3.84589H29.7061ZM30.037 6.83115C30.0944 6.66553 30.1591 6.477 30.2248 6.28847L29.7656 5.95203L29.3054 6.29055C29.3721 6.48741 29.4327 6.66761 29.488 6.83115H30.037Z" fill="url(#paint7_linear_627_3550)" stroke="#F2F3F7" stroke-width="0.2" mask="url(#path-8-inside-8_627_3550)"/>
</g>
<g id="Vector_9">
<mask id="path-9-inside-9_627_3550" fill="white">
<path d="M8.17185 38.1754C8.17394 38.1629 8.17185 38.1483 8.17707 38.1368C8.41816 37.4681 8.22194 36.9723 7.66357 36.5265C7.27846 36.2192 7.47467 35.5911 7.96415 35.564C8.68847 35.5234 9.10177 35.2172 9.36269 34.5433C9.54116 34.0839 10.1966 34.0912 10.3751 34.5558C10.6287 35.2172 11.0378 35.5088 11.7402 35.5578C12.2631 35.5942 12.4614 36.2046 12.0606 36.5369C11.5325 36.9754 11.3154 37.4306 11.5356 38.1097C11.5878 38.2712 11.4438 38.591 11.2914 38.6982C11.1422 38.8024 10.8051 38.818 10.6589 38.716C10.1068 38.3306 9.62778 38.3566 9.07046 38.7222C8.62794 39.0118 8.15097 38.6868 8.17289 38.1764L8.17185 38.1754ZM9.40235 36.5577L9.58082 37.0963H10.1465L10.3302 36.5557C10.1632 36.4369 10.0035 36.3234 9.86365 36.2223C9.6998 36.3411 9.54637 36.4525 9.40235 36.5567V36.5577Z"/>
</mask>
<path d="M8.17185 38.1754C8.17394 38.1629 8.17185 38.1483 8.17707 38.1368C8.41816 37.4681 8.22194 36.9723 7.66357 36.5265C7.27846 36.2192 7.47467 35.5911 7.96415 35.564C8.68847 35.5234 9.10177 35.2172 9.36269 34.5433C9.54116 34.0839 10.1966 34.0912 10.3751 34.5558C10.6287 35.2172 11.0378 35.5088 11.7402 35.5578C12.2631 35.5942 12.4614 36.2046 12.0606 36.5369C11.5325 36.9754 11.3154 37.4306 11.5356 38.1097C11.5878 38.2712 11.4438 38.591 11.2914 38.6982C11.1422 38.8024 10.8051 38.818 10.6589 38.716C10.1068 38.3306 9.62778 38.3566 9.07046 38.7222C8.62794 39.0118 8.15097 38.6868 8.17289 38.1764L8.17185 38.1754ZM9.40235 36.5577L9.58082 37.0963H10.1465L10.3302 36.5557C10.1632 36.4369 10.0035 36.3234 9.86365 36.2223C9.6998 36.3411 9.54637 36.4525 9.40235 36.5567V36.5577Z" fill="url(#paint8_linear_627_3550)" stroke="#F2F3F7" stroke-width="0.2" mask="url(#path-9-inside-9_627_3550)"/>
</g>
<g id="Vector_10">
<mask id="path-10-inside-10_627_3550" fill="white">
<path d="M28.7095 33.0329C28.3254 33.0204 28.0562 32.7308 28.0583 32.4069C28.0583 32.3684 28.0603 32.3267 28.0739 32.2913C28.3129 31.6663 28.1532 31.1872 27.6147 30.7747C27.4675 30.6622 27.3851 30.3195 27.4404 30.131C27.4895 29.9601 27.766 29.8549 27.9424 29.7216C27.9518 29.7143 27.9675 29.7143 27.98 29.7154C28.6427 29.7789 28.9767 29.4206 29.2094 28.8446C29.2825 28.6633 29.5653 28.4654 29.7553 28.4623C29.9442 28.4592 30.1373 28.6915 30.3272 28.8238C30.346 28.8373 30.3585 28.8665 30.3648 28.8915C30.5203 29.4675 30.8992 29.7195 31.4909 29.7154C31.7779 29.7133 32.0222 29.8372 32.1192 30.1466C32.209 30.4362 32.091 30.6518 31.8813 30.8372C31.8614 30.8549 31.8458 30.8768 31.8249 30.8914C31.3646 31.1955 31.2394 31.6059 31.4158 32.1246C31.5139 32.4142 31.5024 32.6975 31.2352 32.9017C30.9493 33.1204 30.6549 33.036 30.4065 32.8475C29.9598 32.5079 29.5455 32.5371 29.1092 32.861C28.9788 32.9579 28.8045 32.9944 28.7106 33.0329H28.7095ZM29.4871 31.2986H30.0412C30.107 31.1111 30.1717 30.9257 30.2291 30.758C30.0694 30.6434 29.916 30.533 29.7626 30.4226C29.606 30.5362 29.4443 30.6539 29.295 30.7612C29.3566 30.9351 29.4203 31.1132 29.486 31.2986H29.4871Z"/>
</mask>
<path d="M28.7095 33.0329C28.3254 33.0204 28.0562 32.7308 28.0583 32.4069C28.0583 32.3684 28.0603 32.3267 28.0739 32.2913C28.3129 31.6663 28.1532 31.1872 27.6147 30.7747C27.4675 30.6622 27.3851 30.3195 27.4404 30.131C27.4895 29.9601 27.766 29.8549 27.9424 29.7216C27.9518 29.7143 27.9675 29.7143 27.98 29.7154C28.6427 29.7789 28.9767 29.4206 29.2094 28.8446C29.2825 28.6633 29.5653 28.4654 29.7553 28.4623C29.9442 28.4592 30.1373 28.6915 30.3272 28.8238C30.346 28.8373 30.3585 28.8665 30.3648 28.8915C30.5203 29.4675 30.8992 29.7195 31.4909 29.7154C31.7779 29.7133 32.0222 29.8372 32.1192 30.1466C32.209 30.4362 32.091 30.6518 31.8813 30.8372C31.8614 30.8549 31.8458 30.8768 31.8249 30.8914C31.3646 31.1955 31.2394 31.6059 31.4158 32.1246C31.5139 32.4142 31.5024 32.6975 31.2352 32.9017C30.9493 33.1204 30.6549 33.036 30.4065 32.8475C29.9598 32.5079 29.5455 32.5371 29.1092 32.861C28.9788 32.9579 28.8045 32.9944 28.7106 33.0329H28.7095ZM29.4871 31.2986H30.0412C30.107 31.1111 30.1717 30.9257 30.2291 30.758C30.0694 30.6434 29.916 30.533 29.7626 30.4226C29.606 30.5362 29.4443 30.6539 29.295 30.7612C29.3566 30.9351 29.4203 31.1132 29.486 31.2986H29.4871Z" fill="url(#paint9_linear_627_3550)" stroke="#F2F3F7" stroke-width="0.2" mask="url(#path-10-inside-10_627_3550)"/>
</g>
<g id="Vector_11">
<mask id="path-11-inside-11_627_3550" fill="white">
<path d="M12.5345 22.9053C12.5345 21.7595 12.5334 20.6138 12.5355 19.469C12.5355 19.3138 12.5011 19.1159 12.5804 19.0128C12.7088 18.8462 12.9029 18.6774 13.0981 18.6295C13.3538 18.567 13.5813 18.718 13.6658 18.992C13.7034 19.1138 13.7055 19.2493 13.7055 19.3784C13.7076 21.7345 13.7107 24.0907 13.7003 26.4468C13.7003 26.6426 13.6616 26.9114 13.5343 27.0145C13.3819 27.1384 13.0793 27.2093 12.9071 27.1405C12.7401 27.0728 12.5627 26.8041 12.5533 26.6145C12.5136 25.8229 12.5345 25.0271 12.5334 24.2334C12.5334 23.7907 12.5334 23.348 12.5334 22.9053H12.5345Z"/>
</mask>
<path d="M12.5345 22.9053C12.5345 21.7595 12.5334 20.6138 12.5355 19.469C12.5355 19.3138 12.5011 19.1159 12.5804 19.0128C12.7088 18.8462 12.9029 18.6774 13.0981 18.6295C13.3538 18.567 13.5813 18.718 13.6658 18.992C13.7034 19.1138 13.7055 19.2493 13.7055 19.3784C13.7076 21.7345 13.7107 24.0907 13.7003 26.4468C13.7003 26.6426 13.6616 26.9114 13.5343 27.0145C13.3819 27.1384 13.0793 27.2093 12.9071 27.1405C12.7401 27.0728 12.5627 26.8041 12.5533 26.6145C12.5136 25.8229 12.5345 25.0271 12.5334 24.2334C12.5334 23.7907 12.5334 23.348 12.5334 22.9053H12.5345Z" fill="url(#paint10_linear_627_3550)" stroke="#F2F3F7" stroke-width="0.2" mask="url(#path-11-inside-11_627_3550)"/>
</g>
<g id="Vector_12">
<mask id="path-12-inside-12_627_3550" fill="white">
<path d="M4.28943 13.4974C5.4333 13.4974 6.57718 13.4974 7.7221 13.4985C7.86508 13.4985 8.01015 13.4974 8.14896 13.5245C8.42345 13.5798 8.57791 13.7601 8.5967 14.0394C8.61549 14.3343 8.48294 14.5448 8.19593 14.6302C8.07382 14.6667 7.94022 14.6751 7.81081 14.6751C5.45731 14.6771 3.10485 14.6771 0.751352 14.6751C0.660552 14.6751 0.568708 14.6698 0.479995 14.6553C0.140799 14.5979 -0.0136657 14.376 0.000945784 14.0498C0.0155573 13.7403 0.182546 13.5412 0.507131 13.5099C0.636547 13.4974 0.767007 13.4964 0.896424 13.4964C2.02777 13.4964 3.15808 13.4964 4.28943 13.4964V13.4974Z"/>
</mask>
<path d="M4.28943 13.4974C5.4333 13.4974 6.57718 13.4974 7.7221 13.4985C7.86508 13.4985 8.01015 13.4974 8.14896 13.5245C8.42345 13.5798 8.57791 13.7601 8.5967 14.0394C8.61549 14.3343 8.48294 14.5448 8.19593 14.6302C8.07382 14.6667 7.94022 14.6751 7.81081 14.6751C5.45731 14.6771 3.10485 14.6771 0.751352 14.6751C0.660552 14.6751 0.568708 14.6698 0.479995 14.6553C0.140799 14.5979 -0.0136657 14.376 0.000945784 14.0498C0.0155573 13.7403 0.182546 13.5412 0.507131 13.5099C0.636547 13.4974 0.767007 13.4964 0.896424 13.4964C2.02777 13.4964 3.15808 13.4964 4.28943 13.4964V13.4974Z" fill="url(#paint11_linear_627_3550)" stroke="#F2F3F7" stroke-width="0.2" mask="url(#path-12-inside-12_627_3550)"/>
</g>
<g id="Vector_13">
<mask id="path-13-inside-13_627_3550" fill="white">
<path d="M21.9923 13.4975C23.1101 13.4975 24.2289 13.4975 25.3467 13.4975C25.4897 13.4975 25.6337 13.4975 25.7746 13.5173C26.0804 13.5589 26.2286 13.7642 26.2401 14.0529C26.2526 14.3583 26.1159 14.5844 25.7955 14.6469C25.6567 14.674 25.5116 14.6761 25.3697 14.6761C23.0945 14.6782 20.8192 14.6772 18.544 14.6772C18.4918 14.6772 18.4396 14.6772 18.3885 14.6772C17.8917 14.6647 17.6381 14.4604 17.6423 14.0758C17.6464 13.6934 17.8917 13.5006 18.4041 13.4985C19.6002 13.4943 20.7963 13.4975 21.9923 13.4975V13.4975Z"/>
</mask>
<path d="M21.9923 13.4975C23.1101 13.4975 24.2289 13.4975 25.3467 13.4975C25.4897 13.4975 25.6337 13.4975 25.7746 13.5173C26.0804 13.5589 26.2286 13.7642 26.2401 14.0529C26.2526 14.3583 26.1159 14.5844 25.7955 14.6469C25.6567 14.674 25.5116 14.6761 25.3697 14.6761C23.0945 14.6782 20.8192 14.6772 18.544 14.6772C18.4918 14.6772 18.4396 14.6772 18.3885 14.6772C17.8917 14.6647 17.6381 14.4604 17.6423 14.0758C17.6464 13.6934 17.8917 13.5006 18.4041 13.4985C19.6002 13.4943 20.7963 13.4975 21.9923 13.4975V13.4975Z" fill="url(#paint12_linear_627_3550)" stroke="#F2F3F7" stroke-width="0.2" mask="url(#path-13-inside-13_627_3550)"/>
</g>
<g id="Vector_14">
<mask id="path-14-inside-14_627_3550" fill="white">
<path d="M9.53922 11.1382C9.33466 11.0153 9.17185 10.9549 9.05913 10.8434C7.32349 9.11748 5.59307 7.38736 3.86578 5.65307C3.58503 5.37184 3.59233 5.04269 3.85221 4.79478C4.10165 4.5573 4.41266 4.55417 4.68298 4.82291C6.42697 6.55823 8.16991 8.2946 9.89408 10.0508C10.0256 10.1841 10.0861 10.4966 10.0287 10.6768C9.97131 10.857 9.72291 10.9757 9.54027 11.1372L9.53922 11.1382Z"/>
</mask>
<path d="M9.53922 11.1382C9.33466 11.0153 9.17185 10.9549 9.05913 10.8434C7.32349 9.11748 5.59307 7.38736 3.86578 5.65307C3.58503 5.37184 3.59233 5.04269 3.85221 4.79478C4.10165 4.5573 4.41266 4.55417 4.68298 4.82291C6.42697 6.55823 8.16991 8.2946 9.89408 10.0508C10.0256 10.1841 10.0861 10.4966 10.0287 10.6768C9.97131 10.857 9.72291 10.9757 9.54027 11.1372L9.53922 11.1382Z" fill="url(#paint13_linear_627_3550)" stroke="#F2F3F7" stroke-width="0.2" mask="url(#path-14-inside-14_627_3550)"/>
</g>
<g id="Vector_15">
<mask id="path-15-inside-15_627_3550" fill="white">
<path d="M10.1738 17.6493C10.0548 17.8577 10.0005 18.0243 9.88991 18.1358C8.16783 19.868 6.4395 21.595 4.70803 23.3178C4.41163 23.6126 4.06095 23.6115 3.81464 23.3511C3.58503 23.1084 3.60486 22.7762 3.89083 22.4887C5.60664 20.7679 7.32036 19.0451 9.05392 17.3431C9.19795 17.2014 9.50896 17.1254 9.70517 17.1723C9.8826 17.215 10.0089 17.4702 10.1738 17.6493V17.6493Z"/>
</mask>
<path d="M10.1738 17.6493C10.0548 17.8577 10.0005 18.0243 9.88991 18.1358C8.16783 19.868 6.4395 21.595 4.70803 23.3178C4.41163 23.6126 4.06095 23.6115 3.81464 23.3511C3.58503 23.1084 3.60486 22.7762 3.89083 22.4887C5.60664 20.7679 7.32036 19.0451 9.05392 17.3431C9.19795 17.2014 9.50896 17.1254 9.70517 17.1723C9.8826 17.215 10.0089 17.4702 10.1738 17.6493V17.6493Z" fill="url(#paint14_linear_627_3550)" stroke="#F2F3F7" stroke-width="0.2" mask="url(#path-15-inside-15_627_3550)"/>
</g>
<g id="Vector_16">
<mask id="path-16-inside-16_627_3550" fill="white">
<path d="M16.6968 17.0264C16.9034 17.1493 17.0683 17.2087 17.18 17.3202C18.9156 19.0451 20.6471 20.7752 22.3744 22.5095C22.6572 22.7928 22.6499 23.1188 22.3911 23.3678C22.1364 23.6136 21.8212 23.6042 21.5321 23.3157C19.808 21.597 18.0817 19.8805 16.3774 18.143C16.2365 17.9993 16.1634 17.6858 16.2135 17.49C16.2584 17.3129 16.5152 17.19 16.6968 17.0254V17.0264Z"/>
</mask>
<path d="M16.6968 17.0264C16.9034 17.1493 17.0683 17.2087 17.18 17.3202C18.9156 19.0451 20.6471 20.7752 22.3744 22.5095C22.6572 22.7928 22.6499 23.1188 22.3911 23.3678C22.1364 23.6136 21.8212 23.6042 21.5321 23.3157C19.808 21.597 18.0817 19.8805 16.3774 18.143C16.2365 17.9993 16.1634 17.6858 16.2135 17.49C16.2584 17.3129 16.5152 17.19 16.6968 17.0254V17.0264Z" fill="url(#paint15_linear_627_3550)" stroke="#F2F3F7" stroke-width="0.2" mask="url(#path-16-inside-16_627_3550)"/>
</g>
<g id="Vector_17">
<mask id="path-17-inside-17_627_3550" fill="white">
<path d="M25.8905 20.4888C25.9845 20.5773 26.2245 20.7054 26.3069 20.8992C27.1075 22.773 27.8839 24.6573 28.6594 26.5416C28.8045 26.8936 28.6824 27.179 28.3682 27.3165C28.0322 27.4634 27.7326 27.3499 27.5781 26.9811C26.7964 25.1135 26.0178 23.2438 25.2476 21.371C25.0639 20.9231 25.3165 20.5013 25.8895 20.4877L25.8905 20.4888Z"/>
</mask>
<path d="M25.8905 20.4888C25.9845 20.5773 26.2245 20.7054 26.3069 20.8992C27.1075 22.773 27.8839 24.6573 28.6594 26.5416C28.8045 26.8936 28.6824 27.179 28.3682 27.3165C28.0322 27.4634 27.7326 27.3499 27.5781 26.9811C26.7964 25.1135 26.0178 23.2438 25.2476 21.371C25.0639 20.9231 25.3165 20.5013 25.8895 20.4877L25.8905 20.4888Z" fill="url(#paint16_linear_627_3550)" stroke="#F2F3F7" stroke-width="0.2" mask="url(#path-17-inside-17_627_3550)"/>
</g>
<g id="Vector_18">
<mask id="path-18-inside-18_627_3550" fill="white">
<path d="M31.3677 27.3769C30.9419 27.3749 30.6914 26.9822 30.8647 26.5426C31.135 25.8541 31.4272 25.175 31.7101 24.4906C32.1964 23.3157 32.6796 22.1387 33.1691 20.9658C33.3403 20.5565 33.5835 20.4231 33.9143 20.5325C34.3067 20.6627 34.4299 20.9648 34.2483 21.4095C33.7818 22.5511 33.3079 23.6886 32.8362 24.8281C32.5481 25.5239 32.2559 26.2176 31.9751 26.9155C31.8614 27.1967 31.6819 27.3686 31.3688 27.3769H31.3677Z"/>
</mask>
<path d="M31.3677 27.3769C30.9419 27.3749 30.6914 26.9822 30.8647 26.5426C31.135 25.8541 31.4272 25.175 31.7101 24.4906C32.1964 23.3157 32.6796 22.1387 33.1691 20.9658C33.3403 20.5565 33.5835 20.4231 33.9143 20.5325C34.3067 20.6627 34.4299 20.9648 34.2483 21.4095C33.7818 22.5511 33.3079 23.6886 32.8362 24.8281C32.5481 25.5239 32.2559 26.2176 31.9751 26.9155C31.8614 27.1967 31.6819 27.3686 31.3688 27.3769H31.3677Z" fill="url(#paint17_linear_627_3550)" stroke="#F2F3F7" stroke-width="0.2" mask="url(#path-18-inside-18_627_3550)"/>
</g>
<g id="Vector_19">
<mask id="path-19-inside-19_627_3550" fill="white">
<path d="M26.4091 28.9362C26.3987 29.5508 25.9979 29.7997 25.5251 29.606C24.0097 28.9852 22.4984 28.355 20.9851 27.729C20.6845 27.605 20.385 27.48 20.0855 27.355C19.5866 27.1457 19.4321 26.879 19.5949 26.5113C19.7598 26.1395 20.0437 26.0697 20.552 26.2791C21.9088 26.8394 23.2656 27.4019 24.6223 27.9633C25.0909 28.1571 25.57 28.329 26.023 28.5539C26.2046 28.6446 26.3288 28.8529 26.4091 28.9362V28.9362Z"/>
</mask>
<path d="M26.4091 28.9362C26.3987 29.5508 25.9979 29.7997 25.5251 29.606C24.0097 28.9852 22.4984 28.355 20.9851 27.729C20.6845 27.605 20.385 27.48 20.0855 27.355C19.5866 27.1457 19.4321 26.879 19.5949 26.5113C19.7598 26.1395 20.0437 26.0697 20.552 26.2791C21.9088 26.8394 23.2656 27.4019 24.6223 27.9633C25.0909 28.1571 25.57 28.329 26.023 28.5539C26.2046 28.6446 26.3288 28.8529 26.4091 28.9362V28.9362Z" fill="url(#paint18_linear_627_3550)" stroke="#F2F3F7" stroke-width="0.2" mask="url(#path-19-inside-19_627_3550)"/>
</g>
<g id="Vector_20">
<mask id="path-20-inside-20_627_3550" fill="white">
<path d="M14.8223 32.4381C14.363 32.3538 13.6867 32.5652 13.6836 31.8194C13.6805 31.059 14.3703 31.3049 14.8212 31.208C14.8891 30.7466 14.6887 30.0716 15.4266 30.0664C16.1749 30.0612 15.9714 30.7361 16.034 31.2038C16.4828 31.3142 17.2019 31.0444 17.1768 31.8444C17.1538 32.5673 16.4984 32.3517 16.034 32.4381C15.9693 32.8964 16.1728 33.5933 15.4005 33.5672C14.6991 33.5433 14.8838 32.8912 14.8233 32.436L14.8223 32.4381Z"/>
</mask>
<path d="M14.8223 32.4381C14.363 32.3538 13.6867 32.5652 13.6836 31.8194C13.6805 31.059 14.3703 31.3049 14.8212 31.208C14.8891 30.7466 14.6887 30.0716 15.4266 30.0664C16.1749 30.0612 15.9714 30.7361 16.034 31.2038C16.4828 31.3142 17.2019 31.0444 17.1768 31.8444C17.1538 32.5673 16.4984 32.3517 16.034 32.4381C15.9693 32.8964 16.1728 33.5933 15.4005 33.5672C14.6991 33.5433 14.8838 32.8912 14.8233 32.436L14.8223 32.4381Z" fill="url(#paint19_linear_627_3550)" stroke="#F2F3F7" stroke-width="0.2" mask="url(#path-20-inside-20_627_3550)"/>
</g>
<g id="Vector_21">
<mask id="path-21-inside-21_627_3550" fill="white">
<path d="M31.6767 13.6746C32.1286 13.7735 32.8101 13.5433 32.8174 14.2933C32.8247 15.0609 32.1411 14.8182 31.6861 14.9068C31.5838 15.3568 31.8384 16.0723 31.0494 16.0484C30.3397 16.0265 30.514 15.387 30.467 14.8995C30.0068 14.8255 29.2992 15.0536 29.32 14.2787C29.3388 13.5777 29.9838 13.7475 30.4535 13.6881C30.5276 13.2214 30.3376 12.5298 31.0995 12.5496C31.8092 12.5684 31.6046 13.2277 31.6756 13.6746H31.6767Z"/>
</mask>
<path d="M31.6767 13.6746C32.1286 13.7735 32.8101 13.5433 32.8174 14.2933C32.8247 15.0609 32.1411 14.8182 31.6861 14.9068C31.5838 15.3568 31.8384 16.0723 31.0494 16.0484C30.3397 16.0265 30.514 15.387 30.467 14.8995C30.0068 14.8255 29.2992 15.0536 29.32 14.2787C29.3388 13.5777 29.9838 13.7475 30.4535 13.6881C30.5276 13.2214 30.3376 12.5298 31.0995 12.5496C31.8092 12.5684 31.6046 13.2277 31.6756 13.6746H31.6767Z" fill="url(#paint20_linear_627_3550)" stroke="#F2F3F7" stroke-width="0.2" mask="url(#path-21-inside-21_627_3550)"/>
</g>
<g id="Vector_22">
<mask id="path-22-inside-22_627_3550" fill="white">
<path d="M16.6852 11.1341C16.5098 10.9861 16.2562 10.8757 16.2155 10.7122C16.1654 10.5101 16.2207 10.2039 16.3543 10.0476C16.7593 9.57476 17.2247 9.1529 17.6662 8.71126C18.0712 8.30607 18.473 7.89776 18.8832 7.49778C19.1889 7.19884 19.5146 7.18842 19.7703 7.45716C20.0145 7.71235 20.003 8.02484 19.7139 8.31753C18.8811 9.15915 18.044 9.99765 17.1976 10.8268C17.0755 10.9466 16.8981 11.0091 16.6841 11.1351L16.6852 11.1341Z"/>
</mask>
<path d="M16.6852 11.1341C16.5098 10.9861 16.2562 10.8757 16.2155 10.7122C16.1654 10.5101 16.2207 10.2039 16.3543 10.0476C16.7593 9.57476 17.2247 9.1529 17.6662 8.71126C18.0712 8.30607 18.473 7.89776 18.8832 7.49778C19.1889 7.19884 19.5146 7.18842 19.7703 7.45716C20.0145 7.71235 20.003 8.02484 19.7139 8.31753C18.8811 9.15915 18.044 9.99765 17.1976 10.8268C17.0755 10.9466 16.8981 11.0091 16.6841 11.1351L16.6852 11.1341Z" fill="url(#paint21_linear_627_3550)" stroke="#F2F3F7" stroke-width="0.2" mask="url(#path-22-inside-22_627_3550)"/>
</g>
<g id="Vector_23">
<mask id="path-23-inside-23_627_3550" fill="white">
<path d="M26.4269 32.4818C26.3455 32.5704 26.2213 32.8079 26.0303 32.8933C25.1056 33.3078 24.1663 33.6901 23.2249 34.0672C22.8815 34.2047 22.5976 34.0609 22.4651 33.7307C22.3346 33.4068 22.4505 33.1339 22.8095 32.9818C23.7186 32.5954 24.6297 32.2121 25.545 31.8413C26.0094 31.6527 26.4133 31.8892 26.4269 32.4829V32.4818Z"/>
</mask>
<path d="M26.4269 32.4818C26.3455 32.5704 26.2213 32.8079 26.0303 32.8933C25.1056 33.3078 24.1663 33.6901 23.2249 34.0672C22.8815 34.2047 22.5976 34.0609 22.4651 33.7307C22.3346 33.4068 22.4505 33.1339 22.8095 32.9818C23.7186 32.5954 24.6297 32.2121 25.545 31.8413C26.0094 31.6527 26.4133 31.8892 26.4269 32.4829V32.4818Z" fill="url(#paint22_linear_627_3550)" stroke="#F2F3F7" stroke-width="0.2" mask="url(#path-23-inside-23_627_3550)"/>
</g>
<g id="Vector_24">
<mask id="path-24-inside-24_627_3550" fill="white">
<path d="M9.5642 4.64581C9.64978 4.72289 9.86582 4.83226 9.94514 5.00517C10.2687 5.71034 10.5599 6.43114 10.8448 7.15297C10.9753 7.48316 10.8469 7.76336 10.5484 7.89564C10.2342 8.03626 9.91488 7.93106 9.77293 7.60295C9.45983 6.87903 9.15508 6.1499 8.87224 5.41348C8.72404 5.02913 9.02879 4.64581 9.56524 4.64685L9.5642 4.64581Z"/>
</mask>
<path d="M9.5642 4.64581C9.64978 4.72289 9.86582 4.83226 9.94514 5.00517C10.2687 5.71034 10.5599 6.43114 10.8448 7.15297C10.9753 7.48316 10.8469 7.76336 10.5484 7.89564C10.2342 8.03626 9.91488 7.93106 9.77293 7.60295C9.45983 6.87903 9.15508 6.1499 8.87224 5.41348C8.72404 5.02913 9.02879 4.64581 9.56524 4.64685L9.5642 4.64581Z" fill="url(#paint23_linear_627_3550)" stroke="#F2F3F7" stroke-width="0.2" mask="url(#path-24-inside-24_627_3550)"/>
</g>
<g id="Vector_25">
<mask id="path-25-inside-25_627_3550" fill="white">
<path d="M17.6402 23.1396C17.4512 23.3094 17.3051 23.5084 17.1089 23.6011C16.871 23.7125 16.5913 23.648 16.4754 23.3855C16.1299 22.6053 15.7897 21.8199 15.51 21.0148C15.4578 20.8668 15.6519 20.5669 15.8116 20.4273C16.012 20.2523 16.3491 20.2731 16.466 20.5117C16.8751 21.3449 17.2289 22.2043 17.6412 23.1386L17.6402 23.1396Z"/>
</mask>
<path d="M17.6402 23.1396C17.4512 23.3094 17.3051 23.5084 17.1089 23.6011C16.871 23.7125 16.5913 23.648 16.4754 23.3855C16.1299 22.6053 15.7897 21.8199 15.51 21.0148C15.4578 20.8668 15.6519 20.5669 15.8116 20.4273C16.012 20.2523 16.3491 20.2731 16.466 20.5117C16.8751 21.3449 17.2289 22.2043 17.6412 23.1386L17.6402 23.1396Z" fill="url(#paint24_linear_627_3550)" stroke="#F2F3F7" stroke-width="0.2" mask="url(#path-25-inside-25_627_3550)"/>
</g>
<g id="Vector_26">
<mask id="path-26-inside-26_627_3550" fill="white">
<path d="M4.19665 18.6045C4.02131 18.4149 3.77605 18.267 3.73639 18.0764C3.69673 17.8847 3.80318 17.5274 3.9493 17.4566C4.71745 17.0837 5.51065 16.7546 6.31637 16.4733C6.46666 16.4213 6.77141 16.6108 6.90813 16.7702C7.07721 16.9681 7.06573 17.3097 6.82568 17.4285C5.99178 17.8389 5.1297 18.193 4.19561 18.6045H4.19665Z"/>
</mask>
<path d="M4.19665 18.6045C4.02131 18.4149 3.77605 18.267 3.73639 18.0764C3.69673 17.8847 3.80318 17.5274 3.9493 17.4566C4.71745 17.0837 5.51065 16.7546 6.31637 16.4733C6.46666 16.4213 6.77141 16.6108 6.90813 16.7702C7.07721 16.9681 7.06573 17.3097 6.82568 17.4285C5.99178 17.8389 5.1297 18.193 4.19561 18.6045H4.19665Z" fill="url(#paint25_linear_627_3550)" stroke="#F2F3F7" stroke-width="0.2" mask="url(#path-26-inside-26_627_3550)"/>
</g>
<g id="Vector_27">
<mask id="path-27-inside-27_627_3550" fill="white">
<path d="M9.67385 23.698C9.14366 23.7073 8.84934 23.3469 8.99442 22.9553C9.2783 22.1918 9.59766 21.4397 9.92851 20.695C10.0663 20.3846 10.3543 20.3252 10.656 20.4502C10.9618 20.5773 11.1068 20.8325 10.9868 21.1439C10.6987 21.8928 10.394 22.6366 10.0579 23.3646C9.97965 23.5344 9.75108 23.6334 9.67281 23.698H9.67385Z"/>
</mask>
<path d="M9.67385 23.698C9.14366 23.7073 8.84934 23.3469 8.99442 22.9553C9.2783 22.1918 9.59766 21.4397 9.92851 20.695C10.0663 20.3846 10.3543 20.3252 10.656 20.4502C10.9618 20.5773 11.1068 20.8325 10.9868 21.1439C10.6987 21.8928 10.394 22.6366 10.0579 23.3646C9.97965 23.5344 9.75108 23.6334 9.67281 23.698H9.67385Z" fill="url(#paint26_linear_627_3550)" stroke="#F2F3F7" stroke-width="0.2" mask="url(#path-27-inside-27_627_3550)"/>
</g>
<g id="Vector_28">
<mask id="path-28-inside-28_627_3550" fill="white">
<path d="M17.4262 5.21352C17.3981 5.29893 17.3657 5.42497 17.3177 5.54267C17.063 6.16555 16.8063 6.78844 16.5443 7.40924C16.3638 7.83734 16.0308 8.01442 15.699 7.86651C15.3702 7.71964 15.2815 7.40403 15.46 6.96759C15.7334 6.29575 16.0141 5.62704 16.2939 4.95832C16.4181 4.66146 16.6529 4.55522 16.9566 4.62501C17.2384 4.68959 17.4022 4.87291 17.4273 5.21352H17.4262Z"/>
</mask>
<path d="M17.4262 5.21352C17.3981 5.29893 17.3657 5.42497 17.3177 5.54267C17.063 6.16555 16.8063 6.78844 16.5443 7.40924C16.3638 7.83734 16.0308 8.01442 15.699 7.86651C15.3702 7.71964 15.2815 7.40403 15.46 6.96759C15.7334 6.29575 16.0141 5.62704 16.2939 4.95832C16.4181 4.66146 16.6529 4.55522 16.9566 4.62501C17.2384 4.68959 17.4022 4.87291 17.4273 5.21352H17.4262Z" fill="url(#paint27_linear_627_3550)" stroke="#F2F3F7" stroke-width="0.2" mask="url(#path-28-inside-28_627_3550)"/>
</g>
<g id="Vector_29">
<mask id="path-29-inside-29_627_3550" fill="white">
<path d="M22.1082 18.3836C22.032 18.3586 21.9193 18.3284 21.8129 18.2847C21.1762 18.0243 20.5396 17.7639 19.906 17.4962C19.4771 17.3149 19.3341 17.0285 19.4844 16.6754C19.6284 16.3379 19.9186 16.24 20.335 16.4087C21.0207 16.6858 21.7033 16.9702 22.3848 17.2587C22.6801 17.3837 22.7939 17.6201 22.7083 17.9243C22.6321 18.1961 22.4505 18.369 22.1072 18.3836H22.1082Z"/>
</mask>
<path d="M22.1082 18.3836C22.032 18.3586 21.9193 18.3284 21.8129 18.2847C21.1762 18.0243 20.5396 17.7639 19.906 17.4962C19.4771 17.3149 19.3341 17.0285 19.4844 16.6754C19.6284 16.3379 19.9186 16.24 20.335 16.4087C21.0207 16.6858 21.7033 16.9702 22.3848 17.2587C22.6801 17.3837 22.7939 17.6201 22.7083 17.9243C22.6321 18.1961 22.4505 18.369 22.1072 18.3836H22.1082Z" fill="url(#paint28_linear_627_3550)" stroke="#F2F3F7" stroke-width="0.2" mask="url(#path-29-inside-29_627_3550)"/>
</g>
<g id="Vector_30">
<mask id="path-30-inside-30_627_3550" fill="white">
<path d="M4.23936 9.91742C4.32077 9.94242 4.43453 9.96742 4.54099 10.0112C5.19016 10.2757 5.83933 10.5393 6.48432 10.8122C6.90075 10.9882 7.02912 11.2538 6.88509 11.6007C6.73689 11.9559 6.45823 12.0621 6.05119 11.8975C5.36549 11.6205 4.68293 11.334 4.0014 11.0486C3.70604 10.9247 3.59228 10.6965 3.66012 10.3882C3.72274 10.1028 3.90538 9.94138 4.23936 9.91742V9.91742Z"/>
</mask>
<path d="M4.23936 9.91742C4.32077 9.94242 4.43453 9.96742 4.54099 10.0112C5.19016 10.2757 5.83933 10.5393 6.48432 10.8122C6.90075 10.9882 7.02912 11.2538 6.88509 11.6007C6.73689 11.9559 6.45823 12.0621 6.05119 11.8975C5.36549 11.6205 4.68293 11.334 4.0014 11.0486C3.70604 10.9247 3.59228 10.6965 3.66012 10.3882C3.72274 10.1028 3.90538 9.94138 4.23936 9.91742V9.91742Z" fill="url(#paint29_linear_627_3550)" stroke="#F2F3F7" stroke-width="0.2" mask="url(#path-30-inside-30_627_3550)"/>
</g>
<g id="Vector_31">
<mask id="path-31-inside-31_627_3550" fill="white">
<path d="M22.6875 10.5258C22.6165 10.607 22.5122 10.8278 22.3431 10.9059C21.6355 11.2309 20.9122 11.5226 20.1879 11.8069C19.8476 11.9403 19.5669 11.7944 19.4375 11.4611C19.3133 11.1434 19.4135 10.8757 19.7527 10.7299C20.4676 10.4226 21.1877 10.1226 21.9141 9.84246C22.3086 9.69038 22.6802 9.97161 22.6885 10.5258H22.6875Z"/>
</mask>
<path d="M22.6875 10.5258C22.6165 10.607 22.5122 10.8278 22.3431 10.9059C21.6355 11.2309 20.9122 11.5226 20.1879 11.8069C19.8476 11.9403 19.5669 11.7944 19.4375 11.4611C19.3133 11.1434 19.4135 10.8757 19.7527 10.7299C20.4676 10.4226 21.1877 10.1226 21.9141 9.84246C22.3086 9.69038 22.6802 9.97161 22.6885 10.5258H22.6875Z" fill="url(#paint30_linear_627_3550)" stroke="#F2F3F7" stroke-width="0.2" mask="url(#path-31-inside-31_627_3550)"/>
</g>
<g id="Vector_32">
<mask id="path-32-inside-32_627_3550" fill="white">
<path d="M36.0997 24.8948C35.9766 25.1 35.915 25.2604 35.8054 25.376C35.3848 25.8187 34.9559 26.2551 34.5175 26.6791C34.219 26.9676 33.861 26.9665 33.621 26.7061C33.3945 26.4603 33.4196 26.1353 33.7066 25.8395C34.1314 25.401 34.5467 24.95 35.006 24.549C35.151 24.4229 35.4464 24.3573 35.6259 24.4135C35.8075 24.4708 35.9317 24.7125 36.0997 24.8948V24.8948Z"/>
</mask>
<path d="M36.0997 24.8948C35.9766 25.1 35.915 25.2604 35.8054 25.376C35.3848 25.8187 34.9559 26.2551 34.5175 26.6791C34.219 26.9676 33.861 26.9665 33.621 26.7061C33.3945 26.4603 33.4196 26.1353 33.7066 25.8395C34.1314 25.401 34.5467 24.95 35.006 24.549C35.151 24.4229 35.4464 24.3573 35.6259 24.4135C35.8075 24.4708 35.9317 24.7125 36.0997 24.8948V24.8948Z" fill="url(#paint31_linear_627_3550)" stroke="#F2F3F7" stroke-width="0.2" mask="url(#path-32-inside-32_627_3550)"/>
</g>
<g id="Vector_33">
<mask id="path-33-inside-33_627_3550" fill="white">
<path d="M36.2062 36.4327C36.0716 36.59 35.9641 36.8119 35.7908 36.89C35.6364 36.9608 35.3441 36.9473 35.2262 36.8431C34.7012 36.3796 34.2065 35.8817 33.7243 35.3734C33.4895 35.1265 33.5469 34.8401 33.7807 34.6099C34.002 34.3911 34.2827 34.338 34.5154 34.5536C35.03 35.0286 35.5215 35.5286 36.0121 36.0306C36.0956 36.1161 36.1238 36.2567 36.2052 36.4327H36.2062Z"/>
</mask>
<path d="M36.2062 36.4327C36.0716 36.59 35.9641 36.8119 35.7908 36.89C35.6364 36.9608 35.3441 36.9473 35.2262 36.8431C34.7012 36.3796 34.2065 35.8817 33.7243 35.3734C33.4895 35.1265 33.5469 34.8401 33.7807 34.6099C34.002 34.3911 34.2827 34.338 34.5154 34.5536C35.03 35.0286 35.5215 35.5286 36.0121 36.0306C36.0956 36.1161 36.1238 36.2567 36.2052 36.4327H36.2062Z" fill="url(#paint32_linear_627_3550)" stroke="#F2F3F7" stroke-width="0.2" mask="url(#path-33-inside-33_627_3550)"/>
</g>
<g id="Vector_34">
<mask id="path-34-inside-34_627_3550" fill="white">
<path d="M25.3719 27.0947C25.1767 26.9791 25.0254 26.9228 24.9179 26.8197C24.466 26.3885 24.0214 25.95 23.5862 25.5021C23.3085 25.2167 23.3075 24.8781 23.559 24.6365C23.797 24.4073 24.1226 24.4063 24.3961 24.6667C24.8574 25.1062 25.3249 25.5427 25.7445 26.0208C25.8687 26.1624 25.923 26.4666 25.8603 26.6437C25.7956 26.8249 25.5493 26.9405 25.3719 27.0947V27.0947Z"/>
</mask>
<path d="M25.3719 27.0947C25.1767 26.9791 25.0254 26.9228 24.9179 26.8197C24.466 26.3885 24.0214 25.95 23.5862 25.5021C23.3085 25.2167 23.3075 24.8781 23.559 24.6365C23.797 24.4073 24.1226 24.4063 24.3961 24.6667C24.8574 25.1062 25.3249 25.5427 25.7445 26.0208C25.8687 26.1624 25.923 26.4666 25.8603 26.6437C25.7956 26.8249 25.5493 26.9405 25.3719 27.0947V27.0947Z" fill="url(#paint33_linear_627_3550)" stroke="#F2F3F7" stroke-width="0.2" mask="url(#path-34-inside-34_627_3550)"/>
</g>
<g id="Vector_35">
<mask id="path-35-inside-35_627_3550" fill="white">
<path d="M25.5409 34.488C25.6933 34.6162 25.9177 34.7162 25.9751 34.8755C26.0387 35.0526 26.0283 35.3536 25.9156 35.4817C25.4532 36.0088 24.9523 36.5036 24.4388 36.9827C24.1872 37.2181 23.8981 37.1358 23.6769 36.8983C23.465 36.6713 23.4233 36.3984 23.6466 36.1619C24.1205 35.6609 24.6078 35.1734 25.1026 34.6943C25.1965 34.6026 25.3509 34.5745 25.5388 34.488H25.5409Z"/>
</mask>
<path d="M25.5409 34.488C25.6933 34.6162 25.9177 34.7162 25.9751 34.8755C26.0387 35.0526 26.0283 35.3536 25.9156 35.4817C25.4532 36.0088 24.9523 36.5036 24.4388 36.9827C24.1872 37.2181 23.8981 37.1358 23.6769 36.8983C23.465 36.6713 23.4233 36.3984 23.6466 36.1619C24.1205 35.6609 24.6078 35.1734 25.1026 34.6943C25.1965 34.6026 25.3509 34.5745 25.5388 34.488H25.5409Z" fill="url(#paint34_linear_627_3550)" stroke="#F2F3F7" stroke-width="0.2" mask="url(#path-35-inside-35_627_3550)"/>
</g>
<g id="Vector_36">
<mask id="path-36-inside-36_627_3550" fill="white">
<path d="M22.6248 30.232C22.9494 30.232 23.275 30.2216 23.5996 30.2351C23.9294 30.2487 24.183 30.4956 24.1997 30.7895C24.2164 31.0813 23.9827 31.3731 23.6487 31.3856C22.9734 31.4127 22.2971 31.4138 21.6218 31.395C21.2931 31.3856 21.075 31.1042 21.1042 30.7812C21.1334 30.4581 21.2993 30.2487 21.649 30.2393C21.8181 30.2351 21.9871 30.2361 22.1562 30.2351C22.3117 30.2351 22.4683 30.2351 22.6238 30.2351V30.232H22.6248Z"/>
</mask>
<path d="M22.6248 30.232C22.9494 30.232 23.275 30.2216 23.5996 30.2351C23.9294 30.2487 24.183 30.4956 24.1997 30.7895C24.2164 31.0813 23.9827 31.3731 23.6487 31.3856C22.9734 31.4127 22.2971 31.4138 21.6218 31.395C21.2931 31.3856 21.075 31.1042 21.1042 30.7812C21.1334 30.4581 21.2993 30.2487 21.649 30.2393C21.8181 30.2351 21.9871 30.2361 22.1562 30.2351C22.3117 30.2351 22.4683 30.2351 22.6238 30.2351V30.232H22.6248Z" fill="url(#paint35_linear_627_3550)" stroke="#F2F3F7" stroke-width="0.2" mask="url(#path-36-inside-36_627_3550)"/>
</g>
<g id="Vector_37">
<mask id="path-37-inside-37_627_3550" fill="white">
<path d="M30.4472 37.892C30.4472 38.1899 30.4576 38.4888 30.4451 38.7867C30.4274 39.1919 30.205 39.4055 29.8408 39.393C29.4891 39.3805 29.2877 39.1753 29.2803 38.7857C29.2678 38.1764 29.2647 37.567 29.271 36.9577C29.2751 36.5754 29.5183 36.3015 29.8366 36.2879C30.1706 36.2733 30.4148 36.5442 30.4399 36.9587C30.442 36.9848 30.4409 37.0108 30.4409 37.0368C30.4409 37.3222 30.4409 37.6076 30.4409 37.893H30.4482L30.4472 37.892Z"/>
</mask>
<path d="M30.4472 37.892C30.4472 38.1899 30.4576 38.4888 30.4451 38.7867C30.4274 39.1919 30.205 39.4055 29.8408 39.393C29.4891 39.3805 29.2877 39.1753 29.2803 38.7857C29.2678 38.1764 29.2647 37.567 29.271 36.9577C29.2751 36.5754 29.5183 36.3015 29.8366 36.2879C30.1706 36.2733 30.4148 36.5442 30.4399 36.9587C30.442 36.9848 30.4409 37.0108 30.4409 37.0368C30.4409 37.3222 30.4409 37.6076 30.4409 37.893H30.4482L30.4472 37.892Z" fill="url(#paint36_linear_627_3550)" stroke="#F2F3F7" stroke-width="0.2" mask="url(#path-37-inside-37_627_3550)"/>
</g>
<g id="Vector_38">
<mask id="path-38-inside-38_627_3550" fill="white">
<path d="M30.2573 23.6209C30.2573 23.9449 30.2636 24.2688 30.2552 24.5927C30.2469 24.9375 30.0413 25.1104 29.7146 25.1365C29.3932 25.1625 29.1197 24.95 29.1072 24.6157C29.0801 23.9428 29.0727 23.2678 29.0947 22.5949C29.1051 22.2501 29.4099 22.0085 29.724 22.0418C30.0789 22.0793 30.2438 22.3033 30.25 22.648C30.2563 22.972 30.2511 23.2959 30.2511 23.6199H30.2573V23.6209Z"/>
</mask>
<path d="M30.2573 23.6209C30.2573 23.9449 30.2636 24.2688 30.2552 24.5927C30.2469 24.9375 30.0413 25.1104 29.7146 25.1365C29.3932 25.1625 29.1197 24.95 29.1072 24.6157C29.0801 23.9428 29.0727 23.2678 29.0947 22.5949C29.1051 22.2501 29.4099 22.0085 29.724 22.0418C30.0789 22.0793 30.2438 22.3033 30.25 22.648C30.2563 22.972 30.2511 23.2959 30.2511 23.6199H30.2573V23.6209Z" fill="url(#paint37_linear_627_3550)" stroke="#F2F3F7" stroke-width="0.2" mask="url(#path-38-inside-38_627_3550)"/>
</g>
<g id="Vector_39">
<mask id="path-39-inside-39_627_3550" fill="white">
<path d="M21.2681 6.55714C20.8005 6.53943 20.4968 5.99543 20.7619 5.65882C21.0405 5.3045 21.3808 4.99082 21.7294 4.70214C21.9475 4.52186 22.2053 4.61565 22.3984 4.80844C22.5925 5.00228 22.6823 5.26281 22.5027 5.47749C22.2043 5.83494 21.8567 6.15175 21.5175 6.47273C21.4497 6.5363 21.3255 6.53943 21.2691 6.55714H21.2681Z"/>
</mask>
<path d="M21.2681 6.55714C20.8005 6.53943 20.4968 5.99543 20.7619 5.65882C21.0405 5.3045 21.3808 4.99082 21.7294 4.70214C21.9475 4.52186 22.2053 4.61565 22.3984 4.80844C22.5925 5.00228 22.6823 5.26281 22.5027 5.47749C22.2043 5.83494 21.8567 6.15175 21.5175 6.47273C21.4497 6.5363 21.3255 6.53943 21.2691 6.55714H21.2681Z" fill="url(#paint38_linear_627_3550)" stroke="#F2F3F7" stroke-width="0.2" mask="url(#path-39-inside-39_627_3550)"/>
</g>
<g id="Vector_40">
<mask id="path-40-inside-40_627_3550" fill="white">
<path d="M20.7316 33.8204C20.908 34.0007 21.1314 34.132 21.1888 34.3154C21.243 34.4873 21.1888 34.8041 21.0625 34.8979C20.8016 35.0918 20.4707 35.2345 20.1503 35.2887C19.9969 35.3148 19.7172 35.1262 19.6472 34.9678C19.5711 34.7937 19.5898 34.4446 19.7099 34.3456C19.9791 34.1247 20.3361 34.0121 20.7306 33.8204H20.7316Z"/>
</mask>
<path d="M20.7316 33.8204C20.908 34.0007 21.1314 34.132 21.1888 34.3154C21.243 34.4873 21.1888 34.8041 21.0625 34.8979C20.8016 35.0918 20.4707 35.2345 20.1503 35.2887C19.9969 35.3148 19.7172 35.1262 19.6472 34.9678C19.5711 34.7937 19.5898 34.4446 19.7099 34.3456C19.9791 34.1247 20.3361 34.0121 20.7306 33.8204H20.7316Z" fill="url(#paint39_linear_627_3550)" stroke="#F2F3F7" stroke-width="0.2" mask="url(#path-40-inside-40_627_3550)"/>
</g>
</g>
<defs>
<linearGradient id="paint0_linear_627_3550" x1="12.6147" y1="9.46365" x2="14.7355" y2="9.11256" gradientUnits="userSpaceOnUse">
<stop stop-color="#34C3FF" stop-opacity="0.9"/>
<stop offset="1" stop-color="white"/>
</linearGradient>
<linearGradient id="paint1_linear_627_3550" x1="25.4097" y1="40.8743" x2="30.149" y2="37.9115" gradientUnits="userSpaceOnUse">
<stop stop-color="#34C3FF" stop-opacity="0.9"/>
<stop offset="1" stop-color="white"/>
</linearGradient>
<linearGradient id="paint2_linear_627_3550" x1="33.54" y1="29.6367" x2="35.478" y2="25.0452" gradientUnits="userSpaceOnUse">
<stop stop-color="#34C3FF" stop-opacity="0.9"/>
<stop offset="1" stop-color="white"/>
</linearGradient>
<linearGradient id="paint3_linear_627_3550" x1="33.5347" y1="35.2587" x2="35.469" y2="30.6687" gradientUnits="userSpaceOnUse">
<stop stop-color="#34C3FF" stop-opacity="0.9"/>
<stop offset="1" stop-color="white"/>
</linearGradient>
<linearGradient id="paint4_linear_627_3550" x1="31.0346" y1="40.8744" x2="35.7703" y2="37.915" gradientUnits="userSpaceOnUse">
<stop stop-color="#34C3FF" stop-opacity="0.9"/>
<stop offset="1" stop-color="white"/>
</linearGradient>
<linearGradient id="paint5_linear_627_3550" x1="10.6338" y1="16.794" x2="14.7638" y2="11.5978" gradientUnits="userSpaceOnUse">
<stop stop-color="#34C3FF" stop-opacity="0.9"/>
<stop offset="1" stop-color="white"/>
</linearGradient>
<linearGradient id="paint6_linear_627_3550" x1="2.76062" y1="32.3451" x2="6.86877" y2="27.1213" gradientUnits="userSpaceOnUse">
<stop stop-color="#34C3FF" stop-opacity="0.9"/>
<stop offset="1" stop-color="white"/>
</linearGradient>
<linearGradient id="paint7_linear_627_3550" x1="27.6658" y1="8.50838" x2="31.1992" y2="4.18794" gradientUnits="userSpaceOnUse">
<stop stop-color="#34C3FF" stop-opacity="0.9"/>
<stop offset="1" stop-color="white"/>
</linearGradient>
<linearGradient id="paint8_linear_627_3550" x1="7.76104" y1="38.7787" x2="11.2032" y2="34.423" gradientUnits="userSpaceOnUse">
<stop stop-color="#34C3FF" stop-opacity="0.9"/>
<stop offset="1" stop-color="white"/>
</linearGradient>
<linearGradient id="paint9_linear_627_3550" x1="27.7185" y1="32.9812" x2="31.1224" y2="28.6984" gradientUnits="userSpaceOnUse">
<stop stop-color="#34C3FF" stop-opacity="0.9"/>
<stop offset="1" stop-color="white"/>
</linearGradient>
<linearGradient id="paint10_linear_627_3550" x1="12.6018" y1="27.0707" x2="14.7359" y2="26.7125" gradientUnits="userSpaceOnUse">
<stop stop-color="#34C3FF" stop-opacity="0.9"/>
<stop offset="1" stop-color="white"/>
</linearGradient>
<linearGradient id="paint11_linear_627_3550" x1="0.537417" y1="14.6633" x2="0.738427" y2="12.8815" gradientUnits="userSpaceOnUse">
<stop stop-color="#34C3FF" stop-opacity="0.9"/>
<stop offset="1" stop-color="white"/>
</linearGradient>
<linearGradient id="paint12_linear_627_3550" x1="18.1796" y1="14.6641" x2="18.3809" y2="12.881" gradientUnits="userSpaceOnUse">
<stop stop-color="#34C3FF" stop-opacity="0.9"/>
<stop offset="1" stop-color="white"/>
</linearGradient>
<linearGradient id="paint13_linear_627_3550" x1="4.05589" y1="11.0645" x2="8.96285" y2="5.20882" gradientUnits="userSpaceOnUse">
<stop stop-color="#34C3FF" stop-opacity="0.9"/>
<stop offset="1" stop-color="white"/>
</linearGradient>
<linearGradient id="paint14_linear_627_3550" x1="4.06498" y1="23.4706" x2="8.83339" y2="17.5492" gradientUnits="userSpaceOnUse">
<stop stop-color="#34C3FF" stop-opacity="0.9"/>
<stop offset="1" stop-color="white"/>
</linearGradient>
<linearGradient id="paint15_linear_627_3550" x1="16.597" y1="23.4691" x2="21.5031" y2="17.6183" gradientUnits="userSpaceOnUse">
<stop stop-color="#34C3FF" stop-opacity="0.9"/>
<stop offset="1" stop-color="white"/>
</linearGradient>
<linearGradient id="paint16_linear_627_3550" x1="25.4092" y1="27.3009" x2="30.1396" y2="24.3512" gradientUnits="userSpaceOnUse">
<stop stop-color="#34C3FF" stop-opacity="0.9"/>
<stop offset="1" stop-color="white"/>
</linearGradient>
<linearGradient id="paint17_linear_627_3550" x1="31.0293" y1="27.2991" x2="35.7497" y2="24.3601" gradientUnits="userSpaceOnUse">
<stop stop-color="#34C3FF" stop-opacity="0.9"/>
<stop offset="1" stop-color="white"/>
</linearGradient>
<linearGradient id="paint18_linear_627_3550" x1="19.9625" y1="29.6307" x2="21.875" y2="25.0692" gradientUnits="userSpaceOnUse">
<stop stop-color="#34C3FF" stop-opacity="0.9"/>
<stop offset="1" stop-color="white"/>
</linearGradient>
<linearGradient id="paint19_linear_627_3550" x1="13.902" y1="33.5284" x2="16.5293" y2="30.3388" gradientUnits="userSpaceOnUse">
<stop stop-color="#34C3FF" stop-opacity="0.9"/>
<stop offset="1" stop-color="white"/>
</linearGradient>
<linearGradient id="paint20_linear_627_3550" x1="29.5382" y1="16.0094" x2="32.1633" y2="12.8172" gradientUnits="userSpaceOnUse">
<stop stop-color="#34C3FF" stop-opacity="0.9"/>
<stop offset="1" stop-color="white"/>
</linearGradient>
<linearGradient id="paint21_linear_627_3550" x1="16.4314" y1="11.0913" x2="19.3516" y2="7.6533" gradientUnits="userSpaceOnUse">
<stop stop-color="#34C3FF" stop-opacity="0.9"/>
<stop offset="1" stop-color="white"/>
</linearGradient>
<linearGradient id="paint22_linear_627_3550" x1="22.6641" y1="34.0926" x2="24.0595" y2="31.1819" gradientUnits="userSpaceOnUse">
<stop stop-color="#34C3FF" stop-opacity="0.9"/>
<stop offset="1" stop-color="white"/>
</linearGradient>
<linearGradient id="paint23_linear_627_3550" x1="8.96364" y1="7.91908" x2="11.3999" y2="6.074" gradientUnits="userSpaceOnUse">
<stop stop-color="#34C3FF" stop-opacity="0.9"/>
<stop offset="1" stop-color="white"/>
</linearGradient>
<linearGradient id="paint24_linear_627_3550" x1="15.6351" y1="23.6155" x2="18.112" y2="21.6856" gradientUnits="userSpaceOnUse">
<stop stop-color="#34C3FF" stop-opacity="0.9"/>
<stop offset="1" stop-color="white"/>
</linearGradient>
<linearGradient id="paint25_linear_627_3550" x1="3.93393" y1="18.5803" x2="5.29326" y2="16.0342" gradientUnits="userSpaceOnUse">
<stop stop-color="#34C3FF" stop-opacity="0.9"/>
<stop offset="1" stop-color="white"/>
</linearGradient>
<linearGradient id="paint26_linear_627_3550" x1="9.08698" y1="23.6607" x2="11.5257" y2="21.8034" gradientUnits="userSpaceOnUse">
<stop stop-color="#34C3FF" stop-opacity="0.9"/>
<stop offset="1" stop-color="white"/>
</linearGradient>
<linearGradient id="paint27_linear_627_3550" x1="15.4981" y1="7.88043" x2="17.9349" y2="6.03921" gradientUnits="userSpaceOnUse">
<stop stop-color="#34C3FF" stop-opacity="0.9"/>
<stop offset="1" stop-color="white"/>
</linearGradient>
<linearGradient id="paint28_linear_627_3550" x1="19.6334" y1="18.3604" x2="20.9064" y2="15.867" gradientUnits="userSpaceOnUse">
<stop stop-color="#34C3FF" stop-opacity="0.9"/>
<stop offset="1" stop-color="white"/>
</linearGradient>
<linearGradient id="paint29_linear_627_3550" x1="3.84742" y1="11.9499" x2="5.12226" y2="9.45938" gradientUnits="userSpaceOnUse">
<stop stop-color="#34C3FF" stop-opacity="0.9"/>
<stop offset="1" stop-color="white"/>
</linearGradient>
<linearGradient id="paint30_linear_627_3550" x1="19.5926" y1="11.8328" x2="20.8659" y2="9.34266" gradientUnits="userSpaceOnUse">
<stop stop-color="#34C3FF" stop-opacity="0.9"/>
<stop offset="1" stop-color="white"/>
</linearGradient>
<linearGradient id="paint31_linear_627_3550" x1="33.6334" y1="26.8702" x2="35.4926" y2="24.4949" gradientUnits="userSpaceOnUse">
<stop stop-color="#34C3FF" stop-opacity="0.9"/>
<stop offset="1" stop-color="white"/>
</linearGradient>
<linearGradient id="paint32_linear_627_3550" x1="33.7387" y1="36.9056" x2="35.6091" y2="34.5267" gradientUnits="userSpaceOnUse">
<stop stop-color="#34C3FF" stop-opacity="0.9"/>
<stop offset="1" stop-color="white"/>
</linearGradient>
<linearGradient id="paint33_linear_627_3550" x1="23.5311" y1="27.065" x2="25.5163" y2="24.7547" gradientUnits="userSpaceOnUse">
<stop stop-color="#34C3FF" stop-opacity="0.9"/>
<stop offset="1" stop-color="white"/>
</linearGradient>
<linearGradient id="paint34_linear_627_3550" x1="23.6547" y1="37.0935" x2="25.6468" y2="34.7788" gradientUnits="userSpaceOnUse">
<stop stop-color="#34C3FF" stop-opacity="0.9"/>
<stop offset="1" stop-color="white"/>
</linearGradient>
<linearGradient id="paint35_linear_627_3550" x1="21.2953" y1="31.3944" x2="21.8092" y2="29.7517" gradientUnits="userSpaceOnUse">
<stop stop-color="#34C3FF" stop-opacity="0.9"/>
<stop offset="1" stop-color="white"/>
</linearGradient>
<linearGradient id="paint36_linear_627_3550" x1="29.3418" y1="39.3584" x2="31.1539" y2="38.5183" gradientUnits="userSpaceOnUse">
<stop stop-color="#34C3FF" stop-opacity="0.9"/>
<stop offset="1" stop-color="white"/>
</linearGradient>
<linearGradient id="paint37_linear_627_3550" x1="29.1554" y1="25.1036" x2="30.9606" y2="24.269" gradientUnits="userSpaceOnUse">
<stop stop-color="#34C3FF" stop-opacity="0.9"/>
<stop offset="1" stop-color="white"/>
</linearGradient>
<linearGradient id="paint38_linear_627_3550" x1="20.7844" y1="6.53508" x2="22.2501" y2="4.76543" gradientUnits="userSpaceOnUse">
<stop stop-color="#34C3FF" stop-opacity="0.9"/>
<stop offset="1" stop-color="white"/>
</linearGradient>
<linearGradient id="paint39_linear_627_3550" x1="19.7023" y1="35.2745" x2="20.7824" y2="33.8378" gradientUnits="userSpaceOnUse">
<stop stop-color="#34C3FF" stop-opacity="0.9"/>
<stop offset="1" stop-color="white"/>
</linearGradient>
</defs>
</svg>
