<svg width="21" height="21" viewBox="0 0 21 21" fill="none" xmlns="http://www.w3.org/2000/svg">
<g id="send-plane">
<mask id="path-1-inside-1_740_6169" fill="white">
<path d="M20.9843 1.51157L18.3592 18.5374C18.3115 18.8475 18.1544 19.1303 17.9163 19.3345C17.6781 19.5388 17.3747 19.651 17.061 19.6509C16.8892 19.6509 16.7198 19.6174 16.5569 19.5495L11.8322 17.5802C11.6556 17.5066 11.4516 17.5684 11.3455 17.7276L9.44207 20.5827C9.2821 20.8564 9.01549 21 8.72838 21C8.25668 21 7.87522 20.6186 7.87522 20.1469V16.2019C7.87522 15.9101 7.97251 15.6265 8.15176 15.3964L14.2969 7.49426C14.5965 7.10897 14.0764 6.62488 13.7136 6.95137L5.20439 14.6086C5.08954 14.712 4.92544 14.7399 4.78284 14.6805L0.807581 13.0224C0.346058 12.8296 0.0332623 12.3948 0.00249951 11.8575C-0.0282632 11.3202 0.226862 10.8846 0.661233 10.6364L19.0369 0.173213C19.4753 -0.0773552 20.0163 -0.0543041 20.4314 0.230881C20.8465 0.516067 21.0622 1.01363 20.9843 1.51157Z"/>
</mask>
<path d="M20.9843 1.51157L18.3592 18.5374C18.3115 18.8475 18.1544 19.1303 17.9163 19.3345C17.6781 19.5388 17.3747 19.651 17.061 19.6509C16.8892 19.6509 16.7198 19.6174 16.5569 19.5495L11.8322 17.5802C11.6556 17.5066 11.4516 17.5684 11.3455 17.7276L9.44207 20.5827C9.2821 20.8564 9.01549 21 8.72838 21C8.25668 21 7.87522 20.6186 7.87522 20.1469V16.2019C7.87522 15.9101 7.97251 15.6265 8.15176 15.3964L14.2969 7.49426C14.5965 7.10897 14.0764 6.62488 13.7136 6.95137L5.20439 14.6086C5.08954 14.712 4.92544 14.7399 4.78284 14.6805L0.807581 13.0224C0.346058 12.8296 0.0332623 12.3948 0.00249951 11.8575C-0.0282632 11.3202 0.226862 10.8846 0.661233 10.6364L19.0369 0.173213C19.4753 -0.0773552 20.0163 -0.0543041 20.4314 0.230881C20.8465 0.516067 21.0622 1.01363 20.9843 1.51157Z" stroke="url(#paint0_linear_740_6169)" stroke-width="2" mask="url(#path-1-inside-1_740_6169)"/>
</g>
<defs>
<linearGradient id="paint0_linear_740_6169" x1="-15" y1="18" x2="20.25" y2="-1.875" gradientUnits="userSpaceOnUse">
<stop stop-color="#34C3FF" stop-opacity="0.91"/>
<stop offset="1" stop-color="white"/>
</linearGradient>
</defs>
</svg>
