<svg width="27" height="37" viewBox="0 0 27 37" fill="none" xmlns="http://www.w3.org/2000/svg">
<g id="alert">
<path id="Union 12" d="M2.25607 35.885C1.92021 35.8816 1.59946 35.7449 1.36431 35.5051C1.12917 35.2653 0.998873 34.9419 1.00207 34.606V6.767C1.00049 6.60074 1.03167 6.43581 1.09383 6.2816C1.156 6.1274 1.24793 5.98695 1.36437 5.86827C1.48082 5.7496 1.6195 5.65502 1.7725 5.58995C1.9255 5.52487 2.08982 5.49057 2.25607 5.489H6.51307V2.278C6.50987 1.9424 6.64006 1.61927 6.87502 1.37962C7.10998 1.13998 7.43048 1.00343 7.76607 1L25.1461 1C25.3125 1.00131 25.477 1.03542 25.6303 1.10037C25.7835 1.16533 25.9224 1.25987 26.0391 1.37857C26.1557 1.49727 26.2478 1.63781 26.3101 1.79214C26.3724 1.94648 26.4037 2.11158 26.4021 2.278V30.117C26.4043 30.2838 26.3736 30.4495 26.3116 30.6044C26.2496 30.7593 26.1576 30.9004 26.0409 31.0197C25.9241 31.1389 25.785 31.2339 25.6314 31.2992C25.4779 31.3644 25.3129 31.3987 25.1461 31.4H20.8901V34.61C20.8917 34.7764 20.8604 34.9415 20.7982 35.0958C20.736 35.2501 20.644 35.3907 20.5275 35.5094C20.4109 35.6282 20.2721 35.7229 20.119 35.788C19.9659 35.8531 19.8015 35.8874 19.6351 35.889L2.25607 35.885Z" stroke="#1C2C65" stroke-width="0.8" stroke-miterlimit="10"/>
<path id="Union 13" d="M2.25607 35.884C2.08982 35.8824 1.9255 35.8481 1.7725 35.783C1.6195 35.718 1.48082 35.6234 1.36437 35.5047C1.24793 35.386 1.156 35.2456 1.09383 35.0914C1.03167 34.9372 1.00049 34.7722 1.00207 34.606V6.76698C1.00049 6.60073 1.03167 6.43579 1.09383 6.28158C1.156 6.12738 1.24793 5.98693 1.36437 5.86826C1.48082 5.74958 1.6195 5.655 1.7725 5.58993C1.9255 5.52485 2.08982 5.49055 2.25607 5.48898H19.0911C19.0911 5.12432 19.0911 4.75965 19.0911 4.39498C19.0896 3.97577 19.2249 3.56752 19.4765 3.23219C19.728 2.89686 20.0822 2.65278 20.4851 2.53698C20.7523 2.46599 21.0317 2.45416 21.304 2.50231C21.5762 2.55047 21.8346 2.65746 22.0613 2.8158C22.2879 2.97415 22.4772 3.18005 22.616 3.41912C22.7549 3.65819 22.8399 3.92468 22.8651 4.19998C22.8731 4.28006 22.8771 4.3605 22.8771 4.44098C22.8771 4.98565 22.8771 5.53032 22.8771 6.07498C22.8733 6.29515 22.9394 6.51084 23.0661 6.69098C23.2051 6.89098 23.3401 7.09098 23.4821 7.30498H20.8901V7.65998H21.9021C21.8323 7.84428 21.7072 8.00245 21.5439 8.11275C21.3805 8.22305 21.1871 8.28007 20.9901 8.27598H20.9541H20.8941V34.606C20.897 34.9418 20.7665 35.2651 20.5311 35.5048C20.2958 35.7444 19.9749 35.8808 19.6391 35.884H2.25607Z" stroke="#1C2C65" stroke-linejoin="round"/>
<path id="Vector_4" d="M19.6361 5.48901H2.25507C2.08864 5.49045 1.92413 5.52469 1.77095 5.58977C1.61777 5.65485 1.47893 5.74949 1.36236 5.86829C1.2458 5.98708 1.1538 6.12769 1.09163 6.28208C1.02947 6.43646 0.998352 6.60159 1.00007 6.76801V34.606C0.998484 34.7723 1.02966 34.9372 1.09183 35.0914C1.15399 35.2456 1.24592 35.3861 1.36237 35.5047C1.47881 35.6234 1.6175 35.718 1.77049 35.7831C1.92349 35.8481 2.08781 35.8824 2.25407 35.884H19.6341C19.8003 35.8824 19.9646 35.8481 20.1176 35.7831C20.2706 35.718 20.4093 35.6234 20.5258 35.5047C20.6422 35.3861 20.7341 35.2456 20.7963 35.0914C20.8585 34.9372 20.8897 34.7723 20.8881 34.606V6.76801C20.8915 6.43242 20.7616 6.10917 20.5268 5.86934C20.2921 5.62951 19.9717 5.49271 19.6361 5.48901V5.48901Z" stroke="#1C2C65" stroke-width="0.8" stroke-miterlimit="10"/>
<path id="Vector_5" d="M4.46606 19.147H17.4251" stroke="#1C2C65" stroke-width="0.8" stroke-miterlimit="10"/>
<path id="Vector_6" d="M4.46606 21.577H17.4251" stroke="#1C2C65" stroke-width="0.8" stroke-miterlimit="10"/>
<path id="Vector_7" d="M4.46606 24.2939H17.4251" stroke="#1C2C65" stroke-width="0.8" stroke-miterlimit="10"/>
<path id="Vector_8" d="M4.46606 27.01H17.4251" stroke="#1C2C65" stroke-width="0.8" stroke-miterlimit="10"/>
<g id="Group 349">
<g id="Vector_9">
<path id="Trac&#195;&#169; 3" d="M17.3491 11.984H12.3611C12.3711 11.966 12.3781 11.95 12.3881 11.935C12.5171 11.744 12.6461 11.554 12.7761 11.364C12.8981 11.1879 12.9624 10.9782 12.9601 10.764C12.9601 10.202 12.9601 9.63997 12.9601 9.07797C12.9584 8.65901 13.0935 8.25095 13.3447 7.91566C13.5959 7.58037 13.9495 7.33612 14.3521 7.21997C14.6193 7.14897 14.8987 7.13714 15.171 7.1853C15.4432 7.23345 15.7016 7.34044 15.9282 7.49879C16.1549 7.65714 16.3442 7.86303 16.483 8.1021C16.6219 8.34117 16.7069 8.60766 16.7321 8.88297C16.7401 8.96297 16.7441 9.04397 16.7441 9.12397C16.7441 9.66797 16.7441 10.213 16.7441 10.757C16.7403 10.977 16.8061 11.1925 16.9321 11.373C17.0711 11.573 17.2061 11.773 17.3491 11.987V11.984Z" stroke="#1C2C65" stroke-linejoin="round"/>
</g>
<g id="Vector_10">
<path id="Trac&#195;&#169; 4" d="M15.7651 12.339C15.6931 12.529 15.5626 12.6911 15.3923 12.8018C15.222 12.9126 15.0209 12.9662 14.8181 12.955C14.6305 12.9503 14.4488 12.8893 14.2963 12.78C14.1438 12.6707 14.0277 12.5181 13.9631 12.342C13.9801 12.342 13.9961 12.342 14.0121 12.342L15.7651 12.339Z" stroke="#1C2C65" stroke-linejoin="round"/>
</g>
</g>
</g>
</svg>
