<svg width="36" height="32" viewBox="0 0 36 32" fill="none" xmlns="http://www.w3.org/2000/svg">
<g id="chat">
<g id="Vector">
<mask id="path-1-inside-1_723_2674" fill="white">
<path d="M36 16.3872V18.1801C35.9784 18.2555 35.9447 18.33 35.9372 18.4063C35.7666 20.1614 35.2416 21.8146 34.2609 23.2856C33.8503 23.9017 33.8137 24.4009 34.0547 25.0748C34.6744 26.8061 35.2116 28.5659 35.775 30.3155C35.9897 30.9821 35.6934 31.6027 35.0559 31.7158C34.7822 31.7646 34.4438 31.6956 34.1897 31.5715C32.2716 30.6383 30.3638 29.6848 28.4616 28.7213C28.1859 28.5815 27.9628 28.576 27.6787 28.6863C25.23 29.6407 22.6922 29.9202 20.0925 29.5359C17.0138 29.0808 14.3437 27.7972 12.1312 25.6274C12.0328 25.5309 11.8791 25.4509 11.7422 25.4334C10.5759 25.2817 9.44156 25.0031 8.35594 24.5664C8.02594 24.434 7.78125 24.4607 7.47844 24.6142C5.59687 25.5667 3.70969 26.5101 1.81219 27.4332C1.55719 27.5573 1.21875 27.6281 0.945938 27.5793C0.294375 27.4644 0.00656249 26.8438 0.231562 26.1506C0.864375 24.1931 1.49719 22.2357 2.14313 20.2828C2.21906 20.052 2.20313 19.8875 2.06156 19.6852C1.24781 18.5184 0.657187 17.2487 0.3375 15.8677C0.19875 15.2637 0.110625 14.6504 0 14.0418C0 13.4671 0 12.8925 0 12.3179C0.020625 12.2195 0.0515625 12.122 0.0609375 12.0227C0.208125 10.4468 0.677813 8.96748 1.45031 7.58099C4.25719 2.54807 10.2609 0.0242569 15.9609 0.904144C19.0228 1.37673 21.6769 2.6584 23.8809 4.81353C23.9784 4.90915 24.1359 4.97994 24.2738 4.99833C25.7813 5.19785 27.2306 5.59596 28.5928 6.25886C32.1131 7.97358 34.5553 10.6022 35.61 14.3682C35.7947 15.0265 35.8725 15.7133 36 16.3872ZM33.0094 28.6753C32.9616 28.4997 32.9363 28.3903 32.9016 28.2836C32.4947 27.0268 32.1028 25.7644 31.6697 24.5168C31.4775 23.9623 31.5478 23.5192 31.9097 23.0448C34.5881 19.5326 34.5412 14.8702 31.8159 11.3938C27.6262 6.04923 19.0481 5.40288 14.0053 10.0533C11.9803 11.9207 10.7822 14.1953 10.7044 16.9398C10.6031 20.486 12.1462 23.3086 15.0478 25.3314C18.8841 28.006 23.0484 28.3121 27.3778 26.5661C27.9141 26.3501 28.3622 26.3381 28.8759 26.6048C30.2194 27.3017 31.5806 27.9627 33.0094 28.6753ZM20.6991 4.90823C20.6325 4.85766 20.5987 4.82732 20.5603 4.8025C20.4534 4.73262 20.3456 4.66274 20.2359 4.59654C18.5597 3.58978 16.7428 3.00227 14.7834 2.85332C11.4619 2.60048 8.46281 3.43531 5.88469 5.52516C1.57031 9.02264 0.88125 14.7929 4.16813 19.0214C4.45688 19.3928 4.52156 19.7707 4.37531 20.2148C3.93094 21.5562 3.50063 22.9022 3.0675 24.2474C3.04313 24.3237 3.03563 24.4055 3.01125 24.5287C4.42781 23.8217 5.80125 23.1551 7.15406 22.4517C7.66031 22.1888 8.11313 22.186 8.61938 22.4297C9.06469 22.6439 9.54281 22.791 10.0172 22.9712C10.0294 22.9032 10.035 22.8912 10.0322 22.8839C9.9825 22.7809 9.93187 22.6779 9.88031 22.5749C8.31844 19.4746 8.09531 16.2806 9.40313 13.0718C11.0691 8.98495 14.2537 6.53561 18.5109 5.35783C19.2159 5.16291 19.9481 5.05993 20.6991 4.90823Z"/>
</mask>
<path d="M36 16.3872V18.1801C35.9784 18.2555 35.9447 18.33 35.9372 18.4063C35.7666 20.1614 35.2416 21.8146 34.2609 23.2856C33.8503 23.9017 33.8137 24.4009 34.0547 25.0748C34.6744 26.8061 35.2116 28.5659 35.775 30.3155C35.9897 30.9821 35.6934 31.6027 35.0559 31.7158C34.7822 31.7646 34.4438 31.6956 34.1897 31.5715C32.2716 30.6383 30.3638 29.6848 28.4616 28.7213C28.1859 28.5815 27.9628 28.576 27.6787 28.6863C25.23 29.6407 22.6922 29.9202 20.0925 29.5359C17.0138 29.0808 14.3437 27.7972 12.1312 25.6274C12.0328 25.5309 11.8791 25.4509 11.7422 25.4334C10.5759 25.2817 9.44156 25.0031 8.35594 24.5664C8.02594 24.434 7.78125 24.4607 7.47844 24.6142C5.59687 25.5667 3.70969 26.5101 1.81219 27.4332C1.55719 27.5573 1.21875 27.6281 0.945938 27.5793C0.294375 27.4644 0.00656249 26.8438 0.231562 26.1506C0.864375 24.1931 1.49719 22.2357 2.14313 20.2828C2.21906 20.052 2.20313 19.8875 2.06156 19.6852C1.24781 18.5184 0.657187 17.2487 0.3375 15.8677C0.19875 15.2637 0.110625 14.6504 0 14.0418C0 13.4671 0 12.8925 0 12.3179C0.020625 12.2195 0.0515625 12.122 0.0609375 12.0227C0.208125 10.4468 0.677813 8.96748 1.45031 7.58099C4.25719 2.54807 10.2609 0.0242569 15.9609 0.904144C19.0228 1.37673 21.6769 2.6584 23.8809 4.81353C23.9784 4.90915 24.1359 4.97994 24.2738 4.99833C25.7813 5.19785 27.2306 5.59596 28.5928 6.25886C32.1131 7.97358 34.5553 10.6022 35.61 14.3682C35.7947 15.0265 35.8725 15.7133 36 16.3872ZM33.0094 28.6753C32.9616 28.4997 32.9363 28.3903 32.9016 28.2836C32.4947 27.0268 32.1028 25.7644 31.6697 24.5168C31.4775 23.9623 31.5478 23.5192 31.9097 23.0448C34.5881 19.5326 34.5412 14.8702 31.8159 11.3938C27.6262 6.04923 19.0481 5.40288 14.0053 10.0533C11.9803 11.9207 10.7822 14.1953 10.7044 16.9398C10.6031 20.486 12.1462 23.3086 15.0478 25.3314C18.8841 28.006 23.0484 28.3121 27.3778 26.5661C27.9141 26.3501 28.3622 26.3381 28.8759 26.6048C30.2194 27.3017 31.5806 27.9627 33.0094 28.6753ZM20.6991 4.90823C20.6325 4.85766 20.5987 4.82732 20.5603 4.8025C20.4534 4.73262 20.3456 4.66274 20.2359 4.59654C18.5597 3.58978 16.7428 3.00227 14.7834 2.85332C11.4619 2.60048 8.46281 3.43531 5.88469 5.52516C1.57031 9.02264 0.88125 14.7929 4.16813 19.0214C4.45688 19.3928 4.52156 19.7707 4.37531 20.2148C3.93094 21.5562 3.50063 22.9022 3.0675 24.2474C3.04313 24.3237 3.03563 24.4055 3.01125 24.5287C4.42781 23.8217 5.80125 23.1551 7.15406 22.4517C7.66031 22.1888 8.11313 22.186 8.61938 22.4297C9.06469 22.6439 9.54281 22.791 10.0172 22.9712C10.0294 22.9032 10.035 22.8912 10.0322 22.8839C9.9825 22.7809 9.93187 22.6779 9.88031 22.5749C8.31844 19.4746 8.09531 16.2806 9.40313 13.0718C11.0691 8.98495 14.2537 6.53561 18.5109 5.35783C19.2159 5.16291 19.9481 5.05993 20.6991 4.90823Z" fill="#1C2C65" stroke="#F2F3F7" stroke-width="0.8" mask="url(#path-1-inside-1_723_2674)"/>
</g>
<g id="Vector_2">
<mask id="path-2-inside-2_723_2674" fill="white">
<path d="M17.9934 16.2502C18.5625 16.2474 19.0444 16.7108 19.0528 17.2689C19.0612 17.8408 18.57 18.3235 17.9869 18.3161C17.4169 18.3097 16.9444 17.839 16.9462 17.2799C16.9481 16.7209 17.4234 16.253 17.9934 16.2502Z"/>
</mask>
<path d="M17.9934 16.2502C18.5625 16.2474 19.0444 16.7108 19.0528 17.2689C19.0612 17.8408 18.57 18.3235 17.9869 18.3161C17.4169 18.3097 16.9444 17.839 16.9462 17.2799C16.9481 16.7209 17.4234 16.253 17.9934 16.2502Z" fill="#1C2C65" stroke="#F2F3F7" stroke-width="0.8" mask="url(#path-2-inside-2_723_2674)"/>
</g>
<g id="Vector_3">
<mask id="path-3-inside-3_723_2674" fill="white">
<path d="M27.4893 17.2809C27.4903 17.839 27.0159 18.3107 26.4468 18.3171C25.8637 18.3236 25.3753 17.8418 25.3828 17.269C25.3903 16.7091 25.8712 16.2475 26.4412 16.2512C27.0112 16.2549 27.4875 16.7238 27.4884 17.2819L27.4893 17.2809Z"/>
</mask>
<path d="M27.4893 17.2809C27.4903 17.839 27.0159 18.3107 26.4468 18.3171C25.8637 18.3236 25.3753 17.8418 25.3828 17.269C25.3903 16.7091 25.8712 16.2475 26.4412 16.2512C27.0112 16.2549 27.4875 16.7238 27.4884 17.2819L27.4893 17.2809Z" fill="#1C2C65" stroke="#F2F3F7" stroke-width="0.8" mask="url(#path-3-inside-3_723_2674)"/>
</g>
<g id="Vector_4">
<mask id="path-4-inside-4_723_2674" fill="white">
<path d="M22.2094 16.2502C22.7784 16.2456 23.2622 16.7081 23.2715 17.2671C23.2809 17.8381 22.7915 18.3226 22.2084 18.3171C21.6384 18.3116 21.165 17.8427 21.165 17.2827C21.165 16.7228 21.6384 16.2548 22.2094 16.2502V16.2502Z"/>
</mask>
<path d="M22.2094 16.2502C22.7784 16.2456 23.2622 16.7081 23.2715 17.2671C23.2809 17.8381 22.7915 18.3226 22.2084 18.3171C21.6384 18.3116 21.165 17.8427 21.165 17.2827C21.165 16.7228 21.6384 16.2548 22.2094 16.2502V16.2502Z" fill="#1C2C65" stroke="#F2F3F7" stroke-width="0.8" mask="url(#path-4-inside-4_723_2674)"/>
</g>
</g>
</svg>
