<svg width="13" height="13" viewBox="0 0 13 13" fill="none" xmlns="http://www.w3.org/2000/svg">
<path d="M7.4992 6.56328L12.242 0.909905C12.3215 0.815953 12.2546 0.673218 12.1318 0.673218H10.69C10.605 0.673218 10.5237 0.71116 10.4677 0.776204L6.55607 5.43947L2.64441 0.776204C2.59021 0.71116 2.50891 0.673218 2.42218 0.673218H0.98038C0.857519 0.673218 0.790669 0.815953 0.870167 0.909905L5.61294 6.56328L0.870167 12.2167C0.852358 12.2376 0.840934 12.2632 0.837249 12.2905C0.833563 12.3177 0.837773 12.3454 0.849377 12.3703C0.860981 12.3953 0.879493 12.4163 0.902714 12.431C0.925935 12.4458 0.95289 12.4535 0.98038 12.4534H2.42218C2.5071 12.4534 2.5884 12.4154 2.64441 12.3504L6.55607 7.6871L10.4677 12.3504C10.5219 12.4154 10.6032 12.4534 10.69 12.4534H12.1318C12.2546 12.4534 12.3215 12.3106 12.242 12.2167L7.4992 6.56328Z" fill="white"/>
</svg>
