<svg width="24" height="24" viewBox="0 0 24 24" fill="none" xmlns="http://www.w3.org/2000/svg">
<g id="cross-black">
<path id="Vector" d="M6.783e-05 11.9814C0.0221076 5.34724 5.39745 -0.0149513 12.011 3.1321e-05C18.6536 0.0150139 24.0384 5.419 23.9998 12.0326C23.9612 18.6747 18.5725 24.0377 11.9747 23.9998C5.32975 23.9619 -0.0219719 18.5903 6.783e-05 11.9814ZM12.0054 23.134C18.1482 23.1213 23.1481 18.1164 23.1339 11.994C23.1198 5.84877 18.1183 0.85404 11.9936 0.866657C5.85005 0.879274 0.854109 5.88031 0.865916 12.005C0.876936 18.1455 5.88311 23.1466 12.0054 23.1332V23.134Z" fill="#1C2C65"/>
<path id="Vector 378" d="M17.5 6L7 18" stroke="#1C2C65" stroke-linecap="round"/>
<path id="Vector 379" d="M17.5 18L7 6" stroke="#1C2C65" stroke-linecap="round"/>
</g>
</svg>
