<svg width="29" height="25" viewBox="0 0 29 25" fill="none" xmlns="http://www.w3.org/2000/svg">
<g id="event-to-come">
<path id="Vector" d="M9.52951 10.8595C9.43959 10.5634 9.29079 10.2874 9.09162 10.0474C8.89246 9.8074 8.64681 9.60803 8.36872 9.4607C8.09063 9.31337 7.78554 9.22096 7.47087 9.18874C7.15619 9.15651 6.8381 9.18511 6.53475 9.27291C6.2314 9.3607 5.94873 9.50596 5.70288 9.70039C5.45704 9.89483 5.25282 10.1346 5.10191 10.4061C4.951 10.6776 4.85633 10.9755 4.82333 11.2827C4.79032 11.5899 4.81962 11.9004 4.90954 12.1965" stroke="#1C2C65" stroke-width="0.7" stroke-miterlimit="10"/>
<path id="Subtract" fill-rule="evenodd" clip-rule="evenodd" d="M11.4584 14.2563L8.32528 15.1621L7.98462 15.2606L8.08755 15.5999C8.37746 16.5557 9.04355 17.3573 9.93628 17.8305C10.3783 18.0649 10.863 18.2118 11.3625 18.2631C11.8621 18.3144 12.3672 18.2691 12.849 18.1298C12.9124 18.1115 12.9752 18.0916 13.0374 18.0701C12.9226 17.8592 12.8132 17.6494 12.7091 17.4411C12.691 17.4467 12.6728 17.4521 12.6546 17.4574C12.2592 17.5717 11.8444 17.6089 11.434 17.5667C11.0237 17.5246 10.6261 17.404 10.2642 17.2121C9.64069 16.8815 9.15553 16.3574 8.88061 15.7302L11.666 14.925C11.5912 14.6995 11.5221 14.4765 11.4584 14.2563Z" fill="#1C2C65"/>
<path id="Subtract_2" fill-rule="evenodd" clip-rule="evenodd" d="M13.1602 0.75131L13.1601 0.751303C11.4328 0.53273 9.67772 0.66883 8.00721 1.15098C6.33667 1.63313 4.78719 2.45083 3.45821 3.55211L3.45819 3.55213L0.777679 5.77307L0.656778 5.87324L0.651203 6.03015L1.00098 6.04258C0.651203 6.03015 0.651195 6.03039 0.651185 6.03066L0.651161 6.03136L0.651098 6.03336L0.650919 6.03969L0.650464 6.0616C0.650158 6.08028 0.649902 6.10703 0.650026 6.14151C0.650273 6.21048 0.652036 6.31043 0.657949 6.43864C0.669774 6.69501 0.698205 7.06461 0.764357 7.52564C0.89664 8.44756 1.17995 9.73641 1.78376 11.2171C2.99321 14.183 5.48311 17.9043 10.5882 20.9835L10.5883 20.9836C11.1152 21.3011 11.7043 21.5063 12.3171 21.5862C12.9299 21.6662 13.5532 21.619 14.1463 21.4478C14.452 21.3596 14.7462 21.2394 15.024 21.0897C14.8768 20.9003 14.7344 20.7114 14.5967 20.523C14.3911 20.6263 14.1753 20.7108 13.9522 20.7753C13.4516 20.9198 12.9252 20.9596 12.4076 20.8921C11.8901 20.8246 11.3933 20.6514 10.9497 20.3841C5.9825 17.388 3.5884 13.7887 2.43194 10.9528C1.8528 9.53259 1.58267 8.30025 1.45726 7.42621C1.39456 6.98927 1.36808 6.64218 1.35721 6.40638C1.35355 6.32717 1.35166 6.26054 1.35075 6.20731L3.90481 4.09113L3.90483 4.09112C5.1591 3.05174 6.62247 2.27922 8.20132 1.82353C9.78018 1.36783 11.4393 1.23913 13.0723 1.44577L13.0724 1.44578L16.3994 1.86623C16.4289 1.91216 16.4656 1.9707 16.5081 2.04155C16.6306 2.2453 16.802 2.55066 16.9931 2.95064C17.1003 3.17484 17.2135 3.42865 17.3278 3.71087C17.5647 3.67109 17.8028 3.63816 18.0419 3.61213C17.9001 3.24986 17.7582 2.92808 17.6248 2.64886C17.4232 2.22709 17.2411 1.9021 17.1081 1.68091C17.0416 1.5703 16.9874 1.4856 16.9492 1.4277C16.9301 1.39874 16.915 1.37648 16.9043 1.36102L16.8918 1.34295L16.8881 1.33776L16.887 1.33613L16.8865 1.33556C16.8864 1.33534 16.8863 1.33515 16.6018 1.53902L16.8863 1.33515L16.7972 1.21094L16.6456 1.19178L13.1602 0.75131Z" fill="#1C2C65"/>
<path id="Vector_2" d="M16.3697 22.6804C8.47115 14.064 11.2574 5.93638 11.2574 5.93638L14.4721 4.55256C16.0214 3.88418 17.6965 3.53894 19.3903 3.53894C21.0841 3.53894 22.7593 3.88418 24.3086 4.55256L27.524 5.94084C27.524 5.94084 30.308 14.0692 22.4102 22.6849C22.0296 23.0991 21.5638 23.4303 21.0432 23.6569C20.5226 23.8836 19.9589 24.0005 19.3889 24C18.8189 23.9996 18.2554 23.8819 17.7352 23.6545C17.2149 23.4271 16.7497 23.0952 16.3697 22.6804Z" stroke="#1C2C65" stroke-width="0.7" stroke-miterlimit="10"/>
<path id="Vector_3" d="M13.2159 12.9164C13.2159 12.2927 13.4697 11.6945 13.9215 11.2535C14.3732 10.8125 14.986 10.5647 15.6248 10.5647C16.2637 10.5647 16.8764 10.8125 17.3282 11.2535C17.7799 11.6945 18.0337 12.2927 18.0337 12.9164" stroke="#1C2C65" stroke-width="0.7" stroke-miterlimit="10"/>
<path id="Vector_4" d="M20.7484 12.9164C20.7484 12.2927 21.0022 11.6945 21.454 11.2535C21.9057 10.8125 22.5184 10.5647 23.1573 10.5647C23.7962 10.5647 24.4089 10.8125 24.8607 11.2535C25.3124 11.6945 25.5662 12.2927 25.5662 12.9164" stroke="#1C2C65" stroke-width="0.7" stroke-miterlimit="10"/>
<path id="Vector_5" d="M23.1567 17.0582C23.1567 17.5048 23.0666 17.947 22.8915 18.3595C22.7165 18.7721 22.4599 19.147 22.1364 19.4628C21.813 19.7785 21.429 20.029 21.0064 20.1999C20.5838 20.3708 20.1309 20.4587 19.6734 20.4587C19.216 20.4587 18.7631 20.3708 18.3404 20.1999C17.9178 20.029 17.5339 19.7785 17.2104 19.4628C16.887 19.147 16.6304 18.7721 16.4553 18.3595C16.2803 17.947 16.1902 17.5048 16.1902 17.0582H23.1567Z" stroke="#1C2C65" stroke-width="0.7" stroke-miterlimit="10"/>
</g>
</svg>
