<svg width="29" height="27" viewBox="0 0 29 27" fill="none" xmlns="http://www.w3.org/2000/svg">
<g id="event-pass">
<path id="Vector" d="M27.988 17.7751L23.916 13.8191" stroke="#1C2C65" stroke-width="0.7" stroke-miterlimit="10"/>
<path id="Vector_45" d="M1 9.53613V17.7681L9.507 26.0021H27.98L28 17.8691C28 17.8426 27.9895 17.8172 27.9707 17.7984C27.952 17.7797 27.9265 17.7691 27.9 17.7691H9.507L1 9.53613Z" stroke="#1C2C65" stroke-width="0.7" stroke-miterlimit="10"/>
<path id="Vector_46" d="M9.508 17.7681V26.0021" stroke="#1C2C65" stroke-width="0.7" stroke-miterlimit="10"/>
<g id="Mask group">
<mask id="mask0_740_4095" style="mask-type:alpha" maskUnits="userSpaceOnUse" x="1" y="0" width="26" height="22">
<g id="Groupe de masques 1">
<g id="Groupe 7">
<path id="Union 6" d="M12.124 20.8811C11.7676 20.7233 11.4487 20.4919 11.188 20.2021C9.98377 18.8928 9.01304 17.3866 8.318 15.7491C7.0138 15.6556 5.75782 15.2175 4.67843 14.4796C3.59904 13.7416 2.73497 12.7303 2.17453 11.5489C1.6141 10.3676 1.3774 9.0586 1.48864 7.75579C1.59988 6.45299 2.05507 5.20309 2.80768 4.13387C3.56028 3.06464 4.58331 2.21443 5.77218 1.67014C6.96106 1.12586 8.27314 0.907032 9.5743 1.03602C10.8755 1.16501 12.119 1.63719 13.1779 2.4043C14.2368 3.17141 15.073 4.20593 15.601 5.40211L17.557 5.15011C18.7074 5.00177 19.8761 5.09407 20.989 5.42114C22.1019 5.74821 23.1347 6.30292 24.022 7.05011L25.858 8.60211C25.858 8.60211 26.069 14.5761 19.164 18.8131C18.8309 19.0171 18.4589 19.1492 18.0717 19.2009C17.6846 19.2526 17.2909 19.2227 16.916 19.1131C16.7368 19.0608 16.5636 18.9901 16.399 18.9021C16.0783 19.3348 15.7213 19.7704 15.328 20.2091C14.9337 20.6443 14.4123 20.9442 13.8378 21.0661C13.2633 21.188 12.665 21.1257 12.128 20.8881L12.124 20.8811Z" stroke="#1C2C65" stroke-width="0.7" stroke-miterlimit="10"/>
<path id="Union 2" d="M12.12 20.8811C11.7635 20.723 11.4442 20.4917 11.183 20.2021C5.771 14.1921 7.683 8.52408 7.683 8.52408L8.45 8.18808L5.263 6.30608L8.45 8.18808L8.805 8.03208L9.888 7.55708C10.9504 7.09055 12.0981 6.84965 13.2585 6.84965C14.4188 6.84965 15.5666 7.09055 16.629 7.55708L18.829 8.52408C18.829 8.52408 20.739 14.1961 15.329 20.2021C14.9347 20.6373 14.4133 20.9372 13.8388 21.0591C13.2643 21.181 12.666 21.1187 12.129 20.8811H12.12ZM6.1 13.0511L5.636 13.8511L6.1 13.0511ZM4.111 11.0831L3.305 11.5471L4.111 11.0831ZM3.299 5.23408L4.106 5.69608L3.299 5.23408ZM14.289 5.20908L13.483 5.67408L14.289 5.20908ZM5.623 2.92208L6.09 3.72208L5.623 2.92208ZM11.95 2.90808L11.487 3.70808L11.95 2.90808Z" stroke="#1C2C65" stroke-width="0.7" stroke-miterlimit="10"/>
<g id="Groupe 6">
<path id="Union 3" d="M12.123 20.8801C11.7666 20.7223 11.4477 20.4909 11.187 20.2011C5.77499 14.1931 7.682 8.5241 7.682 8.5241L9.88699 7.5561C11.3134 6.93049 12.8858 6.71442 14.428 6.9321C14.6201 6.41476 14.8679 5.91985 15.167 5.4561L17.556 5.1481C18.7064 4.99976 19.8751 5.09206 20.988 5.41912C22.1009 5.74619 23.1337 6.30091 24.021 7.0481L25.856 8.5971C25.856 8.5971 26.067 14.5711 19.162 18.8081C18.7482 19.0614 18.2755 19.2027 17.7905 19.218C17.3055 19.2332 16.8249 19.1219 16.396 18.8951C16.076 19.3271 15.72 19.7641 15.325 20.2021C14.9307 20.6373 14.4093 20.9372 13.8348 21.0591C13.2603 21.181 12.662 21.1187 12.125 20.8811L12.123 20.8801Z" stroke="#1C2C65" stroke-width="0.7" stroke-miterlimit="10"/>
<g id="Groupe 5">
<g id="Vector_36">
<path id="Trac&#195;&#169; 28" d="M20.015 11.96C20.0768 11.753 20.1788 11.5603 20.3153 11.3928C20.4517 11.2253 20.6198 11.0864 20.81 10.984C21.097 10.8292 21.4233 10.7623 21.748 10.7918C22.0728 10.8214 22.3816 10.946 22.636 11.15C22.8896 11.353 23.0769 11.6269 23.174 11.9369C23.271 12.2468 23.2735 12.5787 23.181 12.89" stroke="#1C2C65" stroke-width="0.7" stroke-miterlimit="10"/>
</g>
<path id="Union 4" d="M12.123 20.8811C11.7666 20.7233 11.4477 20.4919 11.187 20.2021C5.77499 14.1921 7.682 8.5241 7.682 8.5241L9.88699 7.5551C10.9494 7.08919 12.0969 6.84863 13.257 6.84863C14.4171 6.84863 15.5646 7.08919 16.627 7.5551L18.827 8.5231C19.341 10.5133 19.2695 12.6096 18.621 14.5601L20.77 15.1921C20.6836 15.4934 20.5381 15.7746 20.342 16.0191C20.0447 16.3889 19.6444 16.6623 19.1918 16.8047C18.7392 16.947 18.2545 16.9521 17.799 16.8191L17.713 16.7921C17.0678 18.0285 16.2651 19.176 15.325 20.2061C14.9307 20.6413 14.4093 20.9412 13.8348 21.0631C13.2603 21.185 12.662 21.1227 12.125 20.8851L12.123 20.8811Z" stroke="#1C2C65" stroke-width="0.7" stroke-miterlimit="10"/>
</g>
</g>
<g id="Vector_42">
<path id="Trac&#195;&#169; 34" d="M17.489 13.3911C17.4888 13.1754 17.446 12.9618 17.3629 12.7627C17.2799 12.5636 17.1582 12.3829 17.005 12.2311C16.6943 11.9234 16.2748 11.7507 15.8375 11.7507C15.4002 11.7507 14.9807 11.9234 14.67 12.2311C14.5168 12.3829 14.3951 12.5636 14.3121 12.7627C14.229 12.9618 14.1862 13.1754 14.186 13.3911" stroke="#1C2C65" stroke-width="0.7" stroke-miterlimit="10"/>
</g>
<g id="Vector_43">
<path id="Trac&#195;&#169; 36" d="M12.327 13.3911C12.3268 13.1754 12.284 12.9618 12.2009 12.7627C12.1179 12.5636 11.9962 12.3829 11.843 12.2311C11.5323 11.9234 11.1128 11.7507 10.6755 11.7507C10.2382 11.7507 9.81866 11.9234 9.508 12.2311C9.35479 12.3829 9.23315 12.5636 9.15008 12.7627C9.06701 12.9618 9.02416 13.1754 9.024 13.3911" stroke="#1C2C65" stroke-width="0.7" stroke-miterlimit="10"/>
</g>
<path id="Vector_44" d="M10.675 16.28C10.6702 16.5947 10.7283 16.9072 10.846 17.1991C10.9636 17.4911 11.1384 17.7566 11.36 17.98C11.6381 18.2623 11.9819 18.4711 12.3606 18.5876C12.7393 18.7041 13.141 18.7247 13.5297 18.6476C13.9183 18.5705 14.2818 18.398 14.5873 18.1457C14.8928 17.8934 15.1308 17.5691 15.28 17.202C15.3975 16.9098 15.4553 16.597 15.45 16.282L10.675 16.28Z" stroke="#1C2C65" stroke-width="0.7" stroke-miterlimit="10"/>
</g>
</g>
</mask>
<g mask="url(#mask0_740_4095)">
<path id="Vector 399" d="M9.5 17.5L1 9V-1.5H27V17.5H9.5Z" fill="#1C2C65"/>
</g>
</g>
</g>
</svg>
