<svg width="41" height="41" viewBox="0 0 41 41" fill="none" xmlns="http://www.w3.org/2000/svg">
<g id="fireworks">
<g id="Vector">
<mask id="path-1-inside-1_627_3549" fill="white">
<path d="M14.014 0.954354C14.2676 1.14601 14.373 1.39183 14.372 1.7189C14.3626 4.07502 14.3668 6.43115 14.3668 8.78624C14.3668 8.86436 14.3668 8.94248 14.3563 9.01956C14.3104 9.37162 14.0891 9.57578 13.7604 9.56015C13.4212 9.54349 13.2093 9.34871 13.2083 9.01956C13.1978 6.50719 13.1958 3.99586 13.2177 1.48349C13.2187 1.30538 13.4306 1.12934 13.5454 0.952271H14.014V0.954354Z"/>
</mask>
<path d="M14.014 0.954354C14.2676 1.14601 14.373 1.39183 14.372 1.7189C14.3626 4.07502 14.3668 6.43115 14.3668 8.78624C14.3668 8.86436 14.3668 8.94248 14.3563 9.01956C14.3104 9.37162 14.0891 9.57578 13.7604 9.56015C13.4212 9.54349 13.2093 9.34871 13.2083 9.01956C13.1978 6.50719 13.1958 3.99586 13.2177 1.48349C13.2187 1.30538 13.4306 1.12934 13.5454 0.952271H14.014V0.954354Z" fill="#1C2C65" stroke="#F2F3F7" stroke-width="0.2" mask="url(#path-1-inside-1_627_3549)"/>
</g>
<g id="Vector_2">
<mask id="path-2-inside-2_627_3549" fill="white">
<path d="M26.2814 40.9523C25.7909 40.6075 25.7523 40.4763 25.9861 39.9117C26.7104 38.1597 27.4357 36.4088 28.1621 34.6578C28.207 34.5505 28.2477 34.438 28.3104 34.3412C28.494 34.0579 28.7633 33.986 29.0555 34.1245C29.3311 34.2558 29.4594 34.5026 29.354 34.8047C29.2215 35.1838 29.0597 35.5536 28.9063 35.9255C28.2968 37.4014 27.6904 38.8784 27.0673 40.3492C26.9755 40.5669 26.8054 40.7513 26.6718 40.9513H26.2814V40.9523Z"/>
</mask>
<path d="M26.2814 40.9523C25.7909 40.6075 25.7523 40.4763 25.9861 39.9117C26.7104 38.1597 27.4357 36.4088 28.1621 34.6578C28.207 34.5505 28.2477 34.438 28.3104 34.3412C28.494 34.0579 28.7633 33.986 29.0555 34.1245C29.3311 34.2558 29.4594 34.5026 29.354 34.8047C29.2215 35.1838 29.0597 35.5536 28.9063 35.9255C28.2968 37.4014 27.6904 38.8784 27.0673 40.3492C26.9755 40.5669 26.8054 40.7513 26.6718 40.9513H26.2814V40.9523Z" fill="#1C2C65" stroke="#F2F3F7" stroke-width="0.2" mask="url(#path-2-inside-2_627_3549)"/>
</g>
<g id="Vector_3">
<mask id="path-3-inside-3_627_3549" fill="white">
<path d="M40.6581 26.8905C40.4849 27.0384 40.3346 27.2405 40.1342 27.3259C38.3297 28.0894 36.5158 28.8289 34.7071 29.5841C34.3992 29.7122 34.1278 29.7414 33.9076 29.4476C33.6404 29.0935 33.7657 28.7112 34.2197 28.5217C35.7758 27.8706 37.334 27.2259 38.8922 26.578C39.1323 26.478 39.3702 26.3759 39.6103 26.278C40.1561 26.0541 40.2772 26.0801 40.6581 26.502V26.8926V26.8905Z"/>
</mask>
<path d="M40.6581 26.8905C40.4849 27.0384 40.3346 27.2405 40.1342 27.3259C38.3297 28.0894 36.5158 28.8289 34.7071 29.5841C34.3992 29.7122 34.1278 29.7414 33.9076 29.4476C33.6404 29.0935 33.7657 28.7112 34.2197 28.5217C35.7758 27.8706 37.334 27.2259 38.8922 26.578C39.1323 26.478 39.3702 26.3759 39.6103 26.278C40.1561 26.0541 40.2772 26.0801 40.6581 26.502V26.8926V26.8905Z" fill="#1C2C65" stroke="#F2F3F7" stroke-width="0.2" mask="url(#path-3-inside-3_627_3549)"/>
</g>
<g id="Vector_4">
<mask id="path-4-inside-4_627_3549" fill="white">
<path d="M40.6581 34.8588C40.2907 35.364 40.1801 35.3953 39.5841 35.1484C37.7953 34.4068 36.0054 33.6662 34.2175 32.9204C33.7416 32.7215 33.6206 32.2683 33.9441 31.9329C34.1727 31.6955 34.4252 31.7444 34.6976 31.8569C36.5105 32.609 38.3286 33.3495 40.1363 34.113C40.3356 34.1974 40.4848 34.3995 40.6581 34.5474V34.8599V34.8588Z"/>
</mask>
<path d="M40.6581 34.8588C40.2907 35.364 40.1801 35.3953 39.5841 35.1484C37.7953 34.4068 36.0054 33.6662 34.2175 32.9204C33.7416 32.7215 33.6206 32.2683 33.9441 31.9329C34.1727 31.6955 34.4252 31.7444 34.6976 31.8569C36.5105 32.609 38.3286 33.3495 40.1363 34.113C40.3356 34.1974 40.4848 34.3995 40.6581 34.5474V34.8599V34.8588Z" fill="#1C2C65" stroke="#F2F3F7" stroke-width="0.2" mask="url(#path-4-inside-4_627_3549)"/>
</g>
<g id="Vector_5">
<mask id="path-5-inside-5_627_3549" fill="white">
<path d="M34.251 40.9523C34.1059 40.7783 33.9076 40.6263 33.8231 40.4263C33.0591 38.6232 32.3149 36.8119 31.5666 35.0016C31.3955 34.588 31.4581 34.3276 31.7524 34.1568C32.1062 33.9516 32.4412 34.0756 32.6207 34.5026C33.1937 35.865 33.7584 37.2316 34.3261 38.5972C34.5108 39.0399 34.6945 39.4836 34.8772 39.9273C35.1078 40.4908 35.0682 40.6179 34.5641 40.9523H34.252H34.251Z"/>
</mask>
<path d="M34.251 40.9523C34.1059 40.7783 33.9076 40.6263 33.8231 40.4263C33.0591 38.6232 32.3149 36.8119 31.5666 35.0016C31.3955 34.588 31.4581 34.3276 31.7524 34.1568C32.1062 33.9516 32.4412 34.0756 32.6207 34.5026C33.1937 35.865 33.7584 37.2316 34.3261 38.5972C34.5108 39.0399 34.6945 39.4836 34.8772 39.9273C35.1078 40.4908 35.0682 40.6179 34.5641 40.9523H34.252H34.251Z" fill="#1C2C65" stroke="#F2F3F7" stroke-width="0.2" mask="url(#path-5-inside-5_627_3549)"/>
</g>
<g id="Vector_6">
<mask id="path-6-inside-6_627_3549" fill="white">
<path d="M15.7946 16.2463C15.805 16.6723 15.375 16.9837 14.9669 16.8056C14.6465 16.666 14.3512 16.4671 14.0276 16.3358C13.8857 16.2785 13.6832 16.2765 13.5413 16.3327C13.2292 16.4577 12.9516 16.6723 12.6354 16.7785C12.4527 16.8389 12.1636 16.8316 12.0311 16.7223C11.8839 16.6004 11.7482 16.29 11.8036 16.1296C12.1083 15.2401 11.885 14.5734 11.1314 14.0203C10.9832 13.911 10.8966 13.5651 10.9509 13.3777C10.9989 13.21 11.2744 13.0985 11.4633 12.986C11.5468 12.936 11.6668 12.9235 11.767 12.9308C12.507 12.9871 12.8994 12.5944 13.1113 11.9329C13.1645 11.7652 13.2658 11.5965 13.3879 11.4705C13.6519 11.1986 14.1132 11.2871 14.3105 11.6423C14.4743 11.9371 14.5923 12.259 14.7707 12.5433C14.8521 12.6725 15.0191 12.7871 15.1684 12.8246C15.494 12.9068 15.8363 12.9225 16.1672 12.9891C16.6556 13.087 16.8268 13.5954 16.5043 13.9745C16.4041 14.0932 16.2976 14.2141 16.1714 14.3016C15.6516 14.664 15.4742 15.1224 15.709 15.7307C15.7685 15.8848 15.7664 16.0619 15.7956 16.2473L15.7946 16.2463ZM13.7093 13.3693C13.6008 13.7474 13.2866 13.9724 12.7794 13.986C13.1885 14.313 13.296 14.6974 13.1624 15.188C13.5841 14.8505 13.9817 14.912 14.4649 15.2463C14.2541 14.6859 14.3919 14.313 14.7019 14.088L13.7104 13.3704L13.7093 13.3693Z"/>
</mask>
<path d="M15.7946 16.2463C15.805 16.6723 15.375 16.9837 14.9669 16.8056C14.6465 16.666 14.3512 16.4671 14.0276 16.3358C13.8857 16.2785 13.6832 16.2765 13.5413 16.3327C13.2292 16.4577 12.9516 16.6723 12.6354 16.7785C12.4527 16.8389 12.1636 16.8316 12.0311 16.7223C11.8839 16.6004 11.7482 16.29 11.8036 16.1296C12.1083 15.2401 11.885 14.5734 11.1314 14.0203C10.9832 13.911 10.8966 13.5651 10.9509 13.3777C10.9989 13.21 11.2744 13.0985 11.4633 12.986C11.5468 12.936 11.6668 12.9235 11.767 12.9308C12.507 12.9871 12.8994 12.5944 13.1113 11.9329C13.1645 11.7652 13.2658 11.5965 13.3879 11.4705C13.6519 11.1986 14.1132 11.2871 14.3105 11.6423C14.4743 11.9371 14.5923 12.259 14.7707 12.5433C14.8521 12.6725 15.0191 12.7871 15.1684 12.8246C15.494 12.9068 15.8363 12.9225 16.1672 12.9891C16.6556 13.087 16.8268 13.5954 16.5043 13.9745C16.4041 14.0932 16.2976 14.2141 16.1714 14.3016C15.6516 14.664 15.4742 15.1224 15.709 15.7307C15.7685 15.8848 15.7664 16.0619 15.7956 16.2473L15.7946 16.2463ZM13.7093 13.3693C13.6008 13.7474 13.2866 13.9724 12.7794 13.986C13.1885 14.313 13.296 14.6974 13.1624 15.188C13.5841 14.8505 13.9817 14.912 14.4649 15.2463C14.2541 14.6859 14.3919 14.313 14.7019 14.088L13.7104 13.3704L13.7093 13.3693Z" fill="#1C2C65" stroke="#F2F3F7" stroke-width="0.2" mask="url(#path-6-inside-6_627_3549)"/>
</g>
<g id="Vector_7">
<mask id="path-7-inside-7_627_3549" fill="white">
<path d="M8.83737 29.2154C8.78519 29.2977 8.72257 29.4935 8.58898 29.5883C7.87197 30.0956 7.59435 30.7257 7.92102 31.583C8.02017 31.8434 7.95859 32.1038 7.71437 32.2798C7.45658 32.4663 7.17688 32.4319 6.95144 32.2517C6.26679 31.7049 5.61031 31.734 4.93088 32.26C4.70231 32.4371 4.42469 32.4725 4.17316 32.2684C3.92894 32.0715 3.88093 31.8069 3.98008 31.5278C4.25666 30.7518 4.09489 30.132 3.38727 29.6654C3.13261 29.4977 2.98963 29.2435 3.09191 28.9238C3.18897 28.6217 3.43841 28.4873 3.72856 28.505C4.64178 28.5623 5.10413 28.0728 5.38905 27.2718C5.45376 27.0895 5.74286 26.8822 5.93385 26.878C6.12276 26.8728 6.43482 27.0718 6.49118 27.2457C6.77193 28.1248 7.33447 28.5259 8.25291 28.5269C8.63281 28.5269 8.84677 28.8081 8.83737 29.2164V29.2154ZM6.58929 30.7143C6.35968 30.2101 6.60077 29.8518 7.02554 29.4706C6.41186 29.5185 6.12276 29.2539 5.94951 28.6717C5.77835 29.2769 5.45794 29.5091 4.9434 29.5289C5.37548 29.8341 5.42036 30.2404 5.31391 30.7653C5.76582 30.4216 6.14155 30.4299 6.58929 30.7143V30.7143Z"/>
</mask>
<path d="M8.83737 29.2154C8.78519 29.2977 8.72257 29.4935 8.58898 29.5883C7.87197 30.0956 7.59435 30.7257 7.92102 31.583C8.02017 31.8434 7.95859 32.1038 7.71437 32.2798C7.45658 32.4663 7.17688 32.4319 6.95144 32.2517C6.26679 31.7049 5.61031 31.734 4.93088 32.26C4.70231 32.4371 4.42469 32.4725 4.17316 32.2684C3.92894 32.0715 3.88093 31.8069 3.98008 31.5278C4.25666 30.7518 4.09489 30.132 3.38727 29.6654C3.13261 29.4977 2.98963 29.2435 3.09191 28.9238C3.18897 28.6217 3.43841 28.4873 3.72856 28.505C4.64178 28.5623 5.10413 28.0728 5.38905 27.2718C5.45376 27.0895 5.74286 26.8822 5.93385 26.878C6.12276 26.8728 6.43482 27.0718 6.49118 27.2457C6.77193 28.1248 7.33447 28.5259 8.25291 28.5269C8.63281 28.5269 8.84677 28.8081 8.83737 29.2164V29.2154ZM6.58929 30.7143C6.35968 30.2101 6.60077 29.8518 7.02554 29.4706C6.41186 29.5185 6.12276 29.2539 5.94951 28.6717C5.77835 29.2769 5.45794 29.5091 4.9434 29.5289C5.37548 29.8341 5.42036 30.2404 5.31391 30.7653C5.76582 30.4216 6.14155 30.4299 6.58929 30.7143V30.7143Z" fill="#1C2C65" stroke="#F2F3F7" stroke-width="0.2" mask="url(#path-7-inside-7_627_3549)"/>
</g>
<g id="Vector_8">
<mask id="path-8-inside-8_627_3549" fill="white">
<path d="M30.3653 3.84589C30.6022 4.00213 30.7577 4.08754 30.8913 4.19795C30.9571 4.25211 31.0019 4.3469 31.026 4.43127C31.1856 5.01041 31.5687 5.2604 32.1604 5.25102C32.4547 5.24581 32.7449 5.37289 32.7668 5.68225C32.7835 5.90411 32.6238 6.14056 32.5403 6.36867C32.532 6.39054 32.5069 6.40929 32.4861 6.42283C32.0268 6.72594 31.9006 7.13426 32.0759 7.65402C32.1792 7.96025 32.1573 8.25295 31.8651 8.45398C31.5864 8.64668 31.3057 8.55502 31.0677 8.38002C30.6408 8.06546 30.2421 8.0415 29.8069 8.36752C29.5627 8.55085 29.2674 8.65397 28.9751 8.44877C28.6839 8.24461 28.6704 7.94567 28.7747 7.64465C28.9563 7.11863 28.7925 6.73219 28.3593 6.41138C28.1224 6.23534 27.9534 5.9989 28.0629 5.67183C28.1715 5.35102 28.4314 5.24477 28.7361 5.24894C29.2997 5.25623 29.6243 4.99062 29.8215 4.46356C29.9082 4.23337 30.1649 4.06671 30.3663 3.84589H30.3653ZM30.6961 6.83115C30.7536 6.66553 30.8183 6.477 30.884 6.28847L30.4248 5.95203L29.9645 6.29055C30.0313 6.48741 30.0919 6.66761 30.1472 6.83115H30.6961Z"/>
</mask>
<path d="M30.3653 3.84589C30.6022 4.00213 30.7577 4.08754 30.8913 4.19795C30.9571 4.25211 31.0019 4.3469 31.026 4.43127C31.1856 5.01041 31.5687 5.2604 32.1604 5.25102C32.4547 5.24581 32.7449 5.37289 32.7668 5.68225C32.7835 5.90411 32.6238 6.14056 32.5403 6.36867C32.532 6.39054 32.5069 6.40929 32.4861 6.42283C32.0268 6.72594 31.9006 7.13426 32.0759 7.65402C32.1792 7.96025 32.1573 8.25295 31.8651 8.45398C31.5864 8.64668 31.3057 8.55502 31.0677 8.38002C30.6408 8.06546 30.2421 8.0415 29.8069 8.36752C29.5627 8.55085 29.2674 8.65397 28.9751 8.44877C28.6839 8.24461 28.6704 7.94567 28.7747 7.64465C28.9563 7.11863 28.7925 6.73219 28.3593 6.41138C28.1224 6.23534 27.9534 5.9989 28.0629 5.67183C28.1715 5.35102 28.4314 5.24477 28.7361 5.24894C29.2997 5.25623 29.6243 4.99062 29.8215 4.46356C29.9082 4.23337 30.1649 4.06671 30.3663 3.84589H30.3653ZM30.6961 6.83115C30.7536 6.66553 30.8183 6.477 30.884 6.28847L30.4248 5.95203L29.9645 6.29055C30.0313 6.48741 30.0919 6.66761 30.1472 6.83115H30.6961Z" fill="#1C2C65" stroke="#F2F3F7" stroke-width="0.2" mask="url(#path-8-inside-8_627_3549)"/>
</g>
<g id="Vector_9">
<mask id="path-9-inside-9_627_3549" fill="white">
<path d="M8.83103 38.1754C8.83311 38.1629 8.83103 38.1483 8.83625 38.1368C9.07734 37.4681 8.88112 36.9723 8.32275 36.5265C7.93764 36.2192 8.13385 35.5911 8.62333 35.564C9.34765 35.5234 9.76095 35.2172 10.0219 34.5433C10.2003 34.0839 10.8558 34.0912 11.0342 34.5558C11.2879 35.2172 11.697 35.5088 12.3994 35.5578C12.9223 35.5942 13.1206 36.2046 12.7198 36.5369C12.1917 36.9754 11.9746 37.4306 12.1948 38.1097C12.247 38.2712 12.103 38.591 11.9506 38.6982C11.8013 38.8024 11.4642 38.818 11.3181 38.716C10.766 38.3306 10.287 38.3566 9.72964 38.7222C9.28712 39.0118 8.81015 38.6868 8.83207 38.1764L8.83103 38.1754ZM10.0615 36.5577L10.24 37.0963H10.8057L10.9894 36.5557C10.8224 36.4369 10.6627 36.3234 10.5228 36.2223C10.359 36.3411 10.2056 36.4525 10.0615 36.5567V36.5577Z"/>
</mask>
<path d="M8.83103 38.1754C8.83311 38.1629 8.83103 38.1483 8.83625 38.1368C9.07734 37.4681 8.88112 36.9723 8.32275 36.5265C7.93764 36.2192 8.13385 35.5911 8.62333 35.564C9.34765 35.5234 9.76095 35.2172 10.0219 34.5433C10.2003 34.0839 10.8558 34.0912 11.0342 34.5558C11.2879 35.2172 11.697 35.5088 12.3994 35.5578C12.9223 35.5942 13.1206 36.2046 12.7198 36.5369C12.1917 36.9754 11.9746 37.4306 12.1948 38.1097C12.247 38.2712 12.103 38.591 11.9506 38.6982C11.8013 38.8024 11.4642 38.818 11.3181 38.716C10.766 38.3306 10.287 38.3566 9.72964 38.7222C9.28712 39.0118 8.81015 38.6868 8.83207 38.1764L8.83103 38.1754ZM10.0615 36.5577L10.24 37.0963H10.8057L10.9894 36.5557C10.8224 36.4369 10.6627 36.3234 10.5228 36.2223C10.359 36.3411 10.2056 36.4525 10.0615 36.5567V36.5577Z" fill="#1C2C65" stroke="#F2F3F7" stroke-width="0.2" mask="url(#path-9-inside-9_627_3549)"/>
</g>
<g id="Vector_10">
<mask id="path-10-inside-10_627_3549" fill="white">
<path d="M29.3687 33.0329C28.9846 33.0204 28.7153 32.7308 28.7174 32.4069C28.7174 32.3684 28.7195 32.3267 28.7331 32.2913C28.9721 31.6663 28.8124 31.1872 28.2739 30.7747C28.1267 30.6622 28.0443 30.3195 28.0996 30.131C28.1486 29.9601 28.4252 29.8549 28.6016 29.7216C28.611 29.7143 28.6266 29.7143 28.6392 29.7154C29.3019 29.7789 29.6359 29.4206 29.8686 28.8446C29.9417 28.6633 30.2245 28.4654 30.4145 28.4623C30.6034 28.4592 30.7964 28.6915 30.9864 28.8238C31.0052 28.8373 31.0177 28.8665 31.024 28.8915C31.1795 29.4675 31.5583 29.7195 32.1501 29.7154C32.4371 29.7133 32.6813 29.8372 32.7784 30.1466C32.8682 30.4362 32.7502 30.6518 32.5404 30.8372C32.5206 30.8549 32.505 30.8768 32.4841 30.8914C32.0238 31.1955 31.8986 31.6059 32.075 32.1246C32.1731 32.4142 32.1616 32.6975 31.8944 32.9017C31.6084 33.1204 31.3141 33.036 31.0657 32.8475C30.619 32.5079 30.2047 32.5371 29.7684 32.861C29.638 32.9579 29.4637 32.9944 29.3697 33.0329H29.3687ZM30.1462 31.2986H30.7004C30.7662 31.1111 30.8309 30.9257 30.8883 30.758C30.7286 30.6434 30.5752 30.533 30.4218 30.4226C30.2652 30.5362 30.1034 30.6539 29.9542 30.7612C30.0158 30.9351 30.0794 31.1132 30.1452 31.2986H30.1462Z"/>
</mask>
<path d="M29.3687 33.0329C28.9846 33.0204 28.7153 32.7308 28.7174 32.4069C28.7174 32.3684 28.7195 32.3267 28.7331 32.2913C28.9721 31.6663 28.8124 31.1872 28.2739 30.7747C28.1267 30.6622 28.0443 30.3195 28.0996 30.131C28.1486 29.9601 28.4252 29.8549 28.6016 29.7216C28.611 29.7143 28.6266 29.7143 28.6392 29.7154C29.3019 29.7789 29.6359 29.4206 29.8686 28.8446C29.9417 28.6633 30.2245 28.4654 30.4145 28.4623C30.6034 28.4592 30.7964 28.6915 30.9864 28.8238C31.0052 28.8373 31.0177 28.8665 31.024 28.8915C31.1795 29.4675 31.5583 29.7195 32.1501 29.7154C32.4371 29.7133 32.6813 29.8372 32.7784 30.1466C32.8682 30.4362 32.7502 30.6518 32.5404 30.8372C32.5206 30.8549 32.505 30.8768 32.4841 30.8914C32.0238 31.1955 31.8986 31.6059 32.075 32.1246C32.1731 32.4142 32.1616 32.6975 31.8944 32.9017C31.6084 33.1204 31.3141 33.036 31.0657 32.8475C30.619 32.5079 30.2047 32.5371 29.7684 32.861C29.638 32.9579 29.4637 32.9944 29.3697 33.0329H29.3687ZM30.1462 31.2986H30.7004C30.7662 31.1111 30.8309 30.9257 30.8883 30.758C30.7286 30.6434 30.5752 30.533 30.4218 30.4226C30.2652 30.5362 30.1034 30.6539 29.9542 30.7612C30.0158 30.9351 30.0794 31.1132 30.1452 31.2986H30.1462Z" fill="#1C2C65" stroke="#F2F3F7" stroke-width="0.2" mask="url(#path-10-inside-10_627_3549)"/>
</g>
<g id="Vector_11">
<mask id="path-11-inside-11_627_3549" fill="white">
<path d="M13.1937 22.9053C13.1937 21.7595 13.1926 20.6138 13.1947 19.469C13.1947 19.3138 13.1603 19.1159 13.2396 19.0128C13.3679 18.8462 13.5621 18.6774 13.7572 18.6295C14.0129 18.567 14.2405 18.718 14.325 18.992C14.3626 19.1138 14.3647 19.2493 14.3647 19.3784C14.3668 21.7345 14.3699 24.0907 14.3594 26.4468C14.3594 26.6426 14.3208 26.9114 14.1935 27.0145C14.0411 27.1384 13.7385 27.2093 13.5662 27.1405C13.3993 27.0728 13.2218 26.8041 13.2124 26.6145C13.1728 25.8229 13.1937 25.0271 13.1926 24.2334C13.1926 23.7907 13.1926 23.348 13.1926 22.9053H13.1937Z"/>
</mask>
<path d="M13.1937 22.9053C13.1937 21.7595 13.1926 20.6138 13.1947 19.469C13.1947 19.3138 13.1603 19.1159 13.2396 19.0128C13.3679 18.8462 13.5621 18.6774 13.7572 18.6295C14.0129 18.567 14.2405 18.718 14.325 18.992C14.3626 19.1138 14.3647 19.2493 14.3647 19.3784C14.3668 21.7345 14.3699 24.0907 14.3594 26.4468C14.3594 26.6426 14.3208 26.9114 14.1935 27.0145C14.0411 27.1384 13.7385 27.2093 13.5662 27.1405C13.3993 27.0728 13.2218 26.8041 13.2124 26.6145C13.1728 25.8229 13.1937 25.0271 13.1926 24.2334C13.1926 23.7907 13.1926 23.348 13.1926 22.9053H13.1937Z" fill="#1C2C65" stroke="#F2F3F7" stroke-width="0.2" mask="url(#path-11-inside-11_627_3549)"/>
</g>
<g id="Vector_12">
<mask id="path-12-inside-12_627_3549" fill="white">
<path d="M4.94861 13.4974C6.09248 13.4974 7.23636 13.4974 8.38127 13.4985C8.52426 13.4985 8.66933 13.4974 8.80814 13.5245C9.08263 13.5798 9.23709 13.7601 9.25588 14.0394C9.27467 14.3343 9.14212 14.5448 8.85511 14.6302C8.733 14.6667 8.5994 14.6751 8.46999 14.6751C6.11649 14.6771 3.76403 14.6771 1.41053 14.6751C1.31973 14.6751 1.22789 14.6698 1.13917 14.6553C0.799979 14.5979 0.645514 14.376 0.660125 14.0498C0.674737 13.7403 0.841726 13.5412 1.16631 13.5099C1.29573 13.4974 1.42619 13.4964 1.5556 13.4964C2.68695 13.4964 3.81726 13.4964 4.94861 13.4964V13.4974Z"/>
</mask>
<path d="M4.94861 13.4974C6.09248 13.4974 7.23636 13.4974 8.38127 13.4985C8.52426 13.4985 8.66933 13.4974 8.80814 13.5245C9.08263 13.5798 9.23709 13.7601 9.25588 14.0394C9.27467 14.3343 9.14212 14.5448 8.85511 14.6302C8.733 14.6667 8.5994 14.6751 8.46999 14.6751C6.11649 14.6771 3.76403 14.6771 1.41053 14.6751C1.31973 14.6751 1.22789 14.6698 1.13917 14.6553C0.799979 14.5979 0.645514 14.376 0.660125 14.0498C0.674737 13.7403 0.841726 13.5412 1.16631 13.5099C1.29573 13.4974 1.42619 13.4964 1.5556 13.4964C2.68695 13.4964 3.81726 13.4964 4.94861 13.4964V13.4974Z" fill="#1C2C65" stroke="#F2F3F7" stroke-width="0.2" mask="url(#path-12-inside-12_627_3549)"/>
</g>
<g id="Vector_13">
<mask id="path-13-inside-13_627_3549" fill="white">
<path d="M22.6515 13.4975C23.7693 13.4975 24.8881 13.4975 26.0059 13.4975C26.1489 13.4975 26.2929 13.4975 26.4338 13.5173C26.7396 13.5589 26.8878 13.7642 26.8993 14.0529C26.9118 14.3583 26.7751 14.5844 26.4547 14.6469C26.3159 14.674 26.1708 14.6761 26.0289 14.6761C23.7536 14.6782 21.4784 14.6772 19.2032 14.6772C19.151 14.6772 19.0988 14.6772 19.0477 14.6772C18.5509 14.6647 18.2973 14.4604 18.3014 14.0758C18.3056 13.6934 18.5509 13.5006 19.0633 13.4985C20.2594 13.4943 21.4554 13.4975 22.6515 13.4975V13.4975Z"/>
</mask>
<path d="M22.6515 13.4975C23.7693 13.4975 24.8881 13.4975 26.0059 13.4975C26.1489 13.4975 26.2929 13.4975 26.4338 13.5173C26.7396 13.5589 26.8878 13.7642 26.8993 14.0529C26.9118 14.3583 26.7751 14.5844 26.4547 14.6469C26.3159 14.674 26.1708 14.6761 26.0289 14.6761C23.7536 14.6782 21.4784 14.6772 19.2032 14.6772C19.151 14.6772 19.0988 14.6772 19.0477 14.6772C18.5509 14.6647 18.2973 14.4604 18.3014 14.0758C18.3056 13.6934 18.5509 13.5006 19.0633 13.4985C20.2594 13.4943 21.4554 13.4975 22.6515 13.4975V13.4975Z" fill="#1C2C65" stroke="#F2F3F7" stroke-width="0.2" mask="url(#path-13-inside-13_627_3549)"/>
</g>
<g id="Vector_14">
<mask id="path-14-inside-14_627_3549" fill="white">
<path d="M10.1984 11.1382C9.99384 11.0153 9.83103 10.9549 9.71831 10.8434C7.98267 9.11748 6.25225 7.38736 4.52496 5.65307C4.24421 5.37184 4.25151 5.04269 4.51139 4.79478C4.76083 4.5573 5.07184 4.55417 5.34216 4.82291C7.08615 6.55823 8.82909 8.2946 10.5533 10.0508C10.6848 10.1841 10.7453 10.4966 10.6879 10.6768C10.6305 10.857 10.3821 10.9757 10.1994 11.1372L10.1984 11.1382Z"/>
</mask>
<path d="M10.1984 11.1382C9.99384 11.0153 9.83103 10.9549 9.71831 10.8434C7.98267 9.11748 6.25225 7.38736 4.52496 5.65307C4.24421 5.37184 4.25151 5.04269 4.51139 4.79478C4.76083 4.5573 5.07184 4.55417 5.34216 4.82291C7.08615 6.55823 8.82909 8.2946 10.5533 10.0508C10.6848 10.1841 10.7453 10.4966 10.6879 10.6768C10.6305 10.857 10.3821 10.9757 10.1994 11.1372L10.1984 11.1382Z" fill="#1C2C65" stroke="#F2F3F7" stroke-width="0.2" mask="url(#path-14-inside-14_627_3549)"/>
</g>
<g id="Vector_15">
<mask id="path-15-inside-15_627_3549" fill="white">
<path d="M10.833 17.6493C10.714 17.8577 10.6597 18.0243 10.5491 18.1358C8.82701 19.868 7.09868 21.595 5.36721 23.3178C5.07081 23.6126 4.72013 23.6115 4.47382 23.3511C4.24421 23.1084 4.26404 22.7762 4.55001 22.4887C6.26582 20.7679 7.97954 19.0451 9.7131 17.3431C9.85713 17.2014 10.1681 17.1254 10.3644 17.1723C10.5418 17.215 10.6681 17.4702 10.833 17.6493V17.6493Z"/>
</mask>
<path d="M10.833 17.6493C10.714 17.8577 10.6597 18.0243 10.5491 18.1358C8.82701 19.868 7.09868 21.595 5.36721 23.3178C5.07081 23.6126 4.72013 23.6115 4.47382 23.3511C4.24421 23.1084 4.26404 22.7762 4.55001 22.4887C6.26582 20.7679 7.97954 19.0451 9.7131 17.3431C9.85713 17.2014 10.1681 17.1254 10.3644 17.1723C10.5418 17.215 10.6681 17.4702 10.833 17.6493V17.6493Z" fill="#1C2C65" stroke="#F2F3F7" stroke-width="0.2" mask="url(#path-15-inside-15_627_3549)"/>
</g>
<g id="Vector_16">
<mask id="path-16-inside-16_627_3549" fill="white">
<path d="M17.3559 17.0264C17.5626 17.1493 17.7275 17.2087 17.8392 17.3202C19.5748 19.0451 21.3063 20.7752 23.0336 22.5095C23.3164 22.7928 23.3091 23.1188 23.0503 23.3678C22.7956 23.6136 22.4804 23.6042 22.1913 23.3157C20.4672 21.597 18.7409 19.8805 17.0366 18.143C16.8957 17.9993 16.8226 17.6858 16.8727 17.49C16.9176 17.3129 17.1743 17.19 17.3559 17.0254V17.0264Z"/>
</mask>
<path d="M17.3559 17.0264C17.5626 17.1493 17.7275 17.2087 17.8392 17.3202C19.5748 19.0451 21.3063 20.7752 23.0336 22.5095C23.3164 22.7928 23.3091 23.1188 23.0503 23.3678C22.7956 23.6136 22.4804 23.6042 22.1913 23.3157C20.4672 21.597 18.7409 19.8805 17.0366 18.143C16.8957 17.9993 16.8226 17.6858 16.8727 17.49C16.9176 17.3129 17.1743 17.19 17.3559 17.0254V17.0264Z" fill="#1C2C65" stroke="#F2F3F7" stroke-width="0.2" mask="url(#path-16-inside-16_627_3549)"/>
</g>
<g id="Vector_17">
<mask id="path-17-inside-17_627_3549" fill="white">
<path d="M26.5497 20.4888C26.6436 20.5773 26.8837 20.7054 26.9661 20.8992C27.7666 22.773 28.5431 24.6573 29.3186 26.5416C29.4637 26.8936 29.3415 27.179 29.0274 27.3165C28.6913 27.4634 28.3918 27.3499 28.2373 26.9811C27.4556 25.1135 26.677 23.2438 25.9068 21.371C25.7231 20.9231 25.9757 20.5013 26.5487 20.4877L26.5497 20.4888Z"/>
</mask>
<path d="M26.5497 20.4888C26.6436 20.5773 26.8837 20.7054 26.9661 20.8992C27.7666 22.773 28.5431 24.6573 29.3186 26.5416C29.4637 26.8936 29.3415 27.179 29.0274 27.3165C28.6913 27.4634 28.3918 27.3499 28.2373 26.9811C27.4556 25.1135 26.677 23.2438 25.9068 21.371C25.7231 20.9231 25.9757 20.5013 26.5487 20.4877L26.5497 20.4888Z" fill="#1C2C65" stroke="#F2F3F7" stroke-width="0.2" mask="url(#path-17-inside-17_627_3549)"/>
</g>
<g id="Vector_18">
<mask id="path-18-inside-18_627_3549" fill="white">
<path d="M32.0269 27.3769C31.6011 27.3749 31.3506 26.9822 31.5239 26.5426C31.7942 25.8541 32.0864 25.175 32.3692 24.4906C32.8556 23.3157 33.3388 22.1387 33.8283 20.9658C33.9995 20.5565 34.2426 20.4231 34.5735 20.5325C34.9659 20.6627 35.0891 20.9648 34.9075 21.4095C34.4409 22.5511 33.9671 23.6886 33.4954 24.8281C33.2073 25.5239 32.9151 26.2176 32.6343 26.9155C32.5206 27.1967 32.3411 27.3686 32.0279 27.3769H32.0269Z"/>
</mask>
<path d="M32.0269 27.3769C31.6011 27.3749 31.3506 26.9822 31.5239 26.5426C31.7942 25.8541 32.0864 25.175 32.3692 24.4906C32.8556 23.3157 33.3388 22.1387 33.8283 20.9658C33.9995 20.5565 34.2426 20.4231 34.5735 20.5325C34.9659 20.6627 35.0891 20.9648 34.9075 21.4095C34.4409 22.5511 33.9671 23.6886 33.4954 24.8281C33.2073 25.5239 32.9151 26.2176 32.6343 26.9155C32.5206 27.1967 32.3411 27.3686 32.0279 27.3769H32.0269Z" fill="#1C2C65" stroke="#F2F3F7" stroke-width="0.2" mask="url(#path-18-inside-18_627_3549)"/>
</g>
<g id="Vector_19">
<mask id="path-19-inside-19_627_3549" fill="white">
<path d="M27.0683 28.9362C27.0579 29.5508 26.6571 29.7997 26.1843 29.606C24.6689 28.9852 23.1576 28.355 21.6443 27.729C21.3437 27.605 21.0442 27.48 20.7446 27.355C20.2458 27.1457 20.0913 26.879 20.2541 26.5113C20.419 26.1395 20.7029 26.0697 21.2112 26.2791C22.5679 26.8394 23.9247 27.4019 25.2815 27.9633C25.7501 28.1571 26.2292 28.329 26.6821 28.5539C26.8637 28.6446 26.9879 28.8529 27.0683 28.9362V28.9362Z"/>
</mask>
<path d="M27.0683 28.9362C27.0579 29.5508 26.6571 29.7997 26.1843 29.606C24.6689 28.9852 23.1576 28.355 21.6443 27.729C21.3437 27.605 21.0442 27.48 20.7446 27.355C20.2458 27.1457 20.0913 26.879 20.2541 26.5113C20.419 26.1395 20.7029 26.0697 21.2112 26.2791C22.5679 26.8394 23.9247 27.4019 25.2815 27.9633C25.7501 28.1571 26.2292 28.329 26.6821 28.5539C26.8637 28.6446 26.9879 28.8529 27.0683 28.9362V28.9362Z" fill="#1C2C65" stroke="#F2F3F7" stroke-width="0.2" mask="url(#path-19-inside-19_627_3549)"/>
</g>
<g id="Vector_20">
<mask id="path-20-inside-20_627_3549" fill="white">
<path d="M15.4814 32.4381C15.0222 32.3538 14.3459 32.5652 14.3428 31.8194C14.3397 31.059 15.0295 31.3049 15.4804 31.208C15.5482 30.7466 15.3478 30.0716 16.0857 30.0664C16.834 30.0612 16.6305 30.7361 16.6932 31.2038C17.1419 31.3142 17.861 31.0444 17.836 31.8444C17.813 32.5673 17.1576 32.3517 16.6932 32.4381C16.6284 32.8964 16.832 33.5933 16.0596 33.5672C15.3583 33.5433 15.543 32.8912 15.4825 32.436L15.4814 32.4381Z"/>
</mask>
<path d="M15.4814 32.4381C15.0222 32.3538 14.3459 32.5652 14.3428 31.8194C14.3397 31.059 15.0295 31.3049 15.4804 31.208C15.5482 30.7466 15.3478 30.0716 16.0857 30.0664C16.834 30.0612 16.6305 30.7361 16.6932 31.2038C17.1419 31.3142 17.861 31.0444 17.836 31.8444C17.813 32.5673 17.1576 32.3517 16.6932 32.4381C16.6284 32.8964 16.832 33.5933 16.0596 33.5672C15.3583 33.5433 15.543 32.8912 15.4825 32.436L15.4814 32.4381Z" fill="#1C2C65" stroke="#F2F3F7" stroke-width="0.2" mask="url(#path-20-inside-20_627_3549)"/>
</g>
<g id="Vector_21">
<mask id="path-21-inside-21_627_3549" fill="white">
<path d="M32.3358 13.6746C32.7878 13.7735 33.4693 13.5433 33.4766 14.2933C33.4839 15.0609 32.8003 14.8182 32.3452 14.9068C32.243 15.3568 32.4976 16.0723 31.7086 16.0484C30.9989 16.0265 31.1732 15.387 31.1262 14.8995C30.666 14.8255 29.9583 15.0536 29.9792 14.2787C29.998 13.5777 30.643 13.7475 31.1127 13.6881C31.1868 13.2214 30.9968 12.5298 31.7587 12.5496C32.4684 12.5684 32.2638 13.2277 32.3348 13.6746H32.3358Z"/>
</mask>
<path d="M32.3358 13.6746C32.7878 13.7735 33.4693 13.5433 33.4766 14.2933C33.4839 15.0609 32.8003 14.8182 32.3452 14.9068C32.243 15.3568 32.4976 16.0723 31.7086 16.0484C30.9989 16.0265 31.1732 15.387 31.1262 14.8995C30.666 14.8255 29.9583 15.0536 29.9792 14.2787C29.998 13.5777 30.643 13.7475 31.1127 13.6881C31.1868 13.2214 30.9968 12.5298 31.7587 12.5496C32.4684 12.5684 32.2638 13.2277 32.3348 13.6746H32.3358Z" fill="#1C2C65" stroke="#F2F3F7" stroke-width="0.2" mask="url(#path-21-inside-21_627_3549)"/>
</g>
<g id="Vector_22">
<mask id="path-22-inside-22_627_3549" fill="white">
<path d="M17.3443 11.1341C17.169 10.9861 16.9154 10.8757 16.8747 10.7122C16.8246 10.5101 16.8799 10.2039 17.0135 10.0476C17.4184 9.57476 17.8839 9.1529 18.3254 8.71126C18.7303 8.30607 19.1322 7.89776 19.5423 7.49778C19.8481 7.19884 20.1738 7.18842 20.4295 7.45716C20.6737 7.71235 20.6622 8.02484 20.3731 8.31753C19.5402 9.15915 18.7032 9.99765 17.8568 10.8268C17.7347 10.9466 17.5573 11.0091 17.3433 11.1351L17.3443 11.1341Z"/>
</mask>
<path d="M17.3443 11.1341C17.169 10.9861 16.9154 10.8757 16.8747 10.7122C16.8246 10.5101 16.8799 10.2039 17.0135 10.0476C17.4184 9.57476 17.8839 9.1529 18.3254 8.71126C18.7303 8.30607 19.1322 7.89776 19.5423 7.49778C19.8481 7.19884 20.1738 7.18842 20.4295 7.45716C20.6737 7.71235 20.6622 8.02484 20.3731 8.31753C19.5402 9.15915 18.7032 9.99765 17.8568 10.8268C17.7347 10.9466 17.5573 11.0091 17.3433 11.1351L17.3443 11.1341Z" fill="#1C2C65" stroke="#F2F3F7" stroke-width="0.2" mask="url(#path-22-inside-22_627_3549)"/>
</g>
<g id="Vector_23">
<mask id="path-23-inside-23_627_3549" fill="white">
<path d="M27.0861 32.4818C27.0047 32.5704 26.8805 32.8079 26.6895 32.8933C25.7648 33.3078 24.8255 33.6901 23.8841 34.0672C23.5407 34.2047 23.2568 34.0609 23.1243 33.7307C22.9938 33.4068 23.1097 33.1339 23.4687 32.9818C24.3777 32.5954 25.2889 32.2121 26.2042 31.8413C26.6686 31.6527 27.0725 31.8892 27.0861 32.4829V32.4818Z"/>
</mask>
<path d="M27.0861 32.4818C27.0047 32.5704 26.8805 32.8079 26.6895 32.8933C25.7648 33.3078 24.8255 33.6901 23.8841 34.0672C23.5407 34.2047 23.2568 34.0609 23.1243 33.7307C22.9938 33.4068 23.1097 33.1339 23.4687 32.9818C24.3777 32.5954 25.2889 32.2121 26.2042 31.8413C26.6686 31.6527 27.0725 31.8892 27.0861 32.4829V32.4818Z" fill="#1C2C65" stroke="#F2F3F7" stroke-width="0.2" mask="url(#path-23-inside-23_627_3549)"/>
</g>
<g id="Vector_24">
<mask id="path-24-inside-24_627_3549" fill="white">
<path d="M10.2234 4.64581C10.309 4.72289 10.525 4.83226 10.6043 5.00517C10.9279 5.71034 11.219 6.43114 11.504 7.15297C11.6344 7.48316 11.5061 7.76336 11.2076 7.89564C10.8934 8.03626 10.5741 7.93106 10.4321 7.60295C10.119 6.87903 9.81426 6.1499 9.53142 5.41348C9.38322 5.02913 9.68797 4.64581 10.2244 4.64685L10.2234 4.64581Z"/>
</mask>
<path d="M10.2234 4.64581C10.309 4.72289 10.525 4.83226 10.6043 5.00517C10.9279 5.71034 11.219 6.43114 11.504 7.15297C11.6344 7.48316 11.5061 7.76336 11.2076 7.89564C10.8934 8.03626 10.5741 7.93106 10.4321 7.60295C10.119 6.87903 9.81426 6.1499 9.53142 5.41348C9.38322 5.02913 9.68797 4.64581 10.2244 4.64685L10.2234 4.64581Z" fill="#1C2C65" stroke="#F2F3F7" stroke-width="0.2" mask="url(#path-24-inside-24_627_3549)"/>
</g>
<g id="Vector_25">
<mask id="path-25-inside-25_627_3549" fill="white">
<path d="M18.2993 23.1396C18.1104 23.3094 17.9643 23.5084 17.7681 23.6011C17.5301 23.7125 17.2504 23.648 17.1346 23.3855C16.7891 22.6053 16.4489 21.8199 16.1692 21.0148C16.117 20.8668 16.3111 20.5669 16.4708 20.4273C16.6712 20.2523 17.0083 20.2731 17.1252 20.5117C17.5343 21.3449 17.8881 22.2043 18.3004 23.1386L18.2993 23.1396Z"/>
</mask>
<path d="M18.2993 23.1396C18.1104 23.3094 17.9643 23.5084 17.7681 23.6011C17.5301 23.7125 17.2504 23.648 17.1346 23.3855C16.7891 22.6053 16.4489 21.8199 16.1692 21.0148C16.117 20.8668 16.3111 20.5669 16.4708 20.4273C16.6712 20.2523 17.0083 20.2731 17.1252 20.5117C17.5343 21.3449 17.8881 22.2043 18.3004 23.1386L18.2993 23.1396Z" fill="#1C2C65" stroke="#F2F3F7" stroke-width="0.2" mask="url(#path-25-inside-25_627_3549)"/>
</g>
<g id="Vector_26">
<mask id="path-26-inside-26_627_3549" fill="white">
<path d="M4.85583 18.6045C4.68049 18.4149 4.43523 18.267 4.39557 18.0764C4.35591 17.8847 4.46236 17.5274 4.60848 17.4566C5.37663 17.0837 6.16983 16.7546 6.97555 16.4733C7.12584 16.4213 7.43059 16.6108 7.56731 16.7702C7.73639 16.9681 7.72491 17.3097 7.48486 17.4285C6.65096 17.8389 5.78888 18.193 4.85479 18.6045H4.85583Z"/>
</mask>
<path d="M4.85583 18.6045C4.68049 18.4149 4.43523 18.267 4.39557 18.0764C4.35591 17.8847 4.46236 17.5274 4.60848 17.4566C5.37663 17.0837 6.16983 16.7546 6.97555 16.4733C7.12584 16.4213 7.43059 16.6108 7.56731 16.7702C7.73639 16.9681 7.72491 17.3097 7.48486 17.4285C6.65096 17.8389 5.78888 18.193 4.85479 18.6045H4.85583Z" fill="#1C2C65" stroke="#F2F3F7" stroke-width="0.2" mask="url(#path-26-inside-26_627_3549)"/>
</g>
<g id="Vector_27">
<mask id="path-27-inside-27_627_3549" fill="white">
<path d="M10.333 23.698C9.80284 23.7073 9.50852 23.3469 9.6536 22.9553C9.93748 22.1918 10.2568 21.4397 10.5877 20.695C10.7255 20.3846 11.0135 20.3252 11.3151 20.4502C11.6209 20.5773 11.766 20.8325 11.646 21.1439C11.3579 21.8928 11.0532 22.6366 10.7171 23.3646C10.6388 23.5344 10.4103 23.6334 10.332 23.698H10.333Z"/>
</mask>
<path d="M10.333 23.698C9.80284 23.7073 9.50852 23.3469 9.6536 22.9553C9.93748 22.1918 10.2568 21.4397 10.5877 20.695C10.7255 20.3846 11.0135 20.3252 11.3151 20.4502C11.6209 20.5773 11.766 20.8325 11.646 21.1439C11.3579 21.8928 11.0532 22.6366 10.7171 23.3646C10.6388 23.5344 10.4103 23.6334 10.332 23.698H10.333Z" fill="#1C2C65" stroke="#F2F3F7" stroke-width="0.2" mask="url(#path-27-inside-27_627_3549)"/>
</g>
<g id="Vector_28">
<mask id="path-28-inside-28_627_3549" fill="white">
<path d="M18.0854 5.21352C18.0572 5.29893 18.0249 5.42497 17.9769 5.54267C17.7222 6.16555 17.4655 6.78844 17.2035 7.40924C17.023 7.83734 16.69 8.01442 16.3581 7.86651C16.0294 7.71964 15.9407 7.40403 16.1191 6.96759C16.3926 6.29575 16.6733 5.62704 16.953 4.95832C17.0772 4.66146 17.3121 4.55522 17.6158 4.62501C17.8976 4.68959 18.0614 4.87291 18.0865 5.21352H18.0854Z"/>
</mask>
<path d="M18.0854 5.21352C18.0572 5.29893 18.0249 5.42497 17.9769 5.54267C17.7222 6.16555 17.4655 6.78844 17.2035 7.40924C17.023 7.83734 16.69 8.01442 16.3581 7.86651C16.0294 7.71964 15.9407 7.40403 16.1191 6.96759C16.3926 6.29575 16.6733 5.62704 16.953 4.95832C17.0772 4.66146 17.3121 4.55522 17.6158 4.62501C17.8976 4.68959 18.0614 4.87291 18.0865 5.21352H18.0854Z" fill="#1C2C65" stroke="#F2F3F7" stroke-width="0.2" mask="url(#path-28-inside-28_627_3549)"/>
</g>
<g id="Vector_29">
<mask id="path-29-inside-29_627_3549" fill="white">
<path d="M22.7674 18.3836C22.6912 18.3586 22.5785 18.3284 22.472 18.2847C21.8354 18.0243 21.1987 17.7639 20.5652 17.4962C20.1363 17.3149 19.9933 17.0285 20.1436 16.6754C20.2876 16.3379 20.5778 16.24 20.9942 16.4087C21.6799 16.6858 22.3624 16.9702 23.044 17.2587C23.3393 17.3837 23.4531 17.6201 23.3675 17.9243C23.2913 18.1961 23.1097 18.369 22.7663 18.3836H22.7674Z"/>
</mask>
<path d="M22.7674 18.3836C22.6912 18.3586 22.5785 18.3284 22.472 18.2847C21.8354 18.0243 21.1987 17.7639 20.5652 17.4962C20.1363 17.3149 19.9933 17.0285 20.1436 16.6754C20.2876 16.3379 20.5778 16.24 20.9942 16.4087C21.6799 16.6858 22.3624 16.9702 23.044 17.2587C23.3393 17.3837 23.4531 17.6201 23.3675 17.9243C23.2913 18.1961 23.1097 18.369 22.7663 18.3836H22.7674Z" fill="#1C2C65" stroke="#F2F3F7" stroke-width="0.2" mask="url(#path-29-inside-29_627_3549)"/>
</g>
<g id="Vector_30">
<mask id="path-30-inside-30_627_3549" fill="white">
<path d="M4.89854 9.91742C4.97995 9.94242 5.09371 9.96742 5.20017 10.0112C5.84934 10.2757 6.4985 10.5393 7.1435 10.8122C7.55993 10.9882 7.6883 11.2538 7.54427 11.6007C7.39607 11.9559 7.11741 12.0621 6.71037 11.8975C6.02467 11.6205 5.34211 11.334 4.66058 11.0486C4.36522 10.9247 4.25146 10.6965 4.3193 10.3882C4.38192 10.1028 4.56456 9.94138 4.89854 9.91742V9.91742Z"/>
</mask>
<path d="M4.89854 9.91742C4.97995 9.94242 5.09371 9.96742 5.20017 10.0112C5.84934 10.2757 6.4985 10.5393 7.1435 10.8122C7.55993 10.9882 7.6883 11.2538 7.54427 11.6007C7.39607 11.9559 7.11741 12.0621 6.71037 11.8975C6.02467 11.6205 5.34211 11.334 4.66058 11.0486C4.36522 10.9247 4.25146 10.6965 4.3193 10.3882C4.38192 10.1028 4.56456 9.94138 4.89854 9.91742V9.91742Z" fill="#1C2C65" stroke="#F2F3F7" stroke-width="0.2" mask="url(#path-30-inside-30_627_3549)"/>
</g>
<g id="Vector_31">
<mask id="path-31-inside-31_627_3549" fill="white">
<path d="M23.3467 10.5258C23.2757 10.607 23.1713 10.8278 23.0023 10.9059C22.2947 11.2309 21.5714 11.5226 20.8471 11.8069C20.5068 11.9403 20.2261 11.7944 20.0967 11.4611C19.9725 11.1434 20.0727 10.8757 20.4119 10.7299C21.1268 10.4226 21.8469 10.1226 22.5733 9.84246C22.9678 9.69038 23.3394 9.97161 23.3477 10.5258H23.3467Z"/>
</mask>
<path d="M23.3467 10.5258C23.2757 10.607 23.1713 10.8278 23.0023 10.9059C22.2947 11.2309 21.5714 11.5226 20.8471 11.8069C20.5068 11.9403 20.2261 11.7944 20.0967 11.4611C19.9725 11.1434 20.0727 10.8757 20.4119 10.7299C21.1268 10.4226 21.8469 10.1226 22.5733 9.84246C22.9678 9.69038 23.3394 9.97161 23.3477 10.5258H23.3467Z" fill="#1C2C65" stroke="#F2F3F7" stroke-width="0.2" mask="url(#path-31-inside-31_627_3549)"/>
</g>
<g id="Vector_32">
<mask id="path-32-inside-32_627_3549" fill="white">
<path d="M36.7589 24.8948C36.6358 25.1 36.5742 25.2604 36.4646 25.376C36.044 25.8187 35.615 26.2551 35.1767 26.6791C34.8782 26.9676 34.5202 26.9665 34.2802 26.7061C34.0537 26.4603 34.0787 26.1353 34.3658 25.8395C34.7905 25.401 35.2059 24.95 35.6651 24.549C35.8102 24.4229 36.1056 24.3573 36.2851 24.4135C36.4667 24.4708 36.5909 24.7125 36.7589 24.8948V24.8948Z"/>
</mask>
<path d="M36.7589 24.8948C36.6358 25.1 36.5742 25.2604 36.4646 25.376C36.044 25.8187 35.615 26.2551 35.1767 26.6791C34.8782 26.9676 34.5202 26.9665 34.2802 26.7061C34.0537 26.4603 34.0787 26.1353 34.3658 25.8395C34.7905 25.401 35.2059 24.95 35.6651 24.549C35.8102 24.4229 36.1056 24.3573 36.2851 24.4135C36.4667 24.4708 36.5909 24.7125 36.7589 24.8948V24.8948Z" fill="#1C2C65" stroke="#F2F3F7" stroke-width="0.2" mask="url(#path-32-inside-32_627_3549)"/>
</g>
<g id="Vector_33">
<mask id="path-33-inside-33_627_3549" fill="white">
<path d="M36.8654 36.4327C36.7307 36.59 36.6232 36.8119 36.45 36.89C36.2955 36.9608 36.0033 36.9473 35.8854 36.8431C35.3604 36.3796 34.8657 35.8817 34.3835 35.3734C34.1487 35.1265 34.2061 34.8401 34.4399 34.6099C34.6611 34.3911 34.9419 34.338 35.1746 34.5536C35.6892 35.0286 36.1807 35.5286 36.6713 36.0306C36.7548 36.1161 36.7829 36.2567 36.8643 36.4327H36.8654Z"/>
</mask>
<path d="M36.8654 36.4327C36.7307 36.59 36.6232 36.8119 36.45 36.89C36.2955 36.9608 36.0033 36.9473 35.8854 36.8431C35.3604 36.3796 34.8657 35.8817 34.3835 35.3734C34.1487 35.1265 34.2061 34.8401 34.4399 34.6099C34.6611 34.3911 34.9419 34.338 35.1746 34.5536C35.6892 35.0286 36.1807 35.5286 36.6713 36.0306C36.7548 36.1161 36.7829 36.2567 36.8643 36.4327H36.8654Z" fill="#1C2C65" stroke="#F2F3F7" stroke-width="0.2" mask="url(#path-33-inside-33_627_3549)"/>
</g>
<g id="Vector_34">
<mask id="path-34-inside-34_627_3549" fill="white">
<path d="M26.0311 27.0947C25.8359 26.9791 25.6846 26.9228 25.5771 26.8197C25.1252 26.3885 24.6806 25.95 24.2453 25.5021C23.9677 25.2167 23.9667 24.8781 24.2182 24.6365C24.4562 24.4073 24.7818 24.4063 25.0552 24.6667C25.5165 25.1062 25.9841 25.5427 26.4037 26.0208C26.5279 26.1624 26.5821 26.4666 26.5195 26.6437C26.4548 26.8249 26.2085 26.9405 26.0311 27.0947V27.0947Z"/>
</mask>
<path d="M26.0311 27.0947C25.8359 26.9791 25.6846 26.9228 25.5771 26.8197C25.1252 26.3885 24.6806 25.95 24.2453 25.5021C23.9677 25.2167 23.9667 24.8781 24.2182 24.6365C24.4562 24.4073 24.7818 24.4063 25.0552 24.6667C25.5165 25.1062 25.9841 25.5427 26.4037 26.0208C26.5279 26.1624 26.5821 26.4666 26.5195 26.6437C26.4548 26.8249 26.2085 26.9405 26.0311 27.0947V27.0947Z" fill="#1C2C65" stroke="#F2F3F7" stroke-width="0.2" mask="url(#path-34-inside-34_627_3549)"/>
</g>
<g id="Vector_35">
<mask id="path-35-inside-35_627_3549" fill="white">
<path d="M26.2001 34.488C26.3525 34.6162 26.5768 34.7162 26.6343 34.8755C26.6979 35.0526 26.6875 35.3536 26.5748 35.4817C26.1124 36.0088 25.6114 36.5036 25.098 36.9827C24.8464 37.2181 24.5573 37.1358 24.3361 36.8983C24.1242 36.6713 24.0825 36.3984 24.3058 36.1619C24.7796 35.6609 25.267 35.1734 25.7617 34.6943C25.8557 34.6026 26.0101 34.5745 26.198 34.488H26.2001Z"/>
</mask>
<path d="M26.2001 34.488C26.3525 34.6162 26.5768 34.7162 26.6343 34.8755C26.6979 35.0526 26.6875 35.3536 26.5748 35.4817C26.1124 36.0088 25.6114 36.5036 25.098 36.9827C24.8464 37.2181 24.5573 37.1358 24.3361 36.8983C24.1242 36.6713 24.0825 36.3984 24.3058 36.1619C24.7796 35.6609 25.267 35.1734 25.7617 34.6943C25.8557 34.6026 26.0101 34.5745 26.198 34.488H26.2001Z" fill="#1C2C65" stroke="#F2F3F7" stroke-width="0.2" mask="url(#path-35-inside-35_627_3549)"/>
</g>
<g id="Vector_36">
<mask id="path-36-inside-36_627_3549" fill="white">
<path d="M23.284 30.232C23.6086 30.232 23.9342 30.2216 24.2588 30.2351C24.5886 30.2487 24.8422 30.4956 24.8589 30.7895C24.8756 31.0813 24.6418 31.3731 24.3079 31.3856C23.6326 31.4127 22.9563 31.4138 22.281 31.395C21.9523 31.3856 21.7341 31.1042 21.7634 30.7812C21.7926 30.4581 21.9585 30.2487 22.3082 30.2393C22.4772 30.2351 22.6463 30.2361 22.8154 30.2351C22.9709 30.2351 23.1275 30.2351 23.283 30.2351V30.232H23.284Z"/>
</mask>
<path d="M23.284 30.232C23.6086 30.232 23.9342 30.2216 24.2588 30.2351C24.5886 30.2487 24.8422 30.4956 24.8589 30.7895C24.8756 31.0813 24.6418 31.3731 24.3079 31.3856C23.6326 31.4127 22.9563 31.4138 22.281 31.395C21.9523 31.3856 21.7341 31.1042 21.7634 30.7812C21.7926 30.4581 21.9585 30.2487 22.3082 30.2393C22.4772 30.2351 22.6463 30.2361 22.8154 30.2351C22.9709 30.2351 23.1275 30.2351 23.283 30.2351V30.232H23.284Z" fill="#1C2C65" stroke="#F2F3F7" stroke-width="0.2" mask="url(#path-36-inside-36_627_3549)"/>
</g>
<g id="Vector_37">
<mask id="path-37-inside-37_627_3549" fill="white">
<path d="M31.1064 37.892C31.1064 38.1899 31.1168 38.4888 31.1043 38.7867C31.0865 39.1919 30.8642 39.4055 30.5 39.393C30.1483 39.3805 29.9468 39.1753 29.9395 38.7857C29.927 38.1764 29.9239 37.567 29.9301 36.9577C29.9343 36.5754 30.1775 36.3015 30.4958 36.2879C30.8298 36.2733 31.074 36.5442 31.0991 36.9587C31.1011 36.9848 31.1001 37.0108 31.1001 37.0368C31.1001 37.3222 31.1001 37.6076 31.1001 37.893H31.1074L31.1064 37.892Z"/>
</mask>
<path d="M31.1064 37.892C31.1064 38.1899 31.1168 38.4888 31.1043 38.7867C31.0865 39.1919 30.8642 39.4055 30.5 39.393C30.1483 39.3805 29.9468 39.1753 29.9395 38.7857C29.927 38.1764 29.9239 37.567 29.9301 36.9577C29.9343 36.5754 30.1775 36.3015 30.4958 36.2879C30.8298 36.2733 31.074 36.5442 31.0991 36.9587C31.1011 36.9848 31.1001 37.0108 31.1001 37.0368C31.1001 37.3222 31.1001 37.6076 31.1001 37.893H31.1074L31.1064 37.892Z" fill="#1C2C65" stroke="#F2F3F7" stroke-width="0.2" mask="url(#path-37-inside-37_627_3549)"/>
</g>
<g id="Vector_38">
<mask id="path-38-inside-38_627_3549" fill="white">
<path d="M30.9165 23.6209C30.9165 23.9449 30.9228 24.2688 30.9144 24.5927C30.9061 24.9375 30.7005 25.1104 30.3738 25.1365C30.0523 25.1625 29.7789 24.95 29.7664 24.6157C29.7392 23.9428 29.7319 23.2678 29.7538 22.5949C29.7643 22.2501 30.069 22.0085 30.3832 22.0418C30.738 22.0793 30.9029 22.3033 30.9092 22.648C30.9155 22.972 30.9102 23.2959 30.9102 23.6199H30.9165V23.6209Z"/>
</mask>
<path d="M30.9165 23.6209C30.9165 23.9449 30.9228 24.2688 30.9144 24.5927C30.9061 24.9375 30.7005 25.1104 30.3738 25.1365C30.0523 25.1625 29.7789 24.95 29.7664 24.6157C29.7392 23.9428 29.7319 23.2678 29.7538 22.5949C29.7643 22.2501 30.069 22.0085 30.3832 22.0418C30.738 22.0793 30.9029 22.3033 30.9092 22.648C30.9155 22.972 30.9102 23.2959 30.9102 23.6199H30.9165V23.6209Z" fill="#1C2C65" stroke="#F2F3F7" stroke-width="0.2" mask="url(#path-38-inside-38_627_3549)"/>
</g>
<g id="Vector_39">
<mask id="path-39-inside-39_627_3549" fill="white">
<path d="M21.9273 6.55714C21.4597 6.53943 21.156 5.99543 21.4211 5.65882C21.6997 5.3045 22.04 4.99082 22.3886 4.70214C22.6067 4.52186 22.8645 4.61565 23.0576 4.80844C23.2517 5.00228 23.3414 5.26281 23.1619 5.47749C22.8634 5.83494 22.5159 6.15175 22.1767 6.47273C22.1089 6.5363 21.9847 6.53943 21.9283 6.55714H21.9273Z"/>
</mask>
<path d="M21.9273 6.55714C21.4597 6.53943 21.156 5.99543 21.4211 5.65882C21.6997 5.3045 22.04 4.99082 22.3886 4.70214C22.6067 4.52186 22.8645 4.61565 23.0576 4.80844C23.2517 5.00228 23.3414 5.26281 23.1619 5.47749C22.8634 5.83494 22.5159 6.15175 22.1767 6.47273C22.1089 6.5363 21.9847 6.53943 21.9283 6.55714H21.9273Z" fill="#1C2C65" stroke="#F2F3F7" stroke-width="0.2" mask="url(#path-39-inside-39_627_3549)"/>
</g>
<g id="Vector_40">
<mask id="path-40-inside-40_627_3549" fill="white">
<path d="M21.3908 33.8204C21.5672 34.0007 21.7905 34.132 21.8479 34.3154C21.9022 34.4873 21.8479 34.8041 21.7217 34.8979C21.4607 35.0918 21.1299 35.2345 20.8095 35.2887C20.6561 35.3148 20.3764 35.1262 20.3064 34.9678C20.2302 34.7937 20.249 34.4446 20.3691 34.3456C20.6383 34.1247 20.9953 34.0121 21.3898 33.8204H21.3908Z"/>
</mask>
<path d="M21.3908 33.8204C21.5672 34.0007 21.7905 34.132 21.8479 34.3154C21.9022 34.4873 21.8479 34.8041 21.7217 34.8979C21.4607 35.0918 21.1299 35.2345 20.8095 35.2887C20.6561 35.3148 20.3764 35.1262 20.3064 34.9678C20.2302 34.7937 20.249 34.4446 20.3691 34.3456C20.6383 34.1247 20.9953 34.0121 21.3898 33.8204H21.3908Z" fill="#1C2C65" stroke="#F2F3F7" stroke-width="0.2" mask="url(#path-40-inside-40_627_3549)"/>
</g>
</g>
</svg>
