<svg width="39" height="47" viewBox="0 0 39 47" fill="none" xmlns="http://www.w3.org/2000/svg">
<path d="M3.28937 41.094C4.1062 37.225 6.23719 33.758 9.32037 31.282" stroke="#1C2C65" stroke-width="0.7" stroke-miterlimit="10"/>
<path d="M6.34338 42.588C10.3731 38.922 15.3147 36.4075 20.6504 35.308" stroke="#1C2C65" stroke-width="0.7" stroke-miterlimit="10"/>
<path d="M33.1334 23.52C34.3144 24.44 36.8334 26.78 38.0004 31.82" stroke="#1C2C65" stroke-width="0.7" stroke-miterlimit="10"/>
<path d="M21.0824 35.858C12.8734 26.633 15.7684 17.931 15.7684 17.931L17.6814 17.08C12.9934 9.81901 14.9434 3.57 14.9434 3.57L18.0764 2.112C19.5822 1.40972 21.2188 1.03152 22.8801 1.00189C24.5414 0.972258 26.1904 1.29186 27.7204 1.94L30.8984 3.285C30.8984 3.285 32.9614 9.135 28.9864 16.3C29.103 16.348 29.219 16.3977 29.3344 16.449L32.6774 17.935C32.6774 17.935 35.5704 26.635 27.3624 35.862C26.9683 36.3054 26.4848 36.6603 25.9437 36.9034C25.4026 37.1464 24.8161 37.2721 24.2229 37.2721C23.6297 37.2721 23.0432 37.1464 22.5021 36.9034C21.9609 36.6603 21.4774 36.3054 21.0834 35.862L21.0824 35.858Z" stroke="#1C2C65" stroke-width="0.7" stroke-miterlimit="10"/>
<path d="M29.1004 10.368C29.0948 10.0578 29.0282 9.75175 28.9043 9.46731C28.7805 9.18288 28.6018 8.92562 28.3785 8.71024C28.1552 8.49485 27.8917 8.32556 27.603 8.21201C27.3143 8.09847 27.0061 8.0429 26.6959 8.04848C26.3857 8.05406 26.0796 8.12068 25.7952 8.24454C25.5108 8.3684 25.2535 8.54707 25.0381 8.77034C24.8228 8.99362 24.6535 9.25714 24.5399 9.54584C24.4264 9.83455 24.3708 10.1428 24.3764 10.453" stroke="#1C2C65" stroke-width="0.7" stroke-miterlimit="10"/>
<path d="M21.7184 10.5001C21.7071 9.87362 21.4474 9.27731 20.9965 8.84232C20.5456 8.40733 19.9403 8.16929 19.3139 8.18056C18.6874 8.19183 18.0911 8.45149 17.6561 8.90242C17.2211 9.35336 16.9831 9.95862 16.9944 10.5851" stroke="#1C2C65" stroke-width="0.7" stroke-miterlimit="10"/>
<path d="M21.0824 35.857C12.8734 26.632 15.7734 17.93 15.7734 17.93L19.1114 16.444C19.3114 16.354 19.5154 16.2697 19.7234 16.191C19.3695 15.5612 19.1803 14.8523 19.1734 14.13L26.1124 13.99C26.1213 14.4925 26.0439 14.9927 25.8834 15.469C27.0743 15.6278 28.2364 15.9561 29.3344 16.444L32.6734 17.93C32.6734 17.93 35.5664 26.63 27.3584 35.857C26.9643 36.3004 26.4808 36.6553 25.9397 36.8984C25.3986 37.1414 24.8121 37.2671 24.2189 37.2671C23.6257 37.2671 23.0392 37.1414 22.4981 36.8984C21.9569 36.6553 21.4734 36.3004 21.0794 35.857H21.0824Z" stroke="#1C2C65" stroke-width="0.7" stroke-miterlimit="10"/>
<path d="M21.0834 35.8579C18.8967 33.471 17.2343 30.6525 16.2034 27.5839C15.9402 28.3723 15.6368 29.1467 15.2944 29.9039C15.0843 30.3828 14.7724 30.8101 14.3804 31.1562C13.9884 31.5022 13.5257 31.7587 13.0245 31.9079C12.5234 32.057 11.9957 32.0952 11.4783 32.0197C10.9609 31.9443 10.4661 31.757 10.0284 31.4709C0.794375 25.5179 1.00038 17.2509 1.00038 17.2509L3.42538 15.1289C4.58535 14.1093 5.95269 13.3533 7.4331 12.9133C8.91351 12.4732 10.4718 12.3595 12.0004 12.5799L15.1814 13.0349C16.0005 14.3911 16.5759 15.8803 16.8814 17.4349L19.1124 16.4429C20.7215 15.7274 22.4629 15.3576 24.2239 15.3576C25.9849 15.3576 27.7263 15.7274 29.3354 16.4429L32.6784 17.9289C32.6784 17.9289 35.5714 26.6289 27.3634 35.8559C26.9693 36.2992 26.4859 36.654 25.9448 36.8969C25.4038 37.1399 24.8175 37.2655 24.2244 37.2655C23.6313 37.2655 23.0449 37.1399 22.5039 36.8969C21.9629 36.654 21.4794 36.2992 21.0854 35.8559L21.0834 35.8579Z" stroke="#1C2C65" stroke-width="0.7" stroke-miterlimit="10"/>
<path d="M15.3774 20.022C15.3026 19.738 15.1716 19.4718 14.992 19.2394C14.8124 19.007 14.5879 18.813 14.3319 18.6691C14.0759 18.5251 13.7935 18.434 13.5016 18.4013C13.2097 18.3686 12.9142 18.3949 12.6327 18.4786C12.3511 18.5624 12.0893 18.7018 11.8627 18.8887C11.6361 19.0756 11.4494 19.3062 11.3136 19.5666C11.1779 19.8271 11.0959 20.1122 11.0725 20.405C11.0491 20.6978 11.0847 20.9923 11.1774 21.271" stroke="#1C2C65" stroke-width="0.7" stroke-miterlimit="10"/>
<path d="M8.81237 21.974C8.73519 21.6914 8.603 21.4268 8.42336 21.1954C8.24371 20.9639 8.02016 20.7703 7.76552 20.6254C7.51087 20.4806 7.23014 20.3874 6.93942 20.3513C6.6487 20.3152 6.35371 20.3368 6.07137 20.415C5.50682 20.5953 5.03663 20.9918 4.7636 21.5178C4.49057 22.0438 4.43692 22.6565 4.61437 23.222" stroke="#1C2C65" stroke-width="0.7" stroke-miterlimit="10"/>
<path d="M7.84438 26.444C7.95581 26.8529 8.14687 27.2357 8.40659 27.5705C8.66632 27.9053 8.9896 28.1856 9.35788 28.3952C9.72617 28.6048 10.1322 28.7396 10.5527 28.7919C10.9733 28.8442 11.4 28.813 11.8084 28.7C12.625 28.4393 13.3051 27.8658 13.7 27.1049C14.0948 26.3441 14.1723 25.4578 13.9154 24.64L7.84438 26.444Z" stroke="#1C2C65" stroke-width="0.7" stroke-miterlimit="10"/>
<path d="M21.0824 35.858C12.8734 26.633 15.7684 17.9309 15.7684 17.9309L19.1104 16.4449C20.7194 15.7293 22.4608 15.3595 24.2219 15.3595C25.9829 15.3595 27.7243 15.7293 29.3334 16.4449L32.6764 17.9309C32.6764 17.9309 35.5694 26.631 27.3614 35.858C26.9673 36.3014 26.4838 36.6563 25.9427 36.8993C25.4016 37.1424 24.8151 37.2681 24.2219 37.2681C23.6287 37.2681 23.0422 37.1424 22.5011 36.8993C21.9599 36.6563 21.4764 36.3014 21.0824 35.858V35.858Z" stroke="#1C2C65" stroke-width="0.7" stroke-miterlimit="10"/>
<path d="M17.8004 25.4C17.8004 24.736 18.0641 24.0992 18.5336 23.6297C19.0031 23.1602 19.6399 22.8965 20.3039 22.8965C20.9679 22.8965 21.6046 23.1602 22.0741 23.6297C22.5436 24.0992 22.8074 24.736 22.8074 25.4" stroke="#1C2C65" stroke-width="0.7" stroke-miterlimit="10"/>
<path d="M25.6334 25.4C25.6334 24.736 25.8971 24.0992 26.3666 23.6297C26.8361 23.1602 27.4729 22.8965 28.1369 22.8965C28.8008 22.8965 29.4376 23.1602 29.9071 23.6297C30.3766 24.0992 30.6404 24.736 30.6404 25.4" stroke="#1C2C65" stroke-width="0.7" stroke-miterlimit="10"/>
<path d="M28.1374 29.837C28.1454 30.3176 28.0576 30.7948 27.8793 31.2411C27.7009 31.6874 27.4355 32.0936 27.0985 32.4363C26.7615 32.7789 26.3597 33.051 25.9165 33.2368C25.4732 33.4225 24.9975 33.5182 24.5169 33.5182C24.0363 33.5182 23.5605 33.4225 23.1173 33.2368C22.6741 33.051 22.2722 32.7789 21.9353 32.4363C21.5983 32.0936 21.3329 31.6874 21.1545 31.2411C20.9761 30.7948 20.8884 30.3176 20.8964 29.837H28.1374Z" stroke="#1C2C65" stroke-width="0.7" stroke-miterlimit="10"/>
<path d="M15.6934 29.3879C16.1534 29.3996 16.6104 29.4668 17.0544 29.5879" stroke="#1C2C65" stroke-width="0.7" stroke-miterlimit="10"/>
<path d="M27.7344 35.3C29.6573 35.6548 31.4628 36.4793 32.9904 37.7001C34.1714 38.6211 36.6904 40.96 37.8574 46" stroke="#1C2C65" stroke-width="0.7" stroke-miterlimit="10"/>
</svg>
