<svg width="40" height="47" viewBox="0 0 40 47" fill="none" xmlns="http://www.w3.org/2000/svg">
<path d="M3.98981 41.0921C6.4132 31.621 13.2986 27.5336 19.7114 30.1541C20.9459 30.6586 23.755 32.0624 26.9319 36.1571" fill="#F3F3F3"/>
<path d="M3.98981 41.0921C6.4132 31.621 13.2986 27.5336 19.7114 30.1541C20.9459 30.6586 23.755 32.0624 26.9319 36.1571" stroke="#1C2C65" stroke-width="0.7" stroke-miterlimit="10"/>
<path d="M7.06885 42.5857C16.4567 34.3855 27.749 32.9163 33.9341 37.6955C35.1249 38.6156 37.6619 40.9539 38.8412 45.9965" stroke="#1C2C65" stroke-width="0.7" stroke-miterlimit="10"/>
<path d="M7.2124 28.4153C16.6004 20.215 27.8926 18.7458 34.0776 23.5251C35.2688 24.4453 37.8055 26.7835 38.9846 31.8262" fill="#F3F3F3"/>
<path d="M7.2124 28.4153C16.6004 20.215 27.8926 18.7458 34.0776 23.5251C35.2688 24.4453 37.8055 26.7835 38.9846 31.8262" stroke="#1C2C65" stroke-width="0.7" stroke-miterlimit="10"/>
<path d="M26.3226 20.3065C33.974 11.4688 31.0729 3.3112 31.0729 3.3112L27.8693 1.96668C26.3258 1.31894 24.6636 0.999776 22.9892 1.02963C21.3149 1.05948 19.6652 1.43768 18.1459 2.14002L14.9919 3.59807C14.9919 3.59807 12.3876 11.8541 20.3507 20.413C21.9744 22.1583 24.7626 22.1085 26.3226 20.3065Z" fill="url(#paint0_linear_290_2592)" stroke="#1C2C65" stroke-width="0.7" stroke-miterlimit="10"/>
<path d="M27.0743 20.2937C34.7257 11.4558 31.8246 3.29808 31.8246 3.29808L28.6209 1.95376C27.0774 1.30605 25.4152 0.986898 23.7408 1.01675C22.0664 1.0466 20.4168 1.42479 18.8975 2.1271L15.7435 3.58464C15.7435 3.58464 13.1392 11.8407 21.1023 20.3997C22.7261 22.1448 25.5143 22.0951 27.0743 20.2937Z" fill="#F3F3F3" stroke="#1C2C65" stroke-width="0.7" stroke-miterlimit="10"/>
<path d="M30.0151 10.3795C29.9917 9.06831 28.9065 8.02442 27.5914 8.04781C26.2764 8.0712 25.2294 9.15307 25.2526 10.4643" fill="#F3F3F3"/>
<path d="M30.0151 10.3795C29.9917 9.06831 28.9065 8.02442 27.5914 8.04781C26.2764 8.0712 25.2294 9.15307 25.2526 10.4643" stroke="#1C2C65" stroke-width="0.7" stroke-miterlimit="10"/>
<path d="M22.569 10.5122C22.5455 9.20096 21.4603 8.15707 20.1452 8.18056C18.8301 8.20406 17.7832 9.28593 17.8067 10.5968" fill="#F3F3F3"/>
<path d="M22.569 10.5122C22.5455 9.20096 21.4603 8.15707 20.1452 8.18056C18.8301 8.20406 17.7832 9.28593 17.8067 10.5968" stroke="#1C2C65" stroke-width="0.7" stroke-miterlimit="10"/>
<path d="M20 14.1407C20.0346 16.3106 21.6295 18.0382 23.5624 17.9994C25.4953 17.9605 27.034 16.1699 26.9994 14L20 14.1407Z" fill="#F3F3F3" stroke="#1C2C65" stroke-width="0.7" stroke-miterlimit="10"/>
<path d="M15.4244 30.1037C19.9926 20.0629 15.3076 13.2416 15.3076 13.2416L12.1004 12.7868C8.97619 12.3439 5.83827 13.269 3.45805 15.335L1.01442 17.4565C1.01442 17.4565 0.806001 25.7207 10.1162 31.6693C12.0148 32.8816 14.4931 32.151 15.4244 30.1037Z" fill="#1C2C65" stroke="#1C2C65" stroke-width="0.7" stroke-miterlimit="10"/>
<path d="M16.0926 29.9068C20.6608 19.8659 15.9758 13.0446 15.9758 13.0446L12.7686 12.5899C9.64434 12.1469 6.50642 13.0721 4.12621 15.138L1.68257 17.2595C1.68257 17.2595 1.47415 25.5236 10.7843 31.4722C12.6831 32.6847 15.1611 31.954 16.0926 29.9068Z" fill="#F3F3F3" stroke="#1C2C65" stroke-width="0.7" stroke-miterlimit="10"/>
<path d="M16.1762 20.029C15.8187 18.8239 14.5815 18.1262 13.4126 18.471C12.2436 18.8157 11.5858 20.0719 11.9434 21.2771" fill="#F3F3F3"/>
<path d="M16.1762 20.029C15.8187 18.8239 14.5815 18.1262 13.4126 18.471C12.2436 18.8157 11.5858 20.0719 11.9434 21.2771" stroke="#1C2C65" stroke-width="0.7" stroke-miterlimit="10"/>
<path d="M9.55796 21.9806C9.20049 20.7755 7.96326 20.0778 6.79433 20.4226C5.62539 20.7673 4.96754 22.0235 5.32522 23.2287" fill="#F3F3F3"/>
<path d="M9.55796 21.9806C9.20049 20.7755 7.96326 20.0778 6.79433 20.4226C5.62539 20.7673 4.96754 22.0235 5.32522 23.2287" stroke="#1C2C65" stroke-width="0.7" stroke-miterlimit="10"/>
<path d="M8.58154 26.448C9.09854 28.1908 10.8878 29.1995 12.5782 28.7011C14.2685 28.2027 15.2196 26.3858 14.7027 24.6431L8.58154 26.448Z" fill="#F3F3F3" stroke="#1C2C65" stroke-width="0.7" stroke-miterlimit="10"/>
<path d="M21.2825 35.8584C13.0064 26.6376 15.9255 17.9383 15.9255 17.9383L19.2948 16.4532C20.9181 15.7377 22.6734 15.3681 24.4482 15.3681C26.223 15.3681 27.9783 15.7377 29.6016 16.4532L32.9716 17.9385C32.9716 17.9385 35.8882 26.6376 27.6128 35.8584C25.9255 37.7381 22.97 37.7381 21.2825 35.8584Z" fill="#1C2C65" stroke="#1C2C65" stroke-width="0.7" stroke-miterlimit="10"/>
<path d="M21.9285 35.8584C13.6524 26.6376 16.5714 17.9383 16.5714 17.9383L19.9407 16.4532C21.564 15.7377 23.3193 15.3681 25.0941 15.3681C26.8689 15.3681 28.6242 15.7377 30.2475 16.4532L33.6175 17.9385C33.6175 17.9385 36.5342 26.6376 28.2588 35.8584C26.5715 37.7381 23.616 37.7381 21.9285 35.8584Z" fill="#F3F3F3" stroke="#1C2C65" stroke-width="0.7" stroke-miterlimit="10"/>
<path d="M18.6236 25.4084C18.6236 24.0184 19.7536 22.8917 21.1476 22.8917C22.5415 22.8917 23.6716 24.0184 23.6716 25.4084" fill="#F3F3F3"/>
<path d="M18.6236 25.4084C18.6236 24.0184 19.7536 22.8917 21.1476 22.8917C22.5415 22.8917 23.6716 24.0184 23.6716 25.4084" stroke="#1C2C65" stroke-width="0.7" stroke-miterlimit="10"/>
<path d="M26.5165 25.4084C26.5165 24.0184 27.6467 22.8917 29.0406 22.8917C30.4346 22.8917 31.5646 24.0184 31.5646 25.4084" fill="#F3F3F3"/>
<path d="M26.5165 25.4084C26.5165 24.0184 27.6467 22.8917 29.0406 22.8917C30.4346 22.8917 31.5646 24.0184 31.5646 25.4084" stroke="#1C2C65" stroke-width="0.7" stroke-miterlimit="10"/>
<path d="M29.0411 29.8406C29.0411 31.8505 27.4069 33.4799 25.3911 33.4799C23.3753 33.4799 21.741 31.8505 21.741 29.8406H29.0411Z" fill="#F3F3F3" stroke="#1C2C65" stroke-width="0.7" stroke-miterlimit="10"/>
<defs>
<linearGradient id="paint0_linear_290_2592" x1="23.0986" y1="1.02771" x2="23.0986" y2="21.6906" gradientUnits="userSpaceOnUse">
<stop stop-color="#4B76FF"/>
<stop offset="1" stop-color="#71E0E7"/>
</linearGradient>
</defs>
</svg>
