<svg width="29" height="29" viewBox="0 0 29 29" fill="none" xmlns="http://www.w3.org/2000/svg">
<g id="infos">
<path id="Vector" d="M8.19613e-05 14.4775C0.0267133 6.46125 6.52192 -0.0180661 14.5132 3.78462e-05C22.5397 0.0181418 29.0464 6.54796 28.9998 14.5394C28.9531 22.5652 22.4418 29.0455 14.4695 28.9998C6.44012 28.954 -0.0265494 22.4633 8.19613e-05 14.4775ZM14.5066 27.9535C21.9291 27.9383 27.9706 21.8906 27.9535 14.4928C27.9364 7.06726 21.893 1.03196 14.4923 1.04721C7.06881 1.06246 1.03205 7.10537 1.04631 14.5061C1.05963 21.9259 7.10876 27.9688 14.5066 27.9526V27.9535Z" fill="#1C2C65"/>
<path id="Vector_2" d="M12.0127 14.7528C11.4915 14.8338 11.0236 14.9034 10.5575 14.9796C9.81469 15.1006 9.59688 14.8843 9.70151 14.1335C9.7852 13.5332 9.86605 12.9329 9.93643 12.3317C9.97638 11.9886 10.1542 11.8 10.489 11.7285C11.9975 11.4064 13.4974 11.0348 15.0164 10.7719C15.7211 10.6499 16.4621 10.7137 17.1849 10.7385C17.5473 10.7509 17.708 11.0844 17.5968 11.4884C17.2211 12.849 16.8387 14.2087 16.4602 15.5694C16.0531 17.033 15.647 18.4956 15.2408 19.9591C15.2351 19.9811 15.2408 20.0049 15.2408 20.1354C15.5756 19.7981 15.8695 19.5237 16.1368 19.2264C16.3261 19.0158 16.4792 18.7719 16.6513 18.5442C16.8986 18.2183 17.1906 18.1726 17.5074 18.4365C17.9553 18.8091 18.4043 19.1826 18.8189 19.5885C18.9407 19.7085 19.0263 19.9525 19.0016 20.1221C18.7096 22.1316 16.8026 24.2355 14.8423 24.7262C14.0101 24.9349 13.1664 24.9673 12.3456 24.69C11.0426 24.2488 10.4786 23.2331 10.2902 21.9458C10.1133 20.7357 10.3673 19.5847 10.7601 18.4508C11.1643 17.2855 11.5657 16.1182 11.9671 14.951C11.9823 14.9072 11.988 14.8605 12.0137 14.7509L12.0127 14.7528ZM10.7972 13.8676C11.3916 13.7752 11.9404 13.6961 12.4873 13.6037C13.2349 13.4779 13.4955 13.7866 13.2501 14.5013C12.6633 16.2069 12.0631 17.9077 11.5096 19.6237C11.2243 20.507 11.1843 21.4246 11.4411 22.3317C11.6427 23.0435 12.0755 23.5418 12.8183 23.7314C13.4584 23.8953 14.0976 23.861 14.7187 23.6724C16.406 23.1616 17.2648 21.861 17.8479 20.3146C17.8707 20.2545 17.8479 20.1402 17.8032 20.0973C17.6196 19.921 17.4179 19.7629 17.2315 19.6037C16.9158 19.9382 16.6523 20.266 16.3394 20.5347C16.0093 20.8186 15.6584 21.1026 15.2694 21.2855C14.6702 21.5675 14.1613 21.2255 14.1309 20.5671C14.1195 20.3212 14.1337 20.063 14.1984 19.8267C14.7329 17.8572 15.2817 15.8905 15.8267 13.9239C16.0208 13.2216 16.2148 12.5184 16.4326 11.7295C15.8115 11.7904 15.2513 11.8019 14.7092 11.9067C13.5783 12.1239 12.4598 12.4003 11.3308 12.627C11.0588 12.6813 10.9056 12.7557 10.9018 13.0606C10.899 13.3074 10.839 13.5541 10.7953 13.8676H10.7972Z" fill="#1C2C65"/>
<path id="Vector_3" d="M12.9182 7.00528C12.921 5.49217 14.1394 4.28016 15.6641 4.27444C17.1925 4.26777 18.4242 5.49789 18.4242 7.03101C18.4242 8.55365 17.1764 9.79806 15.6574 9.78853C14.1309 9.77805 12.9144 8.54317 12.9172 7.00624L12.9182 7.00528ZM17.3647 7.02243C17.3628 6.08293 16.6171 5.33209 15.6736 5.31875C14.7529 5.30637 13.9701 6.08389 13.9701 7.01195C13.9701 7.97432 14.7234 8.72897 15.6831 8.72516C16.6238 8.72135 17.3666 7.96861 17.3647 7.02243Z" fill="#1C2C65"/>
</g>
</svg>
