<svg width="39" height="27" viewBox="0 0 39 27" fill="none" xmlns="http://www.w3.org/2000/svg">
<g id="moderation">
<path id="Vector" d="M21.1445 22.2933C20.6322 14.5515 27.1024 8.10577 34.8737 8.61592C35.2778 8.64247 35.6767 8.68748 36.0697 8.75027C37.0831 8.9121 38 8.12787 38 7.10547V1.87852C38 1.1365 37.3962 0.535034 36.6514 0.535034H2.94802C1.87219 0.535034 1 1.40391 1 2.47566V23.6607C1 24.6959 1.84238 25.535 2.88147 25.535H19.358C20.5318 25.535 21.4292 24.4953 21.2568 23.3387C21.2055 22.9945 21.1677 22.6458 21.1445 22.2933Z" stroke="#1C2C65" stroke-width="0.7" stroke-miterlimit="10"/>
<path id="Vector_2" d="M29.7881 7.60012C31.347 7.60012 32.6107 6.34122 32.6107 4.78828C32.6107 3.23535 31.347 1.97644 29.7881 1.97644C28.2293 1.97644 26.9656 3.23535 26.9656 4.78828C26.9656 6.34122 28.2293 7.60012 29.7881 7.60012Z" stroke="#1C2C65" stroke-width="0.7" stroke-miterlimit="10"/>
<path id="Vector_3" d="M1 15.4869L8.33127 4.921C8.45873 4.73731 8.73784 4.74597 8.85322 4.93702L14.3375 14.0172C14.7706 14.7343 15.7976 14.8158 16.3429 14.1763L18.7904 11.306C18.9534 11.1148 19.256 11.1229 19.408 11.3226L22.579 15.4869" stroke="#1C2C65" stroke-width="0.7" stroke-miterlimit="10"/>
<g id="Vector_4">
<mask id="path-4-outside-1_609_4598" maskUnits="userSpaceOnUse" x="23.8773" y="11.7136" width="15" height="15" fill="black">
<rect fill="white" x="23.8773" y="11.7136" width="15" height="15"/>
<path d="M37.3112 14.21C37.3112 14.4473 37.2402 14.6793 37.1074 14.8763L30.1608 25.1775C30.0141 25.395 29.6009 25.4148 29.417 25.213L25.158 20.5407C24.9773 20.3426 24.8773 20.0846 24.8773 19.8169V18.1986C24.8773 18.0073 25.1137 17.9163 25.2427 18.0579L29.417 22.6372C29.6009 22.839 30.0141 22.8193 30.1608 22.6018L36.7349 12.8529C36.9083 12.5958 37.3112 12.7181 37.3112 13.0279V14.2101V14.21Z"/>
</mask>
<path d="M37.3112 14.21C37.3112 14.4473 37.2402 14.6793 37.1074 14.8763L30.1608 25.1775C30.0141 25.395 29.6009 25.4148 29.417 25.213L25.158 20.5407C24.9773 20.3426 24.8773 20.0846 24.8773 19.8169V18.1986C24.8773 18.0073 25.1137 17.9163 25.2427 18.0579L29.417 22.6372C29.6009 22.839 30.0141 22.8193 30.1608 22.6018L36.7349 12.8529C36.9083 12.5958 37.3112 12.7181 37.3112 13.0279V14.2101V14.21Z" stroke="#1C2C65" stroke-width="1.4" stroke-miterlimit="10" mask="url(#path-4-outside-1_609_4598)"/>
</g>
</g>
</svg>
