<svg width="40" height="36" viewBox="0 0 40 36" fill="none" xmlns="http://www.w3.org/2000/svg">
<g id="modules">
<path id="Union 19" d="M14.513 24.653V14.3C14.5051 14.2968 14.4976 14.2924 14.491 14.287L1.115 2.206C1.10521 2.19795 1.09838 2.18687 1.09559 2.1745C1.0928 2.16214 1.09421 2.14919 1.09961 2.13772C1.105 2.12625 1.11406 2.1169 1.12536 2.11116C1.13666 2.10541 1.14955 2.1036 1.162 2.106H4.146V1.867C4.146 1.388 5.412 1 6.974 1C8.536 1 9.802 1.388 9.802 1.867V2.1L18.496 2.087V1.867C18.496 1.388 19.761 1 21.324 1C22.887 1 24.152 1.388 24.152 1.867V2.08H24.652C24.6612 2.08042 24.6703 2.0821 24.679 2.085V2.079C24.679 2.068 24.7 2.064 24.71 2.073L28.841 5.6C29.434 5.759 29.808 5.992 29.808 6.252C29.8073 6.30175 29.7942 6.35055 29.77 6.394C29.7942 6.35055 29.8073 6.30175 29.808 6.252V6.427L33.881 9.91C34.819 10.051 35.465 10.346 35.465 10.688C35.4555 10.7642 35.4273 10.837 35.383 10.8998C35.3387 10.9625 35.2796 11.0135 35.211 11.048C35.2796 11.0135 35.3387 10.9625 35.383 10.8998C35.4273 10.837 35.4555 10.7642 35.465 10.688V11.265L38.96 14.253C38.9752 14.2651 38.9869 14.2809 38.994 14.299C38.9959 14.299 38.9976 14.2997 38.9989 14.3011C39.0003 14.3024 39.001 14.3041 39.001 14.306V24.653H14.513ZM16.741 14.3H26.896L26.872 14.279L16.741 14.3Z" stroke="#1C2C65" stroke-width="0.8" stroke-miterlimit="10"/>
<path id="Vector_3" d="M14.51 24.6479H38.993C38.9949 24.6479 38.9966 24.6487 38.9979 24.65C38.9993 24.6513 39 24.6531 39 24.6549V34.9999H14.512V24.6479H14.51Z" stroke="#1C2C65" stroke-width="0.8" stroke-miterlimit="10"/>
<g id="Vector_4">
<path id="Trac&#195;&#169; 17" d="M14.51 34.956H38.95C38.9624 34.9554 38.9745 34.9597 38.9839 34.9679C38.9932 34.9761 38.999 34.9876 39 35" fill="#F2F3F7"/>
<path id="Trac&#195;&#169; 18" d="M14.51 34.956H38.95C38.9624 34.9554 38.9745 34.9597 38.9839 34.9679C38.9932 34.9761 38.999 34.9876 39 35" stroke="#1C2C65" stroke-width="0.8" stroke-miterlimit="10"/>
</g>
<path id="Union 18" d="M14.475 24.62L1.006 12.422V2.068H4.146V1.868C4.146 1.388 5.412 1 6.974 1C8.536 1 9.806 1.388 9.806 1.867V2.067H18.499V1.867C18.495 1.388 19.761 1 21.324 1C22.887 1 24.152 1.388 24.152 1.867V2.067H24.679V2.083C24.6859 2.08556 24.6923 2.08928 24.698 2.094L28.798 5.594C29.415 5.753 29.806 5.994 29.806 6.257C29.8052 6.31268 29.7889 6.36704 29.759 6.414C29.7889 6.36704 29.8052 6.31268 29.806 6.257V6.457L33.861 9.915C34.808 10.055 35.461 10.352 35.461 10.695C35.4511 10.7724 35.4221 10.8462 35.3767 10.9097C35.3314 10.9732 35.271 11.0245 35.201 11.059C35.271 11.0245 35.3314 10.9732 35.3767 10.9097C35.4221 10.8462 35.4511 10.7724 35.461 10.695V11.281L38.839 14.161C38.8485 14.169 38.8551 14.1798 38.8579 14.1919C38.8606 14.204 38.8594 14.2167 38.8543 14.228C38.8492 14.2393 38.8405 14.2486 38.8297 14.2546C38.8188 14.2606 38.8063 14.2628 38.794 14.261L14.534 14.311C14.5237 14.3109 14.5135 14.3089 14.504 14.305C14.5048 14.3069 14.5048 14.3091 14.504 14.311V24.612C14.504 24.62 14.494 24.625 14.484 24.625C14.4807 24.6239 14.4776 24.6222 14.475 24.62V24.62Z" stroke="#1C2C65" stroke-width="0.8" stroke-miterlimit="10"/>
<path id="Vector_7" d="M14.474 34.951L1.01 22.752C1.009 22.7494 1.009 22.7465 1.01 22.744V12.439C1.01 12.426 1.034 12.421 1.045 12.431L8.984 19.624L14.509 24.63C14.51 24.6325 14.51 24.6354 14.509 24.638V34.943C14.509 34.956 14.485 34.961 14.474 34.951Z" stroke="#1C2C65" stroke-width="0.8" stroke-miterlimit="10"/>
<g id="Vector_8">
<path id="Trac&#195;&#169; 19" d="M1 22.7891C1 22.7761 1.024 22.7711 1.035 22.7811L8.974 29.9741L14.5 34.9791C14.501 34.9816 14.501 34.9845 14.5 34.9871" fill="#F2F3F7"/>
<path id="Trac&#195;&#169; 20" d="M1 22.7891C1 22.7761 1.024 22.7711 1.035 22.7811L8.974 29.9741L14.5 34.9791C14.501 34.9816 14.501 34.9845 14.5 34.9871" stroke="#1C2C65" stroke-width="0.8" stroke-miterlimit="10"/>
</g>
<g id="Group">
<path id="Vector_10" d="M35.464 10.691C35.464 11.008 34.907 11.286 34.077 11.437C33.1231 11.5981 32.1489 11.5981 31.195 11.437C30.365 11.286 29.808 11.009 29.808 10.691C29.808 10.213 31.074 9.82495 32.636 9.82495C34.198 9.82495 35.465 10.213 35.465 10.691H35.464Z" stroke="#1C2C65" stroke-width="0.8" stroke-miterlimit="10"/>
<path id="Vector_11" d="M35.464 10.691V12.182C35.464 12.66 34.198 13.048 32.635 13.048C31.072 13.048 29.807 12.66 29.807 12.182V10.691C29.807 11.008 30.364 11.291 31.194 11.437C32.1479 11.5982 33.1221 11.5982 34.076 11.437C34.907 11.286 35.463 11.009 35.463 10.691H35.464Z" stroke="#1C2C65" stroke-width="0.8" stroke-miterlimit="10"/>
<path id="Vector_12" d="M21.114 10.571C21.114 10.888 20.557 11.165 19.727 11.317C18.7731 11.4781 17.7989 11.4781 16.845 11.317C16.015 11.166 15.458 10.889 15.458 10.571C15.458 10.093 16.724 9.70496 18.286 9.70496C19.848 9.70496 21.114 10.093 21.114 10.571Z" stroke="#1C2C65" stroke-width="0.8" stroke-miterlimit="10"/>
<path id="Vector_13" d="M21.114 10.571V12.062C21.114 12.54 19.848 12.928 18.285 12.928C16.722 12.928 15.457 12.54 15.457 12.062V10.571C15.457 10.888 16.014 11.171 16.844 11.317C17.7979 11.4781 18.7721 11.4781 19.726 11.317C20.556 11.166 21.113 10.889 21.113 10.571H21.114Z" stroke="#1C2C65" stroke-width="0.8" stroke-miterlimit="10"/>
<path id="Vector_14" d="M15.458 6.37699C15.458 6.69399 14.901 6.97199 14.07 7.12299C13.5945 7.20571 13.1126 7.2462 12.63 7.24399C12.147 7.24617 11.6648 7.20568 11.189 7.12299C10.358 6.97199 9.8 6.69399 9.8 6.37699C9.8 5.89799 11.066 5.51099 12.629 5.51099C14.192 5.51099 15.458 5.89999 15.458 6.37699Z" stroke="#1C2C65" stroke-width="0.8" stroke-miterlimit="10"/>
<path id="Vector_15" d="M15.458 6.37695V7.86795C15.458 8.34695 14.192 8.73395 12.63 8.73395C11.068 8.73395 9.8 8.34695 9.8 7.86795V6.37695C9.8 6.69395 10.357 6.97195 11.188 7.12295C11.6638 7.2057 12.146 7.24619 12.629 7.24395C13.1116 7.24611 13.5935 7.20562 14.069 7.12295C14.9 6.97195 15.458 6.69395 15.458 6.37695Z" stroke="#1C2C65" stroke-width="0.8" stroke-miterlimit="10"/>
<path id="Vector_16" d="M9.8 1.866C9.8 2.183 9.244 2.46 8.413 2.612C7.9372 2.69498 7.45497 2.73547 6.972 2.733C6.48903 2.73546 6.00679 2.69497 5.531 2.612C4.701 2.461 4.144 2.184 4.144 1.866C4.145 1.388 5.412 1 6.973 1C8.534 1 9.8 1.388 9.8 1.866Z" stroke="#1C2C65" stroke-width="0.8" stroke-miterlimit="10"/>
<path id="Vector_17" d="M9.8 1.86597V3.35797C9.8 3.83597 8.534 4.22397 6.972 4.22397C5.41 4.22397 4.144 3.83597 4.144 3.35797V1.86597C4.144 2.18297 4.701 2.45997 5.531 2.61197C6.00679 2.69496 6.48903 2.73545 6.972 2.73297C7.45497 2.73536 7.93719 2.69487 8.413 2.61197C9.245 2.46097 9.8 2.18397 9.8 1.86597Z" stroke="#1C2C65" stroke-width="0.8" stroke-miterlimit="10"/>
<path id="Vector_18" d="M29.807 6.25594C29.807 6.57294 29.25 6.85094 28.419 7.00194C27.9435 7.08466 27.4616 7.12515 26.979 7.12294C26.496 7.12451 26.0138 7.08335 25.538 6.99994C24.707 6.84894 24.15 6.57194 24.15 6.25394C24.15 5.77594 25.416 5.38794 26.979 5.38794C28.542 5.38794 29.807 5.77794 29.807 6.25594Z" stroke="#1C2C65" stroke-width="0.8" stroke-miterlimit="10"/>
<path id="Vector_19" d="M29.807 6.25598V7.74698C29.807 8.22598 28.541 8.61298 26.979 8.61298C25.417 8.61298 24.15 8.22498 24.15 7.74698V6.25598C24.15 6.57298 24.707 6.85598 25.538 7.00198C26.0138 7.08472 26.496 7.12521 26.979 7.12298C27.4617 7.12453 27.9436 7.08337 28.419 6.99998C29.25 6.85098 29.807 6.57298 29.807 6.25598Z" stroke="#1C2C65" stroke-width="0.8" stroke-miterlimit="10"/>
<path id="Vector_20" d="M24.15 1.866C24.15 2.183 23.593 2.46 22.763 2.612C22.2872 2.69499 21.805 2.73548 21.322 2.733C20.839 2.73544 20.3568 2.69495 19.881 2.612C19.051 2.461 18.494 2.184 18.494 1.866C18.494 1.387 19.76 1 21.322 1C22.884 1 24.15 1.388 24.15 1.866Z" stroke="#1C2C65" stroke-width="0.8" stroke-miterlimit="10"/>
<path id="Vector_21" d="M24.15 1.86597V3.35797C24.15 3.83597 22.884 4.22397 21.322 4.22397C19.76 4.22397 18.494 3.83597 18.494 3.35797V1.86597C18.494 2.18297 19.051 2.45997 19.881 2.61197C20.3568 2.69496 20.839 2.73545 21.322 2.73297C21.805 2.7354 22.2872 2.69491 22.763 2.61197C23.593 2.46097 24.15 2.18397 24.15 1.86597Z" stroke="#1C2C65" stroke-width="0.8" stroke-miterlimit="10"/>
</g>
</g>
</svg>
