<svg width="35" height="34" viewBox="0 0 35 34" fill="none" xmlns="http://www.w3.org/2000/svg">
<g id="params">
<path id="Union 7" d="M16.8552 31.6338C16.8377 31.3516 16.7373 31.0808 16.5666 30.8553C16.3959 30.6299 16.1625 30.4598 15.8956 30.3664C15.6287 30.273 15.3402 30.2604 15.0662 30.3302C14.7922 30.4 14.5448 30.5491 14.3552 30.7588C14.1283 31.003 13.8239 31.1612 13.4937 31.2064C13.1634 31.2516 12.8277 31.1811 12.5436 31.0069C12.2594 30.8326 12.0444 30.5654 11.9349 30.2506C11.8255 29.9357 11.8284 29.5927 11.9432 29.2798C12.0383 29.0148 12.0541 28.7278 11.9887 28.4539C11.9232 28.18 11.7793 27.9312 11.5746 27.7378C11.3699 27.5445 11.1133 27.415 10.8361 27.3653C10.559 27.3155 10.2733 27.3477 10.0142 27.4578C9.7067 27.5849 9.36493 27.6026 9.04596 27.5081C8.72699 27.4135 8.45014 27.2123 8.26167 26.9381C8.0732 26.664 7.98452 26.3334 8.01045 26.0017C8.03639 25.6701 8.17536 25.3573 8.40416 25.1158C8.59841 24.9107 8.72895 24.6537 8.77995 24.3759C8.83095 24.0981 8.80022 23.8114 8.69148 23.5507C8.58274 23.29 8.40066 23.0665 8.16736 22.9073C7.93405 22.7481 7.65955 22.66 7.37716 22.6538C7.04513 22.6437 6.72644 22.5208 6.47372 22.3052C6.221 22.0896 6.04935 21.7943 5.98712 21.468C5.92489 21.1417 5.97579 20.8039 6.13143 20.5104C6.28706 20.2169 6.53812 19.9853 6.84316 19.8538C7.10392 19.7435 7.32707 19.5599 7.48555 19.3253C7.64404 19.0907 7.73105 18.8151 7.73602 18.5321C7.741 18.249 7.66373 17.9705 7.51359 17.7305C7.36344 17.4905 7.14688 17.2992 6.89016 17.1798C6.71606 17.1011 6.55931 16.9886 6.42899 16.8489C6.29867 16.7092 6.19737 16.545 6.13095 16.3659C6.06454 16.1867 6.03434 15.9962 6.0421 15.8053C6.04986 15.6144 6.09543 15.4269 6.17616 15.2538C5.97734 15.2708 5.79264 15.3635 5.66016 15.5128C5.53438 15.6471 5.36612 15.734 5.18374 15.7588C5.00136 15.7836 4.81603 15.7447 4.65898 15.6487C4.50193 15.5527 4.38277 15.4056 4.3216 15.232C4.26042 15.0584 4.26098 14.869 4.32316 14.6958C4.37857 14.5487 4.38945 14.3886 4.35442 14.2354C4.31939 14.0822 4.24002 13.9427 4.12621 13.8343C4.0124 13.726 3.86919 13.6535 3.71446 13.626C3.55973 13.5985 3.40033 13.6172 3.25616 13.6798C3.08469 13.7595 2.89051 13.776 2.70807 13.7262C2.52563 13.6764 2.36674 13.5635 2.25958 13.4077C2.15242 13.2519 2.10393 13.0632 2.12271 12.875C2.14149 12.6868 2.22632 12.5114 2.36216 12.3798C2.4696 12.2662 2.54177 12.1239 2.56992 11.9701C2.59807 11.8163 2.58099 11.6576 2.52076 11.5133C2.46052 11.369 2.35972 11.2453 2.23057 11.1572C2.10142 11.069 1.94948 11.0203 1.79316 11.0168C1.60805 11.0134 1.42973 10.9465 1.28802 10.8274C1.14632 10.7082 1.04982 10.544 1.01469 10.3623C0.97955 10.1805 1.0079 9.99217 1.095 9.8288C1.1821 9.66543 1.32266 9.53692 1.49316 9.46478C1.63497 9.40314 1.75617 9.3022 1.84245 9.17389C1.92873 9.04557 1.97648 8.89524 1.98005 8.74065C1.98363 8.58607 1.94288 8.43369 1.86263 8.30152C1.78238 8.16935 1.66597 8.06291 1.52716 7.99478C1.36022 7.9162 1.2252 7.78286 1.14455 7.61691C1.0639 7.45096 1.04248 7.26241 1.08384 7.0826C1.1252 6.90278 1.22685 6.74254 1.3719 6.62851C1.51696 6.51448 1.69667 6.45353 1.88116 6.45578C2.03783 6.45913 2.19208 6.41679 2.32509 6.33393C2.45809 6.25107 2.5641 6.13129 2.63016 5.98919C2.69623 5.84709 2.71949 5.68884 2.69712 5.53374C2.67474 5.37864 2.60769 5.23341 2.50416 5.11578C2.37751 4.97862 2.30281 4.80148 2.29301 4.61504C2.28321 4.42861 2.33893 4.24462 2.45051 4.09493C2.56209 3.94525 2.7225 3.83931 2.90397 3.79545C3.08544 3.75159 3.27654 3.77258 3.44416 3.85478C3.58523 3.92188 3.74287 3.94621 3.89761 3.92476C4.05235 3.90332 4.19742 3.83703 4.31493 3.7341C4.43244 3.63116 4.51723 3.49607 4.55886 3.3455C4.60048 3.19492 4.59711 3.03546 4.54916 2.88678C4.49422 2.71133 4.50139 2.52231 4.56946 2.35152C4.63753 2.18074 4.76236 2.03861 4.92292 1.94905C5.08349 1.8595 5.27 1.82798 5.45108 1.8598C5.63216 1.89162 5.79675 1.98485 5.91716 2.12378C6.01865 2.24128 6.15214 2.32671 6.30135 2.36964C6.45056 2.41258 6.60904 2.41117 6.75746 2.36558C6.90588 2.31999 7.03783 2.2322 7.13721 2.11292C7.2366 1.99363 7.29912 1.848 7.31716 1.69378C7.34132 1.51343 7.42624 1.3467 7.55792 1.22111C7.68959 1.09552 7.86014 1.01856 8.04144 1.00295C8.22273 0.987338 8.40393 1.034 8.55514 1.13523C8.70634 1.23646 8.81852 1.38622 8.87316 1.55978C8.91579 1.70961 9.00155 1.84359 9.11976 1.94504C9.23797 2.04649 9.38341 2.11093 9.53797 2.13033C9.69253 2.14973 9.84939 2.12323 9.989 2.05415C10.1286 1.98506 10.2448 1.87643 10.3232 1.74178C10.4173 1.58255 10.5636 1.46083 10.7373 1.39736C10.9111 1.33388 11.1014 1.33256 11.276 1.39363C11.4506 1.45469 11.5986 1.57437 11.6949 1.73229C11.7912 1.89021 11.8298 2.07661 11.8042 2.25978C11.7829 2.41405 11.8072 2.57116 11.8739 2.71184C11.9407 2.85253 12.047 2.97067 12.18 3.05179C12.3129 3.1329 12.4666 3.17346 12.6222 3.16848C12.7779 3.16351 12.9287 3.11322 13.0562 3.02378C13.2072 2.91602 13.3911 2.86413 13.5762 2.87699C13.7613 2.88986 13.9362 2.96668 14.0709 3.09431C14.2056 3.22193 14.2918 3.39242 14.3146 3.57658C14.3375 3.76074 14.2956 3.94711 14.1962 4.10378C14.1117 4.23643 14.0682 4.39102 14.0712 4.54823C14.0741 4.70545 14.1233 4.85832 14.2126 4.98774C14.3019 5.11716 14.4273 5.21739 14.5733 5.27591C14.7192 5.33444 14.8792 5.34865 15.0332 5.31678C15.215 5.28194 15.4032 5.31074 15.5663 5.39833C15.7294 5.48593 15.8573 5.62698 15.9286 5.7978C16 5.96861 16.0103 6.15877 15.958 6.33632C15.9056 6.51387 15.7937 6.66799 15.6412 6.77278C15.5538 6.83264 15.479 6.90909 15.4212 6.99778C15.627 7.07332 15.8474 7.10098 16.0655 7.07866C16.2837 7.05634 16.4939 6.98464 16.6802 6.86898C16.8665 6.75332 17.024 6.59676 17.1408 6.41115C17.2576 6.22555 17.3305 6.01579 17.3542 5.79778C17.3887 5.46545 17.5379 5.15553 17.7762 4.92132C18.0144 4.68711 18.3269 4.54325 18.6598 4.51448C18.9926 4.48572 19.3251 4.57384 19.6001 4.76371C19.875 4.95357 20.0752 5.2333 20.1662 5.55478C20.2426 5.82607 20.3973 6.06882 20.6109 6.25269C20.8246 6.43656 21.0876 6.55339 21.3673 6.5886C21.6469 6.62381 21.9307 6.57583 22.1833 6.45065C22.4358 6.32548 22.6459 6.12866 22.7872 5.88478C22.9555 5.59575 23.2192 5.37437 23.533 5.2587C23.8468 5.14302 24.1911 5.14027 24.5068 5.25093C24.8224 5.36158 25.0896 5.57872 25.2625 5.86503C25.4354 6.15134 25.5032 6.48893 25.4542 6.81978C25.414 7.099 25.4567 7.38385 25.5768 7.63907C25.697 7.89429 25.8893 8.10867 26.1301 8.25565C26.3709 8.40264 26.6494 8.47579 26.9314 8.46604C27.2133 8.45628 27.4861 8.36406 27.7162 8.20078C27.9895 8.01312 28.319 7.92495 28.6495 7.95099C28.98 7.97704 29.2916 8.11573 29.5322 8.34389C29.7727 8.57205 29.9277 8.87586 29.9712 9.20455C30.0147 9.53324 29.9441 9.8669 29.7712 10.1498C29.6228 10.3898 29.5475 10.6679 29.5545 10.95C29.5615 11.2321 29.6505 11.506 29.8106 11.7384C29.9708 11.9708 30.1951 12.1515 30.4563 12.2584C30.7174 12.3654 31.004 12.394 31.2812 12.3408C31.6096 12.278 31.9496 12.3301 32.2442 12.4884C32.5388 12.6466 32.7699 12.9014 32.8989 13.2099C33.0279 13.5184 33.0468 13.8618 32.9526 14.1827C32.8583 14.5035 32.6565 14.7821 32.3812 14.9718C32.149 15.133 31.9686 15.3581 31.8618 15.6198C31.7549 15.8815 31.7262 16.1685 31.7791 16.4461C31.832 16.7238 31.9643 16.9801 32.1599 17.1842C32.3555 17.3882 32.606 17.5312 32.8812 17.5958C33.2066 17.6719 33.4961 17.8574 33.7012 18.1212C33.9064 18.3851 34.0148 18.7114 34.0083 19.0455C34.0019 19.3797 33.881 19.7015 33.6658 19.9573C33.4507 20.2131 33.1543 20.3872 32.8262 20.4508C32.5494 20.5053 32.2944 20.6387 32.0918 20.8349C31.8891 21.031 31.7476 21.2817 31.6842 21.5565C31.6207 21.8313 31.6382 22.1186 31.7343 22.3837C31.8305 22.6489 32.0013 22.8805 32.2262 23.0508C32.4946 23.2505 32.6861 23.5367 32.7683 23.861C32.8505 24.1854 32.8185 24.5282 32.6777 24.8317C32.5368 25.1353 32.2957 25.381 31.9949 25.5276C31.6941 25.6743 31.352 25.7128 31.0262 25.6368C30.7513 25.5724 30.4637 25.5896 30.1984 25.6862C29.9332 25.7828 29.7018 25.9546 29.5327 26.1806C29.3636 26.4066 29.264 26.677 29.2461 26.9587C29.2283 27.2404 29.2929 27.5212 29.4322 27.7668C29.597 28.0561 29.657 28.3934 29.6021 28.7218C29.5471 29.0502 29.3806 29.3496 29.1306 29.5695C28.8806 29.7895 28.5624 29.9164 28.2297 29.929C27.897 29.9417 27.5701 29.8391 27.3042 29.6388C27.0808 29.4665 26.8117 29.3636 26.5304 29.3428C26.249 29.3221 25.9678 29.3843 25.7215 29.5219C25.4752 29.6595 25.2748 29.8663 25.1449 30.1167C25.0151 30.3672 24.9616 30.6502 24.9912 30.9308C25.0273 31.2632 24.9464 31.5977 24.7625 31.8769C24.5787 32.1562 24.3032 32.3626 23.9836 32.4607C23.664 32.5588 23.3202 32.5425 23.0113 32.4146C22.7025 32.2867 22.4478 32.0551 22.2912 31.7598C22.1594 31.5106 21.957 31.3058 21.7095 31.1709C21.4619 31.0361 21.1801 30.9772 20.8992 31.0016C20.6184 31.026 20.351 31.1327 20.1304 31.3083C19.9099 31.4839 19.7459 31.7206 19.6592 31.9888C19.5708 32.2782 19.391 32.5312 19.1467 32.7099C18.9024 32.8886 18.6068 32.9833 18.3042 32.9798C17.9351 32.9876 17.5775 32.8514 17.3071 32.6002C17.0366 32.349 16.8746 32.0024 16.8552 31.6338V31.6338Z" stroke="#1C2C65" stroke-width="0.7" stroke-miterlimit="10"/>
<g id="Group_4">
<g id="Group_6">
<path id="Vector_5" d="M27.3042 29.6388C27.0809 29.4665 26.812 29.3635 26.5308 29.3426C26.2496 29.3217 25.9684 29.3839 25.7222 29.5214C25.4759 29.6589 25.2755 29.8656 25.1457 30.116C25.016 30.3664 24.9626 30.6493 24.9922 30.9298C25.0273 31.2617 24.9459 31.5956 24.762 31.8742C24.5781 32.1527 24.3031 32.3587 23.984 32.4568C23.6649 32.5548 23.3217 32.539 23.013 32.4118C22.7044 32.2847 22.4496 32.0542 22.2922 31.7598C22.1604 31.5106 21.9582 31.3057 21.7107 31.1708C21.4632 31.0358 21.1814 30.9769 20.9006 31.0012C20.6197 31.0255 20.3523 31.1321 20.1317 31.3075C19.9111 31.483 19.7471 31.7196 19.6602 31.9878C19.5565 32.3053 19.3455 32.5767 19.0634 32.7555C18.7813 32.9343 18.4458 33.0092 18.1144 32.9674C17.7831 32.9257 17.4766 32.7698 17.2477 32.5266C17.0188 32.2834 16.8818 31.9681 16.8602 31.6348C16.8427 31.3526 16.7423 31.0818 16.5716 30.8563C16.4009 30.6309 16.1675 30.4608 15.9006 30.3674C15.6337 30.274 15.3452 30.2614 15.0712 30.3312C14.7972 30.401 14.5498 30.5501 14.3602 30.7598C14.1343 31.0084 13.8288 31.1703 13.4964 31.2179C13.1639 31.2654 12.8253 31.1955 12.5389 31.0202C12.2524 30.8448 12.0361 30.5751 11.9272 30.2574C11.8183 29.9397 11.8236 29.594 11.9422 29.2798C12.0383 29.0147 12.0549 28.7272 11.9899 28.4528C11.925 28.1784 11.7813 27.9289 11.5766 27.735C11.3718 27.5411 11.1149 27.4111 10.8373 27.3612C10.5598 27.3112 10.2737 27.3434 10.0142 27.4538C9.70736 27.579 9.36699 27.5956 9.04948 27.5008C8.73197 27.406 8.4564 27.2055 8.26847 26.9326C8.08054 26.6597 7.99153 26.3307 8.01621 26.0003C8.04089 25.6698 8.17777 25.3578 8.40416 25.1158C8.59841 24.9107 8.72895 24.6537 8.77995 24.3759C8.83096 24.0981 8.80022 23.8114 8.69148 23.5507C8.58274 23.2901 8.40066 23.0665 8.16736 22.9073C7.93405 22.7481 7.65955 22.66 7.37716 22.6538C7.04521 22.6435 6.72666 22.5204 6.47411 22.3048C6.22155 22.0891 6.05007 21.7938 5.98796 21.4675C5.92586 21.1413 5.97684 20.8036 6.1325 20.5102C6.28816 20.2168 6.53919 19.9853 6.84416 19.8538C7.10453 19.7431 7.32723 19.5593 7.48534 19.3247C7.64345 19.09 7.73018 18.8146 7.73505 18.5317C7.73991 18.2488 7.66271 17.9706 7.51276 17.7307C7.36282 17.4907 7.14657 17.2994 6.89016 17.1798C6.58744 17.0386 6.34235 16.7977 6.19584 16.4975C6.04933 16.1973 6.01027 15.8559 6.08518 15.5304C6.1601 15.2049 6.34446 14.9149 6.60745 14.7089C6.87045 14.503 7.19616 14.3935 7.53016 14.3988C7.81245 14.4036 8.09006 14.3263 8.32928 14.1763C8.56849 14.0264 8.75903 13.8102 8.87773 13.554C8.99644 13.2979 9.03823 13.0128 8.99801 12.7333C8.95779 12.4538 8.83729 12.1921 8.65116 11.9798C8.43106 11.7298 8.30363 11.4116 8.29022 11.0788C8.27682 10.746 8.37827 10.4186 8.57755 10.1517C8.77683 9.88481 9.06183 9.69452 9.38475 9.61278C9.70768 9.53105 10.0489 9.56282 10.3512 9.70279C10.6062 9.8248 10.8914 9.86937 11.1715 9.831C11.4516 9.79262 11.7143 9.67298 11.9271 9.48688C12.1399 9.30077 12.2935 9.05636 12.3689 8.78389C12.4442 8.51141 12.4381 8.22281 12.3512 7.95379C12.2473 7.63599 12.2571 7.29197 12.3788 6.98059C12.5006 6.6692 12.7268 6.40981 13.0187 6.24678C13.3106 6.08376 13.6501 6.02724 13.9791 6.08689C14.308 6.14654 14.6061 6.31866 14.8222 6.57379C15.0036 6.78943 15.2445 6.9469 15.5149 7.02658C15.7852 7.10626 16.073 7.10464 16.3424 7.0219C16.6118 6.93917 16.8509 6.77899 17.03 6.56132C17.209 6.34365 17.32 6.07811 17.3492 5.79779C17.3837 5.46546 17.5329 5.15554 17.7712 4.92133C18.0094 4.68712 18.3219 4.54326 18.6548 4.51449C18.9876 4.48573 19.3201 4.57385 19.5951 4.76372C19.87 4.95358 20.0702 5.23331 20.1612 5.55479C20.2375 5.82615 20.3921 6.06899 20.6057 6.25297C20.8192 6.43694 21.0823 6.5539 21.3619 6.58922C21.6416 6.62454 21.9255 6.57665 22.1781 6.45154C22.4306 6.32643 22.6408 6.12965 22.7822 5.88579C22.9505 5.59676 23.2142 5.37538 23.528 5.25971C23.8418 5.14403 24.1861 5.14128 24.5018 5.25194C24.8174 5.36259 25.0846 5.57973 25.2575 5.86604C25.4304 6.15235 25.4982 6.48994 25.4492 6.82079C25.4092 7.09985 25.4519 7.38449 25.5721 7.63952C25.6922 7.89455 25.8844 8.10879 26.125 8.25573C26.3655 8.40267 26.6439 8.47587 26.9256 8.46629C27.2074 8.4567 27.4801 8.36475 27.7102 8.20179C27.9835 8.01043 28.3145 7.91934 28.6473 7.94391C28.98 7.96848 29.2941 8.10722 29.5363 8.33665C29.7786 8.56609 29.9342 8.87214 29.9768 9.20307C30.0194 9.53399 29.9464 9.86948 29.7702 10.1528C29.6218 10.393 29.5466 10.6711 29.5537 10.9534C29.5608 11.2356 29.6499 11.5096 29.8101 11.742C29.9703 11.9745 30.1947 12.1552 30.456 12.2623C30.7172 12.3693 31.0039 12.398 31.2812 12.3448C31.6093 12.2826 31.9489 12.3349 32.243 12.4932C32.5371 12.6514 32.768 12.9059 32.8968 13.2141C33.0257 13.5222 33.0448 13.8653 32.9509 14.1858C32.8571 14.5063 32.6559 14.7849 32.3812 14.9748C32.1494 15.1363 31.9694 15.3614 31.8628 15.623C31.7563 15.8846 31.7277 16.1714 31.7806 16.4489C31.8334 16.7263 31.9655 16.9826 32.1608 17.1866C32.3561 17.3907 32.6063 17.5338 32.8812 17.5988C33.2066 17.6749 33.4961 17.8604 33.7012 18.1243C33.9064 18.3881 34.0148 18.7144 34.0083 19.0485C34.0019 19.3827 33.881 19.7045 33.6658 19.9603C33.4507 20.2161 33.1543 20.3903 32.8262 20.4538C32.5494 20.5083 32.2944 20.6417 32.0918 20.8379C31.8891 21.0341 31.7476 21.2847 31.6842 21.5595C31.6207 21.8343 31.6382 22.1216 31.7343 22.3867C31.8305 22.6519 32.0013 22.8835 32.2262 23.0538C32.4946 23.2536 32.6861 23.5397 32.7683 23.8641C32.8505 24.1884 32.8185 24.5312 32.6777 24.8347C32.5368 25.1383 32.2957 25.384 31.9949 25.5306C31.6941 25.6773 31.352 25.7158 31.0262 25.6398C30.7515 25.5764 30.4644 25.5943 30.1998 25.6912C29.9351 25.7882 29.7044 25.96 29.5357 26.1857C29.367 26.4115 29.2675 26.6814 29.2495 26.9627C29.2315 27.2439 29.2956 27.5244 29.4342 27.7698C29.5983 28.0593 29.6576 28.3965 29.6022 28.7246C29.5467 29.0527 29.3799 29.3517 29.1298 29.5711C28.8797 29.7906 28.5615 29.9172 28.229 29.9295C27.8965 29.9418 27.5698 29.8392 27.3042 29.6388V29.6388Z" stroke="#1C2C65" stroke-width="0.7" stroke-miterlimit="10"/>
<path id="Vector_6" d="M20.0042 27.7698C21.7911 27.7906 23.544 27.2797 25.0399 26.3021C26.5359 25.3244 27.7074 23.9241 28.4057 22.279C29.1039 20.634 29.2974 18.8185 28.9615 17.0633C28.6256 15.3081 27.7755 13.6923 26.5192 12.4213C25.2629 11.1504 23.6571 10.2815 21.9059 9.92529C20.1547 9.56904 18.3371 9.74143 16.684 10.4206C15.031 11.0997 13.6172 12.2549 12.6222 13.7394C11.6273 15.2239 11.0961 16.9707 11.0962 18.7578C11.0893 19.9344 11.3143 21.1009 11.7583 22.1906C12.2022 23.2803 12.8565 24.2719 13.6837 25.1087C14.5109 25.9456 15.4948 26.6113 16.5793 27.0679C17.6637 27.5245 18.8275 27.763 20.0042 27.7698V27.7698Z" stroke="#1C2C65" stroke-width="0.7" stroke-miterlimit="10"/>
</g>
</g>
<path id="Union 8" d="M16.8532 31.6337C16.8357 31.3515 16.7353 31.0807 16.5646 30.8552C16.3939 30.6298 16.1605 30.4597 15.8936 30.3663C15.6267 30.2729 15.3382 30.2603 15.0642 30.3301C14.7902 30.3999 14.5428 30.549 14.3532 30.7587C14.1262 31.0022 13.8219 31.1598 13.492 31.2047C13.1621 31.2496 12.8268 31.179 12.543 31.0049C12.2592 30.8308 12.0443 30.5639 11.9348 30.2495C11.8253 29.935 11.8279 29.5924 11.9422 29.2797C12.0384 29.0144 12.0551 28.7269 11.9901 28.4523C11.9252 28.1777 11.7814 27.9281 11.5765 27.7341C11.3715 27.5401 11.1144 27.4102 10.8367 27.3604C10.559 27.3106 10.2727 27.343 10.0132 27.4537C9.7054 27.5831 9.36245 27.6027 9.04199 27.509C8.72153 27.4153 8.44312 27.2141 8.25358 26.9392C8.06404 26.6644 7.97494 26.3326 8.00127 25.9998C8.0276 25.6669 8.16776 25.3533 8.39816 25.1117C8.59196 24.9065 8.72211 24.6495 8.77286 24.3718C8.82362 24.0941 8.79279 23.8077 8.68412 23.5472C8.57545 23.2867 8.3936 23.0633 8.16057 22.904C7.92755 22.7447 7.65334 22.6563 7.37116 22.6497C7.03854 22.6407 6.719 22.5182 6.46553 22.3027C6.21205 22.0871 6.03987 21.7914 5.97754 21.4645C5.91521 21.1377 5.96646 20.7994 6.12281 20.5056C6.27916 20.2119 6.53121 19.9805 6.83716 19.8497C7.09706 19.7394 7.31951 19.5564 7.47769 19.3225C7.63587 19.0887 7.72302 18.8141 7.72862 18.5318C7.73423 18.2496 7.65804 17.9717 7.50927 17.7318C7.36049 17.4919 7.14548 17.3001 6.89016 17.1797C6.58744 17.0384 6.34235 16.7976 6.19583 16.4974C6.04932 16.1972 6.01026 15.8558 6.08518 15.5303C6.1601 15.2047 6.34445 14.9148 6.60745 14.7088C6.87045 14.5029 7.19615 14.3934 7.53016 14.3987C7.75311 14.4071 7.97486 14.3623 8.17709 14.2681C8.37932 14.1738 8.55621 14.0328 8.69316 13.8567C7.3939 13.8247 6.15903 13.2843 5.25398 12.3516C4.34893 11.4189 3.84595 10.1683 3.85316 8.86868C3.83804 7.78724 4.17962 6.73094 4.82507 5.86311C5.47052 4.99528 6.3839 4.36426 7.42396 4.06762C8.46403 3.77098 9.57286 3.82524 10.579 4.22202C11.5851 4.61879 12.4325 5.33597 12.9902 6.26268C13.2803 6.08185 13.6266 6.01345 13.9637 6.07037C14.3008 6.1273 14.6055 6.30561 14.8202 6.57168C15.0014 6.78887 15.2427 6.94773 15.5139 7.02836C15.785 7.109 16.0739 7.10781 16.3444 7.02495C16.6149 6.94209 16.8549 6.78124 17.0343 6.56257C17.2138 6.34389 17.3247 6.07712 17.3532 5.79568C17.3875 5.46329 17.5366 5.15326 17.7748 4.91892C18.013 4.68458 18.3254 4.54058 18.6583 4.51169C18.9912 4.4828 19.3238 4.57084 19.5988 4.76065C19.8738 4.95046 20.0741 5.23017 20.1652 5.55168C20.2427 5.82148 20.3977 6.06259 20.611 6.24512C20.8243 6.42764 21.0864 6.54356 21.365 6.57848C21.6435 6.6134 21.9262 6.5658 22.1779 6.44158C22.4297 6.31736 22.6394 6.12199 22.7812 5.87968C22.9495 5.59082 23.2131 5.36958 23.5268 5.25395C23.8404 5.13831 24.1846 5.13551 24.5001 5.246C24.8156 5.3565 25.0828 5.57341 25.2558 5.85948C25.4288 6.14555 25.4968 6.48293 25.4482 6.81368C25.408 7.09289 25.4507 7.37775 25.5708 7.63297C25.691 7.88818 25.8833 8.10256 26.1241 8.24955C26.3649 8.39654 26.6434 8.46969 26.9254 8.45993C27.2073 8.45018 27.4801 8.35795 27.7102 8.19468C27.9835 8.00273 28.3147 7.91115 28.6478 7.93546C28.9809 7.95976 29.2953 8.09846 29.5378 8.32805C29.7804 8.55764 29.9361 8.86401 29.9786 9.19526C30.0211 9.52651 29.9478 9.86227 29.7712 10.1457C29.6229 10.3858 29.5478 10.6638 29.5548 10.9459C29.5619 11.228 29.6509 11.502 29.811 11.7343C29.9711 11.9667 30.1953 12.1475 30.4564 12.2546C30.7174 12.3618 31.004 12.3906 31.2812 12.3377C31.6097 12.2743 31.95 12.3259 32.2449 12.484C32.5398 12.642 32.7713 12.8968 32.9004 13.2055C33.0295 13.5141 33.0484 13.8579 32.9538 14.1788C32.8592 14.4997 32.657 14.7783 32.3812 14.9677C32.1494 15.1292 31.9694 15.3543 31.8628 15.6159C31.7563 15.8775 31.7277 16.1643 31.7806 16.4418C31.8334 16.7192 31.9655 16.9754 32.1608 17.1795C32.3561 17.3835 32.6063 17.5267 32.8812 17.5917C33.2066 17.6678 33.4961 17.8533 33.7012 18.1171C33.9064 18.381 34.0148 18.7073 34.0083 19.0414C34.0019 19.3756 33.881 19.6974 33.6658 19.9532C33.4507 20.2089 33.1543 20.3831 32.8262 20.4467C32.5494 20.5012 32.2944 20.6346 32.0918 20.8308C31.8891 21.0269 31.7476 21.2776 31.6842 21.5524C31.6207 21.8272 31.6382 22.1145 31.7343 22.3796C31.8305 22.6448 32.0013 22.8764 32.2262 23.0467C32.4946 23.2464 32.6861 23.5326 32.7683 23.8569C32.8505 24.1813 32.8185 24.5241 32.6777 24.8276C32.5368 25.1312 32.2957 25.3769 31.9949 25.5235C31.6941 25.6702 31.352 25.7087 31.0262 25.6327C30.7505 25.5679 30.462 25.5851 30.1959 25.6821C29.9299 25.7791 29.6981 25.9517 29.5288 26.1788C29.3596 26.4058 29.2604 26.6773 29.2434 26.9599C29.2264 27.2426 29.2924 27.524 29.4332 27.7697C29.5987 28.0595 29.6589 28.3976 29.6038 28.7267C29.5486 29.0558 29.3813 29.3557 29.1303 29.5757C28.8793 29.7956 28.56 29.922 28.2265 29.9335C27.8929 29.945 27.5657 29.8408 27.3002 29.6387C27.0768 29.4665 26.8079 29.3636 26.5267 29.3428C26.2454 29.322 25.9643 29.3842 25.7181 29.5216C25.4718 29.6591 25.2713 29.8657 25.1414 30.116C25.0115 30.3663 24.9579 30.6492 24.9872 30.9297C25.0223 31.2616 24.9409 31.5955 24.757 31.874C24.5731 32.1526 24.2981 32.3586 23.979 32.4566C23.6599 32.5547 23.3167 32.5388 23.008 32.4117C22.6994 32.2845 22.4446 32.054 22.2872 31.7597C22.1554 31.5105 21.9532 31.3056 21.7057 31.1707C21.4582 31.0357 21.1764 30.9767 20.8956 31.0011C20.6147 31.0254 20.3473 31.132 20.1267 31.3074C19.9061 31.4829 19.7421 31.7195 19.6552 31.9877C19.5672 32.2773 19.3877 32.5307 19.1435 32.7097C18.8994 32.8887 18.6039 32.9838 18.3012 32.9807C17.9321 32.9882 17.5746 32.8518 17.3044 32.6004C17.0341 32.349 16.8723 32.0023 16.8532 31.6337V31.6337Z" stroke="#1C2C65" stroke-width="0.7" stroke-miterlimit="10"/>
</g>
</svg>
