<svg width="35" height="31" viewBox="0 0 35 31" fill="none" xmlns="http://www.w3.org/2000/svg">
<g id="playlist">
<g id="Vector">
<mask id="path-1-inside-1_609_4917" fill="white">
<path d="M0 4.21082C0.201763 3.75138 0.519471 3.43541 1.07272 3.45125C1.56754 3.46534 1.97746 3.84292 2.04228 4.31556C2.10436 4.76795 1.80765 5.22122 1.35026 5.36997C0.881914 5.52311 0.369747 5.32596 0.125988 4.89909C0.0839918 4.82428 0.0419959 4.74859 0 4.67289V4.21082Z"/>
</mask>
<path d="M0 4.21082C0.201763 3.75138 0.519471 3.43541 1.07272 3.45125C1.56754 3.46534 1.97746 3.84292 2.04228 4.31556C2.10436 4.76795 1.80765 5.22122 1.35026 5.36997C0.881914 5.52311 0.369747 5.32596 0.125988 4.89909C0.0839918 4.82428 0.0419959 4.74859 0 4.67289V4.21082Z" fill="#1C2C65" stroke="#F2F3F7" stroke-width="0.8" mask="url(#path-1-inside-1_609_4917)"/>
</g>
<g id="Vector_2">
<mask id="path-2-inside-2_609_4917" fill="white">
<path d="M32.9202 16.1535C32.0237 16.5108 31.1546 16.8576 30.2855 17.2044C28.0998 18.0749 25.9161 18.9497 23.725 19.8061C23.442 19.917 23.3707 20.0552 23.3717 20.3359C23.3844 22.7229 23.3689 25.1098 23.3826 27.4959C23.3899 28.7959 22.8157 29.7297 21.6571 30.3889C20.7058 30.9302 19.7436 31.2084 18.6709 30.8158C17.5561 30.4083 16.8687 29.6232 16.6907 28.4914C16.5044 27.3067 16.928 26.3121 17.9478 25.6142C18.7037 25.0966 19.5108 24.6522 20.4977 24.7411C20.7661 24.7657 21.0318 24.8168 21.3294 24.8608V24.4612C21.3294 21.4916 21.3294 18.522 21.3294 15.5524C21.3294 14.8271 21.5028 14.5824 22.1994 14.3052C25.9197 12.8239 29.6473 11.3611 33.353 9.84638C34.2705 9.47144 35.0073 10.0268 35 10.9078C34.9671 14.8562 34.9726 18.8054 34.9927 22.7537C35 24.1426 34.4248 25.1424 33.1613 25.8245C32.2848 26.2972 31.4029 26.5568 30.4242 26.2479C29.2273 25.8703 28.4842 25.0711 28.2934 23.8653C28.0971 22.6305 28.5718 21.6386 29.6373 20.9371C30.3667 20.4574 31.1354 20.0437 32.0694 20.1212C32.3506 20.145 32.6281 20.1986 32.9221 20.2409V16.1544L32.9202 16.1535ZM32.9339 12.1867C32.7915 12.2377 32.6865 12.2712 32.5852 12.3117C31.9014 12.5819 31.2176 12.8538 30.5347 13.1258C28.2441 14.0385 25.9526 14.9503 23.6647 15.8692C23.5561 15.9132 23.3963 16.0171 23.3927 16.098C23.3689 16.6508 23.3799 17.2053 23.3799 17.802C23.6446 17.6999 23.8546 17.6216 24.0628 17.5388C26.9322 16.3964 29.8016 15.2549 32.6674 14.1063C32.7733 14.064 32.9193 13.9487 32.923 13.8616C32.9467 13.3159 32.9349 12.7693 32.9349 12.1867H32.9339ZM31.3226 24.4022C31.7188 24.3996 32.5861 23.912 32.7879 23.5784C33.0106 23.2096 32.9686 22.7687 32.6801 22.4412C32.398 22.1218 31.9315 21.995 31.5353 22.1702C31.2368 22.3022 30.9455 22.4615 30.6808 22.6463C30.3284 22.8928 30.2106 23.346 30.3503 23.743C30.4845 24.1223 30.9008 24.4048 31.3226 24.4022V24.4022ZM21.3248 27.818C21.3193 26.9854 20.5735 26.5093 19.9024 26.7988C19.634 26.915 19.3738 27.0594 19.1337 27.224C18.5211 27.6411 18.5659 28.5292 19.204 28.8848C19.7728 29.2008 20.2229 28.8909 20.6903 28.6339C21.0756 28.4227 21.3184 28.1358 21.3239 27.818H21.3248Z"/>
</mask>
<path d="M32.9202 16.1535C32.0237 16.5108 31.1546 16.8576 30.2855 17.2044C28.0998 18.0749 25.9161 18.9497 23.725 19.8061C23.442 19.917 23.3707 20.0552 23.3717 20.3359C23.3844 22.7229 23.3689 25.1098 23.3826 27.4959C23.3899 28.7959 22.8157 29.7297 21.6571 30.3889C20.7058 30.9302 19.7436 31.2084 18.6709 30.8158C17.5561 30.4083 16.8687 29.6232 16.6907 28.4914C16.5044 27.3067 16.928 26.3121 17.9478 25.6142C18.7037 25.0966 19.5108 24.6522 20.4977 24.7411C20.7661 24.7657 21.0318 24.8168 21.3294 24.8608V24.4612C21.3294 21.4916 21.3294 18.522 21.3294 15.5524C21.3294 14.8271 21.5028 14.5824 22.1994 14.3052C25.9197 12.8239 29.6473 11.3611 33.353 9.84638C34.2705 9.47144 35.0073 10.0268 35 10.9078C34.9671 14.8562 34.9726 18.8054 34.9927 22.7537C35 24.1426 34.4248 25.1424 33.1613 25.8245C32.2848 26.2972 31.4029 26.5568 30.4242 26.2479C29.2273 25.8703 28.4842 25.0711 28.2934 23.8653C28.0971 22.6305 28.5718 21.6386 29.6373 20.9371C30.3667 20.4574 31.1354 20.0437 32.0694 20.1212C32.3506 20.145 32.6281 20.1986 32.9221 20.2409V16.1544L32.9202 16.1535ZM32.9339 12.1867C32.7915 12.2377 32.6865 12.2712 32.5852 12.3117C31.9014 12.5819 31.2176 12.8538 30.5347 13.1258C28.2441 14.0385 25.9526 14.9503 23.6647 15.8692C23.5561 15.9132 23.3963 16.0171 23.3927 16.098C23.3689 16.6508 23.3799 17.2053 23.3799 17.802C23.6446 17.6999 23.8546 17.6216 24.0628 17.5388C26.9322 16.3964 29.8016 15.2549 32.6674 14.1063C32.7733 14.064 32.9193 13.9487 32.923 13.8616C32.9467 13.3159 32.9349 12.7693 32.9349 12.1867H32.9339ZM31.3226 24.4022C31.7188 24.3996 32.5861 23.912 32.7879 23.5784C33.0106 23.2096 32.9686 22.7687 32.6801 22.4412C32.398 22.1218 31.9315 21.995 31.5353 22.1702C31.2368 22.3022 30.9455 22.4615 30.6808 22.6463C30.3284 22.8928 30.2106 23.346 30.3503 23.743C30.4845 24.1223 30.9008 24.4048 31.3226 24.4022V24.4022ZM21.3248 27.818C21.3193 26.9854 20.5735 26.5093 19.9024 26.7988C19.634 26.915 19.3738 27.0594 19.1337 27.224C18.5211 27.6411 18.5659 28.5292 19.204 28.8848C19.7728 29.2008 20.2229 28.8909 20.6903 28.6339C21.0756 28.4227 21.3184 28.1358 21.3239 27.818H21.3248Z" fill="#1C2C65" stroke="#F2F3F7" stroke-width="0.8" mask="url(#path-2-inside-2_609_4917)"/>
</g>
<g id="Vector_3">
<mask id="path-3-inside-3_609_4917" fill="white">
<path d="M9.24089 3.2532V3.52164C9.24089 6.73329 9.23176 9.94493 9.24546 13.1566C9.25093 14.4574 8.6776 15.3895 7.51723 16.0479C6.59971 16.568 5.67033 16.8479 4.62682 16.5038C3.46919 16.1218 2.75709 15.3332 2.55806 14.1784C2.36178 13.0395 2.74157 12.0538 3.70656 11.3514C4.52366 10.7564 5.40922 10.275 6.50112 10.4132C6.71383 10.4405 6.92473 10.4836 7.1904 10.5285C7.1904 10.3991 7.1904 10.275 7.1904 10.15C7.1904 7.1804 7.1904 4.21079 7.1904 1.24031C7.1904 0.287989 7.68248 -0.105435 8.6703 0.023946C9.48556 0.130443 10.089 0.524748 10.509 1.1963C10.6213 1.37497 10.7354 1.55276 10.8294 1.74023C11.1554 2.38977 11.7442 2.58165 12.428 2.62389C12.6873 2.63974 12.9566 2.63445 13.2031 2.70223C13.6623 2.82809 13.9262 3.25584 13.8824 3.72495C13.8422 4.1615 13.4925 4.56989 13.0388 4.59366C11.9259 4.65174 10.8559 4.49948 9.94387 3.80241C9.69554 3.61317 9.45087 3.41954 9.23815 3.25408L9.24089 3.2532ZM7.18127 13.3555C7.18401 12.6479 6.4436 12.1691 5.77166 12.4577C5.49321 12.5774 5.22115 12.7253 4.97557 12.8996C4.37119 13.3273 4.4424 14.2145 5.09334 14.5551C5.7954 14.9222 7.12101 14.2233 7.18218 13.4541C7.18492 13.4215 7.18218 13.3881 7.18218 13.3555H7.18127Z"/>
</mask>
<path d="M9.24089 3.2532V3.52164C9.24089 6.73329 9.23176 9.94493 9.24546 13.1566C9.25093 14.4574 8.6776 15.3895 7.51723 16.0479C6.59971 16.568 5.67033 16.8479 4.62682 16.5038C3.46919 16.1218 2.75709 15.3332 2.55806 14.1784C2.36178 13.0395 2.74157 12.0538 3.70656 11.3514C4.52366 10.7564 5.40922 10.275 6.50112 10.4132C6.71383 10.4405 6.92473 10.4836 7.1904 10.5285C7.1904 10.3991 7.1904 10.275 7.1904 10.15C7.1904 7.1804 7.1904 4.21079 7.1904 1.24031C7.1904 0.287989 7.68248 -0.105435 8.6703 0.023946C9.48556 0.130443 10.089 0.524748 10.509 1.1963C10.6213 1.37497 10.7354 1.55276 10.8294 1.74023C11.1554 2.38977 11.7442 2.58165 12.428 2.62389C12.6873 2.63974 12.9566 2.63445 13.2031 2.70223C13.6623 2.82809 13.9262 3.25584 13.8824 3.72495C13.8422 4.1615 13.4925 4.56989 13.0388 4.59366C11.9259 4.65174 10.8559 4.49948 9.94387 3.80241C9.69554 3.61317 9.45087 3.41954 9.23815 3.25408L9.24089 3.2532ZM7.18127 13.3555C7.18401 12.6479 6.4436 12.1691 5.77166 12.4577C5.49321 12.5774 5.22115 12.7253 4.97557 12.8996C4.37119 13.3273 4.4424 14.2145 5.09334 14.5551C5.7954 14.9222 7.12101 14.2233 7.18218 13.4541C7.18492 13.4215 7.18218 13.3881 7.18218 13.3555H7.18127Z" fill="#1C2C65" stroke="#F2F3F7" stroke-width="0.8" mask="url(#path-3-inside-3_609_4917)"/>
</g>
<g id="Vector_4">
<mask id="path-4-inside-4_609_4917" fill="white">
<path d="M13.0178 24.506C12.3286 24.6231 11.6256 24.6891 10.9546 24.8704C10.1585 25.0852 9.53036 25.5877 9.00358 26.2021C7.64693 27.7828 5.8968 28.5556 3.77783 28.5609C3.34509 28.5617 2.91235 28.5661 2.47961 28.56C1.82776 28.5503 1.35941 28.1199 1.37037 27.5496C1.38132 26.9819 1.83232 26.5911 2.48052 26.5805C3.12872 26.5709 3.78057 26.5929 4.42511 26.5365C5.62747 26.4318 6.61073 25.8905 7.37578 24.9928C8.3992 23.794 9.67734 22.9737 11.2704 22.744C12.219 22.6067 13.1986 22.6322 14.1636 22.6419C14.6758 22.6472 15.0601 23.1577 15.0327 23.6558C15.0044 24.1654 14.5808 24.5703 14.0267 24.5958C13.6971 24.6108 13.3666 24.5985 13.0361 24.5985L13.0188 24.506H13.0178Z"/>
</mask>
<path d="M13.0178 24.506C12.3286 24.6231 11.6256 24.6891 10.9546 24.8704C10.1585 25.0852 9.53036 25.5877 9.00358 26.2021C7.64693 27.7828 5.8968 28.5556 3.77783 28.5609C3.34509 28.5617 2.91235 28.5661 2.47961 28.56C1.82776 28.5503 1.35941 28.1199 1.37037 27.5496C1.38132 26.9819 1.83232 26.5911 2.48052 26.5805C3.12872 26.5709 3.78057 26.5929 4.42511 26.5365C5.62747 26.4318 6.61073 25.8905 7.37578 24.9928C8.3992 23.794 9.67734 22.9737 11.2704 22.744C12.219 22.6067 13.1986 22.6322 14.1636 22.6419C14.6758 22.6472 15.0601 23.1577 15.0327 23.6558C15.0044 24.1654 14.5808 24.5703 14.0267 24.5958C13.6971 24.6108 13.3666 24.5985 13.0361 24.5985L13.0188 24.506H13.0178Z" fill="#1C2C65" stroke="#F2F3F7" stroke-width="0.8" mask="url(#path-4-inside-4_609_4917)"/>
</g>
<g id="Vector_5">
<mask id="path-5-inside-5_609_4917" fill="white">
<path d="M23.3114 8.43635C22.9928 8.43635 22.6732 8.44427 22.3546 8.43459C21.7685 8.41698 21.3284 7.99275 21.3248 7.45235C21.3211 6.90138 21.774 6.47275 22.3774 6.4569C23.1051 6.43842 23.8382 6.46746 24.5585 6.39089C25.6568 6.27383 26.5697 5.75983 27.269 4.94041C28.706 3.25582 30.5411 2.4408 32.797 2.49449C33.1722 2.50329 33.5483 2.49097 33.9245 2.49713C34.5325 2.5077 34.9844 2.92928 34.9872 3.48113C34.9908 4.03563 34.5435 4.45986 33.9354 4.47482C33.2306 4.49242 32.5204 4.46162 31.821 4.53203C30.6588 4.64997 29.7167 5.20006 28.9744 6.067C27.9428 7.27368 26.6464 8.06053 25.0433 8.32633C24.4745 8.4205 23.8902 8.42755 23.3132 8.47507L23.3096 8.43547L23.3114 8.43635Z"/>
</mask>
<path d="M23.3114 8.43635C22.9928 8.43635 22.6732 8.44427 22.3546 8.43459C21.7685 8.41698 21.3284 7.99275 21.3248 7.45235C21.3211 6.90138 21.774 6.47275 22.3774 6.4569C23.1051 6.43842 23.8382 6.46746 24.5585 6.39089C25.6568 6.27383 26.5697 5.75983 27.269 4.94041C28.706 3.25582 30.5411 2.4408 32.797 2.49449C33.1722 2.50329 33.5483 2.49097 33.9245 2.49713C34.5325 2.5077 34.9844 2.92928 34.9872 3.48113C34.9908 4.03563 34.5435 4.45986 33.9354 4.47482C33.2306 4.49242 32.5204 4.46162 31.821 4.53203C30.6588 4.64997 29.7167 5.20006 28.9744 6.067C27.9428 7.27368 26.6464 8.06053 25.0433 8.32633C24.4745 8.4205 23.8902 8.42755 23.3132 8.47507L23.3096 8.43547L23.3114 8.43635Z" fill="#1C2C65" stroke="#F2F3F7" stroke-width="0.8" mask="url(#path-5-inside-5_609_4917)"/>
</g>
<g id="Vector_6">
<mask id="path-6-inside-6_609_4917" fill="white">
<path d="M14.9624 14.6863C15.5303 14.681 15.9886 15.114 15.9931 15.6588C15.9977 16.2001 15.5421 16.6507 14.9825 16.6578C14.4292 16.6648 13.9527 16.2142 13.9463 15.6791C13.9399 15.1413 14.4 14.6915 14.9624 14.6863Z"/>
</mask>
<path d="M14.9624 14.6863C15.5303 14.681 15.9886 15.114 15.9931 15.6588C15.9977 16.2001 15.5421 16.6507 14.9825 16.6578C14.4292 16.6648 13.9527 16.2142 13.9463 15.6791C13.9399 15.1413 14.4 14.6915 14.9624 14.6863Z" fill="#1C2C65" stroke="#F2F3F7" stroke-width="0.8" mask="url(#path-6-inside-6_609_4917)"/>
</g>
</g>
</svg>
