<svg width="28" height="37" viewBox="0 0 28 37" fill="none" xmlns="http://www.w3.org/2000/svg">
<g id="alert-gradient">
<path id="Union 12" d="M2.60608 35.885C2.27022 35.8816 1.94946 35.7449 1.71432 35.5051C1.47917 35.2653 1.34888 34.9419 1.35208 34.606V6.767C1.35049 6.60074 1.38167 6.43581 1.44384 6.2816C1.506 6.1274 1.59793 5.98695 1.71438 5.86827C1.83082 5.7496 1.96951 5.65502 2.12251 5.58995C2.2755 5.52487 2.43982 5.49057 2.60608 5.489H6.86308V2.278C6.85988 1.9424 6.99007 1.61927 7.22503 1.37962C7.45998 1.13998 7.78048 1.00343 8.11608 1L25.4961 1C25.6625 1.00131 25.827 1.03542 25.9803 1.10037C26.1335 1.16533 26.2724 1.25987 26.3891 1.37857C26.5057 1.49727 26.5978 1.63781 26.6601 1.79214C26.7224 1.94648 26.7537 2.11158 26.7521 2.278V30.117C26.7543 30.2838 26.7236 30.4495 26.6616 30.6044C26.5996 30.7593 26.5076 30.9004 26.3909 31.0197C26.2741 31.1389 26.135 31.2339 25.9814 31.2992C25.8279 31.3644 25.6629 31.3987 25.4961 31.4H21.2401V34.61C21.2417 34.7764 21.2105 34.9415 21.1482 35.0958C21.086 35.2501 20.994 35.3907 20.8775 35.5094C20.7609 35.6282 20.6222 35.7229 20.469 35.788C20.3159 35.8531 20.1515 35.8874 19.9851 35.889L2.60608 35.885Z" stroke="url(#paint0_linear_740_6073)" stroke-width="0.8" stroke-miterlimit="10"/>
<path id="Union 13" d="M2.60608 35.884C2.43982 35.8824 2.2755 35.8481 2.1225 35.783C1.96951 35.718 1.83082 35.6234 1.71438 35.5047C1.59793 35.386 1.506 35.2456 1.44384 35.0914C1.38167 34.9372 1.35049 34.7722 1.35208 34.606V6.76698C1.35049 6.60073 1.38167 6.43579 1.44384 6.28158C1.506 6.12738 1.59793 5.98693 1.71438 5.86826C1.83082 5.74958 1.96951 5.655 2.1225 5.58993C2.2755 5.52485 2.43982 5.49055 2.60608 5.48898H19.4411C19.4411 5.12432 19.4411 4.75965 19.4411 4.39498C19.4396 3.97577 19.5749 3.56752 19.8265 3.23219C20.078 2.89686 20.4322 2.65278 20.8351 2.53698C21.1023 2.46599 21.3817 2.45416 21.654 2.50231C21.9262 2.55047 22.1846 2.65746 22.4113 2.8158C22.6379 2.97415 22.8272 3.18005 22.966 3.41912C23.1049 3.65819 23.1899 3.92468 23.2151 4.19998C23.2231 4.28006 23.2271 4.3605 23.2271 4.44098C23.2271 4.98565 23.2271 5.53032 23.2271 6.07498C23.2233 6.29515 23.2895 6.51084 23.4161 6.69098C23.5551 6.89098 23.6901 7.09098 23.8321 7.30498H21.2401V7.65998H22.2521C22.1823 7.84428 22.0572 8.00245 21.8939 8.11275C21.7306 8.22305 21.5371 8.28007 21.3401 8.27598H21.3041H21.2441V34.606C21.247 34.9418 21.1165 35.2651 20.8811 35.5048C20.6458 35.7444 20.3249 35.8808 19.9891 35.884H2.60608Z" stroke="url(#paint1_linear_740_6073)" stroke-linejoin="round"/>
<path id="Vector_4" d="M19.9861 5.48901H2.60507C2.43865 5.49045 2.27414 5.52469 2.12096 5.58977C1.96778 5.65485 1.82894 5.74949 1.71237 5.86829C1.59581 5.98708 1.50381 6.12769 1.44164 6.28208C1.37947 6.43646 1.34836 6.60159 1.35007 6.76801V34.606C1.34849 34.7723 1.37967 34.9372 1.44183 35.0914C1.504 35.2456 1.59593 35.3861 1.71237 35.5047C1.82882 35.6234 1.9675 35.718 2.1205 35.7831C2.2735 35.8481 2.43782 35.8824 2.60407 35.884H19.9841C20.1503 35.8824 20.3146 35.8481 20.4676 35.7831C20.6206 35.718 20.7593 35.6234 20.8758 35.5047C20.9922 35.3861 21.0841 35.2456 21.1463 35.0914C21.2085 34.9372 21.2397 34.7723 21.2381 34.606V6.76801C21.2415 6.43242 21.1116 6.10917 20.8768 5.86934C20.6421 5.62951 20.3217 5.49271 19.9861 5.48901V5.48901Z" stroke="url(#paint2_linear_740_6073)" stroke-width="0.8" stroke-miterlimit="10"/>
<path id="Vector_5" d="M4.81607 19.147H17.7751" stroke="url(#paint3_linear_740_6073)" stroke-width="0.8" stroke-miterlimit="10"/>
<path id="Vector_6" d="M4.81607 21.577H17.7751" stroke="url(#paint4_linear_740_6073)" stroke-width="0.8" stroke-miterlimit="10"/>
<path id="Vector_7" d="M4.81607 24.2939H17.7751" stroke="url(#paint5_linear_740_6073)" stroke-width="0.8" stroke-miterlimit="10"/>
<path id="Vector_8" d="M4.81607 27.01H17.7751" stroke="url(#paint6_linear_740_6073)" stroke-width="0.8" stroke-miterlimit="10"/>
<g id="Vector_10">
<path id="Trac&#195;&#169; 4" d="M16.115 12.339C16.0431 12.529 15.9125 12.6911 15.7423 12.8018C15.572 12.9126 15.3709 12.9662 15.168 12.955C14.9805 12.9503 14.7987 12.8893 14.6463 12.78C14.4938 12.6707 14.3777 12.5181 14.313 12.342C14.33 12.342 14.3461 12.342 14.3621 12.342L16.115 12.339Z" stroke="url(#paint7_linear_740_6073)" stroke-linejoin="round"/>
</g>
<g id="Group 349">
<g id="Vector_9">
<path id="Trac&#195;&#169; 3" d="M17.6991 11.984H12.7111C12.7211 11.966 12.7281 11.95 12.7381 11.935C12.8671 11.744 12.9961 11.554 13.1261 11.364C13.2481 11.1879 13.3124 10.9782 13.3101 10.764C13.3101 10.202 13.3101 9.63997 13.3101 9.07797C13.3084 8.65901 13.4434 8.25095 13.6946 7.91566C13.9458 7.58037 14.2995 7.33612 14.7021 7.21997C14.9692 7.14897 15.2487 7.13714 15.5209 7.1853C15.7932 7.23345 16.0516 7.34044 16.2782 7.49879C16.5049 7.65714 16.6942 7.86303 16.833 8.1021C16.9719 8.34117 17.0568 8.60766 17.0821 8.88297C17.0901 8.96297 17.0941 9.04397 17.0941 9.12397C17.0941 9.66797 17.0941 10.213 17.0941 10.757C17.0903 10.977 17.1561 11.1925 17.2821 11.373C17.4211 11.573 17.5561 11.773 17.6991 11.987V11.984Z" stroke="url(#paint8_linear_740_6073)" stroke-linejoin="round"/>
</g>
</g>
</g>
<defs>
<linearGradient id="paint0_linear_740_6073" x1="14.0521" y1="1" x2="14.0521" y2="35.889" gradientUnits="userSpaceOnUse">
<stop stop-color="#4669E3"/>
<stop offset="1" stop-color="#20BDFF"/>
</linearGradient>
<linearGradient id="paint1_linear_740_6073" x1="12.592" y1="2.47327" x2="12.592" y2="35.884" gradientUnits="userSpaceOnUse">
<stop stop-color="#4669E3"/>
<stop offset="1" stop-color="#20BDFF"/>
</linearGradient>
<linearGradient id="paint2_linear_740_6073" x1="11.2941" y1="5.48901" x2="11.2941" y2="35.884" gradientUnits="userSpaceOnUse">
<stop stop-color="#4669E3"/>
<stop offset="1" stop-color="#20BDFF"/>
</linearGradient>
<linearGradient id="paint3_linear_740_6073" x1="11.2956" y1="19.147" x2="11.2956" y2="20.147" gradientUnits="userSpaceOnUse">
<stop stop-color="#4669E3"/>
<stop offset="1" stop-color="#20BDFF"/>
</linearGradient>
<linearGradient id="paint4_linear_740_6073" x1="11.2956" y1="21.577" x2="11.2956" y2="22.577" gradientUnits="userSpaceOnUse">
<stop stop-color="#4669E3"/>
<stop offset="1" stop-color="#20BDFF"/>
</linearGradient>
<linearGradient id="paint5_linear_740_6073" x1="11.2956" y1="24.2939" x2="11.2956" y2="25.2939" gradientUnits="userSpaceOnUse">
<stop stop-color="#4669E3"/>
<stop offset="1" stop-color="#20BDFF"/>
</linearGradient>
<linearGradient id="paint6_linear_740_6073" x1="11.2956" y1="27.01" x2="11.2956" y2="28.01" gradientUnits="userSpaceOnUse">
<stop stop-color="#4669E3"/>
<stop offset="1" stop-color="#20BDFF"/>
</linearGradient>
<linearGradient id="paint7_linear_740_6073" x1="15.214" y1="12.339" x2="15.214" y2="12.9565" gradientUnits="userSpaceOnUse">
<stop stop-color="#4669E3"/>
<stop offset="1" stop-color="#20BDFF"/>
</linearGradient>
<linearGradient id="paint8_linear_740_6073" x1="15.2051" y1="7.15625" x2="15.2051" y2="11.987" gradientUnits="userSpaceOnUse">
<stop stop-color="#4669E3"/>
<stop offset="1" stop-color="#20BDFF"/>
</linearGradient>
</defs>
</svg>
