<svg width="25" height="29" viewBox="0 0 25 29" fill="none" xmlns="http://www.w3.org/2000/svg">
<g id="bell-gradient">
<g id="Vector">
<mask id="path-1-inside-1_740_6167" fill="white">
<path d="M24.9089 24.2758H0C0.0482329 24.1895 0.085638 24.1082 0.13584 24.0366C0.780586 23.1105 1.42336 22.1834 2.07303 21.2611C2.69317 20.3811 2.9934 19.4089 2.99044 18.3318C2.98257 15.5994 2.97568 12.8671 2.99044 10.1347C3.01407 5.88821 5.83717 2.23266 9.94386 1.09973C15.5409 -0.444817 21.2353 3.42733 21.8289 9.18507C21.8692 9.57415 21.8869 9.96715 21.8879 10.3582C21.8928 13.0043 21.8978 15.6514 21.8879 18.2975C21.883 19.401 22.1891 20.3918 22.8289 21.2925C23.5219 22.2686 24.1992 23.2565 24.9089 24.2758V24.2758Z"/>
</mask>
<path d="M24.9089 24.2758H0C0.0482329 24.1895 0.085638 24.1082 0.13584 24.0366C0.780586 23.1105 1.42336 22.1834 2.07303 21.2611C2.69317 20.3811 2.9934 19.4089 2.99044 18.3318C2.98257 15.5994 2.97568 12.8671 2.99044 10.1347C3.01407 5.88821 5.83717 2.23266 9.94386 1.09973C15.5409 -0.444817 21.2353 3.42733 21.8289 9.18507C21.8692 9.57415 21.8869 9.96715 21.8879 10.3582C21.8928 13.0043 21.8978 15.6514 21.8879 18.2975C21.883 19.401 22.1891 20.3918 22.8289 21.2925C23.5219 22.2686 24.1992 23.2565 24.9089 24.2758V24.2758Z" stroke="url(#paint0_linear_740_6167)" stroke-width="2" mask="url(#path-1-inside-1_740_6167)"/>
</g>
<g id="Vector_2">
<mask id="path-2-inside-2_740_6167" fill="white">
<path d="M15.7408 26.6483C15.2988 28.0762 13.8331 29.0553 12.2808 28.9974C10.8643 28.9445 9.43506 27.8802 9.15747 26.661C9.2185 26.6571 9.27854 26.6483 9.33761 26.6483C11.4628 26.6483 13.587 26.6483 15.7408 26.6483V26.6483Z"/>
</mask>
<path d="M15.7408 26.6483C15.2988 28.0762 13.8331 29.0553 12.2808 28.9974C10.8643 28.9445 9.43506 27.8802 9.15747 26.661C9.2185 26.6571 9.27854 26.6483 9.33761 26.6483C11.4628 26.6483 13.587 26.6483 15.7408 26.6483V26.6483Z" stroke="url(#paint1_linear_740_6167)" stroke-width="2" mask="url(#path-2-inside-2_740_6167)"/>
</g>
</g>
<defs>
<linearGradient id="paint0_linear_740_6167" x1="12.4544" y1="0.758392" x2="12.4544" y2="24.2758" gradientUnits="userSpaceOnUse">
<stop stop-color="#4669E3"/>
<stop offset="1" stop-color="#20BDFF"/>
</linearGradient>
<linearGradient id="paint1_linear_740_6167" x1="12.4491" y1="26.6483" x2="12.4491" y2="28.9999" gradientUnits="userSpaceOnUse">
<stop stop-color="#4669E3"/>
<stop offset="1" stop-color="#20BDFF"/>
</linearGradient>
</defs>
</svg>
