<svg width="28" height="27" viewBox="0 0 28 27" fill="none" xmlns="http://www.w3.org/2000/svg">
<g id="event-pass-gradient">
<path id="Vector" d="M27.338 17.7751L23.266 13.8191" stroke="url(#paint0_linear_740_6110)" stroke-width="0.7" stroke-miterlimit="10"/>
<path id="Vector_45" d="M0.350006 9.53613V17.7681L8.85701 26.0021H27.33L27.35 17.8691C27.35 17.8426 27.3395 17.8172 27.3207 17.7984C27.302 17.7797 27.2765 17.7691 27.25 17.7691H8.85701L0.350006 9.53613Z" stroke="url(#paint1_linear_740_6110)" stroke-width="0.7" stroke-miterlimit="10"/>
<path id="Vector_46" d="M8.858 17.7681V26.0021" stroke="url(#paint2_linear_740_6110)" stroke-width="0.7" stroke-miterlimit="10"/>
<g id="Mask group">
<mask id="mask0_740_6110" style="mask-type:alpha" maskUnits="userSpaceOnUse" x="0" y="0" width="26" height="22">
<g id="Groupe de masques 1">
<g id="Groupe 7">
<path id="Union 6" d="M11.474 20.8811C11.1177 20.7233 10.7987 20.4919 10.538 20.2021C9.3338 18.8928 8.36306 17.3866 7.66802 15.7491C6.36383 15.6556 5.10784 15.2175 4.02845 14.4796C2.94906 13.7416 2.08499 12.7303 1.52455 11.5489C0.964117 10.3676 0.727422 9.0586 0.838664 7.75579C0.949906 6.45299 1.40509 5.20309 2.1577 4.13387C2.9103 3.06464 3.93333 2.21443 5.1222 1.67014C6.31108 1.12586 7.62316 0.907032 8.92432 1.03602C10.2255 1.16501 11.4691 1.63719 12.5279 2.4043C13.5868 3.17141 14.423 4.20593 14.951 5.40211L16.907 5.15011C18.0575 5.00177 19.2262 5.09407 20.3391 5.42114C21.452 5.74821 22.4848 6.30292 23.372 7.05011L25.208 8.60211C25.208 8.60211 25.419 14.5761 18.514 18.8131C18.181 19.0171 17.8089 19.1492 17.4218 19.2009C17.0346 19.2526 16.6409 19.2227 16.266 19.1131C16.0869 19.0608 15.9136 18.9901 15.749 18.9021C15.4284 19.3348 15.0714 19.7704 14.678 20.2091C14.2837 20.6443 13.7623 20.9442 13.1878 21.0661C12.6134 21.188 12.0151 21.1257 11.478 20.8881L11.474 20.8811Z" stroke="url(#paint3_linear_740_6110)" stroke-width="0.7" stroke-miterlimit="10"/>
<path id="Union 2" d="M11.47 20.8811C11.1135 20.723 10.7942 20.4917 10.533 20.2021C5.12102 14.1921 7.03302 8.52408 7.03302 8.52408L7.80002 8.18808L4.61302 6.30608L7.80002 8.18808L8.15502 8.03208L9.23802 7.55708C10.3004 7.09055 11.4482 6.84965 12.6085 6.84965C13.7689 6.84965 14.9166 7.09055 15.979 7.55708L18.179 8.52408C18.179 8.52408 20.089 14.1961 14.679 20.2021C14.2847 20.6373 13.7633 20.9372 13.1888 21.0591C12.6143 21.181 12.0161 21.1187 11.479 20.8811H11.47ZM5.45002 13.0511L4.98602 13.8511L5.45002 13.0511ZM3.46102 11.0831L2.65502 11.5471L3.46102 11.0831ZM2.64902 5.23408L3.45602 5.69608L2.64902 5.23408ZM13.639 5.20908L12.833 5.67408L13.639 5.20908ZM4.97302 2.92208L5.44002 3.72208L4.97302 2.92208ZM11.3 2.90808L10.837 3.70808L11.3 2.90808Z" stroke="url(#paint4_linear_740_6110)" stroke-width="0.7" stroke-miterlimit="10"/>
<g id="Groupe 6">
<path id="Union 3" d="M11.473 20.8801C11.1166 20.7223 10.7977 20.4909 10.537 20.2011C5.12502 14.1931 7.03202 8.5241 7.03202 8.5241L9.23702 7.5561C10.6634 6.93049 12.2358 6.71442 13.778 6.9321C13.9701 6.41476 14.2179 5.91985 14.517 5.4561L16.906 5.1481C18.0565 4.99976 19.2252 5.09206 20.3381 5.41912C21.451 5.74619 22.4838 6.30091 23.371 7.0481L25.206 8.5971C25.206 8.5971 25.417 14.5711 18.512 18.8081C18.0982 19.0614 17.6255 19.2027 17.1405 19.218C16.6556 19.2332 16.175 19.1219 15.746 18.8951C15.426 19.3271 15.07 19.7641 14.675 20.2021C14.2807 20.6373 13.7593 20.9372 13.1848 21.0591C12.6103 21.181 12.0121 21.1187 11.475 20.8811L11.473 20.8801Z" stroke="url(#paint5_linear_740_6110)" stroke-width="0.7" stroke-miterlimit="10"/>
<g id="Groupe 5">
<g id="Vector_36">
<path id="Trac&#195;&#169; 28" d="M19.365 11.96C19.4268 11.753 19.5289 11.5603 19.6653 11.3928C19.8017 11.2253 19.9698 11.0864 20.16 10.984C20.447 10.8292 20.7733 10.7623 21.098 10.7918C21.4228 10.8214 21.7317 10.946 21.986 11.15C22.2396 11.353 22.4269 11.6269 22.524 11.9369C22.6211 12.2468 22.6235 12.5787 22.531 12.89" stroke="url(#paint6_linear_740_6110)" stroke-width="0.7" stroke-miterlimit="10"/>
</g>
<path id="Union 4" d="M11.473 20.8811C11.1166 20.7233 10.7977 20.4919 10.537 20.2021C5.12502 14.1921 7.03202 8.5241 7.03202 8.5241L9.23702 7.5551C10.2994 7.08919 11.4469 6.84863 12.607 6.84863C13.7671 6.84863 14.9146 7.08919 15.977 7.5551L18.177 8.5231C18.6911 10.5133 18.6195 12.6096 17.971 14.5601L20.12 15.1921C20.0336 15.4934 19.8881 15.7746 19.692 16.0191C19.3947 16.3889 18.9944 16.6623 18.5418 16.8047C18.0892 16.947 17.6045 16.9521 17.149 16.8191L17.063 16.7921C16.4178 18.0285 15.6151 19.176 14.675 20.2061C14.2807 20.6413 13.7593 20.9412 13.1848 21.0631C12.6103 21.185 12.0121 21.1227 11.475 20.8851L11.473 20.8811Z" stroke="url(#paint7_linear_740_6110)" stroke-width="0.7" stroke-miterlimit="10"/>
</g>
</g>
<g id="Vector_42">
<path id="Trac&#195;&#169; 34" d="M16.839 13.3911C16.8389 13.1754 16.796 12.9618 16.7129 12.7627C16.6299 12.5636 16.5082 12.3829 16.355 12.2311C16.0444 11.9234 15.6248 11.7507 15.1875 11.7507C14.7502 11.7507 14.3307 11.9234 14.02 12.2311C13.8668 12.3829 13.7452 12.5636 13.6621 12.7627C13.579 12.9618 13.5362 13.1754 13.536 13.3911" stroke="url(#paint8_linear_740_6110)" stroke-width="0.7" stroke-miterlimit="10"/>
</g>
<g id="Vector_43">
<path id="Trac&#195;&#169; 36" d="M11.677 13.3911C11.6769 13.1754 11.634 12.9618 11.5509 12.7627C11.4679 12.5636 11.3462 12.3829 11.193 12.2311C10.8824 11.9234 10.4628 11.7507 10.0255 11.7507C9.58826 11.7507 9.16868 11.9234 8.85802 12.2311C8.70481 12.3829 8.58317 12.5636 8.5001 12.7627C8.41703 12.9618 8.37418 13.1754 8.37402 13.3911" stroke="url(#paint9_linear_740_6110)" stroke-width="0.7" stroke-miterlimit="10"/>
</g>
<path id="Vector_44" d="M10.025 16.28C10.0202 16.5947 10.0784 16.9072 10.196 17.1991C10.3136 17.4911 10.4884 17.7566 10.71 17.98C10.9881 18.2623 11.3319 18.4711 11.7106 18.5876C12.0893 18.7041 12.4911 18.7247 12.8797 18.6476C13.2684 18.5705 13.6318 18.398 13.9373 18.1457C14.2428 17.8934 14.4808 17.5691 14.63 17.202C14.7475 16.9098 14.8053 16.597 14.8 16.282L10.025 16.28Z" stroke="url(#paint10_linear_740_6110)" stroke-width="0.7" stroke-miterlimit="10"/>
</g>
</g>
</mask>
<g mask="url(#mask0_740_6110)">
<path id="Vector 399" d="M8.85004 17.5L0.350037 9V-1.5H26.35V17.5H8.85004Z" fill="url(#paint11_linear_740_6110)"/>
</g>
</g>
</g>
<defs>
<linearGradient id="paint0_linear_740_6110" x1="25.302" y1="13.8191" x2="25.302" y2="17.7751" gradientUnits="userSpaceOnUse">
<stop stop-color="#4669E3"/>
<stop offset="1" stop-color="#20BDFF"/>
</linearGradient>
<linearGradient id="paint1_linear_740_6110" x1="13.85" y1="9.53613" x2="13.85" y2="26.0021" gradientUnits="userSpaceOnUse">
<stop stop-color="#4669E3"/>
<stop offset="1" stop-color="#20BDFF"/>
</linearGradient>
<linearGradient id="paint2_linear_740_6110" x1="9.358" y1="17.7681" x2="9.358" y2="26.0021" gradientUnits="userSpaceOnUse">
<stop stop-color="#4669E3"/>
<stop offset="1" stop-color="#20BDFF"/>
</linearGradient>
<linearGradient id="paint3_linear_740_6110" x1="13.0103" y1="1" x2="13.0103" y2="21.1269" gradientUnits="userSpaceOnUse">
<stop stop-color="#4669E3"/>
<stop offset="1" stop-color="#20BDFF"/>
</linearGradient>
<linearGradient id="paint4_linear_740_6110" x1="10.5776" y1="2.90808" x2="10.5776" y2="21.1199" gradientUnits="userSpaceOnUse">
<stop stop-color="#4669E3"/>
<stop offset="1" stop-color="#20BDFF"/>
</linearGradient>
<linearGradient id="paint5_linear_740_6110" x1="15.9564" y1="5.07935" x2="15.9564" y2="21.1199" gradientUnits="userSpaceOnUse">
<stop stop-color="#4669E3"/>
<stop offset="1" stop-color="#20BDFF"/>
</linearGradient>
<linearGradient id="paint6_linear_740_6110" x1="20.9818" y1="10.785" x2="20.9818" y2="12.89" gradientUnits="userSpaceOnUse">
<stop stop-color="#4669E3"/>
<stop offset="1" stop-color="#20BDFF"/>
</linearGradient>
<linearGradient id="paint7_linear_740_6110" x1="13.4131" y1="6.84863" x2="13.4131" y2="21.1239" gradientUnits="userSpaceOnUse">
<stop stop-color="#4669E3"/>
<stop offset="1" stop-color="#20BDFF"/>
</linearGradient>
<linearGradient id="paint8_linear_740_6110" x1="15.1875" y1="11.7507" x2="15.1875" y2="13.3911" gradientUnits="userSpaceOnUse">
<stop stop-color="#4669E3"/>
<stop offset="1" stop-color="#20BDFF"/>
</linearGradient>
<linearGradient id="paint9_linear_740_6110" x1="10.0255" y1="11.7507" x2="10.0255" y2="13.3911" gradientUnits="userSpaceOnUse">
<stop stop-color="#4669E3"/>
<stop offset="1" stop-color="#20BDFF"/>
</linearGradient>
<linearGradient id="paint10_linear_740_6110" x1="12.4126" y1="16.28" x2="12.4126" y2="18.6934" gradientUnits="userSpaceOnUse">
<stop stop-color="#4669E3"/>
<stop offset="1" stop-color="#20BDFF"/>
</linearGradient>
<linearGradient id="paint11_linear_740_6110" x1="13.35" y1="-1.5" x2="13.35" y2="17.5" gradientUnits="userSpaceOnUse">
<stop stop-color="#4669E3"/>
<stop offset="1" stop-color="#20BDFF"/>
</linearGradient>
</defs>
</svg>
