<svg width="28" height="25" viewBox="0 0 28 25" fill="none" xmlns="http://www.w3.org/2000/svg">
<g id="event-to-come-gradient">
<path id="Vector" d="M8.87952 10.8595C8.78959 10.5634 8.6408 10.2874 8.44163 10.0474C8.24246 9.8074 7.99682 9.60803 7.71873 9.4607C7.44064 9.31337 7.13555 9.22096 6.82087 9.18874C6.5062 9.15651 6.18811 9.18511 5.88476 9.27291C5.5814 9.3607 5.29874 9.50596 5.05289 9.70039C4.80704 9.89483 4.60283 10.1346 4.45192 10.4061C4.301 10.6776 4.20634 10.9755 4.17333 11.2827C4.14033 11.5899 4.16962 11.9004 4.25955 12.1965" stroke="url(#paint0_linear_740_6049)" stroke-width="0.7" stroke-miterlimit="10"/>
<path id="Subtract" fill-rule="evenodd" clip-rule="evenodd" d="M10.8084 14.2563L7.67529 15.1621L7.33463 15.2606L7.43756 15.5999C7.72746 16.5557 8.39356 17.3573 9.28629 17.8305C9.72833 18.0649 10.213 18.2118 10.7125 18.2631C11.2121 18.3144 11.7172 18.2691 12.199 18.1298C12.2624 18.1115 12.3252 18.0916 12.3874 18.0701C12.2726 17.8592 12.1632 17.6494 12.0591 17.4411C12.041 17.4467 12.0228 17.4521 12.0046 17.4574C11.6092 17.5717 11.1944 17.6089 10.784 17.5667C10.3737 17.5246 9.97615 17.404 9.61417 17.2121C8.9907 16.8815 8.50554 16.3574 8.23062 15.7302L11.016 14.925C10.9412 14.6995 10.8721 14.4765 10.8084 14.2563Z" fill="url(#paint1_linear_740_6049)"/>
<path id="Subtract_2" fill-rule="evenodd" clip-rule="evenodd" d="M12.5102 0.75131L12.5101 0.751302C10.7828 0.53273 9.02772 0.668829 7.35721 1.15098C5.68668 1.63313 4.13719 2.45083 2.80821 3.55211L2.80819 3.55213L0.127685 5.77307L0.00678411 5.87324L0.00120911 6.03015L0.350988 6.04258C0.00120911 6.03015 0.00120074 6.03039 0.00119138 6.03066L0.0011676 6.03136L0.00110382 6.03336L0.000924947 6.03969L0.000469657 6.0616C0.000163885 6.08028 -9.17293e-05 6.10702 3.17715e-05 6.14151C0.000278743 6.21048 0.002042 6.31043 0.00795526 6.43864C0.0197804 6.69501 0.0482112 7.06461 0.114363 7.52564C0.246646 8.44756 0.529955 9.73641 1.13377 11.2171C2.34322 14.183 4.83311 17.9043 9.9382 20.9835L9.93831 20.9836C10.4652 21.3011 11.0543 21.5063 11.6671 21.5862C12.28 21.6662 12.9032 21.619 13.4963 21.4478C13.802 21.3596 14.0962 21.2394 14.374 21.0897C14.2268 20.9003 14.0844 20.7114 13.9467 20.523C13.7411 20.6263 13.5253 20.7108 13.3022 20.7753C12.8016 20.9198 12.2753 20.9596 11.7576 20.8921C11.2401 20.8246 10.7433 20.6514 10.2997 20.3841C5.3325 17.388 2.9384 13.7887 1.78195 10.9528C1.2028 9.53258 0.932678 8.30025 0.807266 7.42621C0.74457 6.98927 0.718088 6.64218 0.707212 6.40638C0.703558 6.32717 0.701667 6.26054 0.700755 6.20731L3.25482 4.09113L3.25484 4.09112C4.50911 3.05174 5.97248 2.27922 7.55132 1.82353C9.13019 1.36783 10.7893 1.23913 12.4223 1.44577L12.4224 1.44578L15.7494 1.86623C15.7789 1.91216 15.8156 1.9707 15.8582 2.04155C15.9806 2.2453 16.152 2.55066 16.3431 2.95064C16.4503 3.17484 16.5635 3.42865 16.6778 3.71087C16.9147 3.67109 17.1528 3.63816 17.3919 3.61213C17.2501 3.24986 17.1082 2.92808 16.9748 2.64886C16.7732 2.22709 16.5911 1.90209 16.4581 1.68091C16.3916 1.5703 16.3374 1.4856 16.2992 1.4277C16.2801 1.39874 16.265 1.37648 16.2543 1.36102L16.2418 1.34295L16.2381 1.33776L16.237 1.33613L16.2366 1.33556C16.2364 1.33534 16.2363 1.33515 15.9518 1.53902L16.2363 1.33515L16.1473 1.21094L15.9956 1.19178L12.5102 0.75131Z" fill="url(#paint2_linear_740_6049)"/>
<path id="Vector_2" d="M15.7197 22.6804C7.82115 14.064 10.6074 5.93638 10.6074 5.93638L13.8221 4.55256C15.3714 3.88418 17.0465 3.53894 18.7403 3.53894C20.4341 3.53894 22.1093 3.88418 23.6586 4.55256L26.874 5.94084C26.874 5.94084 29.658 14.0692 21.7602 22.6849C21.3796 23.0991 20.9138 23.4303 20.3932 23.6569C19.8726 23.8836 19.3089 24.0005 18.7389 24C18.1689 23.9996 17.6054 23.8819 17.0852 23.6545C16.565 23.4271 16.0997 23.0952 15.7197 22.6804Z" stroke="url(#paint3_linear_740_6049)" stroke-width="0.7" stroke-miterlimit="10"/>
<path id="Vector_3" d="M12.5659 12.9164C12.5659 12.2927 12.8197 11.6945 13.2715 11.2535C13.7233 10.8125 14.336 10.5647 14.9748 10.5647C15.6137 10.5647 16.2264 10.8125 16.6782 11.2535C17.13 11.6945 17.3837 12.2927 17.3837 12.9164" stroke="url(#paint4_linear_740_6049)" stroke-width="0.7" stroke-miterlimit="10"/>
<path id="Vector_4" d="M20.0984 12.9164C20.0984 12.2927 20.3522 11.6945 20.804 11.2535C21.2557 10.8125 21.8684 10.5647 22.5073 10.5647C23.1462 10.5647 23.7589 10.8125 24.2107 11.2535C24.6624 11.6945 24.9162 12.2927 24.9162 12.9164" stroke="url(#paint5_linear_740_6049)" stroke-width="0.7" stroke-miterlimit="10"/>
<path id="Vector_5" d="M22.5067 17.0582C22.5067 17.5048 22.4166 17.947 22.2415 18.3595C22.0665 18.7721 21.8099 19.147 21.4865 19.4628C21.163 19.7785 20.779 20.029 20.3564 20.1999C19.9338 20.3708 19.4809 20.4587 19.0234 20.4587C18.566 20.4587 18.1131 20.3708 17.6905 20.1999C17.2678 20.029 16.8839 19.7785 16.5604 19.4628C16.237 19.147 15.9804 18.7721 15.8053 18.3595C15.6303 17.947 15.5402 17.5048 15.5402 17.0582H22.5067Z" stroke="url(#paint6_linear_740_6049)" stroke-width="0.7" stroke-miterlimit="10"/>
</g>
<defs>
<linearGradient id="paint0_linear_740_6049" x1="6.51985" y1="9.1759" x2="6.51985" y2="12.1965" gradientUnits="userSpaceOnUse">
<stop stop-color="#4669E3"/>
<stop offset="1" stop-color="#20BDFF"/>
</linearGradient>
<linearGradient id="paint1_linear_740_6049" x1="9.86102" y1="14.2563" x2="9.86102" y2="18.2836" gradientUnits="userSpaceOnUse">
<stop stop-color="#4669E3"/>
<stop offset="1" stop-color="#20BDFF"/>
</linearGradient>
<linearGradient id="paint2_linear_740_6049" x1="8.69595" y1="0.650024" x2="8.69595" y2="21.624" gradientUnits="userSpaceOnUse">
<stop stop-color="#4669E3"/>
<stop offset="1" stop-color="#20BDFF"/>
</linearGradient>
<linearGradient id="paint3_linear_740_6049" x1="18.7403" y1="3.53894" x2="18.7403" y2="24" gradientUnits="userSpaceOnUse">
<stop stop-color="#4669E3"/>
<stop offset="1" stop-color="#20BDFF"/>
</linearGradient>
<linearGradient id="paint4_linear_740_6049" x1="14.9748" y1="10.5647" x2="14.9748" y2="12.9164" gradientUnits="userSpaceOnUse">
<stop stop-color="#4669E3"/>
<stop offset="1" stop-color="#20BDFF"/>
</linearGradient>
<linearGradient id="paint5_linear_740_6049" x1="22.5073" y1="10.5647" x2="22.5073" y2="12.9164" gradientUnits="userSpaceOnUse">
<stop stop-color="#4669E3"/>
<stop offset="1" stop-color="#20BDFF"/>
</linearGradient>
<linearGradient id="paint6_linear_740_6049" x1="19.0234" y1="17.0582" x2="19.0234" y2="20.4587" gradientUnits="userSpaceOnUse">
<stop stop-color="#4669E3"/>
<stop offset="1" stop-color="#20BDFF"/>
</linearGradient>
</defs>
</svg>
