<svg width="41" height="41" viewBox="0 0 41 41" fill="none" xmlns="http://www.w3.org/2000/svg">
<g id="fresco-gradient">
<g id="Vector">
<mask id="path-1-inside-1_609_5022" fill="white">
<path d="M29.6115 8.80865C29.8049 8.24493 29.935 7.64919 30.2041 7.12663C30.8828 5.81052 31.9516 4.95522 33.38 4.55845C33.9885 4.38922 34.6027 4.20055 35.1716 3.92726C36.1725 3.44587 36.8692 2.60201 37.4155 1.65638C37.9357 0.755337 38.5273 0.77935 39.2443 1.38766C39.9863 2.0177 40.3233 2.88787 40.4828 3.81292C40.9239 6.36967 40.7045 8.88526 39.8415 11.3242C39.2375 13.0303 37.9957 14.0891 36.2867 14.5819C36.0368 14.654 35.9169 14.7694 35.8253 15.005C35.3073 16.3314 34.7667 17.6498 34.2532 18.9785C34.191 19.1374 34.2464 19.3444 34.2532 19.5296C34.26 19.7652 34.3346 20.0202 34.2724 20.2351C32.4402 26.5744 29.7495 32.4769 25.5172 37.5664C24.7142 38.5326 23.7642 39.3799 22.8367 40.2318C22.5144 40.5279 22.0733 40.7212 21.656 40.8755C21.0871 41.0859 20.5939 40.8561 20.3904 40.2798C20.2365 39.843 20.1325 39.3685 20.1133 38.9054C20.0069 36.3818 20.4876 33.9302 21.0757 31.4981C21.7408 28.7447 22.6829 26.0896 23.901 23.5374C23.961 23.4116 24.0096 23.279 24.0661 23.1452C21.242 22.6867 17.8139 23.8587 16.6433 27.759C16.3323 28.795 16.2633 29.8584 16.2723 30.9355C16.2938 33.5872 14.1822 35.7071 11.5741 35.5814C10.8944 35.5482 10.1603 35.3504 9.5643 35.0199C4.42611 32.167 1.42441 27.7842 0.801221 21.8806C-0.128471 13.0817 5.72791 5.1336 14.3021 3.57508C20.0737 2.52654 25.0513 4.26572 29.2168 8.42788C29.3367 8.54794 29.452 8.67372 29.573 8.79493C29.59 8.81208 29.6239 8.81322 29.6126 8.80979L29.6115 8.80865ZM2.34845 20.4307C2.37559 20.7623 2.39595 21.4072 2.48417 22.0418C3.20462 27.1884 5.82631 31.0259 10.313 33.5277C12.3172 34.6449 14.5781 33.2201 14.6052 30.9012C14.6143 30.0894 14.6414 29.2672 14.7771 28.4702C15.2476 25.7111 16.5981 23.5454 19.1134 22.2453C20.8179 21.3637 22.6422 21.2105 24.5106 21.4712C24.8036 21.5124 24.9234 21.4186 25.0592 21.1716C25.7853 19.8498 26.517 18.5314 27.2873 17.2359C27.4456 16.9706 27.7793 16.8139 28.0258 16.6001C28.1265 16.5132 28.2384 16.4206 28.2961 16.3062C28.8888 15.1228 29.478 13.9382 30.0458 12.7421C30.1137 12.5992 30.1046 12.3499 30.0254 12.2138C26.9502 6.97799 20.6154 4.08049 14.7183 5.19764C7.49342 6.56749 2.41065 12.7009 2.34845 20.4307ZM28.4726 18.5234C28.4138 18.5886 28.3911 18.6069 28.3764 18.6309C26.0296 22.554 24.0808 26.6567 22.8978 31.1025C22.2984 33.3539 21.855 35.634 21.7532 37.9712C21.7397 38.2856 21.751 38.6001 21.751 38.9157C21.803 38.9282 21.855 38.9408 21.907 38.9534C27.2432 33.8365 30.3172 27.3885 32.508 20.3975C32.4074 20.3369 32.3508 20.2957 32.2886 20.2671C31.0196 19.6863 29.7495 19.1065 28.4714 18.5234H28.4726ZM38.5103 3.13485C38.4402 3.18517 38.413 3.1966 38.3961 3.21718C38.3248 3.30523 38.257 3.3967 38.188 3.48704C37.3058 4.63049 36.2121 5.47092 34.8311 5.89971C34.4138 6.02892 33.9908 6.13869 33.5768 6.2782C31.9244 6.83277 31.0106 8.48734 31.3996 10.2105C31.7717 11.8617 33.0961 12.9971 34.7553 13.0863C36.3942 13.1743 37.843 12.1555 38.3791 10.501C38.8892 8.92642 39.0724 7.29929 39.0204 5.64815C38.9932 4.794 38.9095 3.94442 38.5114 3.136L38.5103 3.13485ZM31.4788 13.6374C30.9212 14.7683 30.3229 15.9861 29.7088 17.2324C30.6961 17.6841 31.6394 18.1152 32.6155 18.5623C33.1312 17.2702 33.6345 16.0124 34.0926 14.8632C33.19 14.4401 32.3576 14.0491 31.4788 13.6374Z"/>
</mask>
<path d="M29.6115 8.80865C29.8049 8.24493 29.935 7.64919 30.2041 7.12663C30.8828 5.81052 31.9516 4.95522 33.38 4.55845C33.9885 4.38922 34.6027 4.20055 35.1716 3.92726C36.1725 3.44587 36.8692 2.60201 37.4155 1.65638C37.9357 0.755337 38.5273 0.77935 39.2443 1.38766C39.9863 2.0177 40.3233 2.88787 40.4828 3.81292C40.9239 6.36967 40.7045 8.88526 39.8415 11.3242C39.2375 13.0303 37.9957 14.0891 36.2867 14.5819C36.0368 14.654 35.9169 14.7694 35.8253 15.005C35.3073 16.3314 34.7667 17.6498 34.2532 18.9785C34.191 19.1374 34.2464 19.3444 34.2532 19.5296C34.26 19.7652 34.3346 20.0202 34.2724 20.2351C32.4402 26.5744 29.7495 32.4769 25.5172 37.5664C24.7142 38.5326 23.7642 39.3799 22.8367 40.2318C22.5144 40.5279 22.0733 40.7212 21.656 40.8755C21.0871 41.0859 20.5939 40.8561 20.3904 40.2798C20.2365 39.843 20.1325 39.3685 20.1133 38.9054C20.0069 36.3818 20.4876 33.9302 21.0757 31.4981C21.7408 28.7447 22.6829 26.0896 23.901 23.5374C23.961 23.4116 24.0096 23.279 24.0661 23.1452C21.242 22.6867 17.8139 23.8587 16.6433 27.759C16.3323 28.795 16.2633 29.8584 16.2723 30.9355C16.2938 33.5872 14.1822 35.7071 11.5741 35.5814C10.8944 35.5482 10.1603 35.3504 9.5643 35.0199C4.42611 32.167 1.42441 27.7842 0.801221 21.8806C-0.128471 13.0817 5.72791 5.1336 14.3021 3.57508C20.0737 2.52654 25.0513 4.26572 29.2168 8.42788C29.3367 8.54794 29.452 8.67372 29.573 8.79493C29.59 8.81208 29.6239 8.81322 29.6126 8.80979L29.6115 8.80865ZM2.34845 20.4307C2.37559 20.7623 2.39595 21.4072 2.48417 22.0418C3.20462 27.1884 5.82631 31.0259 10.313 33.5277C12.3172 34.6449 14.5781 33.2201 14.6052 30.9012C14.6143 30.0894 14.6414 29.2672 14.7771 28.4702C15.2476 25.7111 16.5981 23.5454 19.1134 22.2453C20.8179 21.3637 22.6422 21.2105 24.5106 21.4712C24.8036 21.5124 24.9234 21.4186 25.0592 21.1716C25.7853 19.8498 26.517 18.5314 27.2873 17.2359C27.4456 16.9706 27.7793 16.8139 28.0258 16.6001C28.1265 16.5132 28.2384 16.4206 28.2961 16.3062C28.8888 15.1228 29.478 13.9382 30.0458 12.7421C30.1137 12.5992 30.1046 12.3499 30.0254 12.2138C26.9502 6.97799 20.6154 4.08049 14.7183 5.19764C7.49342 6.56749 2.41065 12.7009 2.34845 20.4307ZM28.4726 18.5234C28.4138 18.5886 28.3911 18.6069 28.3764 18.6309C26.0296 22.554 24.0808 26.6567 22.8978 31.1025C22.2984 33.3539 21.855 35.634 21.7532 37.9712C21.7397 38.2856 21.751 38.6001 21.751 38.9157C21.803 38.9282 21.855 38.9408 21.907 38.9534C27.2432 33.8365 30.3172 27.3885 32.508 20.3975C32.4074 20.3369 32.3508 20.2957 32.2886 20.2671C31.0196 19.6863 29.7495 19.1065 28.4714 18.5234H28.4726ZM38.5103 3.13485C38.4402 3.18517 38.413 3.1966 38.3961 3.21718C38.3248 3.30523 38.257 3.3967 38.188 3.48704C37.3058 4.63049 36.2121 5.47092 34.8311 5.89971C34.4138 6.02892 33.9908 6.13869 33.5768 6.2782C31.9244 6.83277 31.0106 8.48734 31.3996 10.2105C31.7717 11.8617 33.0961 12.9971 34.7553 13.0863C36.3942 13.1743 37.843 12.1555 38.3791 10.501C38.8892 8.92642 39.0724 7.29929 39.0204 5.64815C38.9932 4.794 38.9095 3.94442 38.5114 3.136L38.5103 3.13485ZM31.4788 13.6374C30.9212 14.7683 30.3229 15.9861 29.7088 17.2324C30.6961 17.6841 31.6394 18.1152 32.6155 18.5623C33.1312 17.2702 33.6345 16.0124 34.0926 14.8632C33.19 14.4401 32.3576 14.0491 31.4788 13.6374Z" fill="url(#paint0_linear_609_5022)" stroke="#F2F3F7" stroke-width="0.6" mask="url(#path-1-inside-1_609_5022)"/>
</g>
<g id="Vector_2">
<mask id="path-2-inside-2_609_5022" fill="white">
<path d="M13.5952 23.6986C13.5952 25.7134 12.0084 27.3153 10.0212 27.305C8.06456 27.2959 6.47662 25.6802 6.47662 23.6997C6.47662 21.7079 8.08832 20.083 10.0631 20.0876C12.0175 20.0922 13.5963 21.7056 13.5963 23.6975L13.5952 23.6986ZM8.15278 23.6883C8.14939 24.762 8.99991 25.631 10.0506 25.6276C11.0798 25.6242 11.927 24.7632 11.936 23.7123C11.9451 22.6455 11.09 21.7799 10.0314 21.7845C8.98295 21.789 8.15618 22.6283 8.15278 23.6895V23.6883Z"/>
</mask>
<path d="M13.5952 23.6986C13.5952 25.7134 12.0084 27.3153 10.0212 27.305C8.06456 27.2959 6.47662 25.6802 6.47662 23.6997C6.47662 21.7079 8.08832 20.083 10.0631 20.0876C12.0175 20.0922 13.5963 21.7056 13.5963 23.6975L13.5952 23.6986ZM8.15278 23.6883C8.14939 24.762 8.99991 25.631 10.0506 25.6276C11.0798 25.6242 11.927 24.7632 11.936 23.7123C11.9451 22.6455 11.09 21.7799 10.0314 21.7845C8.98295 21.789 8.15618 22.6283 8.15278 23.6895V23.6883Z" fill="url(#paint1_linear_609_5022)" stroke="#F2F3F7" stroke-width="0.6" mask="url(#path-2-inside-2_609_5022)"/>
</g>
<g id="Vector_3">
<mask id="path-3-inside-3_609_5022" fill="white">
<path d="M17.5232 12.6575C17.6069 10.6484 19.2378 9.07619 21.164 9.14937C23.1613 9.22598 24.7357 10.9068 24.6452 12.8656C24.5525 14.8758 22.9204 16.448 21 16.3794C19.0116 16.3074 17.4418 14.6265 17.5232 12.6575V12.6575ZM21.095 14.6859C22.1276 14.6802 22.9736 13.8181 22.977 12.7684C22.9804 11.7027 22.1117 10.8234 21.0656 10.8337C20.0352 10.844 19.1824 11.713 19.179 12.7547C19.1745 13.8146 20.0443 14.6917 21.095 14.6859V14.6859Z"/>
</mask>
<path d="M17.5232 12.6575C17.6069 10.6484 19.2378 9.07619 21.164 9.14937C23.1613 9.22598 24.7357 10.9068 24.6452 12.8656C24.5525 14.8758 22.9204 16.448 21 16.3794C19.0116 16.3074 17.4418 14.6265 17.5232 12.6575V12.6575ZM21.095 14.6859C22.1276 14.6802 22.9736 13.8181 22.977 12.7684C22.9804 11.7027 22.1117 10.8234 21.0656 10.8337C20.0352 10.844 19.1824 11.713 19.179 12.7547C19.1745 13.8146 20.0443 14.6917 21.095 14.6859V14.6859Z" fill="url(#paint2_linear_609_5022)" stroke="#F2F3F7" stroke-width="0.6" mask="url(#path-3-inside-3_609_5022)"/>
</g>
<g id="Vector_4">
<mask id="path-4-inside-4_609_5022" fill="white">
<path d="M11.5334 10.6427C13.4901 10.6507 15.0757 12.2664 15.0746 14.2503C15.0723 16.2479 13.4595 17.8705 11.487 17.859C9.53717 17.8476 7.94131 16.2193 7.94471 14.2457C7.9481 12.2459 9.55414 10.6336 11.5345 10.6427H11.5334ZM11.5334 16.1656C12.5728 16.1553 13.4098 15.2989 13.4086 14.2457C13.4086 13.1801 12.5332 12.3053 11.4882 12.3248C10.4476 12.3442 9.61069 13.2018 9.61182 14.2492C9.61182 15.3149 10.4759 16.1759 11.5345 16.1656H11.5334Z"/>
</mask>
<path d="M11.5334 10.6427C13.4901 10.6507 15.0757 12.2664 15.0746 14.2503C15.0723 16.2479 13.4595 17.8705 11.487 17.859C9.53717 17.8476 7.94131 16.2193 7.94471 14.2457C7.9481 12.2459 9.55414 10.6336 11.5345 10.6427H11.5334ZM11.5334 16.1656C12.5728 16.1553 13.4098 15.2989 13.4086 14.2457C13.4086 13.1801 12.5332 12.3053 11.4882 12.3248C10.4476 12.3442 9.61069 13.2018 9.61182 14.2492C9.61182 15.3149 10.4759 16.1759 11.5345 16.1656H11.5334Z" fill="url(#paint3_linear_609_5022)" stroke="#F2F3F7" stroke-width="0.6" mask="url(#path-4-inside-4_609_5022)"/>
</g>
</g>
<defs>
<linearGradient id="paint0_linear_609_5022" x1="20.7043" y1="0.952271" x2="20.7043" y2="40.9523" gradientUnits="userSpaceOnUse">
<stop stop-color="#4669E3"/>
<stop offset="1" stop-color="#20BDFF"/>
</linearGradient>
<linearGradient id="paint1_linear_609_5022" x1="10.0365" y1="20.0876" x2="10.0365" y2="27.3051" gradientUnits="userSpaceOnUse">
<stop stop-color="#4669E3"/>
<stop offset="1" stop-color="#20BDFF"/>
</linearGradient>
<linearGradient id="paint2_linear_609_5022" x1="21.0846" y1="9.14691" x2="21.0846" y2="16.3816" gradientUnits="userSpaceOnUse">
<stop stop-color="#4669E3"/>
<stop offset="1" stop-color="#20BDFF"/>
</linearGradient>
<linearGradient id="paint3_linear_609_5022" x1="11.5097" y1="10.6427" x2="11.5097" y2="17.8591" gradientUnits="userSpaceOnUse">
<stop stop-color="#4669E3"/>
<stop offset="1" stop-color="#20BDFF"/>
</linearGradient>
</defs>
</svg>
