<svg width="37" height="33" viewBox="0 0 37 33" fill="none" xmlns="http://www.w3.org/2000/svg">
<g id="golden-book-gradient">
<g id="Vector">
<mask id="path-1-outside-1_609_5027" maskUnits="userSpaceOnUse" x="0.0585938" y="-0.0477295" width="37" height="26" fill="black">
<rect fill="white" x="0.0585938" y="-0.0477295" width="37" height="26"/>
<path d="M18.55 2.52823C19.4678 1.32643 20.7454 0.986733 22.1074 0.973879C25.8206 0.938073 29.5337 0.957353 33.2469 0.958272C33.5946 0.958272 33.7244 1.09323 33.7411 1.43568C33.7448 1.50454 33.7411 1.5734 33.7411 1.64226C33.7411 8.44906 33.7411 15.2568 33.7411 22.0636C33.7411 22.6778 33.666 22.7512 33.0402 22.7512C29.6394 22.7512 26.2378 22.7714 22.837 22.7421C21.3759 22.7292 20.2967 23.3701 19.3556 24.5085H35.2523V4.53428C35.091 4.52326 34.9186 4.55539 34.7999 4.49113C34.659 4.41492 34.4763 4.25793 34.4735 4.13123C34.4708 4.00637 34.6515 3.78878 34.7804 3.76491C35.0817 3.70982 35.4072 3.70982 35.7094 3.76491C35.8392 3.78878 35.9505 3.9926 36.0376 4.13399C36.0793 4.20101 36.046 4.31301 36.046 4.40483C36.046 11.1547 36.046 17.9046 36.046 24.6536C36.046 25.2696 35.9773 25.3385 35.346 25.3366C29.8749 25.3192 24.403 25.287 18.9319 25.287C13.1957 25.287 7.45955 25.3192 1.72335 25.3366C1.13276 25.3385 1.05859 25.265 1.05859 24.6912C1.05952 17.9184 1.05952 11.1464 1.05952 4.37361C1.05952 3.82275 1.14667 3.73645 1.7011 3.73553C1.88653 3.73553 2.07195 3.72818 2.25645 3.74104C2.4938 3.75756 2.6542 3.87967 2.65327 4.13031C2.65234 4.36351 2.49936 4.47919 2.27963 4.50673C2.14334 4.52418 2.0052 4.52326 1.85037 4.53152V24.5259H17.7591C16.8338 23.3967 15.7815 22.7375 14.3398 22.7457C10.927 22.7659 7.51517 22.7522 4.10238 22.7522C3.98649 22.7522 3.8706 22.754 3.75563 22.7467C3.52385 22.732 3.39869 22.5979 3.3718 22.3767C3.35789 22.2637 3.36531 22.1471 3.36531 22.0324C3.36531 15.2485 3.36531 8.46375 3.36531 1.6799C3.36531 1.01978 3.43021 0.956435 4.0996 0.956435C7.53557 0.956435 10.9706 0.952763 14.4066 0.961026C14.9026 0.961944 15.4023 0.987651 15.8928 1.05926C16.9404 1.21259 17.8713 1.60737 18.5509 2.52823H18.55ZM32.941 1.74876C32.8733 1.73682 32.8399 1.7258 32.8056 1.7258C29.2667 1.72672 25.7269 1.71938 22.188 1.73774C21.387 1.74141 20.5943 1.87637 19.9008 2.32441C19.2861 2.72103 18.9319 3.23333 18.9347 4.02473C18.957 9.45347 18.9468 14.8822 18.9458 20.3109C18.9458 20.4477 18.9746 20.613 18.9097 20.714C18.83 20.8388 18.6686 20.9756 18.536 20.983C18.4248 20.9894 18.2607 20.8388 18.1976 20.7177C18.1346 20.5974 18.1606 20.4266 18.1606 20.2788C18.1596 14.8271 18.1541 9.37543 18.168 3.92282C18.1698 3.37839 17.9788 2.95239 17.5848 2.62463C17.3067 2.39326 16.9812 2.19863 16.6475 2.05632C15.9447 1.75702 15.1891 1.72305 14.4344 1.72305C11.1384 1.72121 7.84153 1.72213 4.54556 1.72305C4.42317 1.72305 4.30079 1.73315 4.17655 1.73866V21.9773C4.34529 21.9773 4.48344 21.9773 4.62065 21.9773C7.80166 21.9773 10.9827 22.0039 14.1627 21.9663C15.776 21.947 17.0517 22.5566 18.0984 23.7254C18.2486 23.8934 18.397 24.0641 18.5555 24.2459C18.651 24.1348 18.7261 24.0494 18.7984 23.9613C19.9054 22.6227 21.2813 21.9286 23.0772 21.9608C26.222 22.0177 29.3687 21.9764 32.5145 21.9764C32.6499 21.9764 32.7852 21.9764 32.9391 21.9764V1.74876H32.941Z"/>
</mask>
<path d="M18.55 2.52823C19.4678 1.32643 20.7454 0.986733 22.1074 0.973879C25.8206 0.938073 29.5337 0.957353 33.2469 0.958272C33.5946 0.958272 33.7244 1.09323 33.7411 1.43568C33.7448 1.50454 33.7411 1.5734 33.7411 1.64226C33.7411 8.44906 33.7411 15.2568 33.7411 22.0636C33.7411 22.6778 33.666 22.7512 33.0402 22.7512C29.6394 22.7512 26.2378 22.7714 22.837 22.7421C21.3759 22.7292 20.2967 23.3701 19.3556 24.5085H35.2523V4.53428C35.091 4.52326 34.9186 4.55539 34.7999 4.49113C34.659 4.41492 34.4763 4.25793 34.4735 4.13123C34.4708 4.00637 34.6515 3.78878 34.7804 3.76491C35.0817 3.70982 35.4072 3.70982 35.7094 3.76491C35.8392 3.78878 35.9505 3.9926 36.0376 4.13399C36.0793 4.20101 36.046 4.31301 36.046 4.40483C36.046 11.1547 36.046 17.9046 36.046 24.6536C36.046 25.2696 35.9773 25.3385 35.346 25.3366C29.8749 25.3192 24.403 25.287 18.9319 25.287C13.1957 25.287 7.45955 25.3192 1.72335 25.3366C1.13276 25.3385 1.05859 25.265 1.05859 24.6912C1.05952 17.9184 1.05952 11.1464 1.05952 4.37361C1.05952 3.82275 1.14667 3.73645 1.7011 3.73553C1.88653 3.73553 2.07195 3.72818 2.25645 3.74104C2.4938 3.75756 2.6542 3.87967 2.65327 4.13031C2.65234 4.36351 2.49936 4.47919 2.27963 4.50673C2.14334 4.52418 2.0052 4.52326 1.85037 4.53152V24.5259H17.7591C16.8338 23.3967 15.7815 22.7375 14.3398 22.7457C10.927 22.7659 7.51517 22.7522 4.10238 22.7522C3.98649 22.7522 3.8706 22.754 3.75563 22.7467C3.52385 22.732 3.39869 22.5979 3.3718 22.3767C3.35789 22.2637 3.36531 22.1471 3.36531 22.0324C3.36531 15.2485 3.36531 8.46375 3.36531 1.6799C3.36531 1.01978 3.43021 0.956435 4.0996 0.956435C7.53557 0.956435 10.9706 0.952763 14.4066 0.961026C14.9026 0.961944 15.4023 0.987651 15.8928 1.05926C16.9404 1.21259 17.8713 1.60737 18.5509 2.52823H18.55ZM32.941 1.74876C32.8733 1.73682 32.8399 1.7258 32.8056 1.7258C29.2667 1.72672 25.7269 1.71938 22.188 1.73774C21.387 1.74141 20.5943 1.87637 19.9008 2.32441C19.2861 2.72103 18.9319 3.23333 18.9347 4.02473C18.957 9.45347 18.9468 14.8822 18.9458 20.3109C18.9458 20.4477 18.9746 20.613 18.9097 20.714C18.83 20.8388 18.6686 20.9756 18.536 20.983C18.4248 20.9894 18.2607 20.8388 18.1976 20.7177C18.1346 20.5974 18.1606 20.4266 18.1606 20.2788C18.1596 14.8271 18.1541 9.37543 18.168 3.92282C18.1698 3.37839 17.9788 2.95239 17.5848 2.62463C17.3067 2.39326 16.9812 2.19863 16.6475 2.05632C15.9447 1.75702 15.1891 1.72305 14.4344 1.72305C11.1384 1.72121 7.84153 1.72213 4.54556 1.72305C4.42317 1.72305 4.30079 1.73315 4.17655 1.73866V21.9773C4.34529 21.9773 4.48344 21.9773 4.62065 21.9773C7.80166 21.9773 10.9827 22.0039 14.1627 21.9663C15.776 21.947 17.0517 22.5566 18.0984 23.7254C18.2486 23.8934 18.397 24.0641 18.5555 24.2459C18.651 24.1348 18.7261 24.0494 18.7984 23.9613C19.9054 22.6227 21.2813 21.9286 23.0772 21.9608C26.222 22.0177 29.3687 21.9764 32.5145 21.9764C32.6499 21.9764 32.7852 21.9764 32.9391 21.9764V1.74876H32.941Z" fill="url(#paint0_linear_609_5027)"/>
<path d="M18.55 2.52823C19.4678 1.32643 20.7454 0.986733 22.1074 0.973879C25.8206 0.938073 29.5337 0.957353 33.2469 0.958272C33.5946 0.958272 33.7244 1.09323 33.7411 1.43568C33.7448 1.50454 33.7411 1.5734 33.7411 1.64226C33.7411 8.44906 33.7411 15.2568 33.7411 22.0636C33.7411 22.6778 33.666 22.7512 33.0402 22.7512C29.6394 22.7512 26.2378 22.7714 22.837 22.7421C21.3759 22.7292 20.2967 23.3701 19.3556 24.5085H35.2523V4.53428C35.091 4.52326 34.9186 4.55539 34.7999 4.49113C34.659 4.41492 34.4763 4.25793 34.4735 4.13123C34.4708 4.00637 34.6515 3.78878 34.7804 3.76491C35.0817 3.70982 35.4072 3.70982 35.7094 3.76491C35.8392 3.78878 35.9505 3.9926 36.0376 4.13399C36.0793 4.20101 36.046 4.31301 36.046 4.40483C36.046 11.1547 36.046 17.9046 36.046 24.6536C36.046 25.2696 35.9773 25.3385 35.346 25.3366C29.8749 25.3192 24.403 25.287 18.9319 25.287C13.1957 25.287 7.45955 25.3192 1.72335 25.3366C1.13276 25.3385 1.05859 25.265 1.05859 24.6912C1.05952 17.9184 1.05952 11.1464 1.05952 4.37361C1.05952 3.82275 1.14667 3.73645 1.7011 3.73553C1.88653 3.73553 2.07195 3.72818 2.25645 3.74104C2.4938 3.75756 2.6542 3.87967 2.65327 4.13031C2.65234 4.36351 2.49936 4.47919 2.27963 4.50673C2.14334 4.52418 2.0052 4.52326 1.85037 4.53152V24.5259H17.7591C16.8338 23.3967 15.7815 22.7375 14.3398 22.7457C10.927 22.7659 7.51517 22.7522 4.10238 22.7522C3.98649 22.7522 3.8706 22.754 3.75563 22.7467C3.52385 22.732 3.39869 22.5979 3.3718 22.3767C3.35789 22.2637 3.36531 22.1471 3.36531 22.0324C3.36531 15.2485 3.36531 8.46375 3.36531 1.6799C3.36531 1.01978 3.43021 0.956435 4.0996 0.956435C7.53557 0.956435 10.9706 0.952763 14.4066 0.961026C14.9026 0.961944 15.4023 0.987651 15.8928 1.05926C16.9404 1.21259 17.8713 1.60737 18.5509 2.52823H18.55ZM32.941 1.74876C32.8733 1.73682 32.8399 1.7258 32.8056 1.7258C29.2667 1.72672 25.7269 1.71938 22.188 1.73774C21.387 1.74141 20.5943 1.87637 19.9008 2.32441C19.2861 2.72103 18.9319 3.23333 18.9347 4.02473C18.957 9.45347 18.9468 14.8822 18.9458 20.3109C18.9458 20.4477 18.9746 20.613 18.9097 20.714C18.83 20.8388 18.6686 20.9756 18.536 20.983C18.4248 20.9894 18.2607 20.8388 18.1976 20.7177C18.1346 20.5974 18.1606 20.4266 18.1606 20.2788C18.1596 14.8271 18.1541 9.37543 18.168 3.92282C18.1698 3.37839 17.9788 2.95239 17.5848 2.62463C17.3067 2.39326 16.9812 2.19863 16.6475 2.05632C15.9447 1.75702 15.1891 1.72305 14.4344 1.72305C11.1384 1.72121 7.84153 1.72213 4.54556 1.72305C4.42317 1.72305 4.30079 1.73315 4.17655 1.73866V21.9773C4.34529 21.9773 4.48344 21.9773 4.62065 21.9773C7.80166 21.9773 10.9827 22.0039 14.1627 21.9663C15.776 21.947 17.0517 22.5566 18.0984 23.7254C18.2486 23.8934 18.397 24.0641 18.5555 24.2459C18.651 24.1348 18.7261 24.0494 18.7984 23.9613C19.9054 22.6227 21.2813 21.9286 23.0772 21.9608C26.222 22.0177 29.3687 21.9764 32.5145 21.9764C32.6499 21.9764 32.7852 21.9764 32.9391 21.9764V1.74876H32.941Z" stroke="url(#paint1_linear_609_5027)" stroke-width="0.2" mask="url(#path-1-outside-1_609_5027)"/>
</g>
<g id="Vector_2">
<mask id="path-2-outside-2_609_5027" maskUnits="userSpaceOnUse" x="4.0415" y="26.9584" width="28" height="6" fill="black">
<rect fill="white" x="4.0415" y="26.9584" width="28" height="6"/>
<path d="M10.2604 28.9797C10.648 28.3847 11.2423 28.3241 11.8755 28.281C15.6267 28.023 19.3825 27.8954 23.1411 27.989C25.5211 28.0478 27.8992 28.1883 30.2782 28.3039C31.1692 28.3471 31.8572 29.088 31.8544 29.9611C31.8507 30.837 31.1664 31.5467 30.2699 31.6128C25.6064 31.9543 20.9383 32.0369 16.2655 31.8662C14.6486 31.8074 13.0335 31.6945 11.4175 31.6027C10.9382 31.5751 10.5618 31.3493 10.2539 30.9416C9.78296 31.2106 9.30548 31.4613 8.85304 31.7496C8.5341 31.9525 8.2708 31.9653 7.93146 31.7698C7.07293 31.2749 6.18566 30.8305 5.32065 30.3467C5.19085 30.2742 5.04529 30.0997 5.04158 29.9694C5.03787 29.8399 5.17416 29.6535 5.30118 29.5819C6.20606 29.0742 7.12764 28.5977 8.03438 28.0937C8.28841 27.9523 8.49609 27.9551 8.74085 28.1038C9.23316 28.4022 9.73753 28.6794 10.2614 28.9797H10.2604ZM28.9376 28.9861C24.4521 28.7116 19.9889 28.6556 15.5025 28.8585V31.0582C20.0148 31.2593 24.4697 31.2051 28.9376 30.9279V28.9861ZM14.7033 31.0261V28.8814C13.5926 28.9512 12.5097 29.0008 11.4314 29.1036C11.2339 29.1229 11.0123 29.3258 10.8844 29.5021C10.7926 29.6297 10.8232 29.8555 10.8241 30.0364C10.8278 30.5882 11.0411 30.8067 11.5872 30.8434C11.8291 30.8599 12.0702 30.8783 12.3122 30.8921C13.104 30.937 13.8967 30.9802 14.7023 31.0252L14.7033 31.0261ZM7.11095 30.3495L7.09611 30.4275C7.47717 30.635 7.85358 30.8517 8.24298 31.0435C8.32272 31.083 8.46549 31.0619 8.54986 31.016C8.98469 30.7819 9.41303 30.5331 9.83951 30.2834C10.1214 30.1181 10.1251 29.8032 9.84507 29.6379C9.41952 29.3864 8.98933 29.1422 8.55728 28.9016C8.48404 28.8612 8.37 28.8126 8.31159 28.8419C7.89716 29.0485 7.49293 29.2744 7.08591 29.4938C7.35942 29.5727 7.60975 29.5682 7.85915 29.5746C8.10762 29.5801 8.29212 29.6792 8.29397 29.9556C8.29583 30.2301 8.11318 30.3375 7.86656 30.3476C7.61531 30.3586 7.3622 30.3504 7.11095 30.3504V30.3495ZM29.7442 30.848C30.6213 30.8829 31.0784 30.5588 31.0635 29.9317C31.0487 29.3194 30.5527 28.9953 29.7442 29.0825V30.848Z"/>
</mask>
<path d="M10.2604 28.9797C10.648 28.3847 11.2423 28.3241 11.8755 28.281C15.6267 28.023 19.3825 27.8954 23.1411 27.989C25.5211 28.0478 27.8992 28.1883 30.2782 28.3039C31.1692 28.3471 31.8572 29.088 31.8544 29.9611C31.8507 30.837 31.1664 31.5467 30.2699 31.6128C25.6064 31.9543 20.9383 32.0369 16.2655 31.8662C14.6486 31.8074 13.0335 31.6945 11.4175 31.6027C10.9382 31.5751 10.5618 31.3493 10.2539 30.9416C9.78296 31.2106 9.30548 31.4613 8.85304 31.7496C8.5341 31.9525 8.2708 31.9653 7.93146 31.7698C7.07293 31.2749 6.18566 30.8305 5.32065 30.3467C5.19085 30.2742 5.04529 30.0997 5.04158 29.9694C5.03787 29.8399 5.17416 29.6535 5.30118 29.5819C6.20606 29.0742 7.12764 28.5977 8.03438 28.0937C8.28841 27.9523 8.49609 27.9551 8.74085 28.1038C9.23316 28.4022 9.73753 28.6794 10.2614 28.9797H10.2604ZM28.9376 28.9861C24.4521 28.7116 19.9889 28.6556 15.5025 28.8585V31.0582C20.0148 31.2593 24.4697 31.2051 28.9376 30.9279V28.9861ZM14.7033 31.0261V28.8814C13.5926 28.9512 12.5097 29.0008 11.4314 29.1036C11.2339 29.1229 11.0123 29.3258 10.8844 29.5021C10.7926 29.6297 10.8232 29.8555 10.8241 30.0364C10.8278 30.5882 11.0411 30.8067 11.5872 30.8434C11.8291 30.8599 12.0702 30.8783 12.3122 30.8921C13.104 30.937 13.8967 30.9802 14.7023 31.0252L14.7033 31.0261ZM7.11095 30.3495L7.09611 30.4275C7.47717 30.635 7.85358 30.8517 8.24298 31.0435C8.32272 31.083 8.46549 31.0619 8.54986 31.016C8.98469 30.7819 9.41303 30.5331 9.83951 30.2834C10.1214 30.1181 10.1251 29.8032 9.84507 29.6379C9.41952 29.3864 8.98933 29.1422 8.55728 28.9016C8.48404 28.8612 8.37 28.8126 8.31159 28.8419C7.89716 29.0485 7.49293 29.2744 7.08591 29.4938C7.35942 29.5727 7.60975 29.5682 7.85915 29.5746C8.10762 29.5801 8.29212 29.6792 8.29397 29.9556C8.29583 30.2301 8.11318 30.3375 7.86656 30.3476C7.61531 30.3586 7.3622 30.3504 7.11095 30.3504V30.3495ZM29.7442 30.848C30.6213 30.8829 31.0784 30.5588 31.0635 29.9317C31.0487 29.3194 30.5527 28.9953 29.7442 29.0825V30.848Z" fill="url(#paint2_linear_609_5027)"/>
<path d="M10.2604 28.9797C10.648 28.3847 11.2423 28.3241 11.8755 28.281C15.6267 28.023 19.3825 27.8954 23.1411 27.989C25.5211 28.0478 27.8992 28.1883 30.2782 28.3039C31.1692 28.3471 31.8572 29.088 31.8544 29.9611C31.8507 30.837 31.1664 31.5467 30.2699 31.6128C25.6064 31.9543 20.9383 32.0369 16.2655 31.8662C14.6486 31.8074 13.0335 31.6945 11.4175 31.6027C10.9382 31.5751 10.5618 31.3493 10.2539 30.9416C9.78296 31.2106 9.30548 31.4613 8.85304 31.7496C8.5341 31.9525 8.2708 31.9653 7.93146 31.7698C7.07293 31.2749 6.18566 30.8305 5.32065 30.3467C5.19085 30.2742 5.04529 30.0997 5.04158 29.9694C5.03787 29.8399 5.17416 29.6535 5.30118 29.5819C6.20606 29.0742 7.12764 28.5977 8.03438 28.0937C8.28841 27.9523 8.49609 27.9551 8.74085 28.1038C9.23316 28.4022 9.73753 28.6794 10.2614 28.9797H10.2604ZM28.9376 28.9861C24.4521 28.7116 19.9889 28.6556 15.5025 28.8585V31.0582C20.0148 31.2593 24.4697 31.2051 28.9376 30.9279V28.9861ZM14.7033 31.0261V28.8814C13.5926 28.9512 12.5097 29.0008 11.4314 29.1036C11.2339 29.1229 11.0123 29.3258 10.8844 29.5021C10.7926 29.6297 10.8232 29.8555 10.8241 30.0364C10.8278 30.5882 11.0411 30.8067 11.5872 30.8434C11.8291 30.8599 12.0702 30.8783 12.3122 30.8921C13.104 30.937 13.8967 30.9802 14.7023 31.0252L14.7033 31.0261ZM7.11095 30.3495L7.09611 30.4275C7.47717 30.635 7.85358 30.8517 8.24298 31.0435C8.32272 31.083 8.46549 31.0619 8.54986 31.016C8.98469 30.7819 9.41303 30.5331 9.83951 30.2834C10.1214 30.1181 10.1251 29.8032 9.84507 29.6379C9.41952 29.3864 8.98933 29.1422 8.55728 28.9016C8.48404 28.8612 8.37 28.8126 8.31159 28.8419C7.89716 29.0485 7.49293 29.2744 7.08591 29.4938C7.35942 29.5727 7.60975 29.5682 7.85915 29.5746C8.10762 29.5801 8.29212 29.6792 8.29397 29.9556C8.29583 30.2301 8.11318 30.3375 7.86656 30.3476C7.61531 30.3586 7.3622 30.3504 7.11095 30.3504V30.3495ZM29.7442 30.848C30.6213 30.8829 31.0784 30.5588 31.0635 29.9317C31.0487 29.3194 30.5527 28.9953 29.7442 29.0825V30.848Z" stroke="url(#paint3_linear_609_5027)" stroke-width="0.2" mask="url(#path-2-outside-2_609_5027)"/>
</g>
<g id="Vector_3">
<mask id="path-3-outside-3_609_5027" maskUnits="userSpaceOnUse" x="24.1067" y="11.7385" width="8" height="8" fill="black">
<rect fill="white" x="24.1067" y="11.7385" width="8" height="8"/>
<path d="M25.1076 14.8354C25.1632 14.6196 25.2133 14.1643 25.395 13.7686C25.9569 12.5466 27.5414 12.3804 28.4694 13.439C28.6789 13.6786 28.8468 13.7676 29.1833 13.7282C29.9195 13.6409 30.5508 13.9081 30.9875 14.5242C31.4075 15.1172 31.3871 15.7507 31.0747 16.3806C30.6918 17.1527 30.0752 17.7136 29.2909 18.0368C28.5714 18.3334 27.8102 18.5317 27.0583 18.7428C26.9239 18.7805 26.6763 18.7226 26.6003 18.6216C25.8067 17.5631 25.1595 16.4366 25.1067 14.8345L25.1076 14.8354ZM25.8558 15.0328C25.9031 15.8279 26.452 17.2702 26.9888 17.8587C27.0407 17.9156 27.1761 17.9514 27.2493 17.9276C27.8621 17.7265 28.4861 17.5465 29.0721 17.2849C29.6515 17.026 30.1104 16.5945 30.3877 16.0115C30.7205 15.3128 30.3719 14.627 29.6042 14.5177C29.3307 14.4792 29.0313 14.5379 28.7578 14.6077C28.4861 14.6766 28.3201 14.616 28.1801 14.3809C28.0633 14.1863 27.9372 13.9834 27.7704 13.8328C27.1853 13.304 26.362 13.45 26.0737 14.1395C25.9569 14.4195 25.9244 14.7335 25.854 15.0328H25.8558Z"/>
</mask>
<path d="M25.1076 14.8354C25.1632 14.6196 25.2133 14.1643 25.395 13.7686C25.9569 12.5466 27.5414 12.3804 28.4694 13.439C28.6789 13.6786 28.8468 13.7676 29.1833 13.7282C29.9195 13.6409 30.5508 13.9081 30.9875 14.5242C31.4075 15.1172 31.3871 15.7507 31.0747 16.3806C30.6918 17.1527 30.0752 17.7136 29.2909 18.0368C28.5714 18.3334 27.8102 18.5317 27.0583 18.7428C26.9239 18.7805 26.6763 18.7226 26.6003 18.6216C25.8067 17.5631 25.1595 16.4366 25.1067 14.8345L25.1076 14.8354ZM25.8558 15.0328C25.9031 15.8279 26.452 17.2702 26.9888 17.8587C27.0407 17.9156 27.1761 17.9514 27.2493 17.9276C27.8621 17.7265 28.4861 17.5465 29.0721 17.2849C29.6515 17.026 30.1104 16.5945 30.3877 16.0115C30.7205 15.3128 30.3719 14.627 29.6042 14.5177C29.3307 14.4792 29.0313 14.5379 28.7578 14.6077C28.4861 14.6766 28.3201 14.616 28.1801 14.3809C28.0633 14.1863 27.9372 13.9834 27.7704 13.8328C27.1853 13.304 26.362 13.45 26.0737 14.1395C25.9569 14.4195 25.9244 14.7335 25.854 15.0328H25.8558Z" fill="url(#paint4_linear_609_5027)"/>
<path d="M25.1076 14.8354C25.1632 14.6196 25.2133 14.1643 25.395 13.7686C25.9569 12.5466 27.5414 12.3804 28.4694 13.439C28.6789 13.6786 28.8468 13.7676 29.1833 13.7282C29.9195 13.6409 30.5508 13.9081 30.9875 14.5242C31.4075 15.1172 31.3871 15.7507 31.0747 16.3806C30.6918 17.1527 30.0752 17.7136 29.2909 18.0368C28.5714 18.3334 27.8102 18.5317 27.0583 18.7428C26.9239 18.7805 26.6763 18.7226 26.6003 18.6216C25.8067 17.5631 25.1595 16.4366 25.1067 14.8345L25.1076 14.8354ZM25.8558 15.0328C25.9031 15.8279 26.452 17.2702 26.9888 17.8587C27.0407 17.9156 27.1761 17.9514 27.2493 17.9276C27.8621 17.7265 28.4861 17.5465 29.0721 17.2849C29.6515 17.026 30.1104 16.5945 30.3877 16.0115C30.7205 15.3128 30.3719 14.627 29.6042 14.5177C29.3307 14.4792 29.0313 14.5379 28.7578 14.6077C28.4861 14.6766 28.3201 14.616 28.1801 14.3809C28.0633 14.1863 27.9372 13.9834 27.7704 13.8328C27.1853 13.304 26.362 13.45 26.0737 14.1395C25.9569 14.4195 25.9244 14.7335 25.854 15.0328H25.8558Z" stroke="url(#paint5_linear_609_5027)" stroke-width="0.2" mask="url(#path-3-outside-3_609_5027)"/>
</g>
<g id="Vector_4">
<mask id="path-4-outside-4_609_5027" maskUnits="userSpaceOnUse" x="4.6413" y="15.97" width="11" height="4" fill="black">
<rect fill="white" x="4.6413" y="15.97" width="11" height="4"/>
<path d="M9.3342 16.97C10.546 17.0278 11.7605 17.0462 12.9676 17.1554C13.8113 17.2325 14.5633 17.6016 15.1965 18.1791C15.394 18.3591 15.4718 18.5656 15.2809 18.7786C15.0852 18.9962 14.8674 18.9292 14.6736 18.752C13.9921 18.1305 13.1605 17.8578 12.263 17.8403C10.2854 17.8027 8.30786 17.811 6.33028 17.8018C5.82406 17.799 5.64698 17.7035 5.64141 17.4226C5.63585 17.1306 5.82592 17.0232 6.34789 17.0223C7.34271 17.0223 8.33753 17.0223 9.33235 17.0223L9.33513 16.97H9.3342Z"/>
</mask>
<path d="M9.3342 16.97C10.546 17.0278 11.7605 17.0462 12.9676 17.1554C13.8113 17.2325 14.5633 17.6016 15.1965 18.1791C15.394 18.3591 15.4718 18.5656 15.2809 18.7786C15.0852 18.9962 14.8674 18.9292 14.6736 18.752C13.9921 18.1305 13.1605 17.8578 12.263 17.8403C10.2854 17.8027 8.30786 17.811 6.33028 17.8018C5.82406 17.799 5.64698 17.7035 5.64141 17.4226C5.63585 17.1306 5.82592 17.0232 6.34789 17.0223C7.34271 17.0223 8.33753 17.0223 9.33235 17.0223L9.33513 16.97H9.3342Z" fill="url(#paint6_linear_609_5027)"/>
<path d="M9.3342 16.97C10.546 17.0278 11.7605 17.0462 12.9676 17.1554C13.8113 17.2325 14.5633 17.6016 15.1965 18.1791C15.394 18.3591 15.4718 18.5656 15.2809 18.7786C15.0852 18.9962 14.8674 18.9292 14.6736 18.752C13.9921 18.1305 13.1605 17.8578 12.263 17.8403C10.2854 17.8027 8.30786 17.811 6.33028 17.8018C5.82406 17.799 5.64698 17.7035 5.64141 17.4226C5.63585 17.1306 5.82592 17.0232 6.34789 17.0223C7.34271 17.0223 8.33753 17.0223 9.33235 17.0223L9.33513 16.97H9.3342Z" stroke="url(#paint7_linear_609_5027)" stroke-width="0.2" mask="url(#path-4-outside-4_609_5027)"/>
</g>
<g id="Vector_5">
<mask id="path-5-outside-5_609_5027" maskUnits="userSpaceOnUse" x="4.66248" y="12.0349" width="11" height="3" fill="black">
<rect fill="white" x="4.66248" y="12.0349" width="11" height="3"/>
<path d="M15.4459 14.526C15.3458 14.66 15.2892 14.8143 15.1863 14.8556C15.0686 14.9024 14.8572 14.9052 14.7765 14.8308C13.7966 13.9301 12.5904 13.8172 11.3434 13.8191C9.66616 13.8209 7.98897 13.8163 6.31271 13.8135C6.18662 13.8135 6.02993 13.8429 5.94 13.7823C5.81484 13.6979 5.67206 13.5464 5.66279 13.4151C5.65444 13.3049 5.81484 13.169 5.92331 13.0699C5.97152 13.0258 6.07815 13.0359 6.15788 13.0359C8.22818 13.0497 10.2985 13.0414 12.3669 13.0928C13.4053 13.1185 14.3658 13.4491 15.1548 14.1606C15.2596 14.2551 15.3328 14.3828 15.4459 14.5278V14.526Z"/>
</mask>
<path d="M15.4459 14.526C15.3458 14.66 15.2892 14.8143 15.1863 14.8556C15.0686 14.9024 14.8572 14.9052 14.7765 14.8308C13.7966 13.9301 12.5904 13.8172 11.3434 13.8191C9.66616 13.8209 7.98897 13.8163 6.31271 13.8135C6.18662 13.8135 6.02993 13.8429 5.94 13.7823C5.81484 13.6979 5.67206 13.5464 5.66279 13.4151C5.65444 13.3049 5.81484 13.169 5.92331 13.0699C5.97152 13.0258 6.07815 13.0359 6.15788 13.0359C8.22818 13.0497 10.2985 13.0414 12.3669 13.0928C13.4053 13.1185 14.3658 13.4491 15.1548 14.1606C15.2596 14.2551 15.3328 14.3828 15.4459 14.5278V14.526Z" fill="url(#paint8_linear_609_5027)"/>
<path d="M15.4459 14.526C15.3458 14.66 15.2892 14.8143 15.1863 14.8556C15.0686 14.9024 14.8572 14.9052 14.7765 14.8308C13.7966 13.9301 12.5904 13.8172 11.3434 13.8191C9.66616 13.8209 7.98897 13.8163 6.31271 13.8135C6.18662 13.8135 6.02993 13.8429 5.94 13.7823C5.81484 13.6979 5.67206 13.5464 5.66279 13.4151C5.65444 13.3049 5.81484 13.169 5.92331 13.0699C5.97152 13.0258 6.07815 13.0359 6.15788 13.0359C8.22818 13.0497 10.2985 13.0414 12.3669 13.0928C13.4053 13.1185 14.3658 13.4491 15.1548 14.1606C15.2596 14.2551 15.3328 14.3828 15.4459 14.5278V14.526Z" stroke="url(#paint9_linear_609_5027)" stroke-width="0.2" mask="url(#path-5-outside-5_609_5027)"/>
</g>
<g id="Vector_6">
<mask id="path-6-outside-6_609_5027" maskUnits="userSpaceOnUse" x="4.6449" y="8.00085" width="11" height="4" fill="black">
<rect fill="white" x="4.6449" y="8.00085" width="11" height="4"/>
<path d="M9.29433 9.00085C10.4829 9.05043 11.6752 9.0642 12.8601 9.16152C13.7539 9.23497 14.5521 9.60496 15.2178 10.2219C15.4069 10.3973 15.4561 10.5984 15.2818 10.7976C15.1038 11.0014 14.8896 10.9711 14.7032 10.7976C13.9569 10.1072 13.0363 9.86479 12.0572 9.84918C10.1723 9.81888 8.28653 9.83082 6.40166 9.82439C6.30895 9.82439 6.21624 9.82439 6.12445 9.82439C5.86485 9.82255 5.65254 9.74084 5.64512 9.44705C5.63678 9.12755 5.86485 9.04676 6.13465 9.04676C7.18695 9.04492 8.24018 9.04676 9.29248 9.04676L9.29433 9.00085V9.00085Z"/>
</mask>
<path d="M9.29433 9.00085C10.4829 9.05043 11.6752 9.0642 12.8601 9.16152C13.7539 9.23497 14.5521 9.60496 15.2178 10.2219C15.4069 10.3973 15.4561 10.5984 15.2818 10.7976C15.1038 11.0014 14.8896 10.9711 14.7032 10.7976C13.9569 10.1072 13.0363 9.86479 12.0572 9.84918C10.1723 9.81888 8.28653 9.83082 6.40166 9.82439C6.30895 9.82439 6.21624 9.82439 6.12445 9.82439C5.86485 9.82255 5.65254 9.74084 5.64512 9.44705C5.63678 9.12755 5.86485 9.04676 6.13465 9.04676C7.18695 9.04492 8.24018 9.04676 9.29248 9.04676L9.29433 9.00085V9.00085Z" fill="url(#paint10_linear_609_5027)"/>
<path d="M9.29433 9.00085C10.4829 9.05043 11.6752 9.0642 12.8601 9.16152C13.7539 9.23497 14.5521 9.60496 15.2178 10.2219C15.4069 10.3973 15.4561 10.5984 15.2818 10.7976C15.1038 11.0014 14.8896 10.9711 14.7032 10.7976C13.9569 10.1072 13.0363 9.86479 12.0572 9.84918C10.1723 9.81888 8.28653 9.83082 6.40166 9.82439C6.30895 9.82439 6.21624 9.82439 6.12445 9.82439C5.86485 9.82255 5.65254 9.74084 5.64512 9.44705C5.63678 9.12755 5.86485 9.04676 6.13465 9.04676C7.18695 9.04492 8.24018 9.04676 9.29248 9.04676L9.29433 9.00085V9.00085Z" stroke="url(#paint11_linear_609_5027)" stroke-width="0.2" mask="url(#path-6-outside-6_609_5027)"/>
</g>
<g id="Vector_7">
<mask id="path-7-outside-7_609_5027" maskUnits="userSpaceOnUse" x="20.7204" y="8.04852" width="11" height="3" fill="black">
<rect fill="white" x="20.7204" y="8.04852" width="11" height="3"/>
<path d="M27.9084 9.78946C26.7532 9.8271 25.5971 9.83904 24.4447 9.9134C23.6918 9.96206 23.0095 10.2485 22.4421 10.7654C22.2492 10.9408 22.0462 11.0142 21.8311 10.8113C21.654 10.6433 21.692 10.4 21.9266 10.187C22.7137 9.4718 23.6733 9.1321 24.7108 9.10456C26.8024 9.04947 28.8968 9.0614 30.9903 9.04855C31.248 9.04672 31.4631 9.13393 31.4622 9.43232C31.4612 9.74814 31.2359 9.82527 30.9643 9.82527C29.9463 9.82527 28.9283 9.82527 27.9112 9.82527V9.79038L27.9084 9.78946Z"/>
</mask>
<path d="M27.9084 9.78946C26.7532 9.8271 25.5971 9.83904 24.4447 9.9134C23.6918 9.96206 23.0095 10.2485 22.4421 10.7654C22.2492 10.9408 22.0462 11.0142 21.8311 10.8113C21.654 10.6433 21.692 10.4 21.9266 10.187C22.7137 9.4718 23.6733 9.1321 24.7108 9.10456C26.8024 9.04947 28.8968 9.0614 30.9903 9.04855C31.248 9.04672 31.4631 9.13393 31.4622 9.43232C31.4612 9.74814 31.2359 9.82527 30.9643 9.82527C29.9463 9.82527 28.9283 9.82527 27.9112 9.82527V9.79038L27.9084 9.78946Z" fill="url(#paint12_linear_609_5027)"/>
<path d="M27.9084 9.78946C26.7532 9.8271 25.5971 9.83904 24.4447 9.9134C23.6918 9.96206 23.0095 10.2485 22.4421 10.7654C22.2492 10.9408 22.0462 11.0142 21.8311 10.8113C21.654 10.6433 21.692 10.4 21.9266 10.187C22.7137 9.4718 23.6733 9.1321 24.7108 9.10456C26.8024 9.04947 28.8968 9.0614 30.9903 9.04855C31.248 9.04672 31.4631 9.13393 31.4622 9.43232C31.4612 9.74814 31.2359 9.82527 30.9643 9.82527C29.9463 9.82527 28.9283 9.82527 27.9112 9.82527V9.79038L27.9084 9.78946Z" stroke="url(#paint13_linear_609_5027)" stroke-width="0.2" mask="url(#path-7-outside-7_609_5027)"/>
</g>
<g id="Vector_8">
<mask id="path-8-outside-8_609_5027" maskUnits="userSpaceOnUse" x="4.64606" y="4.02454" width="11" height="4" fill="black">
<rect fill="white" x="4.64606" y="4.02454" width="11" height="4"/>
<path d="M9.24336 5.02545C10.444 5.06952 11.6484 5.07503 12.8453 5.1696C13.739 5.24029 14.5382 5.60845 15.2086 6.22082C15.3958 6.39251 15.4607 6.59082 15.2939 6.79555C15.1242 7.00396 14.9072 6.99203 14.7172 6.81667C13.9208 6.08219 12.9399 5.86184 11.9015 5.85083C10.0741 5.83063 8.24669 5.84073 6.4193 5.83797C6.32659 5.83797 6.23387 5.83797 6.14209 5.83797C5.87044 5.83614 5.64421 5.75443 5.64607 5.44044C5.64885 5.1191 5.88527 5.06493 6.15414 5.06493C7.18326 5.06769 8.21331 5.06585 9.24243 5.06585L9.24429 5.02454L9.24336 5.02545Z"/>
</mask>
<path d="M9.24336 5.02545C10.444 5.06952 11.6484 5.07503 12.8453 5.1696C13.739 5.24029 14.5382 5.60845 15.2086 6.22082C15.3958 6.39251 15.4607 6.59082 15.2939 6.79555C15.1242 7.00396 14.9072 6.99203 14.7172 6.81667C13.9208 6.08219 12.9399 5.86184 11.9015 5.85083C10.0741 5.83063 8.24669 5.84073 6.4193 5.83797C6.32659 5.83797 6.23387 5.83797 6.14209 5.83797C5.87044 5.83614 5.64421 5.75443 5.64607 5.44044C5.64885 5.1191 5.88527 5.06493 6.15414 5.06493C7.18326 5.06769 8.21331 5.06585 9.24243 5.06585L9.24429 5.02454L9.24336 5.02545Z" fill="url(#paint14_linear_609_5027)"/>
<path d="M9.24336 5.02545C10.444 5.06952 11.6484 5.07503 12.8453 5.1696C13.739 5.24029 14.5382 5.60845 15.2086 6.22082C15.3958 6.39251 15.4607 6.59082 15.2939 6.79555C15.1242 7.00396 14.9072 6.99203 14.7172 6.81667C13.9208 6.08219 12.9399 5.86184 11.9015 5.85083C10.0741 5.83063 8.24669 5.84073 6.4193 5.83797C6.32659 5.83797 6.23387 5.83797 6.14209 5.83797C5.87044 5.83614 5.64421 5.75443 5.64607 5.44044C5.64885 5.1191 5.88527 5.06493 6.15414 5.06493C7.18326 5.06769 8.21331 5.06585 9.24243 5.06585L9.24429 5.02454L9.24336 5.02545Z" stroke="url(#paint15_linear_609_5027)" stroke-width="0.2" mask="url(#path-8-outside-8_609_5027)"/>
</g>
<g id="Vector_9">
<mask id="path-9-outside-9_609_5027" maskUnits="userSpaceOnUse" x="20.7155" y="4.06769" width="11" height="3" fill="black">
<rect fill="white" x="20.7155" y="4.06769" width="11" height="3"/>
<path d="M27.94 5.80493C26.7848 5.83982 25.6287 5.84808 24.4753 5.91877C23.7104 5.9656 23.016 6.25296 22.4393 6.77812C22.2456 6.95439 22.0305 7.03427 21.8321 6.8176C21.6244 6.59174 21.718 6.38058 21.9266 6.19329C22.7379 5.46615 23.7206 5.13196 24.7813 5.10717C26.8618 5.05943 28.9441 5.07687 31.0256 5.06769C31.2805 5.06678 31.4622 5.17236 31.4604 5.44595C31.4585 5.73791 31.2546 5.83615 30.9931 5.83706C29.9751 5.83982 28.9571 5.83798 27.94 5.83798V5.80493V5.80493Z"/>
</mask>
<path d="M27.94 5.80493C26.7848 5.83982 25.6287 5.84808 24.4753 5.91877C23.7104 5.9656 23.016 6.25296 22.4393 6.77812C22.2456 6.95439 22.0305 7.03427 21.8321 6.8176C21.6244 6.59174 21.718 6.38058 21.9266 6.19329C22.7379 5.46615 23.7206 5.13196 24.7813 5.10717C26.8618 5.05943 28.9441 5.07687 31.0256 5.06769C31.2805 5.06678 31.4622 5.17236 31.4604 5.44595C31.4585 5.73791 31.2546 5.83615 30.9931 5.83706C29.9751 5.83982 28.9571 5.83798 27.94 5.83798V5.80493V5.80493Z" fill="url(#paint16_linear_609_5027)"/>
<path d="M27.94 5.80493C26.7848 5.83982 25.6287 5.84808 24.4753 5.91877C23.7104 5.9656 23.016 6.25296 22.4393 6.77812C22.2456 6.95439 22.0305 7.03427 21.8321 6.8176C21.6244 6.59174 21.718 6.38058 21.9266 6.19329C22.7379 5.46615 23.7206 5.13196 24.7813 5.10717C26.8618 5.05943 28.9441 5.07687 31.0256 5.06769C31.2805 5.06678 31.4622 5.17236 31.4604 5.44595C31.4585 5.73791 31.2546 5.83615 30.9931 5.83706C29.9751 5.83982 28.9571 5.83798 27.94 5.83798V5.80493V5.80493Z" stroke="url(#paint17_linear_609_5027)" stroke-width="0.2" mask="url(#path-9-outside-9_609_5027)"/>
</g>
</g>
<defs>
<linearGradient id="paint0_linear_609_5027" x1="18.5586" y1="0.952271" x2="18.5586" y2="25.3367" gradientUnits="userSpaceOnUse">
<stop stop-color="#4669E3"/>
<stop offset="1" stop-color="#20BDFF"/>
</linearGradient>
<linearGradient id="paint1_linear_609_5027" x1="18.5586" y1="0.952271" x2="18.5586" y2="25.3367" gradientUnits="userSpaceOnUse">
<stop stop-color="#4669E3"/>
<stop offset="1" stop-color="#20BDFF"/>
</linearGradient>
<linearGradient id="paint2_linear_609_5027" x1="18.4479" y1="27.9584" x2="18.4479" y2="31.9523" gradientUnits="userSpaceOnUse">
<stop stop-color="#4669E3"/>
<stop offset="1" stop-color="#20BDFF"/>
</linearGradient>
<linearGradient id="paint3_linear_609_5027" x1="18.4479" y1="27.9584" x2="18.4479" y2="31.9523" gradientUnits="userSpaceOnUse">
<stop stop-color="#4669E3"/>
<stop offset="1" stop-color="#20BDFF"/>
</linearGradient>
<linearGradient id="paint4_linear_609_5027" x1="28.2065" y1="12.7385" x2="28.2065" y2="18.7544" gradientUnits="userSpaceOnUse">
<stop stop-color="#4669E3"/>
<stop offset="1" stop-color="#20BDFF"/>
</linearGradient>
<linearGradient id="paint5_linear_609_5027" x1="28.2065" y1="12.7385" x2="28.2065" y2="18.7544" gradientUnits="userSpaceOnUse">
<stop stop-color="#4669E3"/>
<stop offset="1" stop-color="#20BDFF"/>
</linearGradient>
<linearGradient id="paint6_linear_609_5027" x1="10.5159" y1="16.97" x2="10.5159" y2="18.9154" gradientUnits="userSpaceOnUse">
<stop stop-color="#4669E3"/>
<stop offset="1" stop-color="#20BDFF"/>
</linearGradient>
<linearGradient id="paint7_linear_609_5027" x1="10.5159" y1="16.97" x2="10.5159" y2="18.9154" gradientUnits="userSpaceOnUse">
<stop stop-color="#4669E3"/>
<stop offset="1" stop-color="#20BDFF"/>
</linearGradient>
<linearGradient id="paint8_linear_609_5027" x1="10.5542" y1="13.0349" x2="10.5542" y2="14.889" gradientUnits="userSpaceOnUse">
<stop stop-color="#4669E3"/>
<stop offset="1" stop-color="#20BDFF"/>
</linearGradient>
<linearGradient id="paint9_linear_609_5027" x1="10.5542" y1="13.0349" x2="10.5542" y2="14.889" gradientUnits="userSpaceOnUse">
<stop stop-color="#4669E3"/>
<stop offset="1" stop-color="#20BDFF"/>
</linearGradient>
<linearGradient id="paint10_linear_609_5027" x1="10.5171" y1="9.00085" x2="10.5171" y2="10.9393" gradientUnits="userSpaceOnUse">
<stop stop-color="#4669E3"/>
<stop offset="1" stop-color="#20BDFF"/>
</linearGradient>
<linearGradient id="paint11_linear_609_5027" x1="10.5171" y1="9.00085" x2="10.5171" y2="10.9393" gradientUnits="userSpaceOnUse">
<stop stop-color="#4669E3"/>
<stop offset="1" stop-color="#20BDFF"/>
</linearGradient>
<linearGradient id="paint12_linear_609_5027" x1="26.5913" y1="9.04852" x2="26.5913" y2="10.9336" gradientUnits="userSpaceOnUse">
<stop stop-color="#4669E3"/>
<stop offset="1" stop-color="#20BDFF"/>
</linearGradient>
<linearGradient id="paint13_linear_609_5027" x1="26.5913" y1="9.04852" x2="26.5913" y2="10.9336" gradientUnits="userSpaceOnUse">
<stop stop-color="#4669E3"/>
<stop offset="1" stop-color="#20BDFF"/>
</linearGradient>
<linearGradient id="paint14_linear_609_5027" x1="10.518" y1="5.02454" x2="10.518" y2="6.95005" gradientUnits="userSpaceOnUse">
<stop stop-color="#4669E3"/>
<stop offset="1" stop-color="#20BDFF"/>
</linearGradient>
<linearGradient id="paint15_linear_609_5027" x1="10.518" y1="5.02454" x2="10.518" y2="6.95005" gradientUnits="userSpaceOnUse">
<stop stop-color="#4669E3"/>
<stop offset="1" stop-color="#20BDFF"/>
</linearGradient>
<linearGradient id="paint16_linear_609_5027" x1="26.588" y1="5.06769" x2="26.588" y2="6.94853" gradientUnits="userSpaceOnUse">
<stop stop-color="#4669E3"/>
<stop offset="1" stop-color="#20BDFF"/>
</linearGradient>
<linearGradient id="paint17_linear_609_5027" x1="26.588" y1="5.06769" x2="26.588" y2="6.94853" gradientUnits="userSpaceOnUse">
<stop stop-color="#4669E3"/>
<stop offset="1" stop-color="#20BDFF"/>
</linearGradient>
</defs>
</svg>
