<svg width="38" height="47" viewBox="0 0 38 47" fill="none" xmlns="http://www.w3.org/2000/svg">
<g id="guest-list-gradient">
<path id="Vector" d="M2.63937 41.094C3.45621 37.225 5.5872 33.758 8.67037 31.282" stroke="url(#paint0_linear_740_6134)" stroke-width="0.7" stroke-miterlimit="10"/>
<path id="Vector_2" d="M5.69339 42.588C9.72311 38.922 14.6647 36.4075 20.0004 35.308" stroke="url(#paint1_linear_740_6134)" stroke-width="0.7" stroke-miterlimit="10"/>
<path id="Vector_3" d="M32.4834 23.52C33.6644 24.44 36.1834 26.78 37.3504 31.82" stroke="url(#paint2_linear_740_6134)" stroke-width="0.7" stroke-miterlimit="10"/>
<path id="Union 10" d="M20.4324 35.858C12.2234 26.633 15.1184 17.931 15.1184 17.931L17.0314 17.08C12.3434 9.81901 14.2934 3.57 14.2934 3.57L17.4264 2.112C18.9322 1.40972 20.5688 1.03152 22.2301 1.00189C23.8914 0.972258 25.5404 1.29186 27.0704 1.94L30.2484 3.285C30.2484 3.285 32.3114 9.135 28.3364 16.3C28.453 16.348 28.569 16.3977 28.6844 16.449L32.0274 17.935C32.0274 17.935 34.9204 26.635 26.7124 35.862C26.3183 36.3054 25.8348 36.6603 25.2937 36.9034C24.7526 37.1464 24.1661 37.2721 23.5729 37.2721C22.9797 37.2721 22.3932 37.1464 21.8521 36.9034C21.3109 36.6603 20.8274 36.3054 20.4334 35.862L20.4324 35.858Z" stroke="url(#paint3_linear_740_6134)" stroke-width="0.7" stroke-miterlimit="10"/>
<g id="Vector_5">
<path id="Trac&#195;&#169; 6" d="M28.4504 10.368C28.4448 10.0578 28.3782 9.75175 28.2543 9.46731C28.1305 9.18288 27.9518 8.92562 27.7285 8.71024C27.5053 8.49485 27.2417 8.32556 26.953 8.21201C26.6643 8.09847 26.3561 8.0429 26.0459 8.04848C25.7357 8.05406 25.4297 8.12068 25.1452 8.24454C24.8608 8.3684 24.6035 8.54707 24.3882 8.77034C24.1728 8.99362 24.0035 9.25714 23.8899 9.54584C23.7764 9.83455 23.7208 10.1428 23.7264 10.453" stroke="url(#paint4_linear_740_6134)" stroke-width="0.7" stroke-miterlimit="10"/>
</g>
<g id="Vector_6">
<path id="Trac&#195;&#169; 8" d="M21.0684 10.5001C21.0571 9.87362 20.7974 9.27731 20.3465 8.84232C19.8956 8.40733 19.2903 8.16929 18.6639 8.18056C18.0374 8.19183 17.4411 8.45149 17.0061 8.90242C16.5711 9.35336 16.3331 9.95862 16.3444 10.5851" stroke="url(#paint5_linear_740_6134)" stroke-width="0.7" stroke-miterlimit="10"/>
</g>
<path id="Union 9" d="M20.4324 35.857C12.2234 26.632 15.1234 17.93 15.1234 17.93L18.4614 16.444C18.6614 16.354 18.8654 16.2697 19.0734 16.191C18.7195 15.5612 18.5303 14.8523 18.5234 14.13L25.4624 13.99C25.4713 14.4925 25.3939 14.9927 25.2334 15.469C26.4243 15.6278 27.5864 15.9561 28.6844 16.444L32.0234 17.93C32.0234 17.93 34.9164 26.63 26.7084 35.857C26.3143 36.3004 25.8308 36.6553 25.2897 36.8984C24.7486 37.1414 24.1621 37.2671 23.5689 37.2671C22.9757 37.2671 22.3892 37.1414 21.8481 36.8984C21.3069 36.6553 20.8234 36.3004 20.4294 35.857H20.4324Z" stroke="url(#paint6_linear_740_6134)" stroke-width="0.7" stroke-miterlimit="10"/>
<path id="Union 11" d="M20.4334 35.8579C18.2467 33.471 16.5843 30.6525 15.5534 27.5839C15.2902 28.3723 14.9868 29.1467 14.6444 29.9039C14.4343 30.3828 14.1224 30.8101 13.7304 31.1562C13.3384 31.5022 12.8757 31.7587 12.3745 31.9079C11.8734 32.057 11.3457 32.0952 10.8283 32.0197C10.3109 31.9443 9.8161 31.757 9.37838 31.4709C0.144382 25.5179 0.350382 17.2509 0.350382 17.2509L2.77538 15.1289C3.93535 14.1093 5.3027 13.3533 6.78311 12.9133C8.26352 12.4732 9.82177 12.3595 11.3504 12.5799L14.5314 13.0349C15.3505 14.3911 15.9259 15.8803 16.2314 17.4349L18.4624 16.4429C20.0715 15.7274 21.8129 15.3576 23.5739 15.3576C25.3349 15.3576 27.0763 15.7274 28.6854 16.4429L32.0284 17.9289C32.0284 17.9289 34.9214 26.6289 26.7134 35.8559C26.3193 36.2992 25.8359 36.654 25.2949 36.8969C24.7538 37.1399 24.1675 37.2655 23.5744 37.2655C22.9813 37.2655 22.3949 37.1399 21.8539 36.8969C21.3129 36.654 20.8294 36.2992 20.4354 35.8559L20.4334 35.8579Z" stroke="url(#paint7_linear_740_6134)" stroke-width="0.7" stroke-miterlimit="10"/>
<g id="Vector_9">
<path id="Trac&#195;&#169; 10" d="M14.7274 20.022C14.6527 19.738 14.5216 19.4718 14.342 19.2394C14.1624 19.007 13.9379 18.813 13.6819 18.6691C13.4259 18.5251 13.1435 18.434 12.8516 18.4013C12.5597 18.3686 12.2642 18.3949 11.9827 18.4786C11.7011 18.5624 11.4393 18.7018 11.2127 18.8887C10.9861 19.0756 10.7994 19.3062 10.6636 19.5666C10.5279 19.8271 10.4459 20.1122 10.4225 20.405C10.3991 20.6978 10.4347 20.9923 10.5274 21.271" stroke="url(#paint8_linear_740_6134)" stroke-width="0.7" stroke-miterlimit="10"/>
</g>
<g id="Vector_10">
<path id="Trac&#195;&#169; 12" d="M8.16237 21.974C8.0852 21.6914 7.953 21.4268 7.77336 21.1954C7.59372 20.9639 7.37017 20.7703 7.11552 20.6254C6.86088 20.4806 6.58014 20.3874 6.28942 20.3513C5.99871 20.3152 5.70372 20.3368 5.42137 20.415C4.85683 20.5953 4.38664 20.9918 4.11361 21.5178C3.84058 22.0438 3.78692 22.6565 3.96437 23.222" stroke="url(#paint9_linear_740_6134)" stroke-width="0.7" stroke-miterlimit="10"/>
</g>
<path id="Vector_11" d="M7.1944 26.444C7.30583 26.8529 7.49689 27.2357 7.75661 27.5705C8.01634 27.9053 8.33962 28.1856 8.70791 28.3952C9.07619 28.6048 9.48224 28.7396 9.90276 28.7919C10.3233 28.8442 10.75 28.813 11.1584 28.7C11.975 28.4393 12.6551 27.8658 13.05 27.1049C13.4448 26.3441 13.5223 25.4578 13.2654 24.64L7.1944 26.444Z" stroke="url(#paint10_linear_740_6134)" stroke-width="0.7" stroke-miterlimit="10"/>
<path id="Vector_12" d="M20.4324 35.858C12.2234 26.633 15.1184 17.9309 15.1184 17.9309L18.4604 16.4449C20.0694 15.7293 21.8108 15.3595 23.5719 15.3595C25.3329 15.3595 27.0743 15.7293 28.6834 16.4449L32.0264 17.9309C32.0264 17.9309 34.9194 26.631 26.7114 35.858C26.3173 36.3014 25.8338 36.6563 25.2927 36.8993C24.7516 37.1424 24.1651 37.2681 23.5719 37.2681C22.9787 37.2681 22.3922 37.1424 21.8511 36.8993C21.3099 36.6563 20.8264 36.3014 20.4324 35.858V35.858Z" stroke="url(#paint11_linear_740_6134)" stroke-width="0.7" stroke-miterlimit="10"/>
<g id="Vector_13">
<path id="Trac&#195;&#169; 14" d="M17.1504 25.4C17.1504 24.736 17.4142 24.0992 17.8836 23.6297C18.3531 23.1602 18.9899 22.8965 19.6539 22.8965C20.3179 22.8965 20.9546 23.1602 21.4241 23.6297C21.8936 24.0992 22.1574 24.736 22.1574 25.4" stroke="url(#paint12_linear_740_6134)" stroke-width="0.7" stroke-miterlimit="10"/>
</g>
<g id="Vector_14">
<path id="Trac&#195;&#169; 16" d="M24.9834 25.4C24.9834 24.736 25.2471 24.0992 25.7166 23.6297C26.1861 23.1602 26.8229 22.8965 27.4869 22.8965C28.1508 22.8965 28.7876 23.1602 29.2571 23.6297C29.7266 24.0992 29.9904 24.736 29.9904 25.4" stroke="url(#paint13_linear_740_6134)" stroke-width="0.7" stroke-miterlimit="10"/>
</g>
<path id="Vector_15" d="M27.4874 29.837C27.4954 30.3176 27.4076 30.7948 27.2293 31.2411C27.0509 31.6874 26.7855 32.0936 26.4485 32.4363C26.1115 32.7789 25.7097 33.051 25.2665 33.2368C24.8232 33.4225 24.3475 33.5182 23.8669 33.5182C23.3863 33.5182 22.9105 33.4225 22.4673 33.2368C22.0241 33.051 21.6222 32.7789 21.2853 32.4363C20.9483 32.0936 20.6829 31.6874 20.5045 31.2411C20.3261 30.7948 20.2384 30.3176 20.2464 29.837H27.4874Z" stroke="url(#paint14_linear_740_6134)" stroke-width="0.7" stroke-miterlimit="10"/>
<path id="Vector_4" d="M15.0434 29.3879C15.5035 29.3996 15.9604 29.4668 16.4044 29.5879" stroke="url(#paint15_linear_740_6134)" stroke-width="0.7" stroke-miterlimit="10"/>
<path id="Vector_2_2" d="M27.0844 35.3C29.0073 35.6548 30.8129 36.4793 32.3404 37.7001C33.5214 38.6211 36.0404 40.96 37.2074 46" stroke="url(#paint16_linear_740_6134)" stroke-width="0.7" stroke-miterlimit="10"/>
</g>
<defs>
<linearGradient id="paint0_linear_740_6134" x1="5.65487" y1="31.282" x2="5.65487" y2="41.094" gradientUnits="userSpaceOnUse">
<stop stop-color="#4669E3"/>
<stop offset="1" stop-color="#20BDFF"/>
</linearGradient>
<linearGradient id="paint1_linear_740_6134" x1="12.8469" y1="35.308" x2="12.8469" y2="42.588" gradientUnits="userSpaceOnUse">
<stop stop-color="#4669E3"/>
<stop offset="1" stop-color="#20BDFF"/>
</linearGradient>
<linearGradient id="paint2_linear_740_6134" x1="34.9169" y1="23.52" x2="34.9169" y2="31.82" gradientUnits="userSpaceOnUse">
<stop stop-color="#4669E3"/>
<stop offset="1" stop-color="#20BDFF"/>
</linearGradient>
<linearGradient id="paint3_linear_740_6134" x1="23.2066" y1="1" x2="23.2066" y2="37.2721" gradientUnits="userSpaceOnUse">
<stop stop-color="#4669E3"/>
<stop offset="1" stop-color="#20BDFF"/>
</linearGradient>
<linearGradient id="paint4_linear_740_6134" x1="26.0882" y1="8.0481" x2="26.0882" y2="10.453" gradientUnits="userSpaceOnUse">
<stop stop-color="#4669E3"/>
<stop offset="1" stop-color="#20BDFF"/>
</linearGradient>
<linearGradient id="paint5_linear_740_6134" x1="18.7062" y1="8.18018" x2="18.7062" y2="10.5851" gradientUnits="userSpaceOnUse">
<stop stop-color="#4669E3"/>
<stop offset="1" stop-color="#20BDFF"/>
</linearGradient>
<linearGradient id="paint6_linear_740_6134" x1="23.5721" y1="13.99" x2="23.5721" y2="37.2671" gradientUnits="userSpaceOnUse">
<stop stop-color="#4669E3"/>
<stop offset="1" stop-color="#20BDFF"/>
</linearGradient>
<linearGradient id="paint7_linear_740_6134" x1="16.4365" y1="12.4706" x2="16.4365" y2="37.2655" gradientUnits="userSpaceOnUse">
<stop stop-color="#4669E3"/>
<stop offset="1" stop-color="#20BDFF"/>
</linearGradient>
<linearGradient id="paint8_linear_740_6134" x1="12.5714" y1="18.3877" x2="12.5714" y2="21.271" gradientUnits="userSpaceOnUse">
<stop stop-color="#4669E3"/>
<stop offset="1" stop-color="#20BDFF"/>
</linearGradient>
<linearGradient id="paint9_linear_740_6134" x1="6.01194" y1="20.3344" x2="6.01194" y2="23.222" gradientUnits="userSpaceOnUse">
<stop stop-color="#4669E3"/>
<stop offset="1" stop-color="#20BDFF"/>
</linearGradient>
<linearGradient id="paint10_linear_740_6134" x1="10.3044" y1="24.64" x2="10.3044" y2="28.8165" gradientUnits="userSpaceOnUse">
<stop stop-color="#4669E3"/>
<stop offset="1" stop-color="#20BDFF"/>
</linearGradient>
<linearGradient id="paint11_linear_740_6134" x1="23.572" y1="15.3595" x2="23.572" y2="37.2681" gradientUnits="userSpaceOnUse">
<stop stop-color="#4669E3"/>
<stop offset="1" stop-color="#20BDFF"/>
</linearGradient>
<linearGradient id="paint12_linear_740_6134" x1="19.6539" y1="22.8965" x2="19.6539" y2="25.4" gradientUnits="userSpaceOnUse">
<stop stop-color="#4669E3"/>
<stop offset="1" stop-color="#20BDFF"/>
</linearGradient>
<linearGradient id="paint13_linear_740_6134" x1="27.4869" y1="22.8965" x2="27.4869" y2="25.4" gradientUnits="userSpaceOnUse">
<stop stop-color="#4669E3"/>
<stop offset="1" stop-color="#20BDFF"/>
</linearGradient>
<linearGradient id="paint14_linear_740_6134" x1="23.8669" y1="29.837" x2="23.8669" y2="33.5182" gradientUnits="userSpaceOnUse">
<stop stop-color="#4669E3"/>
<stop offset="1" stop-color="#20BDFF"/>
</linearGradient>
<linearGradient id="paint15_linear_740_6134" x1="15.7239" y1="29.3879" x2="15.7239" y2="29.5879" gradientUnits="userSpaceOnUse">
<stop stop-color="#4669E3"/>
<stop offset="1" stop-color="#20BDFF"/>
</linearGradient>
<linearGradient id="paint16_linear_740_6134" x1="32.1459" y1="35.3" x2="32.1459" y2="46" gradientUnits="userSpaceOnUse">
<stop stop-color="#4669E3"/>
<stop offset="1" stop-color="#20BDFF"/>
</linearGradient>
</defs>
</svg>
