<svg width="30" height="30" viewBox="0 0 30 30" fill="none" xmlns="http://www.w3.org/2000/svg">
<g id="heart-gradient">
<path id="Vector" d="M0.000599569 18.1855C0.0600828 17.9493 0.107043 17.7093 0.181397 17.4779C0.805971 15.5426 2.05512 14.2636 4.07911 13.9173C5.54741 13.6662 6.89752 14.0487 8.02379 15.0554C8.48166 15.4646 8.86752 15.9558 9.32695 16.4532C9.63767 16.1281 9.87638 15.8731 10.1206 15.6236C10.7068 15.0239 11.3376 14.4934 12.1383 14.1944C14.1795 13.4325 16.5549 14.1794 17.801 15.988C19.0783 17.8423 18.9593 20.3388 17.5129 22.0073C17.3908 22.1482 17.2648 22.286 17.1341 22.4174C14.7532 24.8187 12.3708 27.2192 9.9883 29.6196C9.48818 30.1241 9.23068 30.1257 8.73916 29.6307C6.34339 27.216 3.95076 24.7982 1.54951 22.3899C0.759011 21.5965 0.209574 20.6835 0.0420813 19.5581C0.0381679 19.5313 0.0146877 19.5085 -0.000183105 19.4833C-0.000183105 19.0504 -0.000183105 18.6175 -0.000183105 18.1847L0.000599569 18.1855ZM9.37156 28.4721C9.41304 28.4399 9.44513 28.4194 9.47174 28.3934C11.7736 26.0811 14.0817 23.7743 16.3741 21.4517C17.3024 20.5112 17.6953 19.3684 17.419 18.0532C17.1247 16.657 16.2747 15.7126 14.9215 15.3072C13.5706 14.9019 12.3543 15.2262 11.329 16.21C10.8626 16.6578 10.4164 17.1269 9.96013 17.5849C9.51714 18.0304 9.22833 18.028 8.79473 17.5873C8.32121 17.1048 7.85787 16.6106 7.36322 16.1509C6.32304 15.1837 5.10207 14.8885 3.75587 15.3253C1.16365 16.1675 0.409938 19.4306 2.34784 21.399C4.61603 23.7034 6.89909 25.9937 9.17667 28.2895C9.23694 28.3509 9.30268 28.4068 9.37156 28.4714V28.4721Z" fill="url(#paint0_linear_609_5158)"/>
<path id="Vector_2" d="M15.4687 0C15.6456 0.0495838 15.8248 0.0936583 15.9993 0.150326C18.2213 0.875981 18.8279 3.67865 17.1452 5.32357C15.7857 6.65289 14.4708 8.02707 13.1347 9.38079C12.6229 9.89945 12.3818 9.90024 11.8629 9.37843C10.5355 8.04439 9.20494 6.71428 7.89005 5.36843C7.47836 4.94736 7.12459 4.47356 6.96962 3.88328C6.52193 2.17697 7.58245 0.44468 9.30669 0.0629636C9.3693 0.0495838 9.43035 0.0212502 9.49218 0C9.7849 0 10.0784 0 10.3711 0C10.7554 0.157409 11.164 0.273105 11.517 0.483246C11.8801 0.698896 12.1901 1.00584 12.5376 1.28367C13.0768 0.617043 13.7977 0.199909 14.6477 0H15.4679H15.4687ZM12.4311 8.2443C12.5219 8.1955 12.5415 8.1892 12.5548 8.17661C13.8337 6.89137 15.1243 5.61635 16.386 4.31379C17.0802 3.59758 17.0364 2.48234 16.3406 1.78817C15.6557 1.10501 14.5733 1.08376 13.8517 1.75117C13.5644 2.0172 13.2999 2.3084 13.0213 2.58387C12.6604 2.94197 12.3372 2.9404 11.9787 2.58387C11.6868 2.29345 11.4074 1.98965 11.1021 1.71418C10.4134 1.09242 9.38182 1.11367 8.70481 1.74881C8.02467 2.38711 7.93387 3.41027 8.50053 4.1493C8.64924 4.3437 8.81125 4.52944 8.98344 4.70338C9.98292 5.71395 10.9894 6.71743 11.9889 7.72799C12.1533 7.89406 12.2949 8.08295 12.4311 8.24272V8.2443Z" fill="url(#paint1_linear_609_5158)"/>
<path id="Vector_3" d="M23.1257 8.323C23.3526 8.08531 23.5444 7.87753 23.7447 7.67841C24.8679 6.56317 26.4763 6.2696 27.8773 6.92127C29.2563 7.56271 30.0993 8.99435 29.9897 10.5566C29.9287 11.4287 29.6007 12.2023 28.9879 12.8265C27.284 14.5595 25.5692 16.2808 23.8567 18.006C23.7393 18.1241 23.6156 18.2358 23.4857 18.3405C23.2579 18.5239 23.0176 18.5286 22.7915 18.3405C22.6107 18.191 22.4369 18.0312 22.2718 17.8643C20.6219 16.2021 18.9626 14.5485 17.3292 12.8705C16.3125 11.8261 16.0088 10.5574 16.4369 9.16907C16.8705 7.7642 17.859 6.90553 19.2976 6.64817C20.4935 6.4333 21.5595 6.77016 22.451 7.61466C22.6772 7.82873 22.8815 8.06564 23.1257 8.323V8.323ZM23.1898 16.8719C23.1765 16.8837 23.2219 16.8467 23.2626 16.805C24.8405 15.2104 26.4184 13.6151 27.9955 12.019C28.0847 11.9285 28.1669 11.8301 28.2412 11.727C28.9699 10.7306 28.84 9.3619 27.9383 8.5111C27.0343 7.65795 25.7304 7.63591 24.7794 8.47175C24.4711 8.74249 24.187 9.04236 23.8989 9.33593C23.2344 10.0144 23.0638 10.0104 22.3852 9.32255C22.0416 8.97467 21.709 8.60555 21.3216 8.31434C20.326 7.56586 18.9657 7.72406 18.1447 8.64411C17.3127 9.57676 17.2752 10.9942 18.1525 11.8883C19.7985 13.5671 21.4922 15.1978 23.189 16.8719H23.1898Z" fill="url(#paint2_linear_609_5158)"/>
</g>
<defs>
<linearGradient id="paint0_linear_609_5158" x1="9.34193" y1="13.8426" x2="9.34193" y2="30" gradientUnits="userSpaceOnUse">
<stop stop-color="#4669E3"/>
<stop offset="1" stop-color="#20BDFF"/>
</linearGradient>
<linearGradient id="paint1_linear_609_5158" x1="12.4882" y1="0" x2="12.4882" y2="9.76979" gradientUnits="userSpaceOnUse">
<stop stop-color="#4669E3"/>
<stop offset="1" stop-color="#20BDFF"/>
</linearGradient>
<linearGradient id="paint2_linear_609_5158" x1="23.1239" y1="6.57907" x2="23.1239" y2="18.4798" gradientUnits="userSpaceOnUse">
<stop stop-color="#4669E3"/>
<stop offset="1" stop-color="#20BDFF"/>
</linearGradient>
</defs>
</svg>
