<svg width="31" height="32" viewBox="0 0 31 32" fill="none" xmlns="http://www.w3.org/2000/svg">
<g id="home-gradient">
<path id="Vector 376" d="M1.67298 12.2308L14.1373 1.17686C14.8945 0.505309 16.0341 0.505308 16.7913 1.17686L29.2556 12.2308C29.6836 12.6103 29.9286 13.155 29.9286 13.7271V29C29.9286 30.1046 29.0331 31 27.9286 31H3C1.89543 31 1 30.1046 1 29V13.7271C1 13.155 1.24497 12.6103 1.67298 12.2308Z" stroke="url(#paint0_linear_609_5037)"/>
<path id="Vector" d="M20.3572 20.3103C20.9095 20.3103 21.3646 20.7603 21.2856 21.3069C21.2135 21.8062 21.0872 22.2956 20.9086 22.7648C20.6125 23.5429 20.1784 24.25 19.6312 24.8455C19.084 25.4411 18.4344 25.9136 17.7194 26.2359C17.0045 26.5582 16.2382 26.7241 15.4643 26.7241C14.6905 26.7241 13.9242 26.5582 13.2092 26.2359C12.4943 25.9136 11.8447 25.4411 11.2975 24.8455C10.7502 24.25 10.3162 23.5429 10.02 22.7648C9.8415 22.2956 9.7152 21.8062 9.64304 21.3069C9.56405 20.7603 10.0192 20.3103 10.5715 20.3103H20.3572Z" stroke="url(#paint1_linear_609_5037)" stroke-miterlimit="10"/>
</g>
<defs>
<linearGradient id="paint0_linear_609_5037" x1="15.4643" y1="0" x2="15.4643" y2="31" gradientUnits="userSpaceOnUse">
<stop stop-color="#4669E3"/>
<stop offset="1" stop-color="#20BDFF"/>
</linearGradient>
<linearGradient id="paint1_linear_609_5037" x1="15.4643" y1="20.3103" x2="15.4643" y2="26.7241" gradientUnits="userSpaceOnUse">
<stop stop-color="#4669E3"/>
<stop offset="1" stop-color="#20BDFF"/>
</linearGradient>
</defs>
</svg>
