<svg width="40" height="36" viewBox="0 0 40 36" fill="none" xmlns="http://www.w3.org/2000/svg">
<g id="modules-gradient">
<path id="Union 19" d="M14.863 24.653V14.3C14.8551 14.2968 14.8477 14.2924 14.841 14.287L1.46502 2.206C1.45523 2.19795 1.4484 2.18687 1.44561 2.1745C1.44282 2.16214 1.44424 2.14919 1.44963 2.13772C1.45502 2.12625 1.46408 2.1169 1.47538 2.11116C1.48668 2.10541 1.49957 2.1036 1.51202 2.106H4.49602V1.867C4.49602 1.388 5.76202 1 7.32402 1C8.88602 1 10.152 1.388 10.152 1.867V2.1L18.846 2.087V1.867C18.846 1.388 20.111 1 21.674 1C23.237 1 24.502 1.388 24.502 1.867V2.08H25.002C25.0112 2.08042 25.0203 2.0821 25.029 2.085V2.079C25.029 2.068 25.05 2.064 25.06 2.073L29.191 5.6C29.784 5.759 30.158 5.992 30.158 6.252C30.1573 6.30175 30.1443 6.35055 30.12 6.394C30.1443 6.35055 30.1573 6.30175 30.158 6.252V6.427L34.231 9.91C35.169 10.051 35.815 10.346 35.815 10.688C35.8055 10.7642 35.7773 10.837 35.733 10.8998C35.6887 10.9625 35.6297 11.0135 35.561 11.048C35.6297 11.0135 35.6887 10.9625 35.733 10.8998C35.7773 10.837 35.8055 10.7642 35.815 10.688V11.265L39.31 14.253C39.3252 14.2651 39.3369 14.2809 39.344 14.299C39.3459 14.299 39.3477 14.2997 39.349 14.3011C39.3503 14.3024 39.351 14.3041 39.351 14.306V24.653H14.863ZM17.091 14.3H27.246L27.222 14.279L17.091 14.3Z" stroke="url(#paint0_linear_740_6086)" stroke-width="0.8" stroke-miterlimit="10"/>
<path id="Vector_3" d="M14.86 24.6479H39.343C39.3448 24.6479 39.3466 24.6487 39.3479 24.65C39.3492 24.6513 39.35 24.6531 39.35 24.6549V34.9999H14.862V24.6479H14.86Z" stroke="url(#paint1_linear_740_6086)" stroke-width="0.8" stroke-miterlimit="10"/>
<g id="Vector_4">
<path id="Trac&#195;&#169; 17" d="M14.86 34.956H39.3C39.3124 34.9554 39.3245 34.9597 39.3339 34.9679C39.3432 34.9761 39.349 34.9876 39.35 35" fill="#F2F3F7"/>
<path id="Trac&#195;&#169; 18" d="M14.86 34.956H39.3C39.3124 34.9554 39.3245 34.9597 39.3339 34.9679C39.3432 34.9761 39.349 34.9876 39.35 35" stroke="url(#paint2_linear_740_6086)" stroke-width="0.8" stroke-miterlimit="10"/>
</g>
<path id="Union 18" d="M14.825 24.62L1.35602 12.422V2.068H4.49602V1.868C4.49602 1.388 5.76202 1 7.32402 1C8.88602 1 10.156 1.388 10.156 1.867V2.067H18.849V1.867C18.845 1.388 20.111 1 21.674 1C23.237 1 24.502 1.388 24.502 1.867V2.067H25.029V2.083C25.0359 2.08556 25.0424 2.08928 25.048 2.094L29.148 5.594C29.765 5.753 30.156 5.994 30.156 6.257C30.1552 6.31268 30.139 6.36704 30.109 6.414C30.139 6.36704 30.1552 6.31268 30.156 6.257V6.457L34.211 9.915C35.158 10.055 35.811 10.352 35.811 10.695C35.8011 10.7724 35.7721 10.8462 35.7268 10.9097C35.6814 10.9732 35.621 11.0245 35.551 11.059C35.621 11.0245 35.6814 10.9732 35.7268 10.9097C35.7721 10.8462 35.8011 10.7724 35.811 10.695V11.281L39.189 14.161C39.1985 14.169 39.2051 14.1798 39.2079 14.1919C39.2106 14.204 39.2094 14.2167 39.2043 14.228C39.1992 14.2393 39.1906 14.2486 39.1797 14.2546C39.1688 14.2606 39.1563 14.2628 39.144 14.261L14.884 14.311C14.8737 14.3109 14.8635 14.3089 14.854 14.305C14.8548 14.3069 14.8548 14.3091 14.854 14.311V24.612C14.854 24.62 14.844 24.625 14.834 24.625C14.8307 24.6239 14.8277 24.6222 14.825 24.62V24.62Z" stroke="url(#paint3_linear_740_6086)" stroke-width="0.8" stroke-miterlimit="10"/>
<path id="Vector_7" d="M14.824 34.951L1.36001 22.752C1.359 22.7494 1.359 22.7465 1.36001 22.744V12.439C1.36001 12.426 1.38401 12.421 1.39501 12.431L9.33401 19.624L14.859 24.63C14.86 24.6325 14.86 24.6354 14.859 24.638V34.943C14.859 34.956 14.835 34.961 14.824 34.951Z" stroke="url(#paint4_linear_740_6086)" stroke-width="0.8" stroke-miterlimit="10"/>
<g id="Vector_8">
<path id="Trac&#195;&#169; 19" d="M1.35001 22.7891C1.35001 22.7761 1.37401 22.7711 1.38501 22.7811L9.32401 29.9741L14.85 34.9791C14.851 34.9816 14.851 34.9845 14.85 34.9871" fill="#F2F3F7"/>
<path id="Trac&#195;&#169; 20" d="M1.35001 22.7891C1.35001 22.7761 1.37401 22.7711 1.38501 22.7811L9.32401 29.9741L14.85 34.9791C14.851 34.9816 14.851 34.9845 14.85 34.9871" stroke="url(#paint5_linear_740_6086)" stroke-width="0.8" stroke-miterlimit="10"/>
</g>
<g id="Group">
<path id="Vector_10" d="M35.814 10.691C35.814 11.008 35.257 11.286 34.427 11.437C33.4731 11.5981 32.4989 11.5981 31.545 11.437C30.715 11.286 30.158 11.009 30.158 10.691C30.158 10.213 31.424 9.82495 32.986 9.82495C34.548 9.82495 35.815 10.213 35.815 10.691H35.814Z" stroke="url(#paint6_linear_740_6086)" stroke-width="0.8" stroke-miterlimit="10"/>
<path id="Vector_11" d="M35.814 10.691V12.182C35.814 12.66 34.548 13.048 32.985 13.048C31.422 13.048 30.157 12.66 30.157 12.182V10.691C30.157 11.008 30.714 11.291 31.544 11.437C32.4979 11.5982 33.4721 11.5982 34.426 11.437C35.257 11.286 35.813 11.009 35.813 10.691H35.814Z" stroke="url(#paint7_linear_740_6086)" stroke-width="0.8" stroke-miterlimit="10"/>
<path id="Vector_12" d="M21.464 10.571C21.464 10.888 20.907 11.165 20.077 11.317C19.1231 11.4781 18.1489 11.4781 17.195 11.317C16.365 11.166 15.808 10.889 15.808 10.571C15.808 10.093 17.074 9.70496 18.636 9.70496C20.198 9.70496 21.464 10.093 21.464 10.571Z" stroke="url(#paint8_linear_740_6086)" stroke-width="0.8" stroke-miterlimit="10"/>
<path id="Vector_13" d="M21.464 10.571V12.062C21.464 12.54 20.198 12.928 18.635 12.928C17.072 12.928 15.807 12.54 15.807 12.062V10.571C15.807 10.888 16.364 11.171 17.194 11.317C18.1479 11.4781 19.1221 11.4781 20.076 11.317C20.906 11.166 21.463 10.889 21.463 10.571H21.464Z" stroke="url(#paint9_linear_740_6086)" stroke-width="0.8" stroke-miterlimit="10"/>
<path id="Vector_14" d="M15.808 6.37699C15.808 6.69399 15.251 6.97199 14.42 7.12299C13.9445 7.20571 13.4627 7.2462 12.98 7.24399C12.4971 7.24617 12.0149 7.20568 11.539 7.12299C10.708 6.97199 10.15 6.69399 10.15 6.37699C10.15 5.89799 11.416 5.51099 12.979 5.51099C14.542 5.51099 15.808 5.89999 15.808 6.37699Z" stroke="url(#paint10_linear_740_6086)" stroke-width="0.8" stroke-miterlimit="10"/>
<path id="Vector_15" d="M15.808 6.37695V7.86795C15.808 8.34695 14.542 8.73395 12.98 8.73395C11.418 8.73395 10.15 8.34695 10.15 7.86795V6.37695C10.15 6.69395 10.707 6.97195 11.538 7.12295C12.0139 7.2057 12.4961 7.24619 12.979 7.24395C13.4617 7.24611 13.9435 7.20562 14.419 7.12295C15.25 6.97195 15.808 6.69395 15.808 6.37695Z" stroke="url(#paint11_linear_740_6086)" stroke-width="0.8" stroke-miterlimit="10"/>
<path id="Vector_16" d="M10.15 1.866C10.15 2.183 9.59402 2.46 8.76302 2.612C8.28722 2.69498 7.80499 2.73547 7.32202 2.733C6.83905 2.73546 6.35682 2.69497 5.88102 2.612C5.05102 2.461 4.49402 2.184 4.49402 1.866C4.49502 1.388 5.76202 1 7.32302 1C8.88402 1 10.15 1.388 10.15 1.866Z" stroke="url(#paint12_linear_740_6086)" stroke-width="0.8" stroke-miterlimit="10"/>
<path id="Vector_17" d="M10.15 1.86597V3.35797C10.15 3.83597 8.88402 4.22397 7.32202 4.22397C5.76002 4.22397 4.49402 3.83597 4.49402 3.35797V1.86597C4.49402 2.18297 5.05102 2.45997 5.88102 2.61197C6.35681 2.69496 6.83905 2.73545 7.32202 2.73297C7.80499 2.73536 8.28721 2.69487 8.76302 2.61197C9.59502 2.46097 10.15 2.18397 10.15 1.86597Z" stroke="url(#paint13_linear_740_6086)" stroke-width="0.8" stroke-miterlimit="10"/>
<path id="Vector_18" d="M30.157 6.25594C30.157 6.57294 29.6 6.85094 28.769 7.00194C28.2935 7.08466 27.8117 7.12515 27.329 7.12294C26.846 7.12451 26.3638 7.08335 25.888 6.99994C25.057 6.84894 24.5 6.57194 24.5 6.25394C24.5 5.77594 25.766 5.38794 27.329 5.38794C28.892 5.38794 30.157 5.77794 30.157 6.25594Z" stroke="url(#paint14_linear_740_6086)" stroke-width="0.8" stroke-miterlimit="10"/>
<path id="Vector_19" d="M30.157 6.25598V7.74698C30.157 8.22598 28.891 8.61298 27.329 8.61298C25.767 8.61298 24.5 8.22498 24.5 7.74698V6.25598C24.5 6.57298 25.057 6.85598 25.888 7.00198C26.3639 7.08472 26.8461 7.12521 27.329 7.12298C27.8117 7.12453 28.2936 7.08337 28.769 6.99998C29.6 6.85098 30.157 6.57298 30.157 6.25598Z" stroke="url(#paint15_linear_740_6086)" stroke-width="0.8" stroke-miterlimit="10"/>
<path id="Vector_20" d="M24.5 1.866C24.5 2.183 23.943 2.46 23.113 2.612C22.6372 2.69499 22.155 2.73548 21.672 2.733C21.1891 2.73544 20.7068 2.69495 20.231 2.612C19.401 2.461 18.844 2.184 18.844 1.866C18.844 1.387 20.11 1 21.672 1C23.234 1 24.5 1.388 24.5 1.866Z" stroke="url(#paint16_linear_740_6086)" stroke-width="0.8" stroke-miterlimit="10"/>
<path id="Vector_21" d="M24.5 1.86597V3.35797C24.5 3.83597 23.234 4.22397 21.672 4.22397C20.11 4.22397 18.844 3.83597 18.844 3.35797V1.86597C18.844 2.18297 19.401 2.45997 20.231 2.61197C20.7068 2.69496 21.1891 2.73545 21.672 2.73297C22.155 2.7354 22.6372 2.69491 23.113 2.61197C23.943 2.46097 24.5 2.18397 24.5 1.86597Z" stroke="url(#paint17_linear_740_6086)" stroke-width="0.8" stroke-miterlimit="10"/>
</g>
</g>
<defs>
<linearGradient id="paint0_linear_740_6086" x1="20.3976" y1="1" x2="20.3976" y2="24.653" gradientUnits="userSpaceOnUse">
<stop stop-color="#4669E3"/>
<stop offset="1" stop-color="#20BDFF"/>
</linearGradient>
<linearGradient id="paint1_linear_740_6086" x1="27.105" y1="24.6479" x2="27.105" y2="34.9999" gradientUnits="userSpaceOnUse">
<stop stop-color="#4669E3"/>
<stop offset="1" stop-color="#20BDFF"/>
</linearGradient>
<linearGradient id="paint2_linear_740_6086" x1="27.105" y1="34.9559" x2="27.105" y2="35" gradientUnits="userSpaceOnUse">
<stop stop-color="#4669E3"/>
<stop offset="1" stop-color="#20BDFF"/>
</linearGradient>
<linearGradient id="paint3_linear_740_6086" x1="20.2827" y1="1" x2="20.2827" y2="24.625" gradientUnits="userSpaceOnUse">
<stop stop-color="#4669E3"/>
<stop offset="1" stop-color="#20BDFF"/>
</linearGradient>
<linearGradient id="paint4_linear_740_6086" x1="8.10951" y1="12.4257" x2="8.10951" y2="34.9563" gradientUnits="userSpaceOnUse">
<stop stop-color="#4669E3"/>
<stop offset="1" stop-color="#20BDFF"/>
</linearGradient>
<linearGradient id="paint5_linear_740_6086" x1="8.10038" y1="22.7758" x2="8.10038" y2="34.9871" gradientUnits="userSpaceOnUse">
<stop stop-color="#4669E3"/>
<stop offset="1" stop-color="#20BDFF"/>
</linearGradient>
<linearGradient id="paint6_linear_740_6086" x1="32.9865" y1="9.82495" x2="32.9865" y2="11.5578" gradientUnits="userSpaceOnUse">
<stop stop-color="#4669E3"/>
<stop offset="1" stop-color="#20BDFF"/>
</linearGradient>
<linearGradient id="paint7_linear_740_6086" x1="32.9855" y1="10.691" x2="32.9855" y2="13.048" gradientUnits="userSpaceOnUse">
<stop stop-color="#4669E3"/>
<stop offset="1" stop-color="#20BDFF"/>
</linearGradient>
<linearGradient id="paint8_linear_740_6086" x1="18.636" y1="9.70496" x2="18.636" y2="11.4378" gradientUnits="userSpaceOnUse">
<stop stop-color="#4669E3"/>
<stop offset="1" stop-color="#20BDFF"/>
</linearGradient>
<linearGradient id="paint9_linear_740_6086" x1="18.6355" y1="10.571" x2="18.6355" y2="12.928" gradientUnits="userSpaceOnUse">
<stop stop-color="#4669E3"/>
<stop offset="1" stop-color="#20BDFF"/>
</linearGradient>
<linearGradient id="paint10_linear_740_6086" x1="12.979" y1="5.51099" x2="12.979" y2="7.24407" gradientUnits="userSpaceOnUse">
<stop stop-color="#4669E3"/>
<stop offset="1" stop-color="#20BDFF"/>
</linearGradient>
<linearGradient id="paint11_linear_740_6086" x1="12.979" y1="6.37695" x2="12.979" y2="8.73395" gradientUnits="userSpaceOnUse">
<stop stop-color="#4669E3"/>
<stop offset="1" stop-color="#20BDFF"/>
</linearGradient>
<linearGradient id="paint12_linear_740_6086" x1="7.32202" y1="1" x2="7.32202" y2="2.73311" gradientUnits="userSpaceOnUse">
<stop stop-color="#4669E3"/>
<stop offset="1" stop-color="#20BDFF"/>
</linearGradient>
<linearGradient id="paint13_linear_740_6086" x1="7.32202" y1="1.86597" x2="7.32202" y2="4.22397" gradientUnits="userSpaceOnUse">
<stop stop-color="#4669E3"/>
<stop offset="1" stop-color="#20BDFF"/>
</linearGradient>
<linearGradient id="paint14_linear_740_6086" x1="27.3285" y1="5.38794" x2="27.3285" y2="7.12303" gradientUnits="userSpaceOnUse">
<stop stop-color="#4669E3"/>
<stop offset="1" stop-color="#20BDFF"/>
</linearGradient>
<linearGradient id="paint15_linear_740_6086" x1="27.3285" y1="6.25598" x2="27.3285" y2="8.61298" gradientUnits="userSpaceOnUse">
<stop stop-color="#4669E3"/>
<stop offset="1" stop-color="#20BDFF"/>
</linearGradient>
<linearGradient id="paint16_linear_740_6086" x1="21.672" y1="1" x2="21.672" y2="2.73311" gradientUnits="userSpaceOnUse">
<stop stop-color="#4669E3"/>
<stop offset="1" stop-color="#20BDFF"/>
</linearGradient>
<linearGradient id="paint17_linear_740_6086" x1="21.672" y1="1.86597" x2="21.672" y2="4.22397" gradientUnits="userSpaceOnUse">
<stop stop-color="#4669E3"/>
<stop offset="1" stop-color="#20BDFF"/>
</linearGradient>
</defs>
</svg>
