<svg width="34" height="34" viewBox="0 0 34 34" fill="none" xmlns="http://www.w3.org/2000/svg">
<g id="params-gradient">
<path id="Union 7" d="M16.2052 31.6338C16.1877 31.3516 16.0873 31.0808 15.9166 30.8553C15.7459 30.6299 15.5125 30.4598 15.2456 30.3664C14.9787 30.273 14.6902 30.2604 14.4162 30.3302C14.1422 30.4 13.8948 30.5491 13.7052 30.7588C13.4783 31.003 13.1739 31.1612 12.8437 31.2064C12.5135 31.2516 12.1777 31.1811 11.8936 31.0069C11.6094 30.8326 11.3944 30.5654 11.2849 30.2506C11.1755 29.9357 11.1784 29.5927 11.2932 29.2798C11.3883 29.0148 11.4041 28.7278 11.3387 28.4539C11.2732 28.18 11.1293 27.9312 10.9246 27.7378C10.7199 27.5445 10.4633 27.415 10.1861 27.3653C9.90897 27.3155 9.62333 27.3477 9.36417 27.4578C9.05671 27.5849 8.71494 27.6026 8.39597 27.5081C8.077 27.4135 7.80015 27.2123 7.61168 26.9381C7.4232 26.664 7.33453 26.3334 7.36046 26.0017C7.38639 25.6701 7.52537 25.3573 7.75417 25.1158C7.94841 24.9107 8.07896 24.6537 8.12996 24.3759C8.18096 24.0981 8.15023 23.8114 8.04148 23.5507C7.93274 23.29 7.75067 23.0665 7.51736 22.9073C7.28406 22.7481 7.00955 22.66 6.72717 22.6538C6.39513 22.6437 6.07645 22.5208 5.82372 22.3052C5.571 22.0896 5.39936 21.7943 5.33713 21.468C5.2749 21.1417 5.3258 20.8039 5.48143 20.5104C5.63707 20.2169 5.88813 19.9853 6.19317 19.8538C6.45392 19.7435 6.67708 19.5599 6.83556 19.3253C6.99405 19.0907 7.08105 18.8151 7.08603 18.5321C7.091 18.249 7.01373 17.9705 6.86359 17.7305C6.71345 17.4905 6.49689 17.2992 6.24017 17.1798C6.06607 17.1011 5.90932 16.9886 5.77899 16.8489C5.64867 16.7092 5.54737 16.545 5.48096 16.3659C5.41455 16.1867 5.38435 15.9962 5.39211 15.8053C5.39987 15.6144 5.44543 15.4269 5.52617 15.2538C5.32734 15.2708 5.14264 15.3635 5.01017 15.5128C4.88439 15.6471 4.71613 15.734 4.53375 15.7588C4.35137 15.7836 4.16603 15.7447 4.00898 15.6487C3.85193 15.5527 3.73278 15.4056 3.6716 15.232C3.61043 15.0584 3.61098 14.869 3.67317 14.6958C3.72858 14.5487 3.73945 14.3886 3.70443 14.2354C3.6694 14.0822 3.59003 13.9427 3.47622 13.8343C3.36241 13.726 3.2192 13.6535 3.06447 13.626C2.90974 13.5985 2.75034 13.6172 2.60617 13.6798C2.4347 13.7595 2.24051 13.776 2.05808 13.7262C1.87564 13.6764 1.71674 13.5635 1.60959 13.4077C1.50243 13.2519 1.45394 13.0632 1.47271 12.875C1.49149 12.6868 1.57633 12.5114 1.71217 12.3798C1.8196 12.2662 1.89177 12.1239 1.91992 11.9701C1.94807 11.8163 1.931 11.6576 1.87076 11.5133C1.81053 11.369 1.70972 11.2453 1.58058 11.1572C1.45143 11.069 1.29948 11.0203 1.14317 11.0168C0.95806 11.0134 0.779736 10.9465 0.638029 10.8274C0.496322 10.7082 0.399829 10.544 0.364692 10.3623C0.329556 10.1805 0.357908 9.99217 0.445005 9.8288C0.532103 9.66543 0.672662 9.53692 0.843166 9.46478C0.984976 9.40314 1.10618 9.3022 1.19246 9.17389C1.27874 9.04557 1.32649 8.89524 1.33006 8.74065C1.33364 8.58607 1.29289 8.43369 1.21264 8.30152C1.13238 8.16935 1.01597 8.06291 0.877166 7.99478C0.710227 7.9162 0.57521 7.78286 0.494559 7.61691C0.413909 7.45096 0.392482 7.26241 0.433843 7.0826C0.475203 6.90278 0.576859 6.74254 0.72191 6.62851C0.866962 6.51448 1.04667 6.45353 1.23117 6.45578C1.38783 6.45913 1.54209 6.41679 1.67509 6.33393C1.8081 6.25107 1.9141 6.13129 1.98017 5.98919C2.04623 5.84709 2.0695 5.68884 2.04712 5.53374C2.02475 5.37864 1.9577 5.23341 1.85417 5.11578C1.72751 4.97862 1.65282 4.80148 1.64302 4.61504C1.63322 4.42861 1.68894 4.24462 1.80052 4.09493C1.91209 3.94525 2.07251 3.83931 2.25398 3.79545C2.43545 3.75159 2.62654 3.77258 2.79417 3.85478C2.93524 3.92188 3.09287 3.94621 3.24761 3.92476C3.40235 3.90332 3.54743 3.83703 3.66493 3.7341C3.78244 3.63116 3.86724 3.49607 3.90886 3.3455C3.95049 3.19492 3.94712 3.03546 3.89917 2.88678C3.84423 2.71133 3.8514 2.52231 3.91947 2.35152C3.98754 2.18074 4.11236 2.03861 4.27293 1.94905C4.4335 1.8595 4.62001 1.82798 4.80109 1.8598C4.98216 1.89162 5.14676 1.98485 5.26717 2.12378C5.36866 2.24128 5.50215 2.32671 5.65136 2.36964C5.80057 2.41258 5.95905 2.41117 6.10747 2.36558C6.25589 2.31999 6.38784 2.2322 6.48722 2.11292C6.5866 1.99363 6.64913 1.848 6.66717 1.69378C6.69133 1.51343 6.77625 1.3467 6.90792 1.22111C7.03959 1.09552 7.21015 1.01856 7.39144 1.00295C7.57274 0.987338 7.75394 1.034 7.90514 1.13523C8.05635 1.23646 8.16853 1.38622 8.22317 1.55978C8.26579 1.70961 8.35155 1.84359 8.46976 1.94504C8.58797 2.04649 8.73341 2.11093 8.88797 2.13033C9.04254 2.14973 9.19939 2.12323 9.33901 2.05415C9.47862 1.98506 9.59483 1.87643 9.67317 1.74178C9.76726 1.58255 9.91363 1.46083 10.0874 1.39736C10.2611 1.33388 10.4514 1.33256 10.626 1.39363C10.8006 1.45469 10.9487 1.57437 11.0449 1.73229C11.1412 1.89021 11.1798 2.07661 11.1542 2.25978C11.1329 2.41405 11.1572 2.57116 11.2239 2.71184C11.2907 2.85253 11.397 2.97067 11.53 3.05179C11.6629 3.1329 11.8166 3.17346 11.9722 3.16848C12.1279 3.16351 12.2787 3.11322 12.4062 3.02378C12.5572 2.91602 12.7411 2.86413 12.9262 2.87699C13.1113 2.88986 13.2862 2.96668 13.4209 3.09431C13.5556 3.22193 13.6418 3.39242 13.6647 3.57658C13.6875 3.76074 13.6456 3.94711 13.5462 4.10378C13.4617 4.23643 13.4183 4.39102 13.4212 4.54823C13.4241 4.70545 13.4733 4.85832 13.5626 4.98774C13.6519 5.11716 13.7773 5.21739 13.9233 5.27591C14.0692 5.33444 14.2292 5.34865 14.3832 5.31678C14.565 5.28194 14.7532 5.31074 14.9163 5.39833C15.0794 5.48593 15.2073 5.62698 15.2786 5.7978C15.35 5.96861 15.3603 6.15877 15.308 6.33632C15.2556 6.51387 15.1438 6.66799 14.9912 6.77278C14.9038 6.83264 14.829 6.90909 14.7712 6.99778C14.977 7.07332 15.1974 7.10098 15.4155 7.07866C15.6337 7.05634 15.8439 6.98464 16.0302 6.86898C16.2165 6.75332 16.374 6.59676 16.4908 6.41115C16.6076 6.22555 16.6805 6.01579 16.7042 5.79778C16.7387 5.46545 16.8879 5.15553 17.1262 4.92132C17.3644 4.68711 17.6769 4.54325 18.0098 4.51448C18.3426 4.48572 18.6751 4.57384 18.9501 4.76371C19.225 4.95357 19.4252 5.2333 19.5162 5.55478C19.5926 5.82607 19.7473 6.06882 19.9609 6.25269C20.1746 6.43656 20.4376 6.55339 20.7173 6.5886C20.9969 6.62381 21.2807 6.57583 21.5333 6.45065C21.7858 6.32548 21.9959 6.12866 22.1372 5.88478C22.3055 5.59575 22.5692 5.37437 22.883 5.2587C23.1968 5.14302 23.5412 5.14027 23.8568 5.25093C24.1724 5.36158 24.4396 5.57872 24.6125 5.86503C24.7854 6.15134 24.8532 6.48893 24.8042 6.81978C24.764 7.099 24.8067 7.38385 24.9268 7.63907C25.047 7.89429 25.2393 8.10867 25.4801 8.25565C25.7209 8.40264 25.9994 8.47579 26.2814 8.46604C26.5633 8.45628 26.8361 8.36406 27.0662 8.20078C27.3395 8.01312 27.669 7.92495 27.9995 7.95099C28.33 7.97704 28.6416 8.11573 28.8822 8.34389C29.1227 8.57205 29.2777 8.87586 29.3212 9.20455C29.3647 9.53324 29.2941 9.8669 29.1212 10.1498C28.9728 10.3898 28.8975 10.6679 28.9045 10.95C28.9115 11.2321 29.0005 11.506 29.1606 11.7384C29.3208 11.9708 29.5451 12.1515 29.8063 12.2584C30.0674 12.3654 30.354 12.394 30.6312 12.3408C30.9596 12.278 31.2996 12.3301 31.5942 12.4884C31.8888 12.6466 32.1199 12.9014 32.2489 13.2099C32.3779 13.5184 32.3968 13.8618 32.3026 14.1827C32.2083 14.5035 32.0065 14.7821 31.7312 14.9718C31.499 15.133 31.3186 15.3581 31.2118 15.6198C31.1049 15.8815 31.0762 16.1685 31.1291 16.4461C31.182 16.7238 31.3143 16.9801 31.5099 17.1842C31.7055 17.3882 31.956 17.5312 32.2312 17.5958C32.5566 17.6719 32.8461 17.8574 33.0512 18.1212C33.2564 18.3851 33.3648 18.7114 33.3583 19.0455C33.3519 19.3797 33.231 19.7015 33.0159 19.9573C32.8007 20.2131 32.5043 20.3872 32.1762 20.4508C31.8994 20.5053 31.6444 20.6387 31.4418 20.8349C31.2391 21.031 31.0976 21.2817 31.0342 21.5565C30.9707 21.8313 30.9882 22.1186 31.0843 22.3837C31.1805 22.6489 31.3513 22.8805 31.5762 23.0508C31.8446 23.2505 32.0361 23.5367 32.1183 23.861C32.2005 24.1854 32.1685 24.5282 32.0277 24.8317C31.8868 25.1353 31.6457 25.381 31.3449 25.5276C31.0441 25.6743 30.702 25.7128 30.3762 25.6368C30.1013 25.5724 29.8137 25.5896 29.5484 25.6862C29.2832 25.7828 29.0518 25.9546 28.8827 26.1806C28.7136 26.4066 28.614 26.677 28.5961 26.9587C28.5783 27.2404 28.6429 27.5212 28.7822 27.7668C28.947 28.0561 29.007 28.3934 28.9521 28.7218C28.8971 29.0502 28.7306 29.3496 28.4806 29.5695C28.2306 29.7895 27.9124 29.9164 27.5797 29.929C27.247 29.9417 26.9201 29.8391 26.6542 29.6388C26.4308 29.4665 26.1617 29.3636 25.8804 29.3428C25.5991 29.3221 25.3178 29.3843 25.0715 29.5219C24.8252 29.6595 24.6248 29.8663 24.4949 30.1167C24.3651 30.3672 24.3116 30.6502 24.3412 30.9308C24.3773 31.2632 24.2964 31.5977 24.1125 31.8769C23.9287 32.1562 23.6532 32.3626 23.3336 32.4607C23.014 32.5588 22.6702 32.5425 22.3614 32.4146C22.0525 32.2867 21.7978 32.0551 21.6412 31.7598C21.5094 31.5106 21.307 31.3058 21.0595 31.1709C20.8119 31.0361 20.5301 30.9772 20.2492 31.0016C19.9684 31.026 19.701 31.1327 19.4804 31.3083C19.2599 31.4839 19.0959 31.7206 19.0092 31.9888C18.9208 32.2782 18.741 32.5312 18.4967 32.7099C18.2524 32.8886 17.9568 32.9833 17.6542 32.9798C17.2851 32.9876 16.9275 32.8514 16.6571 32.6002C16.3866 32.349 16.2246 32.0024 16.2052 31.6338V31.6338Z" stroke="url(#paint0_linear_740_6066)" stroke-width="0.7" stroke-miterlimit="10"/>
<g id="Group_4">
<g id="Group_6">
<path id="Vector_5" d="M26.6542 29.6388C26.4309 29.4665 26.162 29.3635 25.8808 29.3426C25.5995 29.3217 25.3184 29.3839 25.0721 29.5214C24.8259 29.6589 24.6255 29.8656 24.4957 30.116C24.366 30.3664 24.3126 30.6493 24.3422 30.9298C24.3773 31.2617 24.2959 31.5956 24.112 31.8742C23.9281 32.1527 23.653 32.3587 23.334 32.4568C23.0149 32.5548 22.6717 32.539 22.363 32.4118C22.0544 32.2847 21.7995 32.0542 21.6422 31.7598C21.5104 31.5106 21.3082 31.3057 21.0607 31.1708C20.8132 31.0358 20.5314 30.9769 20.2506 31.0012C19.9697 31.0255 19.7023 31.1321 19.4817 31.3075C19.2611 31.483 19.097 31.7196 19.0102 31.9878C18.9065 32.3053 18.6955 32.5767 18.4134 32.7555C18.1313 32.9343 17.7957 33.0092 17.4644 32.9674C17.133 32.9257 16.8266 32.7698 16.5977 32.5266C16.3688 32.2834 16.2318 31.9681 16.2102 31.6348C16.1927 31.3526 16.0923 31.0818 15.9216 30.8563C15.7509 30.6309 15.5175 30.4608 15.2506 30.3674C14.9837 30.274 14.6952 30.2614 14.4212 30.3312C14.1472 30.401 13.8998 30.5501 13.7102 30.7598C13.4843 31.0084 13.1788 31.1703 12.8464 31.2179C12.5139 31.2654 12.1753 31.1955 11.8889 31.0202C11.6024 30.8448 11.3861 30.5751 11.2772 30.2574C11.1683 29.9397 11.1735 29.594 11.2922 29.2798C11.3883 29.0147 11.4049 28.7272 11.3399 28.4528C11.275 28.1784 11.1313 27.9289 10.9265 27.735C10.7218 27.5411 10.4649 27.4111 10.1873 27.3612C9.90976 27.3112 9.62367 27.3434 9.36415 27.4538C9.05735 27.579 8.71698 27.5956 8.39947 27.5008C8.08196 27.406 7.80639 27.2055 7.61846 26.9326C7.43053 26.6597 7.34152 26.3307 7.3662 26.0003C7.39088 25.6698 7.52776 25.3578 7.75415 25.1158C7.9484 24.9107 8.07894 24.6537 8.12994 24.3759C8.18095 24.0981 8.15021 23.8114 8.04147 23.5507C7.93273 23.2901 7.75065 23.0665 7.51735 22.9073C7.28404 22.7481 7.00954 22.66 6.72715 22.6538C6.3952 22.6435 6.07666 22.5204 5.8241 22.3048C5.57154 22.0891 5.40006 21.7938 5.33795 21.4675C5.27585 21.1413 5.32683 20.8036 5.48249 20.5102C5.63815 20.2168 5.88918 19.9853 6.19415 19.8538C6.45452 19.7431 6.67723 19.5593 6.83533 19.3247C6.99344 19.09 7.08017 18.8146 7.08504 18.5317C7.0899 18.2488 7.0127 17.9706 6.86275 17.7307C6.71281 17.4907 6.49656 17.2994 6.24015 17.1798C5.93743 17.0386 5.69234 16.7977 5.54583 16.4975C5.39932 16.1973 5.36026 15.8559 5.43517 15.5304C5.51009 15.2049 5.69445 14.9149 5.95744 14.7089C6.22044 14.503 6.54615 14.3935 6.88015 14.3988C7.16244 14.4036 7.44005 14.3263 7.67927 14.1763C7.91848 14.0264 8.10902 13.8102 8.22773 13.554C8.34644 13.2979 8.38822 13.0128 8.348 12.7333C8.30778 12.4538 8.18728 12.1921 8.00115 11.9798C7.78105 11.7298 7.65362 11.4116 7.64021 11.0788C7.62681 10.746 7.72826 10.4186 7.92754 10.1517C8.12682 9.88481 8.41182 9.69452 8.73475 9.61278C9.05767 9.53105 9.39888 9.56282 9.70115 9.70279C9.95618 9.8248 10.2414 9.86937 10.5215 9.831C10.8016 9.79262 11.0643 9.67298 11.2771 9.48688C11.4899 9.30077 11.6435 9.05636 11.7189 8.78389C11.7942 8.51141 11.7881 8.22281 11.7012 7.95379C11.5973 7.63599 11.607 7.29197 11.7288 6.98059C11.8506 6.6692 12.0768 6.40981 12.3687 6.24678C12.6606 6.08376 13.0001 6.02724 13.3291 6.08689C13.658 6.14654 13.9561 6.31866 14.1722 6.57379C14.3536 6.78943 14.5945 6.9469 14.8649 7.02658C15.1352 7.10626 15.423 7.10464 15.6924 7.0219C15.9618 6.93917 16.2009 6.77899 16.38 6.56132C16.559 6.34365 16.67 6.07811 16.6992 5.79779C16.7336 5.46546 16.8829 5.15554 17.1212 4.92133C17.3594 4.68712 17.6719 4.54326 18.0048 4.51449C18.3376 4.48573 18.6701 4.57385 18.9451 4.76372C19.22 4.95358 19.4202 5.23331 19.5112 5.55479C19.5875 5.82615 19.7421 6.06899 19.9556 6.25297C20.1692 6.43694 20.4323 6.5539 20.7119 6.58922C20.9916 6.62454 21.2754 6.57665 21.528 6.45154C21.7806 6.32643 21.9908 6.12965 22.1322 5.88579C22.3005 5.59676 22.5642 5.37538 22.878 5.25971C23.1918 5.14403 23.5361 5.14128 23.8518 5.25194C24.1674 5.36259 24.4346 5.57973 24.6075 5.86604C24.7804 6.15235 24.8482 6.48994 24.7992 6.82079C24.7592 7.09985 24.8019 7.38449 24.922 7.63952C25.0422 7.89455 25.2344 8.10879 25.475 8.25573C25.7155 8.40267 25.9939 8.47587 26.2756 8.46629C26.5574 8.4567 26.8301 8.36475 27.0602 8.20179C27.3335 8.01043 27.6645 7.91934 27.9973 7.94391C28.33 7.96848 28.6441 8.10722 28.8863 8.33665C29.1286 8.56609 29.2841 8.87214 29.3268 9.20307C29.3694 9.53399 29.2964 9.86948 29.1202 10.1528C28.9718 10.393 28.8966 10.6711 28.9037 10.9534C28.9108 11.2356 28.9999 11.5096 29.1601 11.742C29.3203 11.9745 29.5447 12.1552 29.806 12.2623C30.0672 12.3693 30.3539 12.398 30.6312 12.3448C30.9593 12.2826 31.2989 12.3349 31.593 12.4932C31.8871 12.6514 32.118 12.9059 32.2468 13.2141C32.3757 13.5222 32.3948 13.8653 32.3009 14.1858C32.207 14.5063 32.0059 14.7849 31.7311 14.9748C31.4994 15.1363 31.3194 15.3614 31.2128 15.623C31.1063 15.8846 31.0777 16.1714 31.1306 16.4489C31.1834 16.7263 31.3155 16.9826 31.5108 17.1866C31.7061 17.3907 31.9563 17.5338 32.2311 17.5988C32.5566 17.6749 32.8461 17.8604 33.0512 18.1243C33.2564 18.3881 33.3648 18.7144 33.3583 19.0485C33.3519 19.3827 33.231 19.7045 33.0158 19.9603C32.8007 20.2161 32.5043 20.3903 32.1761 20.4538C31.8994 20.5083 31.6444 20.6417 31.4418 20.8379C31.2391 21.0341 31.0976 21.2847 31.0341 21.5595C30.9707 21.8343 30.9882 22.1216 31.0843 22.3867C31.1805 22.6519 31.3513 22.8835 31.5762 23.0538C31.8446 23.2536 32.036 23.5397 32.1183 23.8641C32.2005 24.1884 32.1685 24.5312 32.0277 24.8347C31.8868 25.1383 31.6457 25.384 31.3449 25.5306C31.0441 25.6773 30.702 25.7158 30.3762 25.6398C30.1015 25.5764 29.8144 25.5943 29.5498 25.6912C29.2851 25.7882 29.0544 25.96 28.8857 26.1857C28.7169 26.4115 28.6175 26.6814 28.5995 26.9627C28.5815 27.2439 28.6456 27.5244 28.7842 27.7698C28.9483 28.0593 29.0076 28.3965 28.9522 28.7246C28.8967 29.0527 28.7299 29.3517 28.4798 29.5711C28.2297 29.7906 27.9115 29.9172 27.579 29.9295C27.2465 29.9418 26.9198 29.8392 26.6542 29.6388V29.6388Z" stroke="url(#paint1_linear_740_6066)" stroke-width="0.7" stroke-miterlimit="10"/>
<path id="Vector_6" d="M19.3542 27.7698C21.1411 27.7906 22.894 27.2797 24.3899 26.3021C25.8859 25.3244 27.0574 23.9241 27.7557 22.279C28.4539 20.634 28.6474 18.8185 28.3115 17.0633C27.9756 15.3081 27.1255 13.6923 25.8692 12.4213C24.6129 11.1504 23.0071 10.2815 21.2559 9.92529C19.5047 9.56904 17.6871 9.74143 16.034 10.4206C14.381 11.0997 12.9672 12.2549 11.9722 13.7394C10.9773 15.2239 10.4461 16.9707 10.4462 18.7578C10.4393 19.9344 10.6643 21.1009 11.1083 22.1906C11.5522 23.2803 12.2065 24.2719 13.0337 25.1087C13.8609 25.9456 14.8448 26.6113 15.9293 27.0679C17.0137 27.5245 18.1775 27.763 19.3542 27.7698V27.7698Z" stroke="url(#paint2_linear_740_6066)" stroke-width="0.7" stroke-miterlimit="10"/>
</g>
</g>
<path id="Union 8" d="M16.2032 31.6337C16.1857 31.3515 16.0853 31.0807 15.9146 30.8552C15.7439 30.6298 15.5105 30.4597 15.2436 30.3663C14.9768 30.2729 14.6882 30.2603 14.4142 30.3301C14.1402 30.3999 13.8929 30.549 13.7032 30.7587C13.4762 31.0022 13.1719 31.1598 12.842 31.2047C12.5121 31.2496 12.1768 31.179 11.893 31.0049C11.6092 30.8308 11.3943 30.5639 11.2848 30.2495C11.1753 29.935 11.1779 29.5924 11.2922 29.2797C11.3884 29.0144 11.4051 28.7269 11.3401 28.4523C11.2752 28.1777 11.1314 27.9281 10.9265 27.7341C10.7216 27.5401 10.4644 27.4102 10.1867 27.3604C9.90898 27.3106 9.62274 27.343 9.36318 27.4537C9.05542 27.5831 8.71247 27.6027 8.39201 27.509C8.07155 27.4153 7.79314 27.2141 7.6036 26.9392C7.41406 26.6644 7.32496 26.3326 7.35129 25.9998C7.37763 25.6669 7.51778 25.3533 7.74818 25.1117C7.94198 24.9065 8.07213 24.6495 8.12288 24.3718C8.17364 24.0941 8.14281 23.8077 8.03415 23.5472C7.92548 23.2867 7.74362 23.0633 7.5106 22.904C7.27757 22.7447 7.00337 22.6563 6.72118 22.6497C6.38856 22.6407 6.06903 22.5182 5.81555 22.3027C5.56208 22.0871 5.3899 21.7914 5.32756 21.4645C5.26523 21.1377 5.31648 20.7994 5.47283 20.5056C5.62918 20.2119 5.88123 19.9805 6.18718 19.8497C6.44708 19.7394 6.66953 19.5564 6.82771 19.3225C6.98589 19.0887 7.07304 18.8141 7.07864 18.5318C7.08425 18.2496 7.00807 17.9717 6.85929 17.7318C6.71051 17.4919 6.4955 17.3001 6.24018 17.1797C5.93746 17.0384 5.69237 16.7976 5.54586 16.4974C5.39934 16.1972 5.36028 15.8558 5.4352 15.5303C5.51012 15.2047 5.69447 14.9148 5.95747 14.7088C6.22047 14.5029 6.54617 14.3934 6.88018 14.3987C7.10313 14.4071 7.32488 14.3623 7.52711 14.2681C7.72934 14.1738 7.90623 14.0328 8.04318 13.8567C6.74392 13.8247 5.50905 13.2843 4.60401 12.3516C3.69896 11.4189 3.19598 10.1683 3.20318 8.86868C3.18806 7.78724 3.52964 6.73094 4.17509 5.86311C4.82054 4.99528 5.73392 4.36426 6.77398 4.06762C7.81405 3.77098 8.92288 3.82524 9.92901 4.22202C10.9351 4.61879 11.7825 5.33597 12.3402 6.26268C12.6303 6.08185 12.9766 6.01345 13.3137 6.07037C13.6509 6.1273 13.9555 6.30561 14.1702 6.57168C14.3514 6.78887 14.5927 6.94773 14.8639 7.02836C15.135 7.109 15.4239 7.10781 15.6944 7.02495C15.9649 6.94209 16.2049 6.78124 16.3843 6.56257C16.5638 6.34389 16.6747 6.07712 16.7032 5.79568C16.7375 5.46329 16.8866 5.15326 17.1248 4.91892C17.363 4.68458 17.6754 4.54058 18.0084 4.51169C18.3413 4.4828 18.6738 4.57084 18.9488 4.76065C19.2238 4.95046 19.4241 5.23017 19.5152 5.55168C19.5927 5.82148 19.7477 6.06259 19.961 6.24512C20.1743 6.42764 20.4365 6.54356 20.715 6.57848C20.9935 6.6134 21.2762 6.5658 21.5279 6.44158C21.7797 6.31736 21.9894 6.12199 22.1312 5.87968C22.2995 5.59082 22.5631 5.36958 22.8768 5.25395C23.1905 5.13831 23.5346 5.13551 23.8501 5.246C24.1657 5.3565 24.4329 5.57341 24.6059 5.85948C24.7789 6.14555 24.8469 6.48293 24.7982 6.81368C24.7581 7.09289 24.8007 7.37775 24.9208 7.63297C25.041 7.88818 25.2334 8.10256 25.4741 8.24955C25.7149 8.39654 25.9935 8.46969 26.2754 8.45993C26.5573 8.45018 26.8302 8.35795 27.0602 8.19468C27.3335 8.00273 27.6647 7.91115 27.9978 7.93546C28.3309 7.95976 28.6453 8.09846 28.8879 8.32805C29.1304 8.55764 29.2861 8.86401 29.3286 9.19526C29.3712 9.52651 29.2979 9.86227 29.1212 10.1457C28.9729 10.3858 28.8978 10.6638 28.9048 10.9459C28.9119 11.228 29.0009 11.502 29.161 11.7343C29.3211 11.9667 29.5453 12.1475 29.8064 12.2546C30.0674 12.3618 30.354 12.3906 30.6312 12.3377C30.9597 12.2743 31.3 12.3259 31.5949 12.484C31.8898 12.642 32.1213 12.8968 32.2504 13.2055C32.3795 13.5141 32.3984 13.8579 32.3038 14.1788C32.2092 14.4997 32.007 14.7783 31.7312 14.9677C31.4995 15.1292 31.3194 15.3543 31.2129 15.6159C31.1063 15.8775 31.0777 16.1643 31.1306 16.4418C31.1835 16.7192 31.3155 16.9754 31.5108 17.1795C31.7061 17.3835 31.9563 17.5267 32.2312 17.5917C32.5566 17.6678 32.8461 17.8533 33.0512 18.1171C33.2564 18.381 33.3648 18.7073 33.3584 19.0414C33.3519 19.3756 33.231 19.6974 33.0159 19.9532C32.8007 20.2089 32.5043 20.3831 32.1762 20.4467C31.8995 20.5012 31.6444 20.6346 31.4418 20.8308C31.2392 21.0269 31.0976 21.2776 31.0342 21.5524C30.9708 21.8272 30.9882 22.1145 31.0843 22.3796C31.1805 22.6448 31.3513 22.8764 31.5762 23.0467C31.8446 23.2464 32.0361 23.5326 32.1183 23.8569C32.2005 24.1813 32.1685 24.5241 32.0277 24.8276C31.8868 25.1312 31.6457 25.3769 31.3449 25.5235C31.0442 25.6702 30.7021 25.7087 30.3762 25.6327C30.1005 25.5679 29.812 25.5851 29.546 25.6821C29.2799 25.7791 29.0481 25.9517 28.8789 26.1788C28.7096 26.4058 28.6104 26.6773 28.5934 26.9599C28.5764 27.2426 28.6424 27.524 28.7832 27.7697C28.9487 28.0595 29.009 28.3976 28.9538 28.7267C28.8986 29.0558 28.7313 29.3557 28.4803 29.5757C28.2293 29.7956 27.91 29.922 27.5765 29.9335C27.243 29.945 26.9157 29.8408 26.6502 29.6387C26.4268 29.4665 26.1579 29.3636 25.8767 29.3428C25.5955 29.322 25.3143 29.3842 25.0681 29.5216C24.8218 29.6591 24.6213 29.8657 24.4914 30.116C24.3615 30.3663 24.3079 30.6492 24.3372 30.9297C24.3723 31.2616 24.291 31.5955 24.107 31.874C23.9231 32.1526 23.6481 32.3586 23.329 32.4566C23.0099 32.5547 22.6667 32.5388 22.358 32.4117C22.0494 32.2845 21.7946 32.054 21.6372 31.7597C21.5055 31.5105 21.3032 31.3056 21.0557 31.1707C20.8082 31.0357 20.5264 30.9767 20.2456 31.0011C19.9647 31.0254 19.6973 31.132 19.4767 31.3074C19.2561 31.4829 19.0921 31.7195 19.0052 31.9877C18.9172 32.2773 18.7377 32.5307 18.4936 32.7097C18.2495 32.8887 17.9539 32.9838 17.6512 32.9807C17.2821 32.9882 16.9247 32.8518 16.6544 32.6004C16.3842 32.349 16.2223 32.0023 16.2032 31.6337V31.6337Z" stroke="url(#paint3_linear_740_6066)" stroke-width="0.7" stroke-miterlimit="10"/>
</g>
<defs>
<linearGradient id="paint0_linear_740_6066" x1="16.8543" y1="1" x2="16.8543" y2="32.9801" gradientUnits="userSpaceOnUse">
<stop stop-color="#4669E3"/>
<stop offset="1" stop-color="#20BDFF"/>
</linearGradient>
<linearGradient id="paint1_linear_740_6066" x1="19.3354" y1="4.50916" x2="19.3354" y2="32.9787" gradientUnits="userSpaceOnUse">
<stop stop-color="#4669E3"/>
<stop offset="1" stop-color="#20BDFF"/>
</linearGradient>
<linearGradient id="paint2_linear_740_6066" x1="19.4591" y1="9.74438" x2="19.4591" y2="27.7704" gradientUnits="userSpaceOnUse">
<stop stop-color="#4669E3"/>
<stop offset="1" stop-color="#20BDFF"/>
</linearGradient>
<linearGradient id="paint3_linear_740_6066" x1="18.2807" y1="3.87891" x2="18.2807" y2="32.981" gradientUnits="userSpaceOnUse">
<stop stop-color="#4669E3"/>
<stop offset="1" stop-color="#20BDFF"/>
</linearGradient>
</defs>
</svg>
