<svg width="38" height="39" viewBox="0 0 38 39" fill="none" xmlns="http://www.w3.org/2000/svg">
<g id="photo-gradient">
<g id="Group 326">
<g id="Subtract">
<mask id="path-1-inside-1_609_5044" fill="white">
<path fill-rule="evenodd" clip-rule="evenodd" d="M6.33547 15.7935C6.33547 14.5885 6.33518 13.3834 6.33488 12.1783C6.33422 9.46682 6.33355 6.75519 6.33626 4.04318C6.3386 2.19887 7.31909 0.758855 8.97798 0.219532C9.41514 0.0774817 9.89602 0.0111395 10.3566 0.010359C18.2295 -0.00212889 26.1015 -0.00212889 33.9744 0.00411508C36.332 0.00567607 37.9916 1.65252 37.994 4.00338C38.0018 11.8887 38.0018 19.7749 37.994 27.6602C37.9916 30.0118 36.332 31.6603 33.9752 31.6618C29.16 31.6656 24.3452 31.6671 19.5303 31.6663C19.6837 31.1238 19.7923 30.5624 19.8518 29.9865C22.5201 29.9864 25.1884 29.9861 27.8568 29.9857L31.3421 29.9853C31.4268 29.9853 31.5115 29.9785 31.5925 29.972H31.5925C31.6108 29.9705 31.6289 29.9691 31.6468 29.9677C31.6636 29.9665 31.6801 29.9653 31.6965 29.9642L22.7707 21.0386L13.8032 12.0714L13.8016 12.0706C13.798 12.0736 13.7925 12.0777 13.7857 12.0828C13.766 12.0976 13.7354 12.1206 13.7087 12.1479L12.9006 12.9553C11.3289 14.5255 9.75719 16.0956 8.19576 17.6753C8.07945 17.7924 8.02246 18.0172 8.02246 18.192C8.02139 18.5238 8.02044 18.8557 8.01961 19.1875C7.43792 19.302 6.87442 19.4671 6.3339 19.6782C6.33394 19.543 6.33398 19.4078 6.33402 19.2726C6.33436 18.113 6.33469 16.9533 6.33469 15.7935H6.33547ZM8.18673 15.2995L8.18673 15.2995C8.26234 15.2301 8.32591 15.1717 8.38702 15.1106C9.31987 14.1784 10.2524 13.2457 11.1851 12.3128C11.8071 11.6907 12.4292 11.0685 13.0514 10.4464C13.6478 9.85007 14.0335 9.85007 14.6314 10.4487L15.9981 11.8153L15.9992 11.8165C18.506 14.3232 21.0127 16.8299 23.516 19.3393C23.581 19.4043 23.6298 19.4857 23.6918 19.5893L23.6918 19.5893C23.7252 19.645 23.7624 19.7071 23.808 19.7764C23.8664 19.7002 23.9127 19.6367 23.9524 19.5825C24.0236 19.4852 24.073 19.4175 24.1312 19.3589C25.0885 18.3977 26.0475 17.4387 27.0066 16.4796L27.9657 15.5204C28.6629 14.8234 28.9978 14.8203 29.6839 15.5071L29.6992 15.5223C31.7823 17.6059 33.8655 19.6894 35.9494 21.7722C36.0139 21.8366 36.0807 21.8982 36.161 21.9723L36.1611 21.9723C36.2014 22.0095 36.2452 22.0499 36.2937 22.0953C36.2974 22.0375 36.3012 21.9866 36.3047 21.9404L36.3047 21.9404C36.3116 21.848 36.3171 21.7742 36.3171 21.7003L36.3176 18.7496C36.3183 13.8389 36.3191 8.92815 36.3171 4.01743C36.3171 2.56804 35.4319 1.6814 33.9853 1.6814C26.1008 1.67906 18.2154 1.67984 10.3308 1.68296C10.1115 1.68296 9.88509 1.69077 9.67276 1.7415C8.63839 1.99126 8.017 2.83732 8.01543 3.99557C8.01231 7.66442 8.01387 11.3333 8.01543 15.0029L8.01543 15.0037C8.01543 15.0837 8.02037 15.1637 8.02639 15.2615L8.02639 15.2615L8.02639 15.2615C8.02965 15.3144 8.03322 15.3724 8.03651 15.4384C8.09223 15.3862 8.14162 15.3409 8.18673 15.2995ZM25.0687 20.8746L25.0798 20.8884C25.0949 20.9076 25.1193 20.9385 25.1468 20.9667C25.8823 21.7026 26.618 22.4384 27.3537 23.1741C29.5611 25.3816 31.7684 27.5891 33.9705 29.8019C34.1742 30.0064 34.3803 29.9916 34.6099 29.9416C35.6028 29.7262 36.2937 28.8887 36.3125 27.8413C36.3213 27.3313 36.3202 26.8211 36.3191 26.3109V26.3108C36.318 25.8324 36.317 25.3539 36.3242 24.8754C36.3281 24.6077 36.25 24.4188 36.058 24.2276C33.9174 22.1007 31.7855 19.9653 29.6535 17.8291C29.4743 17.6499 29.3025 17.4637 29.131 17.2777L29.131 17.2777L29.1307 17.2774C29.0476 17.1872 28.9645 17.0972 28.8807 17.008C28.1867 17.7115 27.5044 18.4035 26.8235 19.0942L26.8188 19.0989C26.2367 19.6893 25.6556 20.2788 25.0687 20.8738V20.8746Z"/>
</mask>
<path fill-rule="evenodd" clip-rule="evenodd" d="M6.33547 15.7935C6.33547 14.5885 6.33518 13.3834 6.33488 12.1783C6.33422 9.46682 6.33355 6.75519 6.33626 4.04318C6.3386 2.19887 7.31909 0.758855 8.97798 0.219532C9.41514 0.0774817 9.89602 0.0111395 10.3566 0.010359C18.2295 -0.00212889 26.1015 -0.00212889 33.9744 0.00411508C36.332 0.00567607 37.9916 1.65252 37.994 4.00338C38.0018 11.8887 38.0018 19.7749 37.994 27.6602C37.9916 30.0118 36.332 31.6603 33.9752 31.6618C29.16 31.6656 24.3452 31.6671 19.5303 31.6663C19.6837 31.1238 19.7923 30.5624 19.8518 29.9865C22.5201 29.9864 25.1884 29.9861 27.8568 29.9857L31.3421 29.9853C31.4268 29.9853 31.5115 29.9785 31.5925 29.972H31.5925C31.6108 29.9705 31.6289 29.9691 31.6468 29.9677C31.6636 29.9665 31.6801 29.9653 31.6965 29.9642L22.7707 21.0386L13.8032 12.0714L13.8016 12.0706C13.798 12.0736 13.7925 12.0777 13.7857 12.0828C13.766 12.0976 13.7354 12.1206 13.7087 12.1479L12.9006 12.9553C11.3289 14.5255 9.75719 16.0956 8.19576 17.6753C8.07945 17.7924 8.02246 18.0172 8.02246 18.192C8.02139 18.5238 8.02044 18.8557 8.01961 19.1875C7.43792 19.302 6.87442 19.4671 6.3339 19.6782C6.33394 19.543 6.33398 19.4078 6.33402 19.2726C6.33436 18.113 6.33469 16.9533 6.33469 15.7935H6.33547ZM8.18673 15.2995L8.18673 15.2995C8.26234 15.2301 8.32591 15.1717 8.38702 15.1106C9.31987 14.1784 10.2524 13.2457 11.1851 12.3128C11.8071 11.6907 12.4292 11.0685 13.0514 10.4464C13.6478 9.85007 14.0335 9.85007 14.6314 10.4487L15.9981 11.8153L15.9992 11.8165C18.506 14.3232 21.0127 16.8299 23.516 19.3393C23.581 19.4043 23.6298 19.4857 23.6918 19.5893L23.6918 19.5893C23.7252 19.645 23.7624 19.7071 23.808 19.7764C23.8664 19.7002 23.9127 19.6367 23.9524 19.5825C24.0236 19.4852 24.073 19.4175 24.1312 19.3589C25.0885 18.3977 26.0475 17.4387 27.0066 16.4796L27.9657 15.5204C28.6629 14.8234 28.9978 14.8203 29.6839 15.5071L29.6992 15.5223C31.7823 17.6059 33.8655 19.6894 35.9494 21.7722C36.0139 21.8366 36.0807 21.8982 36.161 21.9723L36.1611 21.9723C36.2014 22.0095 36.2452 22.0499 36.2937 22.0953C36.2974 22.0375 36.3012 21.9866 36.3047 21.9404L36.3047 21.9404C36.3116 21.848 36.3171 21.7742 36.3171 21.7003L36.3176 18.7496C36.3183 13.8389 36.3191 8.92815 36.3171 4.01743C36.3171 2.56804 35.4319 1.6814 33.9853 1.6814C26.1008 1.67906 18.2154 1.67984 10.3308 1.68296C10.1115 1.68296 9.88509 1.69077 9.67276 1.7415C8.63839 1.99126 8.017 2.83732 8.01543 3.99557C8.01231 7.66442 8.01387 11.3333 8.01543 15.0029L8.01543 15.0037C8.01543 15.0837 8.02037 15.1637 8.02639 15.2615L8.02639 15.2615L8.02639 15.2615C8.02965 15.3144 8.03322 15.3724 8.03651 15.4384C8.09223 15.3862 8.14162 15.3409 8.18673 15.2995ZM25.0687 20.8746L25.0798 20.8884C25.0949 20.9076 25.1193 20.9385 25.1468 20.9667C25.8823 21.7026 26.618 22.4384 27.3537 23.1741C29.5611 25.3816 31.7684 27.5891 33.9705 29.8019C34.1742 30.0064 34.3803 29.9916 34.6099 29.9416C35.6028 29.7262 36.2937 28.8887 36.3125 27.8413C36.3213 27.3313 36.3202 26.8211 36.3191 26.3109V26.3108C36.318 25.8324 36.317 25.3539 36.3242 24.8754C36.3281 24.6077 36.25 24.4188 36.058 24.2276C33.9174 22.1007 31.7855 19.9653 29.6535 17.8291C29.4743 17.6499 29.3025 17.4637 29.131 17.2777L29.131 17.2777L29.1307 17.2774C29.0476 17.1872 28.9645 17.0972 28.8807 17.008C28.1867 17.7115 27.5044 18.4035 26.8235 19.0942L26.8188 19.0989C26.2367 19.6893 25.6556 20.2788 25.0687 20.8738V20.8746Z" fill="url(#paint0_linear_609_5044)"/>
<path d="M6.33506 12.1783L6.03506 12.1784L6.33506 12.1783ZM6.33565 15.7935V16.0935H6.63565V15.7935H6.33565ZM6.33643 4.04317L6.03643 4.04279L6.03643 4.04287L6.33643 4.04317ZM8.97815 0.219518L8.88544 -0.0657973L8.8854 -0.0657825L8.97815 0.219518ZM10.3568 0.0103453L10.3563 -0.289654L10.3563 -0.289654L10.3568 0.0103453ZM33.9746 0.00410138L33.9743 0.304101L33.9744 0.304101L33.9746 0.00410138ZM37.9941 4.00336L38.2941 4.00307L38.2941 4.00306L37.9941 4.00336ZM37.9941 27.6602L38.2941 27.6605L38.2941 27.6605L37.9941 27.6602ZM33.9754 31.6618L33.9752 31.3618L33.9751 31.3618L33.9754 31.6618ZM19.5305 31.6662L19.2418 31.5846L19.1339 31.9662L19.5304 31.9662L19.5305 31.6662ZM19.8519 29.9865L19.8519 29.6865L19.5813 29.6865L19.5535 29.9557L19.8519 29.9865ZM27.857 29.9857L27.8569 29.6857L27.8569 29.6857L27.857 29.9857ZM31.3422 29.9853L31.3422 29.6853L31.3422 29.6853L31.3422 29.9853ZM31.5927 29.972V29.672H31.5807L31.5687 29.673L31.5927 29.972ZM31.5927 29.972V30.272H31.6047L31.6167 30.271L31.5927 29.972ZM31.647 29.9677L31.6243 29.6686L31.6243 29.6686L31.647 29.9677ZM31.6966 29.9642L31.7156 30.2636L32.3783 30.2216L31.9088 29.7521L31.6966 29.9642ZM22.7708 21.0386L22.5587 21.2508L22.5587 21.2508L22.7708 21.0386ZM13.8034 12.0714L14.0155 11.8592L13.9812 11.8249L13.9377 11.8031L13.8034 12.0714ZM13.8018 12.0706L13.9362 11.8024L13.7606 11.7144L13.6098 11.8401L13.8018 12.0706ZM13.7859 12.0828L13.966 12.3227L13.966 12.3227L13.7859 12.0828ZM13.7089 12.1478L13.9209 12.3601L13.9233 12.3577L13.7089 12.1478ZM12.9007 12.9553L13.1128 13.1675L13.1128 13.1675L12.9007 12.9553ZM8.19594 17.6753L8.40876 17.8868L8.40931 17.8862L8.19594 17.6753ZM8.02264 18.192L8.32264 18.193V18.192H8.02264ZM8.01978 19.1875L8.07772 19.4818L8.31916 19.4343L8.31978 19.1882L8.01978 19.1875ZM6.33408 19.6782L6.03408 19.6781L6.03395 20.1174L6.4432 19.9576L6.33408 19.6782ZM6.33419 19.2726L6.63419 19.2727L6.33419 19.2726ZM6.33487 15.7935V15.4935H6.03487V15.7935H6.33487ZM8.18691 15.2995L7.98404 15.0784L7.97575 15.0861L7.96805 15.0943L8.18691 15.2995ZM8.1869 15.2995L8.38977 15.5205L8.39806 15.5129L8.40576 15.5046L8.1869 15.2995ZM8.3872 15.1106L8.17514 14.8984L8.17509 14.8984L8.3872 15.1106ZM11.1852 12.3128L10.9731 12.1007L10.9731 12.1007L11.1852 12.3128ZM13.0516 10.4464L13.2637 10.6585L13.2637 10.6585L13.0516 10.4464ZM14.6316 10.4487L14.4194 10.6607L14.4195 10.6608L14.6316 10.4487ZM15.9982 11.8153L15.7861 12.0274L15.7861 12.0275L15.9982 11.8153ZM15.9994 11.8165L15.7873 12.0286L15.7873 12.0286L15.9994 11.8165ZM23.5162 19.3393L23.3038 19.5512L23.3041 19.5515L23.5162 19.3393ZM23.692 19.5893L23.4346 19.7435L23.4376 19.7483L23.692 19.5893ZM23.692 19.5893L23.9494 19.4351L23.9464 19.4303L23.692 19.5893ZM23.8082 19.7764L23.5575 19.9412L23.7896 20.2941L24.0464 19.9588L23.8082 19.7764ZM23.9526 19.5825L23.7104 19.4055L23.7104 19.4055L23.9526 19.5825ZM24.1314 19.3588L23.9188 19.1471L23.9183 19.1476L24.1314 19.3588ZM27.0068 16.4796L27.2189 16.6917L27.2189 16.6917L27.0068 16.4796ZM27.9659 15.5204L27.7538 15.3082L27.7538 15.3082L27.9659 15.5204ZM29.6841 15.5071L29.4719 15.7191L29.472 15.7192L29.6841 15.5071ZM29.6993 15.5223L29.9115 15.3102L29.9115 15.3102L29.6993 15.5223ZM35.9496 21.7721L36.1617 21.56L36.1617 21.5599L35.9496 21.7721ZM36.1612 21.9722L35.9577 22.1929L35.9636 22.198L36.1612 21.9722ZM36.1613 21.9723L36.3647 21.7517L36.3588 21.7465L36.1613 21.9723ZM36.2939 22.0953L36.089 22.3144L36.5533 22.7486L36.5933 22.1141L36.2939 22.0953ZM36.3048 21.9404L36.0059 21.9155L36.0057 21.9179L36.3048 21.9404ZM36.3048 21.9403L36.6038 21.9653L36.604 21.9628L36.3048 21.9403ZM36.3173 21.7003L36.0173 21.7003V21.7003H36.3173ZM36.3177 18.7496L36.0177 18.7495L36.0177 18.7495L36.3177 18.7496ZM36.3173 4.01741L36.0173 4.01741L36.0173 4.01753L36.3173 4.01741ZM33.9855 1.68139L33.9854 1.98139H33.9855V1.68139ZM10.331 1.68295L10.331 1.98295L10.3311 1.98295L10.331 1.68295ZM9.67293 1.74149L9.60322 1.4497L9.60252 1.44987L9.67293 1.74149ZM8.01561 3.99556L7.71561 3.99515L7.71561 3.9953L8.01561 3.99556ZM8.01561 15.0029L7.71561 15.003L7.71561 15.003L8.01561 15.0029ZM8.01561 15.0037L8.31561 15.0037L8.31561 15.0035L8.01561 15.0037ZM8.02656 15.2615L8.32636 15.249L8.326 15.243L8.02656 15.2615ZM8.02656 15.2615L7.72676 15.274L7.72715 15.2802L8.02656 15.2615ZM8.02656 15.2615L8.326 15.243L8.32598 15.2428L8.02656 15.2615ZM8.03669 15.4384L7.73706 15.4533L7.76927 16.1001L8.24181 15.6573L8.03669 15.4384ZM25.08 20.8884L25.3157 20.7028L25.3144 20.7012L25.08 20.8884ZM25.0689 20.8746H24.7689V20.9796L24.8345 21.0618L25.0689 20.8746ZM25.147 20.9667L24.9326 21.1765L24.9348 21.1787L25.147 20.9667ZM27.3539 23.1741L27.1418 23.3863L27.1418 23.3863L27.3539 23.1741ZM33.9707 29.8019L33.758 30.0135L33.7582 30.0136L33.9707 29.8019ZM34.61 29.9416L34.5464 29.6484L34.5462 29.6484L34.61 29.9416ZM36.3126 27.8413L36.6126 27.8466L36.6126 27.8465L36.3126 27.8413ZM36.3193 26.3108L36.0193 26.3108L36.0193 26.3115L36.3193 26.3108ZM36.3193 26.3108L36.6193 26.3108L36.6193 26.3101L36.3193 26.3108ZM36.3243 24.8754L36.6243 24.8799L36.6243 24.8798L36.3243 24.8754ZM36.0581 24.2276L36.2698 24.015L36.2696 24.0148L36.0581 24.2276ZM29.6537 17.8291L29.866 17.6171L29.8658 17.6169L29.6537 17.8291ZM29.1312 17.2777L28.9007 17.4697L28.9055 17.4755L28.9107 17.4811L29.1312 17.2777ZM29.1312 17.2777L29.3616 17.0856L29.3566 17.0796L29.3513 17.0738L29.1312 17.2777ZM29.1309 17.2774L28.9103 17.4807L28.9107 17.4812L29.1309 17.2774ZM28.8808 17.008L29.0994 16.8025L28.886 16.5755L28.6673 16.7973L28.8808 17.008ZM26.8237 19.0942L27.0372 19.3049L27.0373 19.3048L26.8237 19.0942ZM26.819 19.0989L26.6055 18.8882L26.6054 18.8883L26.819 19.0989ZM25.0689 20.8738L24.8553 20.6631L24.7689 20.7507V20.8738H25.0689ZM6.03506 12.1784C6.03535 13.3835 6.03565 14.5885 6.03565 15.7935H6.63565C6.63565 14.5884 6.63535 13.3833 6.63506 12.1782L6.03506 12.1784ZM6.03643 4.04287C6.03373 6.75509 6.03439 9.46691 6.03506 12.1784L6.63506 12.1782C6.63439 9.4667 6.63373 6.75526 6.63643 4.04347L6.03643 4.04287ZM8.8854 -0.0657825C7.09101 0.517595 6.03892 2.08181 6.03643 4.04279L6.63643 4.04355C6.63862 2.3159 7.54753 1.00009 9.07091 0.504819L8.8854 -0.0657825ZM10.3563 -0.289654C9.86892 -0.288828 9.35642 -0.218834 8.88544 -0.0657973L9.07086 0.504834C9.47422 0.37377 9.92348 0.31108 10.3573 0.310345L10.3563 -0.289654ZM33.9748 -0.295899C26.1018 -0.302143 18.2295 -0.302143 10.3563 -0.289654L10.3573 0.310345C18.2298 0.297858 26.1016 0.297857 33.9743 0.304101L33.9748 -0.295899ZM38.2941 4.00306C38.2929 2.7551 37.8505 1.67689 37.0791 0.909996C36.3078 0.143231 35.2251 -0.295071 33.9748 -0.295899L33.9744 0.304101C35.0816 0.304834 36.0075 0.690737 36.6561 1.3355C37.3045 1.98013 37.693 2.90077 37.6941 4.00366L38.2941 4.00306ZM38.2941 27.6605C38.302 19.7749 38.302 11.8886 38.2941 4.00307L37.6941 4.00366C37.702 11.8888 37.702 19.7747 37.6941 27.6599L38.2941 27.6605ZM33.9756 31.9618C35.2256 31.961 36.3081 31.5222 37.0793 30.7549C37.8505 29.9876 38.2929 28.9088 38.2941 27.6605L37.6941 27.6599C37.693 28.7632 37.3044 29.6845 36.6561 30.3296C36.0076 30.9749 35.0819 31.3611 33.9752 31.3618L33.9756 31.9618ZM19.5304 31.9662C24.3454 31.9671 29.1604 31.9656 33.9756 31.9618L33.9751 31.3618C29.1601 31.3656 24.3453 31.3671 19.5305 31.3662L19.5304 31.9662ZM19.5535 29.9557C19.4958 30.5143 19.3905 31.0586 19.2418 31.5846L19.8191 31.7479C19.9772 31.1889 20.0891 30.6106 20.1503 30.0173L19.5535 29.9557ZM27.8569 29.6857C25.1886 29.6861 22.5202 29.6864 19.8519 29.6865L19.8519 30.2865C22.5203 30.2864 25.1887 30.2861 27.857 30.2857L27.8569 29.6857ZM31.3422 29.6853L27.8569 29.6857L27.857 30.2857L31.3423 30.2853L31.3422 29.6853ZM31.5687 29.673C31.4857 29.6796 31.4129 29.6853 31.3422 29.6853V30.2853C31.4409 30.2853 31.5375 30.2774 31.6167 30.271L31.5687 29.673ZM31.5927 29.672H31.5927V30.272H31.5927V29.672ZM31.6243 29.6686C31.6056 29.67 31.5869 29.6715 31.5687 29.673L31.6167 30.271C31.6351 30.2696 31.6526 30.2682 31.6697 30.2669L31.6243 29.6686ZM31.6777 29.6648C31.6597 29.666 31.6418 29.6672 31.6243 29.6686L31.6697 30.2669C31.6857 30.2656 31.7009 30.2646 31.7156 30.2636L31.6777 29.6648ZM22.5587 21.2508L31.4845 30.1764L31.9088 29.7521L22.983 20.8265L22.5587 21.2508ZM13.5912 12.2835L22.5587 21.2508L22.983 20.8265L14.0155 11.8592L13.5912 12.2835ZM13.6674 12.3388L13.669 12.3396L13.9377 11.8031L13.9362 11.8024L13.6674 12.3388ZM13.966 12.3227C13.9698 12.3198 13.9829 12.3102 13.9938 12.3011L13.6098 11.8401C13.6116 11.8386 13.6128 11.8376 13.6131 11.8374C13.6134 11.8371 13.6134 11.8371 13.6128 11.8376C13.6114 11.8387 13.6095 11.8401 13.6057 11.8429L13.966 12.3227ZM13.9233 12.3577C13.9265 12.3544 13.9319 12.3495 13.9399 12.3429C13.948 12.3363 13.956 12.3303 13.966 12.3227L13.6058 11.8429C13.5874 11.8567 13.5393 11.8922 13.4945 11.938L13.9233 12.3577ZM13.1128 13.1675L13.9209 12.3601L13.4969 11.9356L12.6887 12.7431L13.1128 13.1675ZM8.40931 17.8862C9.96995 16.3072 11.5409 14.7378 13.1128 13.1675L12.6887 12.7431C11.1171 14.3131 9.54477 15.8839 7.98257 17.4644L8.40931 17.8862ZM8.32264 18.192C8.32264 18.1344 8.33244 18.0645 8.35217 18.001C8.37296 17.934 8.39709 17.8985 8.40876 17.8868L7.98312 17.4639C7.87847 17.5692 7.81595 17.7046 7.77917 17.823C7.74132 17.9449 7.72264 18.0748 7.72264 18.192H8.32264ZM8.31978 19.1882C8.32062 18.8565 8.32156 18.5247 8.32263 18.193L7.72264 18.191C7.72157 18.5229 7.72062 18.8548 7.71978 19.1867L8.31978 19.1882ZM6.4432 19.9576C6.9673 19.753 7.51367 19.5928 8.07772 19.4818L7.96185 18.8931C7.36252 19.0111 6.7819 19.1813 6.22496 19.3987L6.4432 19.9576ZM6.03419 19.2725C6.03415 19.4077 6.03411 19.5429 6.03408 19.6781L6.63408 19.6783C6.63411 19.5431 6.63415 19.4079 6.63419 19.2727L6.03419 19.2725ZM6.03487 15.7935C6.03487 16.9532 6.03453 18.1129 6.03419 19.2725L6.63419 19.2727C6.63453 18.1131 6.63487 16.9533 6.63487 15.7935H6.03487ZM6.33565 15.4935H6.33487V16.0935H6.33565V15.4935ZM7.96805 15.0943L7.96804 15.0943L8.40576 15.5046L8.40577 15.5046L7.96805 15.0943ZM8.17509 14.8984C8.11932 14.9542 8.06064 15.0081 7.98404 15.0784L8.38977 15.5205C8.46439 15.452 8.53285 15.3892 8.59931 15.3228L8.17509 14.8984ZM10.9731 12.1007C10.0405 13.0335 9.10793 13.9663 8.17514 14.8984L8.59926 15.3228C9.53216 14.3906 10.4648 13.4577 11.3974 12.5249L10.9731 12.1007ZM12.8395 10.2342C12.2172 10.8563 11.5951 11.4785 10.9731 12.1007L11.3974 12.5249C12.0195 11.9028 12.6415 11.2806 13.2637 10.6585L12.8395 10.2342ZM14.8439 10.2367C14.5348 9.92722 14.214 9.69987 13.8414 9.69943C13.4685 9.69898 13.1479 9.92582 12.8395 10.2342L13.2637 10.6585C13.5517 10.3706 13.7221 10.2993 13.8407 10.2994C13.9595 10.2996 14.1305 10.3715 14.4194 10.6607L14.8439 10.2367ZM16.2104 11.6032L14.8438 10.2366L14.4195 10.6608L15.7861 12.0274L16.2104 11.6032ZM16.2115 11.6044L16.2104 11.6032L15.7861 12.0275L15.7873 12.0286L16.2115 11.6044ZM23.7286 19.1275C21.2251 16.6178 18.7183 14.111 16.2115 11.6044L15.7873 12.0286C18.294 14.5354 20.8006 17.0419 23.3038 19.5512L23.7286 19.1275ZM23.9493 19.4351C23.8923 19.3399 23.8246 19.2234 23.7283 19.1272L23.3041 19.5515C23.3378 19.5851 23.3676 19.6316 23.4346 19.7434L23.9493 19.4351ZM23.9464 19.4303L23.9464 19.4303L23.4376 19.7483L23.4376 19.7483L23.9464 19.4303ZM24.0588 19.6116C24.0171 19.5481 23.9828 19.491 23.9494 19.4351L23.4347 19.7435C23.4679 19.799 23.508 19.866 23.5575 19.9412L24.0588 19.6116ZM23.7104 19.4055C23.6708 19.4596 23.6261 19.5207 23.57 19.594L24.0464 19.9588C24.1069 19.8797 24.1551 19.8138 24.1948 19.7595L23.7104 19.4055ZM23.9183 19.1476C23.8411 19.2255 23.7778 19.3132 23.7104 19.4055L24.1947 19.7596C24.2696 19.6571 24.3053 19.6095 24.3444 19.5701L23.9183 19.1476ZM26.7947 16.2674C25.8356 17.2265 24.8763 18.1857 23.9188 19.1471L24.3439 19.5705C25.3009 18.6096 26.2597 17.6508 27.2189 16.6917L26.7947 16.2674ZM27.7538 15.3082L26.7947 16.2675L27.2189 16.6917L28.1781 15.7325L27.7538 15.3082ZM29.8964 15.2951C29.5557 14.9541 29.2204 14.6917 28.8267 14.6948C28.4355 14.6979 28.099 14.9631 27.7538 15.3082L28.178 15.7325C28.5299 15.3807 28.7095 15.2958 28.8315 15.2948C28.9511 15.2938 29.1263 15.3732 29.4719 15.7191L29.8964 15.2951ZM29.9115 15.3102L29.8963 15.295L29.472 15.7192L29.4872 15.7345L29.9115 15.3102ZM36.1617 21.5599C34.0778 19.4772 31.9947 17.3937 29.9115 15.3102L29.4872 15.7344C31.5704 17.818 33.6536 19.9015 35.7376 21.9843L36.1617 21.5599ZM36.3646 21.7517C36.2833 21.6768 36.2211 21.6193 36.1617 21.56L35.7375 21.9843C35.807 22.0538 35.8784 22.1196 35.9578 22.1928L36.3646 21.7517ZM36.3588 21.7465L36.3587 21.7465L35.9636 22.198L35.9637 22.1981L36.3588 21.7465ZM36.4988 21.8762C36.4494 21.83 36.4049 21.7889 36.3647 21.7518L35.9579 22.1928C35.9983 22.2301 36.0413 22.2698 36.089 22.3144L36.4988 21.8762ZM36.0057 21.9179C36.0022 21.9641 35.9983 22.0166 35.9945 22.0764L36.5933 22.1141C36.5968 22.0584 36.6005 22.0092 36.604 21.9629L36.0057 21.9179ZM36.0059 21.9154L36.0059 21.9155L36.6038 21.9653L36.6038 21.9653L36.0059 21.9154ZM36.0173 21.7003C36.0173 21.7608 36.0128 21.823 36.0057 21.9179L36.604 21.9628C36.6107 21.8731 36.6173 21.7875 36.6173 21.7003H36.0173ZM36.0177 18.7495L36.0173 21.7003L36.6173 21.7004L36.6177 18.7496L36.0177 18.7495ZM36.0173 4.01753C36.0193 8.92816 36.0185 13.8388 36.0177 18.7495L36.6177 18.7496C36.6185 13.8389 36.6193 8.92811 36.6173 4.01729L36.0173 4.01753ZM33.9855 1.98139C34.647 1.98139 35.1472 2.18286 35.4815 2.51783C35.816 2.85286 36.0173 3.35422 36.0173 4.01741H36.6173C36.6173 3.23122 36.376 2.56457 35.9062 2.09393C35.4363 1.62323 34.7706 1.38139 33.9855 1.38139V1.98139ZM10.3311 1.98295C18.2156 1.97983 26.1009 1.97905 33.9854 1.98139L33.9856 1.38139C26.1009 1.37905 18.2155 1.37983 10.3309 1.38295L10.3311 1.98295ZM9.74264 2.03327C9.91853 1.99125 10.115 1.98295 10.331 1.98295V1.38295C10.1083 1.38295 9.852 1.39026 9.60322 1.4497L9.74264 2.03327ZM8.31561 3.99596C8.31701 2.95858 8.85986 2.24643 9.74335 2.0331L9.60252 1.44987C8.41728 1.73606 7.71733 2.71603 7.71561 3.99515L8.31561 3.99596ZM8.31561 15.0028C8.31405 11.3331 8.31249 7.66444 8.31561 3.99581L7.71561 3.9953C7.71249 7.66438 7.71405 11.3334 7.71561 15.003L8.31561 15.0028ZM8.31561 15.0035L8.31561 15.0028L7.71561 15.003L7.71561 15.0038L8.31561 15.0035ZM8.326 15.243C8.31985 15.1432 8.31561 15.0728 8.31561 15.0037H7.71561C7.71561 15.0946 7.72123 15.1842 7.72713 15.2799L8.326 15.243ZM8.3263 15.249L8.3263 15.249L7.72682 15.2739L7.72682 15.274L8.3263 15.249ZM8.32598 15.2428L8.32598 15.2428L7.72715 15.2802L7.72715 15.2802L8.32598 15.2428ZM8.33632 15.4235C8.33293 15.3555 8.32925 15.2958 8.326 15.243L7.72713 15.2799C7.7304 15.3329 7.73387 15.3893 7.73706 15.4533L8.33632 15.4235ZM7.98403 15.0785C7.93898 15.1198 7.88854 15.1661 7.83156 15.2195L8.24181 15.6573C8.29626 15.6063 8.34461 15.5619 8.38977 15.5205L7.98403 15.0785ZM25.3144 20.7012L25.3034 20.6874L24.8345 21.0618L24.8455 21.0756L25.3144 20.7012ZM25.3614 20.7568C25.3466 20.7417 25.3314 20.7228 25.3157 20.7028L24.8443 21.074C24.8588 21.0924 24.8923 21.1353 24.9326 21.1765L25.3614 20.7568ZM27.566 22.962C26.8303 22.2262 26.0947 21.4905 25.3592 20.7546L24.9348 21.1787C25.6703 21.9147 26.4061 22.6505 27.1418 23.3863L27.566 22.962ZM34.1833 29.5903C31.9809 27.3772 29.7734 25.1695 27.566 22.962L27.1418 23.3863C29.3492 25.5938 31.5562 27.801 33.758 30.0135L34.1833 29.5903ZM34.5462 29.6484C34.4385 29.6719 34.3739 29.6777 34.3245 29.6704C34.2865 29.6648 34.2422 29.6494 34.1832 29.5901L33.7582 30.0136C33.9029 30.1589 34.0635 30.2383 34.2369 30.2639C34.3988 30.2878 34.5521 30.2612 34.6738 30.2347L34.5462 29.6484ZM36.0127 27.8359C35.9964 28.7462 35.4015 29.4629 34.5464 29.6484L34.6736 30.2348C35.8045 29.9894 36.5914 29.0312 36.6126 27.8466L36.0127 27.8359ZM36.0193 26.3115C36.0204 26.8223 36.0215 27.3295 36.0127 27.8361L36.6126 27.8465C36.6215 27.3331 36.6204 26.82 36.6193 26.3102L36.0193 26.3115ZM36.0193 26.3108V26.3108H36.6193V26.3108H36.0193ZM36.0244 24.8709C36.0171 25.3524 36.0182 25.8335 36.0193 26.3115L36.6193 26.3101C36.6182 25.8313 36.6172 25.3554 36.6243 24.8799L36.0244 24.8709ZM35.8465 24.4402C35.9214 24.5148 35.9628 24.5775 35.9873 24.637C36.0116 24.6961 36.0259 24.7683 36.0244 24.871L36.6243 24.8798C36.6267 24.7147 36.6039 24.5587 36.5421 24.4086C36.4805 24.2589 36.3869 24.1316 36.2698 24.015L35.8465 24.4402ZM29.4413 18.041C31.5733 20.1772 33.7056 22.313 35.8467 24.4404L36.2696 24.0148C34.1296 21.8884 31.998 19.7534 29.866 17.6171L29.4413 18.041ZM28.9107 17.4811C29.0815 17.6663 29.2573 17.857 29.4416 18.0412L29.8658 17.6169C29.6916 17.4427 29.5239 17.261 29.3517 17.0743L28.9107 17.4811ZM28.9007 17.4697L28.9007 17.4697L29.3616 17.0856L29.3616 17.0856L28.9007 17.4697ZM28.9107 17.4812L28.911 17.4815L29.3513 17.0738L29.351 17.0735L28.9107 17.4812ZM28.6623 17.2135C28.7449 17.3014 28.827 17.3904 28.9103 17.4807L29.3514 17.074C29.2684 16.984 29.1844 16.8929 29.0994 16.8025L28.6623 17.2135ZM27.0373 19.3048C27.7182 18.6141 28.4004 17.9222 29.0944 17.2187L28.6673 16.7973C27.9732 17.5009 27.291 18.1929 26.61 18.8836L27.0373 19.3048ZM27.0326 19.3096L27.0372 19.3049L26.6101 18.8835L26.6055 18.8882L27.0326 19.3096ZM25.2825 21.0844C25.8693 20.4895 26.4506 19.8999 27.0327 19.3095L26.6054 18.8883C26.0233 19.4787 25.4421 20.0682 24.8553 20.6631L25.2825 21.0844ZM25.3689 20.8746V20.8738H24.7689V20.8746H25.3689Z" fill="#F2F3F7" mask="url(#path-1-inside-1_609_5044)"/>
</g>
<g id="Vector">
<mask id="path-3-inside-2_609_5044" fill="white">
<path d="M34.6583 8.33979C34.656 10.1685 33.1509 11.678 31.3351 11.6725C29.4818 11.667 28.0017 10.1732 28.0056 8.31247C28.0095 6.48377 29.5201 4.98366 31.3413 4.99927C33.1758 5.01566 34.6599 6.51031 34.6575 8.33979H34.6583ZM31.3304 6.68045C30.4108 6.67499 29.6621 7.41646 29.6637 8.33198C29.6653 9.25375 30.403 9.99054 31.3234 9.99054C32.2523 9.99054 32.99 9.26077 32.9932 8.33979C32.9963 7.42271 32.2578 6.6867 31.3304 6.68045V6.68045Z"/>
</mask>
<path d="M34.6583 8.33979C34.656 10.1685 33.1509 11.678 31.3351 11.6725C29.4818 11.667 28.0017 10.1732 28.0056 8.31247C28.0095 6.48377 29.5201 4.98366 31.3413 4.99927C33.1758 5.01566 34.6599 6.51031 34.6575 8.33979H34.6583ZM31.3304 6.68045C30.4108 6.67499 29.6621 7.41646 29.6637 8.33198C29.6653 9.25375 30.403 9.99054 31.3234 9.99054C32.2523 9.99054 32.99 9.26077 32.9932 8.33979C32.9963 7.42271 32.2578 6.6867 31.3304 6.68045V6.68045Z" fill="url(#paint1_linear_609_5044)" stroke="#F2F3F7" stroke-width="0.6" mask="url(#path-3-inside-2_609_5044)"/>
</g>
</g>
<circle id="Ellipse 95" cx="9.95232" cy="28.9522" r="9.45232" stroke="url(#paint2_linear_609_5044)"/>
<path id="Polygon 1" d="M13.6309 29.4757L7.80948 32.8366C7.47615 33.0291 7.05948 32.7885 7.05948 32.4036V25.6817C7.05948 25.2968 7.47615 25.0562 7.80948 25.2487L13.6309 28.6096C13.9642 28.8021 13.9642 29.2832 13.6309 29.4757Z" stroke="url(#paint3_linear_609_5044)" stroke-linejoin="round"/>
</g>
<defs>
<linearGradient id="paint0_linear_609_5044" x1="22.167" y1="0" x2="22.167" y2="31.6665" gradientUnits="userSpaceOnUse">
<stop stop-color="#4669E3"/>
<stop offset="1" stop-color="#20BDFF"/>
</linearGradient>
<linearGradient id="paint1_linear_609_5044" x1="31.3319" y1="4.99915" x2="31.3319" y2="11.6725" gradientUnits="userSpaceOnUse">
<stop stop-color="#4669E3"/>
<stop offset="1" stop-color="#20BDFF"/>
</linearGradient>
<linearGradient id="paint2_linear_609_5044" x1="9.95232" y1="18.9999" x2="9.95232" y2="38.9045" gradientUnits="userSpaceOnUse">
<stop stop-color="#4669E3"/>
<stop offset="1" stop-color="#20BDFF"/>
</linearGradient>
<linearGradient id="paint3_linear_609_5044" x1="15.3809" y1="29.0427" x2="3.61902" y2="29.0427" gradientUnits="userSpaceOnUse">
<stop stop-color="#4669E3"/>
<stop offset="1" stop-color="#20BDFF"/>
</linearGradient>
</defs>
</svg>
