<svg width="35" height="32" viewBox="0 0 35 32" fill="none" xmlns="http://www.w3.org/2000/svg">
<g id="playslit-gradient">
<g id="Vector">
<mask id="path-1-inside-1_609_5015" fill="white">
<path d="M0 5.16309C0.201763 4.70365 0.519471 4.38768 1.07272 4.40352C1.56754 4.41761 1.97746 4.79519 2.04228 5.26783C2.10436 5.72022 1.80765 6.17349 1.35026 6.32224C0.881914 6.47538 0.369747 6.27823 0.125988 5.85136C0.0839918 5.77655 0.0419959 5.70086 0 5.62516V5.16309Z"/>
</mask>
<path d="M0 5.16309C0.201763 4.70365 0.519471 4.38768 1.07272 4.40352C1.56754 4.41761 1.97746 4.79519 2.04228 5.26783C2.10436 5.72022 1.80765 6.17349 1.35026 6.32224C0.881914 6.47538 0.369747 6.27823 0.125988 5.85136C0.0839918 5.77655 0.0419959 5.70086 0 5.62516V5.16309Z" fill="url(#paint0_linear_609_5015)" stroke="#F2F3F7" stroke-width="0.8" mask="url(#path-1-inside-1_609_5015)"/>
</g>
<g id="Vector_2">
<mask id="path-2-inside-2_609_5015" fill="white">
<path d="M32.9202 17.1058C32.0237 17.4631 31.1546 17.8099 30.2855 18.1567C28.0998 19.0271 25.9161 19.902 23.725 20.7584C23.442 20.8693 23.3707 21.0074 23.3717 21.2882C23.3844 23.6752 23.3689 26.0621 23.3826 28.4482C23.3899 29.7482 22.8157 30.682 21.6571 31.3412C20.7058 31.8825 19.7436 32.1606 18.6709 31.7681C17.5561 31.3606 16.8687 30.5755 16.6907 29.4436C16.5044 28.259 16.928 27.2644 17.9478 26.5664C18.7037 26.0489 19.5108 25.6044 20.4977 25.6933C20.7661 25.718 21.0318 25.769 21.3294 25.813V25.4135C21.3294 22.4438 21.3294 19.4742 21.3294 16.5046C21.3294 15.7794 21.5028 15.5347 22.1994 15.2575C25.9197 13.7762 29.6473 12.3134 33.353 10.7987C34.2705 10.4237 35.0073 10.9791 35 11.8601C34.9671 15.8084 34.9726 19.7576 34.9927 23.706C35 25.0948 34.4248 26.0947 33.1613 26.7768C32.2848 27.2494 31.4029 27.5091 30.4242 27.2001C29.2273 26.8226 28.4842 26.0234 28.2934 24.8176C28.0971 23.5827 28.5718 22.5908 29.6373 21.8894C30.3667 21.4097 31.1354 20.996 32.0694 21.0735C32.3506 21.0972 32.6281 21.1509 32.9221 21.1932V17.1066L32.9202 17.1058ZM32.9339 13.139C32.7915 13.19 32.6865 13.2235 32.5852 13.2639C31.9014 13.5341 31.2176 13.8061 30.5347 14.0781C28.2441 14.9908 25.9526 15.9026 23.6647 16.8215C23.5561 16.8655 23.3963 16.9693 23.3927 17.0503C23.3689 17.603 23.3799 18.1575 23.3799 18.7543C23.6446 18.6522 23.8546 18.5738 24.0628 18.4911C26.9322 17.3487 29.8016 16.2071 32.6674 15.0586C32.7733 15.0163 32.9193 14.901 32.923 14.8139C32.9467 14.2682 32.9349 13.7216 32.9349 13.139H32.9339ZM31.3226 25.3545C31.7188 25.3518 32.5861 24.8642 32.7879 24.5307C33.0106 24.1619 32.9686 23.7209 32.6801 23.3935C32.398 23.074 31.9315 22.9473 31.5353 23.1224C31.2368 23.2545 30.9455 23.4138 30.6808 23.5986C30.3284 23.845 30.2106 24.2983 30.3503 24.6953C30.4845 25.0746 30.9008 25.3571 31.3226 25.3545V25.3545ZM21.3248 28.7703C21.3193 27.9377 20.5735 27.4615 19.9024 27.7511C19.634 27.8673 19.3738 28.0116 19.1337 28.1762C18.5211 28.5934 18.5659 29.4815 19.204 29.8371C19.7728 30.153 20.2229 29.8432 20.6903 29.5862C21.0756 29.375 21.3184 29.0881 21.3239 28.7703H21.3248Z"/>
</mask>
<path d="M32.9202 17.1058C32.0237 17.4631 31.1546 17.8099 30.2855 18.1567C28.0998 19.0271 25.9161 19.902 23.725 20.7584C23.442 20.8693 23.3707 21.0074 23.3717 21.2882C23.3844 23.6752 23.3689 26.0621 23.3826 28.4482C23.3899 29.7482 22.8157 30.682 21.6571 31.3412C20.7058 31.8825 19.7436 32.1606 18.6709 31.7681C17.5561 31.3606 16.8687 30.5755 16.6907 29.4436C16.5044 28.259 16.928 27.2644 17.9478 26.5664C18.7037 26.0489 19.5108 25.6044 20.4977 25.6933C20.7661 25.718 21.0318 25.769 21.3294 25.813V25.4135C21.3294 22.4438 21.3294 19.4742 21.3294 16.5046C21.3294 15.7794 21.5028 15.5347 22.1994 15.2575C25.9197 13.7762 29.6473 12.3134 33.353 10.7987C34.2705 10.4237 35.0073 10.9791 35 11.8601C34.9671 15.8084 34.9726 19.7576 34.9927 23.706C35 25.0948 34.4248 26.0947 33.1613 26.7768C32.2848 27.2494 31.4029 27.5091 30.4242 27.2001C29.2273 26.8226 28.4842 26.0234 28.2934 24.8176C28.0971 23.5827 28.5718 22.5908 29.6373 21.8894C30.3667 21.4097 31.1354 20.996 32.0694 21.0735C32.3506 21.0972 32.6281 21.1509 32.9221 21.1932V17.1066L32.9202 17.1058ZM32.9339 13.139C32.7915 13.19 32.6865 13.2235 32.5852 13.2639C31.9014 13.5341 31.2176 13.8061 30.5347 14.0781C28.2441 14.9908 25.9526 15.9026 23.6647 16.8215C23.5561 16.8655 23.3963 16.9693 23.3927 17.0503C23.3689 17.603 23.3799 18.1575 23.3799 18.7543C23.6446 18.6522 23.8546 18.5738 24.0628 18.4911C26.9322 17.3487 29.8016 16.2071 32.6674 15.0586C32.7733 15.0163 32.9193 14.901 32.923 14.8139C32.9467 14.2682 32.9349 13.7216 32.9349 13.139H32.9339ZM31.3226 25.3545C31.7188 25.3518 32.5861 24.8642 32.7879 24.5307C33.0106 24.1619 32.9686 23.7209 32.6801 23.3935C32.398 23.074 31.9315 22.9473 31.5353 23.1224C31.2368 23.2545 30.9455 23.4138 30.6808 23.5986C30.3284 23.845 30.2106 24.2983 30.3503 24.6953C30.4845 25.0746 30.9008 25.3571 31.3226 25.3545V25.3545ZM21.3248 28.7703C21.3193 27.9377 20.5735 27.4615 19.9024 27.7511C19.634 27.8673 19.3738 28.0116 19.1337 28.1762C18.5211 28.5934 18.5659 29.4815 19.204 29.8371C19.7728 30.153 20.2229 29.8432 20.6903 29.5862C21.0756 29.375 21.3184 29.0881 21.3239 28.7703H21.3248Z" fill="url(#paint1_linear_609_5015)" stroke="#F2F3F7" stroke-width="0.8" mask="url(#path-2-inside-2_609_5015)"/>
</g>
<g id="Vector_3">
<mask id="path-3-inside-3_609_5015" fill="white">
<path d="M9.24088 4.20547V4.47391C9.24088 7.68556 9.23175 10.8972 9.24544 14.1089C9.25092 15.4097 8.67758 16.3418 7.51722 17.0001C6.5997 17.5203 5.67031 17.8002 4.6268 17.456C3.46918 17.0741 2.75707 16.2854 2.55805 15.1307C2.36176 13.9918 2.74155 13.006 3.70655 12.3037C4.52364 11.7087 5.40921 11.2273 6.5011 11.3654C6.71382 11.3927 6.92471 11.4359 7.19038 11.4807C7.19038 11.3514 7.19038 11.2273 7.19038 11.1023C7.19038 8.13267 7.19038 5.16306 7.19038 2.19258C7.19038 1.24026 7.68246 0.846835 8.67028 0.976217C9.48555 1.08271 10.089 1.47702 10.509 2.14857C10.6213 2.32724 10.7354 2.50503 10.8294 2.6925C11.1553 3.34204 11.7442 3.53392 12.428 3.57616C12.6873 3.59201 12.9566 3.58672 13.2031 3.6545C13.6623 3.78036 13.9262 4.20811 13.8823 4.67722C13.8422 5.11378 13.4925 5.52216 13.0388 5.54593C11.9259 5.60402 10.8559 5.45175 9.94385 4.75468C9.69553 4.56545 9.45086 4.37181 9.23814 4.20635L9.24088 4.20547ZM7.18125 14.3078C7.18399 13.6001 6.44358 13.1213 5.77165 13.41C5.4932 13.5297 5.22114 13.6776 4.97555 13.8518C4.37118 14.2796 4.44239 15.1668 5.09332 15.5074C5.79539 15.8744 7.121 15.1756 7.18216 14.4063C7.1849 14.3738 7.18216 14.3403 7.18216 14.3078H7.18125Z"/>
</mask>
<path d="M9.24088 4.20547V4.47391C9.24088 7.68556 9.23175 10.8972 9.24544 14.1089C9.25092 15.4097 8.67758 16.3418 7.51722 17.0001C6.5997 17.5203 5.67031 17.8002 4.6268 17.456C3.46918 17.0741 2.75707 16.2854 2.55805 15.1307C2.36176 13.9918 2.74155 13.006 3.70655 12.3037C4.52364 11.7087 5.40921 11.2273 6.5011 11.3654C6.71382 11.3927 6.92471 11.4359 7.19038 11.4807C7.19038 11.3514 7.19038 11.2273 7.19038 11.1023C7.19038 8.13267 7.19038 5.16306 7.19038 2.19258C7.19038 1.24026 7.68246 0.846835 8.67028 0.976217C9.48555 1.08271 10.089 1.47702 10.509 2.14857C10.6213 2.32724 10.7354 2.50503 10.8294 2.6925C11.1553 3.34204 11.7442 3.53392 12.428 3.57616C12.6873 3.59201 12.9566 3.58672 13.2031 3.6545C13.6623 3.78036 13.9262 4.20811 13.8823 4.67722C13.8422 5.11378 13.4925 5.52216 13.0388 5.54593C11.9259 5.60402 10.8559 5.45175 9.94385 4.75468C9.69553 4.56545 9.45086 4.37181 9.23814 4.20635L9.24088 4.20547ZM7.18125 14.3078C7.18399 13.6001 6.44358 13.1213 5.77165 13.41C5.4932 13.5297 5.22114 13.6776 4.97555 13.8518C4.37118 14.2796 4.44239 15.1668 5.09332 15.5074C5.79539 15.8744 7.121 15.1756 7.18216 14.4063C7.1849 14.3738 7.18216 14.3403 7.18216 14.3078H7.18125Z" fill="url(#paint2_linear_609_5015)" stroke="#F2F3F7" stroke-width="0.8" mask="url(#path-3-inside-3_609_5015)"/>
</g>
<g id="Vector_4">
<mask id="path-4-inside-4_609_5015" fill="white">
<path d="M13.0178 25.4583C12.3286 25.5754 11.6256 25.6414 10.9546 25.8227C10.1585 26.0374 9.53036 26.54 9.00358 27.1543C7.64693 28.7351 5.8968 29.5079 3.77783 29.5131C3.34509 29.514 2.91235 29.5184 2.47961 29.5123C1.82776 29.5026 1.35941 29.0722 1.37037 28.5018C1.38132 27.9342 1.83232 27.5434 2.48052 27.5328C3.12872 27.5231 3.78057 27.5451 4.42511 27.4888C5.62747 27.3841 6.61073 26.8428 7.37578 25.945C8.3992 24.7463 9.67734 23.926 11.2704 23.6963C12.219 23.559 13.1986 23.5845 14.1636 23.5942C14.6758 23.5994 15.0601 24.1099 15.0327 24.6081C15.0044 25.1177 14.5808 25.5226 14.0267 25.5481C13.6971 25.563 13.3666 25.5507 13.0361 25.5507L13.0188 25.4583H13.0178Z"/>
</mask>
<path d="M13.0178 25.4583C12.3286 25.5754 11.6256 25.6414 10.9546 25.8227C10.1585 26.0374 9.53036 26.54 9.00358 27.1543C7.64693 28.7351 5.8968 29.5079 3.77783 29.5131C3.34509 29.514 2.91235 29.5184 2.47961 29.5123C1.82776 29.5026 1.35941 29.0722 1.37037 28.5018C1.38132 27.9342 1.83232 27.5434 2.48052 27.5328C3.12872 27.5231 3.78057 27.5451 4.42511 27.4888C5.62747 27.3841 6.61073 26.8428 7.37578 25.945C8.3992 24.7463 9.67734 23.926 11.2704 23.6963C12.219 23.559 13.1986 23.5845 14.1636 23.5942C14.6758 23.5994 15.0601 24.1099 15.0327 24.6081C15.0044 25.1177 14.5808 25.5226 14.0267 25.5481C13.6971 25.563 13.3666 25.5507 13.0361 25.5507L13.0188 25.4583H13.0178Z" fill="url(#paint3_linear_609_5015)" stroke="#F2F3F7" stroke-width="0.8" mask="url(#path-4-inside-4_609_5015)"/>
</g>
<g id="Vector_5">
<mask id="path-5-inside-5_609_5015" fill="white">
<path d="M23.3114 9.38862C22.9928 9.38862 22.6732 9.39654 22.3546 9.38686C21.7685 9.36926 21.3284 8.94502 21.3248 8.40462C21.3211 7.85365 21.774 7.42502 22.3774 7.40917C23.1051 7.39069 23.8382 7.41973 24.5585 7.34316C25.6568 7.2261 26.5697 6.7121 27.269 5.89268C28.706 4.20809 30.5411 3.39307 32.797 3.44676C33.1722 3.45556 33.5483 3.44324 33.9245 3.4494C34.5325 3.45997 34.9844 3.88155 34.9872 4.43341C34.9908 4.9879 34.5435 5.41213 33.9354 5.42709C33.2306 5.44469 32.5204 5.41389 31.821 5.4843C30.6588 5.60224 29.7167 6.15233 28.9744 7.01927C27.9428 8.22595 26.6464 9.0128 25.0433 9.2786C24.4745 9.37278 23.8902 9.37982 23.3132 9.42734L23.3096 9.38774L23.3114 9.38862Z"/>
</mask>
<path d="M23.3114 9.38862C22.9928 9.38862 22.6732 9.39654 22.3546 9.38686C21.7685 9.36926 21.3284 8.94502 21.3248 8.40462C21.3211 7.85365 21.774 7.42502 22.3774 7.40917C23.1051 7.39069 23.8382 7.41973 24.5585 7.34316C25.6568 7.2261 26.5697 6.7121 27.269 5.89268C28.706 4.20809 30.5411 3.39307 32.797 3.44676C33.1722 3.45556 33.5483 3.44324 33.9245 3.4494C34.5325 3.45997 34.9844 3.88155 34.9872 4.43341C34.9908 4.9879 34.5435 5.41213 33.9354 5.42709C33.2306 5.44469 32.5204 5.41389 31.821 5.4843C30.6588 5.60224 29.7167 6.15233 28.9744 7.01927C27.9428 8.22595 26.6464 9.0128 25.0433 9.2786C24.4745 9.37278 23.8902 9.37982 23.3132 9.42734L23.3096 9.38774L23.3114 9.38862Z" fill="url(#paint4_linear_609_5015)" stroke="#F2F3F7" stroke-width="0.8" mask="url(#path-5-inside-5_609_5015)"/>
</g>
<g id="Vector_6">
<mask id="path-6-inside-6_609_5015" fill="white">
<path d="M14.9624 15.6385C15.5303 15.6333 15.9886 16.0663 15.9931 16.6111C15.9977 17.1524 15.5421 17.603 14.9825 17.6101C14.4292 17.6171 13.9527 17.1665 13.9463 16.6313C13.9399 16.0936 14.4 15.6438 14.9624 15.6385Z"/>
</mask>
<path d="M14.9624 15.6385C15.5303 15.6333 15.9886 16.0663 15.9931 16.6111C15.9977 17.1524 15.5421 17.603 14.9825 17.6101C14.4292 17.6171 13.9527 17.1665 13.9463 16.6313C13.9399 16.0936 14.4 15.6438 14.9624 15.6385Z" fill="url(#paint5_linear_609_5015)" stroke="#F2F3F7" stroke-width="0.8" mask="url(#path-6-inside-6_609_5015)"/>
</g>
</g>
<defs>
<linearGradient id="paint0_linear_609_5015" x1="1.02523" y1="4.40295" x2="1.02523" y2="6.37379" gradientUnits="userSpaceOnUse">
<stop stop-color="#4669E3"/>
<stop offset="1" stop-color="#20BDFF"/>
</linearGradient>
<linearGradient id="paint1_linear_609_5015" x1="25.824" y1="10.6798" x2="25.824" y2="31.9523" gradientUnits="userSpaceOnUse">
<stop stop-color="#4669E3"/>
<stop offset="1" stop-color="#20BDFF"/>
</linearGradient>
<linearGradient id="paint2_linear_609_5015" x1="8.1975" y1="0.952271" x2="8.1975" y2="17.6077" gradientUnits="userSpaceOnUse">
<stop stop-color="#4669E3"/>
<stop offset="1" stop-color="#20BDFF"/>
</linearGradient>
<linearGradient id="paint3_linear_609_5015" x1="8.20214" y1="23.5858" x2="8.20214" y2="29.5155" gradientUnits="userSpaceOnUse">
<stop stop-color="#4669E3"/>
<stop offset="1" stop-color="#20BDFF"/>
</linearGradient>
<linearGradient id="paint4_linear_609_5015" x1="28.156" y1="3.44427" x2="28.156" y2="9.42734" gradientUnits="userSpaceOnUse">
<stop stop-color="#4669E3"/>
<stop offset="1" stop-color="#20BDFF"/>
</linearGradient>
<linearGradient id="paint5_linear_609_5015" x1="14.9697" y1="15.6385" x2="14.9697" y2="17.6101" gradientUnits="userSpaceOnUse">
<stop stop-color="#4669E3"/>
<stop offset="1" stop-color="#20BDFF"/>
</linearGradient>
</defs>
</svg>
